<?xml version="1.0" encoding="UTF-8"?>
<svg width="782px" height="980px" viewBox="0 0 782 980" version="1.1" xmlns="http://www.w3.org/2000/svg" xmlns:xlink="http://www.w3.org/1999/xlink">
    <!-- Generator: Sketch 41.2 (35397) - http://www.bohemiancoding.com/sketch -->
    <title>Group</title>
    <desc>Created with Sketch.</desc>
    <defs></defs>
    <g id="Page-1" stroke="none" stroke-width="1" fill="none" fill-rule="evenodd">
        <g id="Group" transform="translate(391.100000, 490.000000) scale(1, -1) translate(-391.100000, -490.000000) translate(0.100000, 0.000000)" fill="#FFFFFF">
            <path d="M88.74,975.73 C44.24,962.92 8.5,922.68 2.2,877.73 C-0.72,856.38 -0.72,123.63 2.2,102.28 C7.15,67.66 32.99,30.58 64.01,14.17 C92.33,-0.66 75.25,0.01 391.05,0.01 C644.59,0.01 678.53,0.46 690.89,3.61 C730.45,13.72 762.14,44.29 777.2,87 C780.57,96.89 781.02,124.54 781.47,420.33 C782.14,725.34 781.92,743.32 778.32,750.07 C774.95,755.91 607.72,918.87 555.35,967.2 L541.43,980 L321.83,979.77 C120.88,979.77 101.11,979.33 88.74,975.73 Z M501.2,872.78 C501.2,815.02 503.67,798.83 514.91,775.68 C524.35,756.8 547.28,733.42 565.71,723.98 C590.66,711.39 599.43,710.27 664.61,710.27 L723.73,710.27 L723.73,409.54 C723.73,75.76 724.63,97.56 708.67,78.9 C704.4,73.73 695.63,66.76 689.12,63.39 L677.66,57.32 L395.8,56.65 C150.8,56.2 112.14,56.65 102.25,59.57 C87.41,63.84 71.91,77.33 64.26,92.61 L58.4,104.3 L58.4,490 L58.4,875.71 L64.24,887.4 C71.43,901.79 87.39,916.17 100.88,920.22 C109.42,922.92 144.94,923.59 306.32,923.59 L501.2,923.81 L501.2,872.78 L501.2,872.78 Z" id="Shape"></path>
            <path d="M228.1,855.48 C215.74,849.64 199.78,835.48 194.61,825.36 C188.99,814.35 186.29,798.84 188.54,789.4 C190.11,781.98 189.66,780.18 185.84,777.94 C182.24,775.47 181.79,773.44 182.92,765.8 C183.82,760.63 187.19,750.29 190.79,742.87 C194.39,735.45 198.88,725.34 200.46,720.62 C202.03,715.9 207.2,707.58 211.92,702.19 C222.93,689.83 235.97,684.66 253.73,686.01 C275.53,687.58 290.37,700.17 297.11,722.65 C298.68,727.6 302.5,734.11 305.88,737.26 C313.07,744.23 319.14,766.93 315.32,772.77 C314.2,775.02 313.52,785.36 314.2,797.05 C315.32,820.43 311.73,831.89 301.39,837.06 C298.24,838.86 293.07,842.9 289.93,846.28 C276.2,861.32 249,865.37 228.1,855.48 Z" id="Shape"></path>
            <path d="M181.8,674.76 C170.11,668.92 155.95,662.17 150.33,659.7 C139.54,654.53 131.45,644.42 128.3,631.83 C127.18,627.33 125.38,611.83 124.7,597.44 L123.13,570.92 L249.45,570.92 L375.77,570.92 L374.87,600.81 C374.2,627.56 373.52,632.05 368.35,641.94 C362.06,654.3 359.13,655.88 296.2,685.09 C295.3,685.54 288.78,667.56 281.81,645.31 C274.62,622.83 268.1,604.63 267.43,604.63 C266.76,604.63 263.83,610.7 261.36,617.89 L256.64,631.15 L262.03,641.94 C268.55,654.98 268.77,657.22 262.93,663.07 C254.39,671.61 233.71,666.67 233.71,655.88 C233.71,653.41 235.96,646.89 238.66,641.49 C243.38,631.83 243.38,631.6 239.33,618.11 C237.08,610.47 234.61,603.95 233.71,603.5 C232.81,603.05 230.34,608.45 228.32,615.41 C213.49,663.51 206.07,685.54 204.72,685.31 C204.05,685.33 193.71,680.61 181.8,674.76 Z" id="Shape"></path>
            <path d="M145.16,516.97 C131.45,512.7 122.01,498.09 124.48,484.6 C126.5,474.04 138.64,463.7 151,461.9 C156.39,461.23 269,460.78 401.17,461.23 C669.09,461.9 651.56,460.78 659.43,477.41 C663.92,487.08 663.92,492.92 659.43,502.58 C651.56,519.21 669.77,518.09 396.67,518.54 C261.82,518.77 148.76,518.1 145.16,516.97 Z" id="Shape"></path>
            <path d="M140.22,400.32 C132.8,396.95 130.11,394.03 126.96,385.94 C122.24,373.35 124.94,362.79 135.05,354.02 L142.02,348.4 L392.64,348.4 C624.83,348.4 643.71,348.62 649.77,352.22 C656.74,356.27 663.03,367.28 663.03,375.37 C663.03,383.01 656.51,394.92 649.99,399.42 C644.14,403.24 630.88,403.46 396.68,403.92 C158.65,404.59 148.98,404.37 140.22,400.32 Z" id="Shape"></path>
            <path d="M139.99,286.36 C121.56,277.37 119.09,252.87 135.05,239.38 L142.02,233.76 L393.54,233.76 L645.06,233.76 L653.15,241.18 C667.76,254.44 664.61,277.37 647.31,285.91 C639.89,289.73 623.26,289.96 393.32,289.96 C173.71,289.96 146.51,289.51 139.99,286.36 Z" id="Shape"></path>
            <path d="M137.07,171.28 C120.44,163.19 117.29,142.06 130.33,127.45 L136.62,120.26 L282.95,119.59 L429.28,119.14 L437.37,126.56 C452.66,140.5 448.84,164.32 430.4,172.19 C423.88,174.89 399.61,175.34 283.85,175.34 C156.17,175.33 144.26,175.1 137.07,171.28 Z" id="Shape"></path>
        </g>
    </g>
</svg>