<?xml version="1.0" encoding="UTF-8"?>
<svg width="100px" height="99px" viewBox="0 0 100 99" version="1.1" xmlns="http://www.w3.org/2000/svg" xmlns:xlink="http://www.w3.org/1999/xlink">
    <!-- Generator: Sketch 41.2 (35397) - http://www.bohemiancoding.com/sketch -->
    <title>github-logo</title>
    <desc>Created with Sketch.</desc>
    <defs></defs>
    <g id="github" stroke="none" stroke-width="1" fill="none" fill-rule="evenodd">
        <path d="M92.4772277,25.528249 C88.0455446,17.7827945 82.0316832,11.6504712 74.439604,7.12925912 C66.8435644,2.6070369 58.5554455,0.346430837 49.5633663,0.346430837 C40.5712871,0.346430837 32.2792079,2.6070369 24.6831683,7.12925912 C17.0910891,11.6504712 11.080198,17.7827945 6.64851485,25.528249 C2.21584158,33.2767339 0,41.7363298 0,50.9100672 C0,61.9272389 3.15247525,71.8343096 9.45247525,80.6332995 C15.7564356,89.4322894 23.8980198,95.5242086 33.880198,98.9019864 C35.0405941,99.1231985 35.9029703,98.9696632 36.4594059,98.4444106 C37.0207921,97.9161278 37.2990099,97.2565318 37.2990099,96.467643 C37.2990099,96.3373399 37.2871287,95.1535015 37.2683168,92.9120874 C37.2445545,90.6757238 37.2326733,88.7221884 37.2326733,87.0535015 L35.7514851,87.3171379 C34.8039604,87.4949157 33.6089109,87.5696632 32.170297,87.5464308 C30.7277228,87.5262288 29.2306931,87.3726935 27.6841584,87.0848147 C26.1336634,86.8009763 24.6940594,86.1454207 23.360396,85.1120874 C22.0257426,84.0817844 21.0821782,82.7322894 20.5217822,81.0636026 L19.8752475,79.548451 C19.4465347,78.53835 18.7693069,77.4221884 17.8445545,76.1908753 C16.9168317,74.9636026 15.9811881,74.1272389 15.0376238,73.6888551 L14.5841584,73.3615824 C14.2831683,73.1403702 14.0049505,72.8767339 13.7455446,72.5686531 C13.4861386,72.2646127 13.2930693,71.9565318 13.1653465,71.6494611 C13.0376238,71.3413803 13.1415842,71.0888551 13.4861386,70.8918854 C13.8306931,70.6898652 14.4574257,70.5959258 15.3584158,70.5959258 L16.649505,70.7928955 C17.5089109,70.9666329 18.5762376,71.4949157 19.8445545,72.3716834 C21.1128713,73.2514813 22.1574257,74.3918854 22.9732673,75.7959258 C23.9633663,77.5949157 25.1544554,78.9646127 26.5544554,79.9110773 C27.9544554,80.8545116 29.3623762,81.3242086 30.7821782,81.3242086 C32.2009901,81.3242086 33.4277228,81.2130975 34.460396,80.9969359 C35.4930693,80.7757238 36.4594059,80.448451 37.3643564,80.0100672 C37.7514851,77.0666329 38.8069307,74.8060268 40.5247525,73.2272389 C38.0722772,72.9625925 35.8683168,72.5686531 33.9108911,72.0393601 C31.9534653,71.5151177 29.9306931,70.658552 27.8465347,69.4706733 C25.7584158,68.287845 24.0257426,66.8161278 22.6485149,65.0636026 C21.2752475,63.308047 20.1425743,60.9999662 19.2643564,58.1504712 C18.3821782,55.2939056 17.9415842,52.0029965 17.9415842,48.2747137 C17.9415842,42.9636026 19.639604,38.4423904 23.039604,34.7090571 C21.4455446,30.7161278 21.5960396,26.2423904 23.4920792,21.2817844 C24.7366337,20.8838046 26.5891089,21.1838046 29.0415842,22.1696632 C31.4940594,23.1565318 33.2881188,24.0050167 34.4287129,24.7029965 C35.570297,25.4050167 36.4831683,26.0009763 37.1712871,26.4827945 C41.1742574,25.3423904 45.3049505,24.7706733 49.5633663,24.7706733 C53.8207921,24.7706733 57.9514851,25.3423904 61.9544554,26.4827945 L64.4069307,24.8999662 C66.0811881,23.8464308 68.0613861,22.8838046 70.3435644,22.0040066 C72.6217822,21.128249 74.3653465,20.887845 75.5722772,21.2817844 C77.5059406,26.2423904 77.680198,30.7161278 76.0871287,34.7130975 C79.4861386,38.4423904 81.1841584,42.9636026 81.1841584,48.2747137 C81.1841584,52.0029965 80.7435644,55.3060268 79.8613861,58.1827945 C78.980198,61.058552 77.8425743,63.3636026 76.4425743,65.0949157 C75.0425743,66.8312793 73.3019802,68.287845 71.2138614,69.4747137 C69.1287129,70.658552 67.1059406,71.5151177 65.149505,72.0393601 C63.1920792,72.5686531 60.9881188,72.9625925 58.5356436,73.2272389 C60.7712871,75.2040066 61.8891089,78.3171379 61.8891089,82.5747137 L61.8891089,96.467643 C61.8891089,97.2565318 62.1594059,97.9161278 62.6970297,98.4403702 C63.2346535,98.9656228 64.0821782,99.1231985 65.2455446,98.9019864 C75.2277228,95.5201682 83.3693069,89.4322894 89.6693069,80.6292591 C95.9742574,71.8302692 99.1257426,61.9231985 99.1257426,50.9070369 C99.1217822,41.7363298 96.9059406,33.2767339 92.4772277,25.528249 Z" id="github-logo" fill="#4B83AA"></path>
    </g>
</svg>