<?xml version="1.0" encoding="UTF-8"?>
<svg width="100px" height="100px" viewBox="0 0 100 100" version="1.1" xmlns="http://www.w3.org/2000/svg" xmlns:xlink="http://www.w3.org/1999/xlink">
    <!-- Generator: Sketch 41.2 (35397) - http://www.bohemiancoding.com/sketch -->
    <title>linkedin</title>
    <desc>Created with Sketch.</desc>
    <defs></defs>
    <g id="linkedin" stroke="none" stroke-width="1" fill="none" fill-rule="evenodd">
        <g id="Combined-Shape" fill="#4B83AA">
            <path d="M49.7978632,0.403846154 C77.3021368,0.403846154 99.5961538,22.7012821 99.5961538,50.2017094 C99.5961538,77.7025641 77.3021368,99.9995726 49.7978632,99.9995726 C22.2940171,99.9995726 0,77.7025641 0,50.2017094 C0,22.7012821 22.2940171,0.403846154 49.7978632,0.403846154 Z M28.0615385,68.8264957 L37.3863248,68.8264957 L37.3863248,37.7452991 L28.0615385,37.7452991 L28.0615385,68.8264957 Z M64.3897436,36.6700855 C59.8641026,36.6700855 55.8141026,38.3226496 52.941453,41.9700855 L52.941453,37.6431624 L43.582906,37.6431624 L43.582906,68.8264957 L52.941453,68.8264957 L52.941453,51.9645299 C52.941453,48.4004274 56.2064103,44.9235043 60.2965812,44.9235043 C64.3863248,44.9235043 65.3944444,48.4004274 65.3944444,51.8760684 L65.3944444,68.8230769 L74.7196581,68.8230769 L74.7196581,51.1833333 C74.7196581,38.9286325 68.917094,36.6700855 64.3897436,36.6700855 Z M32.6807692,34.6401709 C35.2564103,34.6401709 37.3482906,32.5487179 37.3482906,29.9709402 C37.3482906,27.3935897 35.2564103,25.3034188 32.6807692,25.3034188 C30.1029915,25.3034188 28.0115385,27.3952991 28.0115385,29.9709402 C28.0115385,32.5487179 30.1029915,34.6401709 32.6807692,34.6401709 Z"></path>
        </g>
    </g>
</svg>