<?xml version="1.0" encoding="UTF-8"?>
<svg width="180px" height="38px" viewBox="0 0 180 38" version="1.1" xmlns="http://www.w3.org/2000/svg" xmlns:xlink="http://www.w3.org/1999/xlink">
    <!-- Generator: Sketch 41.2 (35397) - http://www.bohemiancoding.com/sketch -->
    <title>Stars</title>
    <desc>Created with Sketch.</desc>
    <defs></defs>
    <g id="Page-1" stroke="none" stroke-width="1" fill="none" fill-rule="evenodd">
        <path d="M0,0 L180,0 L180,38 L0,38 L0,0 Z M161,28 L151.595436,32.9442719 L153.391548,22.472136 L145.783096,15.0557281 L156.297718,13.527864 L161,4 L165.702282,13.527864 L176.216904,15.0557281 L168.608452,22.472136 L170.404564,32.9442719 L161,28 Z M125,28 L115.595436,32.9442719 L117.391548,22.472136 L109.783096,15.0557281 L120.297718,13.527864 L125,4 L129.702282,13.527864 L140.216904,15.0557281 L132.608452,22.472136 L134.404564,32.9442719 L125,28 Z M89,28 L79.595436,32.9442719 L81.3915479,22.472136 L73.7830957,15.0557281 L84.297718,13.527864 L89,4 L93.702282,13.527864 L104.216904,15.0557281 L96.6084521,22.472136 L98.404564,32.9442719 L89,28 Z M53,28 L43.595436,32.9442719 L45.3915479,22.472136 L37.7830957,15.0557281 L48.297718,13.527864 L53,4 L57.702282,13.527864 L68.2169043,15.0557281 L60.6084521,22.472136 L62.404564,32.9442719 L53,28 Z M17,28 L7.595436,32.9442719 L9.3915479,22.472136 L1.7830957,15.0557281 L12.297718,13.527864 L17,4 L21.702282,13.527864 L32.2169043,15.0557281 L24.6084521,22.472136 L26.404564,32.9442719 L17,28 Z" id="Stars" fill="#F0F0FF"></path>
    </g>
</svg>