<?xml version="1.0" encoding="UTF-8"?>
<svg width="368px" height="571px" viewBox="0 0 368 571" version="1.1" xmlns="http://www.w3.org/2000/svg" xmlns:xlink="http://www.w3.org/1999/xlink">
    <!-- Generator: Sketch 41.2 (35397) - http://www.bohemiancoding.com/sketch -->
    <title>Game Designer</title>
    <desc>Created with Sketch.</desc>
    <defs>
        <path d="M161.703859,232.228225 C151.490982,246.293059 143.860879,289.794451 141.714343,303.123793 C141.128784,304.562681 140.884689,306.263626 141.113155,308.274069 C142.505233,320.524015 195.714603,316.635339 208.930818,315.478339 C209.396078,315.545295 209.875914,315.596975 210.370395,315.632624 C229.816672,317.0346 230.514414,316.897933 242.389162,314.419129 C244.837446,313.90806 250.817394,309.611689 249.116472,304.562991 C248.175413,301.769726 251.710039,298.588484 252.246401,297.191211 C253.33695,294.350235 251.065484,292.776277 251.065536,289.867765 C251.065657,283.103449 254.986525,284.943521 250.086072,279.822202 C247.11768,276.720022 232.862261,279.689092 232.862261,279.689092 C232.862261,279.689092 240.67991,279.271676 238.598698,277.510063 C237.739194,276.782547 235.606932,275.843574 233.84166,272.381069 C232.111428,268.987293 222.798859,270.323292 219.441119,271.260823 C211.715761,273.417857 217.11805,278.183289 205.020036,288.197766 C201.413032,291.183567 199.06958,294.954088 198.060563,298.737783 L163.762956,295.554337 C163.93418,295.371077 164.105226,295.184897 164.27605,294.995748 C173.056022,285.273906 185.541565,254.994823 190.396752,242.710438 C190.725412,242.079135 191.03322,241.42728 191.31814,240.756051 C195.742289,230.333409 192.97266,219.186181 185.132,215.858018 C177.291341,212.529856 167.34875,218.281067 162.924601,228.703708 C162.428077,229.873446 162.022163,231.052311 161.703859,232.228225 Z" id="path-1"></path>
        <mask id="mask-2" maskContentUnits="userSpaceOnUse" maskUnits="objectBoundingBox" x="0" y="0" width="111.522261" height="102.071947" fill="white">
            <use xlink:href="#path-1"></use>
        </mask>
        <path d="M80.8277736,233.580126 C80.8277736,233.580126 85.7367462,231.879378 103.677538,232.294032 C130.311944,211.120106 178.901934,254.308244 178.901934,254.308244 L150.730225,364.481661 C150.730225,364.481661 83.5764344,360.318808 69.7559552,352.868216 C77.6063578,308.762532 80.8277736,233.580126 80.8277736,233.580126 Z" id="path-3"></path>
        <mask id="mask-4" maskContentUnits="userSpaceOnUse" maskUnits="objectBoundingBox" x="0" y="0" width="109.145979" height="138.030201" fill="white">
            <use xlink:href="#path-3"></use>
        </mask>
        <path d="M56.642653,258.433648 C46.4297756,272.498482 38.799673,315.999874 36.6531372,329.329216 C36.0675782,330.768104 35.8234832,332.46905 36.051949,334.479492 C37.4440272,346.729438 90.6533968,342.840763 103.869612,341.683763 C104.334872,341.750718 104.814708,341.802398 105.309189,341.838048 C124.755466,343.240023 125.453208,343.103357 137.327956,340.624553 C139.77624,340.113484 145.756188,335.817112 144.055266,330.768414 C143.114207,327.975149 146.648833,324.793908 147.185195,323.396635 C148.275744,320.555658 146.004278,318.981701 146.00433,316.073189 C146.004451,309.308872 149.925319,311.148945 145.024866,306.027626 C142.056474,302.925446 127.801055,305.894516 127.801055,305.894516 C127.801055,305.894516 135.618704,305.477099 133.537492,303.715486 C132.677988,302.987971 130.545726,302.048997 128.780454,298.586493 C127.050222,295.192717 117.737653,296.528716 114.379913,297.466247 C106.654555,299.623281 112.056844,304.388713 99.9588297,314.40319 C96.3518262,317.38899 94.0083736,321.159512 92.9993575,324.943206 L58.7017504,321.759761 C58.8729736,321.576501 59.0440204,321.39032 59.2148438,321.201172 C67.9948161,311.47933 80.4803588,281.200246 85.3355459,268.915861 C85.664206,268.284559 85.9720138,267.632704 86.2569339,266.961474 C90.6810826,256.538833 87.9114536,245.391604 80.0707943,242.063442 C72.2301351,238.735279 62.2875438,244.486491 57.8633951,254.909132 C57.3668708,256.07887 56.960957,257.257734 56.642653,258.433648 Z" id="path-5"></path>
        <mask id="mask-6" maskContentUnits="userSpaceOnUse" maskUnits="objectBoundingBox" x="0" y="0" width="111.522261" height="102.071947" fill="white">
            <use xlink:href="#path-5"></use>
        </mask>
        <path d="M195.034443,134.30327 C197.444394,124.94926 199.463211,113.983426 201.101393,101.1747 C205.7863,64.544052 192.923902,30.7743112 135.159645,17.4383817 C77.3953885,4.10245229 22.3463834,28.9041726 12.204251,72.8345746 C7.59128735,92.8155153 13.06281,113.312215 25.8347718,130.976814 C28.663047,145.658752 31.7814778,162.604032 34.5247941,182.123742 C75.6134612,240.286572 143.743521,244.63692 167.032146,230.084572 C190.320771,215.532224 208.649666,171.417251 200.114898,142.853793 C199.368805,140.35683 197.620179,137.474601 195.034443,134.30327 Z" id="path-7"></path>
        <mask id="mask-8" maskContentUnits="userSpaceOnUse" maskUnits="objectBoundingBox" x="0" y="0" width="191.659532" height="223.303482" fill="white">
            <use xlink:href="#path-7"></use>
        </mask>
        <path d="M79.9003906,371.539063 L106.25,379.921619 L89,475.023181 L85.9863281,485.447266 L45.1914062,510.294922 C45.1914062,510.294922 18.8921278,506.61842 25.3007812,488.128906 C27.6972656,481.214844 60,475.023181 60,475.023181 L79.9003906,371.539063 Z M130.984375,366.857165 L159.984375,366.857165 L146.510742,463.888672 C146.510742,463.888672 179.850586,468.298828 183.015625,472.546875 C197.937031,492.574063 161.217773,496.805664 161.217773,496.805664 L116.602539,477.280273 L117,467.023181 L130.984375,366.857165 Z" id="path-9"></path>
        <mask id="mask-10" maskContentUnits="userSpaceOnUse" maskUnits="objectBoundingBox" x="0" y="0" width="162.288017" height="143.437756" fill="white">
            <use xlink:href="#path-9"></use>
        </mask>
        <path d="M80,361.921619 C80.09375,350.681384 162.661133,356.90332 162.661133,356.90332 C162.661133,356.90332 161.672852,357.610352 159.369141,369.492187 C158.443927,374.264157 145.123276,383.923561 130.240747,386.543193 C121.803717,388.028285 112.599832,389.098863 104.302582,389.677091 C90.7933707,390.618538 82.5146986,380.368103 81.0351562,378.363281 C77.0439453,372.955078 79.90625,373.161853 80,361.921619 Z" id="path-11"></path>
        <mask id="mask-12" maskContentUnits="userSpaceOnUse" maskUnits="objectBoundingBox" x="0" y="0" width="83.7421331" height="34.5523001" fill="white">
            <use xlink:href="#path-11"></use>
        </mask>
        <path d="M173.144456,65.7637804 L197.724009,63.9003067 C198.069473,59.6855215 199.946991,55.2519085 203.399315,51.5989779 C214.186695,40.1847699 208.243914,36.1132322 215.648811,33.0307921 C218.867267,31.691044 227.947605,29.2300865 230.078537,32.3877037 C232.252624,35.6092668 234.483424,36.2813839 235.425183,36.8987292 C237.705569,38.3935755 229.997062,39.7606123 229.997062,39.7606123 C229.997062,39.7606123 243.784385,35.0763749 247.108712,37.7936757 C252.596769,42.2796063 248.480878,40.9310831 249.305121,47.6449938 C249.659528,50.5318327 252.10588,51.8172359 251.369688,54.769941 C251.007608,56.2221651 247.887025,59.8104566 249.161483,62.4682147 C251.465007,67.27199 246.053229,72.2651095 243.685478,73.07074 C232.201332,76.9782351 231.691559,77.7129947 212.219374,78.6913743 C201.425754,81.1982553 172.586657,83.0630277 170.653506,83.3347142" id="path-13"></path>
        <mask id="mask-14" maskContentUnits="userSpaceOnUse" maskUnits="objectBoundingBox" x="0" y="0" width="80.8535309" height="52.4872345" fill="white">
            <use xlink:href="#path-13"></use>
        </mask>
        <path d="M206.396879,35.843073 L208.119536,36.763239 C208.119536,36.763239 213.73361,27.4811 218.704252,24.4619694 C221.104948,23.0038051 226.10259,25.423543 225.603667,27.4246159 C224.839417,30.4898527 220.440793,40.6553622 217.457182,42.4675847" id="path-15"></path>
        <mask id="mask-16" maskContentUnits="userSpaceOnUse" maskUnits="objectBoundingBox" x="0" y="0" width="19.2415499" height="18.4510932" fill="white">
            <use xlink:href="#path-15"></use>
        </mask>
        <path d="M58.7114247,19.6283151 C61.7316366,18.5023629 67.4069068,17.1375386 85.3476982,17.5521926 C95.8236559,24.5796489 106.763247,35.7262679 130.621131,42.7710946 C147.122171,47.6435707 159.669541,45.281166 159.669541,45.281166 L170.854622,71.6707387 C170.854622,71.6707387 179.423995,89.7882013 180.298759,107.947763 C180.370579,109.438721 204.560935,86.3769131 205.4049,87.752045 C207.920748,91.8512918 216.522718,94.6373345 220.384445,97.9535113 C214.604533,105.515902 183.388006,140.670794 173.881139,134.49943 C164.546198,124.113718 147.500079,93.683576 147.500079,93.683576 L150.568689,80.8003618 L153.86338,68.4803653 L133.16983,148.705375 C133.16983,148.705375 66.0160394,144.542522 52.1955601,137.09193 C55.8754901,116.417089 59.6812881,69.0837133 59.6812881,69.0837133 C59.6812881,69.0837133 63.1159926,62.8098629 62.4192713,63.7124203 C61.72255,64.6149778 40.2886993,98.1895366 39.7911096,97.1921035 C39.076761,95.7601711 16.5582287,112.171802 14.9483767,108.258242 C9.09030679,105.013481 17.6549559,85.8448093 25.9219847,66.9732037 C34.8560908,46.5788235 47.0027881,24.3262672 58.7114247,19.6283151 Z" id="path-17"></path>
        <mask id="mask-18" maskContentUnits="userSpaceOnUse" maskUnits="objectBoundingBox" x="0" y="0" width="207.368353" height="131.229208" fill="white">
            <use xlink:href="#path-17"></use>
        </mask>
        <path d="M97.212274,249.573799 C97.212274,249.573799 96.1823259,239.33896 101.324372,250.407854 C106.34449,251.208258 114.319691,251.693475 115.532986,247.012666 C118.383332,236.016225 131.998314,230.558936 134.159111,239.517277 C135.884677,246.671215 132.484677,248.038909 139.817899,248.797566 C150.317779,249.883829 164.896406,244.703011 172.523258,257.002193 C175.524779,261.842492 178.074726,268.656072 168.906667,277.074658 C148.863722,295.479127 113.108892,273.542272 101.563746,274.206802 C90.0185989,274.871332 97.212274,249.573799 97.212274,249.573799 Z" id="path-19"></path>
        <mask id="mask-20" maskContentUnits="userSpaceOnUse" maskUnits="objectBoundingBox" x="0" y="0" width="80.2894031" height="49.4185672" fill="white">
            <use xlink:href="#path-19"></use>
        </mask>
        <path d="M2.00179193,253.43349 C2.00179193,253.43349 -0.0380722801,238.139895 6.58434922,253.047761 C11.1893747,255.200891 21.2636883,258.221325 21.1783864,253.700521 C20.9547808,241.849945 41.5411382,242.42264 41.1489761,251.629547 C40.835804,258.981984 39.7474154,257.284725 46.587447,260.035303 C56.3811653,263.973645 71.3587205,261.610723 74.79652,274.039332 C78.2343196,286.467942 75.3316341,291.744338 64.198253,297.309743 C39.858779,309.47667 20.565539,279.955195 9.28446235,277.411709 C-1.9966143,274.868223 2.00179193,253.43349 2.00179193,253.43349 Z" id="path-21"></path>
        <mask id="mask-22" maskContentUnits="userSpaceOnUse" maskUnits="objectBoundingBox" x="0" y="0" width="74.8451786" height="55.4794001" fill="white">
            <use xlink:href="#path-21"></use>
        </mask>
        <path d="M51.1698467,115.484695 L75.7493996,113.621221 C76.0948635,109.406436 77.9723813,104.972823 81.4247057,101.319892 C92.2120854,89.9056843 86.2693046,85.8341466 93.6742021,82.7517065 C96.892658,81.4119584 105.972996,78.9510008 108.103928,82.108618 C110.278015,85.3301812 112.508815,86.0022982 113.450574,86.6196435 C115.73096,88.1144899 108.022453,89.4815267 108.022453,89.4815267 C108.022453,89.4815267 121.809775,84.7972892 125.134103,87.5145901 C130.62216,92.0005207 126.506268,90.6519974 127.330511,97.3659081 C127.684918,100.252747 130.131271,101.53815 129.395079,104.490855 C129.032998,105.94308 125.912416,109.531371 127.186874,112.189129 C129.490398,116.992904 124.07862,121.986024 121.710869,122.791654 C110.226723,126.69915 109.71695,127.433909 90.244765,128.412289 C79.4511448,130.91917 50.6120472,132.783942 48.678897,133.055629" id="path-23"></path>
        <mask id="mask-24" maskContentUnits="userSpaceOnUse" maskUnits="objectBoundingBox" x="0" y="0" width="80.8535309" height="52.4872345" fill="white">
            <use xlink:href="#path-23"></use>
        </mask>
        <path d="M97.212274,249.573799 C97.212274,249.573799 96.1823259,239.33896 101.324372,250.407854 C106.34449,251.208258 114.319691,251.693475 115.532986,247.012666 C118.383332,236.016225 131.998314,230.558936 134.159111,239.517277 C135.884677,246.671215 132.484677,248.038909 139.817899,248.797566 C150.317779,249.883829 164.896406,244.703011 172.523258,257.002193 C175.524779,261.842492 178.074726,268.656072 168.906667,277.074658 C148.863722,295.479127 113.108892,273.542272 101.563746,274.206802 C90.0185989,274.871332 97.212274,249.573799 97.212274,249.573799 Z" id="path-25"></path>
        <mask id="mask-26" maskContentUnits="userSpaceOnUse" maskUnits="objectBoundingBox" x="0" y="0" width="80.2894031" height="49.4185672" fill="white">
            <use xlink:href="#path-25"></use>
        </mask>
        <path d="M2.00179193,253.43349 C2.00179193,253.43349 -0.0380722801,238.139895 6.58434922,253.047761 C11.1893747,255.200891 21.2636883,258.221325 21.1783864,253.700521 C20.9547808,241.849945 41.5411382,242.42264 41.1489761,251.629547 C40.835804,258.981984 39.7474154,257.284725 46.587447,260.035303 C56.3811653,263.973645 71.3587205,261.610723 74.79652,274.039332 C78.2343196,286.467942 75.3316341,291.744338 64.198253,297.309743 C39.858779,309.47667 20.565539,279.955195 9.28446235,277.411709 C-1.9966143,274.868223 2.00179193,253.43349 2.00179193,253.43349 Z" id="path-27"></path>
        <mask id="mask-28" maskContentUnits="userSpaceOnUse" maskUnits="objectBoundingBox" x="0" y="0" width="74.8451786" height="55.4794001" fill="white">
            <use xlink:href="#path-27"></use>
        </mask>
        <path d="M42.9960937,108.123047 L73,110.985352 L74.2392578,129.032227 C74.2392578,129.032227 30.5712891,134.204102 20.8935547,125.489258" id="path-29"></path>
        <mask id="mask-30" maskContentUnits="userSpaceOnUse" maskUnits="objectBoundingBox" x="0" y="0" width="53.3457031" height="22.4326091" fill="white">
            <use xlink:href="#path-29"></use>
        </mask>
        <path d="M61.62069,113.555133 C68.457807,113.555133 81.5195026,113.555133 88.5925562,113.555133 C89.8086663,114.744578 91.9304143,119.598084 88.5925562,122.940343 C81.405177,122.940343 68.7895753,122.940343 61.62069,122.940343 C58.8219554,121.722384 58.1769126,115.039903 61.62069,113.555133 Z" id="path-31"></path>
        <mask id="mask-32" maskContentUnits="userSpaceOnUse" maskUnits="objectBoundingBox" x="0" y="0" width="31.1112516" height="9.38520993" fill="white">
            <use xlink:href="#path-31"></use>
        </mask>
        <path d="M197.62069,72.5551335 C204.457807,72.5551335 217.519503,72.5551335 224.592556,72.5551335 C225.808666,73.7445785 227.930414,78.5980844 224.592556,81.9403434 C217.405177,81.9403434 204.789575,81.9403434 197.62069,81.9403434 C194.821955,80.7223843 194.176913,74.039903 197.62069,72.5551335 Z" id="path-33"></path>
        <mask id="mask-34" maskContentUnits="userSpaceOnUse" maskUnits="objectBoundingBox" x="0" y="0" width="31.1112516" height="9.38520993" fill="white">
            <use xlink:href="#path-33"></use>
        </mask>
        <path d="M149.896203,37.6316377 C154.280969,53.0310518 148.67137,43.3828104 159.713586,56.2830049 C165.013168,62.4743014 182.674911,79.7651711 178.069055,84.5857393 C169.01925,94.057419 150.15425,92.8028482 144.753625,90.3289034" id="path-35"></path>
        <mask id="mask-36" maskContentUnits="userSpaceOnUse" maskUnits="objectBoundingBox" x="0" y="0" width="34.0737873" height="54.4723366" fill="white">
            <use xlink:href="#path-35"></use>
        </mask>
        <path d="M161.212274,495.573799 C161.212274,495.573799 160.182326,485.33896 165.324372,496.407854 C170.34449,497.208258 178.319691,497.693475 179.532986,493.012666 C182.383332,482.016225 195.998314,476.558936 198.159111,485.517277 C199.884677,492.671215 196.484677,494.038909 203.817899,494.797566 C214.317779,495.883829 228.896406,490.703011 236.523258,503.002193 C239.524779,507.842492 242.074726,514.656072 232.906667,523.074658 C212.863722,541.479127 177.108892,519.542272 165.563746,520.206802 C154.018599,520.871332 161.212274,495.573799 161.212274,495.573799 Z" id="path-37"></path>
        <mask id="mask-38" maskContentUnits="userSpaceOnUse" maskUnits="objectBoundingBox" x="0" y="0" width="80.2894031" height="49.4185672" fill="white">
            <use xlink:href="#path-37"></use>
        </mask>
        <path d="M66.0017919,499.43349 C66.0017919,499.43349 63.9619277,484.139895 70.5843492,499.047761 C75.1893747,501.200891 85.2636883,504.221325 85.1783864,499.700521 C84.9547808,487.849945 105.541138,488.42264 105.148976,497.629547 C104.835804,504.981984 103.747415,503.284725 110.587447,506.035303 C120.381165,509.973645 135.35872,507.610723 138.79652,520.039332 C142.23432,532.467942 139.331634,537.744338 128.198253,543.309743 C103.858779,555.47667 84.565539,525.955195 73.2844624,523.411709 C62.0033857,520.868223 66.0017919,499.43349 66.0017919,499.43349 Z" id="path-39"></path>
        <mask id="mask-40" maskContentUnits="userSpaceOnUse" maskUnits="objectBoundingBox" x="0" y="0" width="74.8451786" height="55.4794001" fill="white">
            <use xlink:href="#path-39"></use>
        </mask>
        <path d="M161.212274,495.573799 C161.212274,495.573799 160.182326,485.33896 165.324372,496.407854 C170.34449,497.208258 178.319691,497.693475 179.532986,493.012666 C182.383332,482.016225 195.998314,476.558936 198.159111,485.517277 C199.884677,492.671215 196.484677,494.038909 203.817899,494.797566 C214.317779,495.883829 228.896406,490.703011 236.523258,503.002193 C239.524779,507.842492 242.074726,514.656072 232.906667,523.074658 C212.863722,541.479127 177.108892,519.542272 165.563746,520.206802 C154.018599,520.871332 161.212274,495.573799 161.212274,495.573799 Z" id="path-41"></path>
        <mask id="mask-42" maskContentUnits="userSpaceOnUse" maskUnits="objectBoundingBox" x="0" y="0" width="80.2894031" height="49.4185672" fill="white">
            <use xlink:href="#path-41"></use>
        </mask>
        <path d="M66.0017919,499.43349 C66.0017919,499.43349 63.9619277,484.139895 70.5843492,499.047761 C75.1893747,501.200891 85.2636883,504.221325 85.1783864,499.700521 C84.9547808,487.849945 105.541138,488.42264 105.148976,497.629547 C104.835804,504.981984 103.747415,503.284725 110.587447,506.035303 C120.381165,509.973645 135.35872,507.610723 138.79652,520.039332 C142.23432,532.467942 139.331634,537.744338 128.198253,543.309743 C103.858779,555.47667 84.565539,525.955195 73.2844624,523.411709 C62.0033857,520.868223 66.0017919,499.43349 66.0017919,499.43349 Z" id="path-43"></path>
        <mask id="mask-44" maskContentUnits="userSpaceOnUse" maskUnits="objectBoundingBox" x="0" y="0" width="74.8451786" height="55.4794001" fill="white">
            <use xlink:href="#path-43"></use>
        </mask>
        <path d="M9.14445612,56.7637804 L33.7240089,54.9003067 C34.0694729,50.6855215 35.9469907,46.2519085 39.3993151,42.5989779 C50.1866948,31.1847699 44.243914,27.1132322 51.6488115,24.0307921 C54.8672673,22.691044 63.947605,20.2300865 66.0785373,23.3877037 C68.2526239,26.6092668 70.4834242,27.2813839 71.4251834,27.8987292 C73.7055689,29.3935755 65.9970625,30.7606123 65.9970625,30.7606123 C65.9970625,30.7606123 79.7843845,26.0763749 83.1087119,28.7936757 C88.5967691,33.2796063 84.4808778,31.9310831 85.3051206,38.6449938 C85.6595275,41.5318327 88.10588,42.8172359 87.369688,45.769941 C87.0076078,47.2221651 83.8870249,50.8104566 85.1614829,53.4682147 C87.4650072,58.27199 82.0532295,63.2651095 79.685478,64.07074 C68.2013324,67.9782351 67.6915594,68.7129947 48.2193743,69.6913743 C37.4257542,72.1982553 8.5866566,74.0630277 6.65350634,74.3347142" id="path-45"></path>
        <mask id="mask-46" maskContentUnits="userSpaceOnUse" maskUnits="objectBoundingBox" x="0" y="0" width="80.8535309" height="52.4872345" fill="white">
            <use xlink:href="#path-45"></use>
        </mask>
        <path d="M42.3968794,26.843073 L44.1195356,27.763239 C44.1195356,27.763239 49.7336101,18.4811 54.7042524,15.4619694 C57.104948,14.0038051 62.10259,16.423543 61.6036665,18.4246159 C60.8394171,21.4898527 56.4407926,31.6553622 53.4571821,33.4675847" id="path-47"></path>
        <mask id="mask-48" maskContentUnits="userSpaceOnUse" maskUnits="objectBoundingBox" x="0" y="0" width="19.2415499" height="18.4510932" fill="white">
            <use xlink:href="#path-47"></use>
        </mask>
        <path d="M122.711425,265.628315 C125.731637,264.502363 131.406907,263.137539 149.347698,263.552193 C159.823656,270.579649 170.763247,281.726268 194.621131,288.771095 C211.122171,293.643571 223.669541,291.281166 223.669541,291.281166 L234.854622,317.670739 C234.854622,317.670739 243.423995,335.788201 244.298759,353.947763 C244.370579,355.438721 268.560935,332.376913 269.4049,333.752045 C271.920748,337.851292 280.522718,340.637334 284.384445,343.953511 C278.604533,351.515902 247.388006,386.670794 237.881139,380.49943 C228.546198,370.113718 211.500079,339.683576 211.500079,339.683576 L214.568689,326.800362 L217.86338,314.480365 L197.16983,394.705375 C197.16983,394.705375 130.016039,390.542522 116.19556,383.09193 C119.87549,362.417089 123.681288,315.083713 123.681288,315.083713 C123.681288,315.083713 127.115993,308.809863 126.419271,309.71242 C125.72255,310.614978 104.288699,344.189537 103.79111,343.192104 C103.076761,341.760171 80.5582287,358.171802 78.9483767,354.258242 C73.0903068,351.013481 81.6549559,331.844809 89.9219847,312.973204 C98.8560908,292.578824 111.002788,270.326267 122.711425,265.628315 Z" id="path-49"></path>
        <mask id="mask-50" maskContentUnits="userSpaceOnUse" maskUnits="objectBoundingBox" x="0" y="0" width="207.368353" height="131.229208" fill="white">
            <use xlink:href="#path-49"></use>
        </mask>
        <path d="M261.62069,318.555133 C268.457807,318.555133 281.519503,318.555133 288.592556,318.555133 C289.808666,319.744578 291.930414,324.598084 288.592556,327.940343 C281.405177,327.940343 268.789575,327.940343 261.62069,327.940343 C258.821955,326.722384 258.176913,320.039903 261.62069,318.555133 Z" id="path-51"></path>
        <mask id="mask-52" maskContentUnits="userSpaceOnUse" maskUnits="objectBoundingBox" x="0" y="0" width="31.1112516" height="9.38520993" fill="white">
            <use xlink:href="#path-51"></use>
        </mask>
        <path d="M0.295549118,474.071006 C19.9176225,477.863514 43.1598494,481.0595 68.5694319,483.384229 C143.670052,490.255203 237.70379,489.515239 313.160976,474.071006 C313.160976,485.768111 313.160976,488.334917 313.160976,500.032022 C202.979991,528.537822 76.9389055,521.433481 0.295549118,500.032022 C0.295549118,491.763277 0.295549118,485.768111 0.295549118,474.071006 Z" id="path-53"></path>
        <mask id="mask-54" maskContentUnits="userSpaceOnUse" maskUnits="objectBoundingBox" x="0" y="0" width="312.865427" height="44.7701095" fill="white">
            <use xlink:href="#path-53"></use>
        </mask>
        <path d="M40.1123778,413.476831 C54.7400436,416.304033 72.066425,418.686544 91.0085048,420.419559 C146.993759,425.541664 217.093084,424.990043 273.344147,413.476831 C273.344147,422.196672 273.344147,464.203287 273.344147,472.923128 C191.207536,494.173344 97.2476957,488.877272 40.1123778,472.923128 C40.1123778,466.759027 40.1123778,422.196672 40.1123778,413.476831 Z" id="path-55"></path>
        <mask id="mask-56" maskContentUnits="userSpaceOnUse" maskUnits="objectBoundingBox" x="0" y="0" width="233.231769" height="73.4679096" fill="white">
            <use xlink:href="#path-55"></use>
        </mask>
        <path d="M43.0117188,15.2005946 C53.3783918,17.8801964 255.671802,11.3685966 295.537109,0.456453998 C295.537109,8.72105871 291.443359,65.9926305 291.443359,74.2572352 C282.338191,85.8769356 269.767053,95.2982833 249.394531,101.468463 C243.706745,103.19111 249.394531,78.2494227 249.394531,67.409579 C236.951172,70.6361415 223.357422,74.2572352 209.160156,74.2572352 C209.160156,85.4427821 209.160156,100.829791 209.160156,110.353522 C194.880176,111.772648 158.259575,113.275256 143.787109,113.042391 C143.787109,101.762231 143.787109,76.6166102 143.787109,74.2572352 C133.537109,76.6166102 106.715846,70.3039167 102.097656,69.8431727 C102.097656,77.4953238 102.097656,97.190829 102.097656,109.70554 C75.1660541,105.936841 58.5693895,98.1709642 46.0449219,88.4798915 C46.0449219,82.6375991 43.0117188,23.4651993 43.0117188,15.2005946 Z" id="path-57"></path>
        <mask id="mask-58" maskContentUnits="userSpaceOnUse" maskUnits="objectBoundingBox" x="0" y="0" width="252.525391" height="112.609952" fill="white">
            <use xlink:href="#path-57"></use>
        </mask>
        <path d="M54.3085937,114.507812 C36.6347656,99.8671875 41.7298366,97.6281157 50.09375,90.0820313 C75.5235413,67.1387815 155.179846,65.7773438 171,65.7773438 C192.023438,65.7773438 280.177004,63.2595588 293.517578,107.699219 C297.421875,120.705078 292.232422,119.830078 285.238281,129.476562 C281.538067,134.579985 260.023438,180.375818 264.720703,172.504724 C269.417969,164.633631 264.720703,119.974609 201.265625,117.330243 C137.810547,114.685876 100.517578,166.590075 100.517578,173.552734 C100.517578,184.238281 112.814453,231.388672 122.095703,247.873047 C138.397133,276.825923 176.623158,286.894673 184.461914,287.305664 C212.847656,288.793945 214.737305,285.241211 224.839844,279.21875 C224.839844,283.809896 221.868034,290.465495 221.868034,295.056641 C221.868034,346.297717 236.777344,359.180798 236.777344,410.421875 C186.86253,427.876824 102.492822,418.060547 69.0234375,410.421875 C69.0234375,388.464844 89.0823638,331.140806 92.1953125,269.5 C92.6235024,261.021232 91.2529543,247.074695 89.3388722,231.964053 C86.5965626,210.315003 65.9645893,124.163392 54.3085937,114.507812 Z M113.787109,275.630859 C118.486328,275.630859 128.576172,288.272461 123.134766,316.833984 C117.125,339.095703 107.587891,354.661133 107.587891,354.661133 C107.587891,354.661133 96.2519531,377.174805 93.7460938,375.371094 C91.5783118,373.81073 88.3566216,373.433931 85.0742188,372.444336 C82.3796364,371.63196 80.7840559,365.340328 81.5947266,360.292969 C86.5087891,329.697266 99.5380859,294.021484 99.5380859,294.021484 C99.5380859,294.021484 109.087891,275.630859 113.787109,275.630859 Z" id="path-59"></path>
        <mask id="mask-60" maskContentUnits="userSpaceOnUse" maskUnits="objectBoundingBox" x="0" y="0" width="252.423965" height="354.417055" fill="white">
            <use xlink:href="#path-59"></use>
        </mask>
        <path d="M31.1698467,40.4846947 L55.7493996,38.621221 C56.0948635,34.4064358 57.9723813,29.9728229 61.4247057,26.3198923 C72.2120854,14.9056843 66.2693046,10.8341466 73.6742021,7.75170648 C76.892658,6.41195838 85.9729956,3.95100085 88.103928,7.10861804 C90.2780146,10.3301812 92.5088148,11.0022982 93.450574,11.6196435 C95.7309595,13.1144899 88.0224531,14.4815267 88.0224531,14.4815267 C88.0224531,14.4815267 101.809775,9.79728925 105.134103,12.5145901 C110.62216,17.0005207 106.506268,15.6519974 107.330511,22.3659081 C107.684918,25.2527471 110.131271,26.5381503 109.395079,29.4908554 C109.032998,30.9430795 105.912416,34.531371 107.186874,37.189129 C109.490398,41.9929044 104.07862,46.9860239 101.710869,47.7916543 C90.226723,51.6991495 89.7169501,52.433909 70.244765,53.4122887 C59.4511448,55.9191696 30.6120472,57.783942 28.678897,58.0556286" id="path-61"></path>
        <mask id="mask-62" maskContentUnits="userSpaceOnUse" maskUnits="objectBoundingBox" x="0" y="0" width="80.8535309" height="52.4872345" fill="white">
            <use xlink:href="#path-61"></use>
        </mask>
        <path d="M22.9960938,33.1230469 L53,35.9853516 L54.2392578,54.0322266 C54.2392578,54.0322266 10.5712891,59.2041016 0.893554688,50.4892578" id="path-63"></path>
        <mask id="mask-64" maskContentUnits="userSpaceOnUse" maskUnits="objectBoundingBox" x="0" y="0" width="53.3457031" height="22.4326091" fill="white">
            <use xlink:href="#path-63"></use>
        </mask>
        <path d="M41.62069,38.5551335 C48.457807,38.5551335 61.5195026,38.5551335 68.5925562,38.5551335 C69.8086663,39.7445785 71.9304143,44.5980844 68.5925562,47.9403434 C61.405177,47.9403434 48.7895753,47.9403434 41.62069,47.9403434 C38.8219554,46.7223843 38.1769126,40.039903 41.62069,38.5551335 Z" id="path-65"></path>
        <mask id="mask-66" maskContentUnits="userSpaceOnUse" maskUnits="objectBoundingBox" x="0" y="0" width="31.1112516" height="9.38520993" fill="white">
            <use xlink:href="#path-65"></use>
        </mask>
    </defs>
    <g id="Page-1" stroke="none" stroke-width="1" fill="none" fill-rule="evenodd">
        <g id="Game-Designer">
            <g id="silueta" transform="translate(59.000000, 49.000000)">
                <use id="brazo-dcho" stroke="#000000" mask="url(#mask-2)" stroke-width="2" fill="#FFD788" transform="translate(196.789493, 265.949876) rotate(-55.000000) translate(-196.789493, -265.949876) " xlink:href="#path-1"></use>
                <use id="torso" stroke="#000000" mask="url(#mask-4)" stroke-width="2" fill="#D8D8D8" transform="translate(124.328945, 295.466561) rotate(-10.000000) translate(-124.328945, -295.466561) " xlink:href="#path-3"></use>
                <use id="brazo-izq" stroke="#000000" mask="url(#mask-6)" stroke-width="2" fill="#FFD788" xlink:href="#path-5"></use>
                <g id="cabeza" transform="translate(127.263604, 143.845362) rotate(8.000000) translate(-127.263604, -143.845362) translate(17.763604, 14.845362)">
                    <use stroke="#000000" mask="url(#mask-8)" stroke-width="2" fill="#FFD788" xlink:href="#path-7"></use>
                    <g id="cara" transform="translate(-0.000000, 0.000000)">
                        <g id="barba" transform="translate(105.952138, 178.658385) rotate(-11.000000) translate(-105.952138, -178.658385) translate(10.952138, 117.158385)" stroke="#261408">
                            <path d="M26.3632813,17.1953125 L23.1552734,31.7421875 L30.0488281,24.4326172 L23.7304688,39.0048828 L31.4824219,30.0927734 L24.9873047,46.8798828 L33.1855469,36.7607422 L26.5771484,52.21875 L33.90625,42.9726562 L28.4550781,56.8730469 L36.9980469,47.7363281 L31.6689453,61.6337891 L42.4335938,48.921875 C42.4335938,48.921875 33.7452576,63.7394181 33.7333984,65.8046875 C33.7215392,67.8699569 46.1621094,51.5927734 46.1621094,51.5927734 L38.0664063,67.7636719 L48.2080078,56.7246094 L40.2753906,71.1210937 L51.5771484,59.0566406 L43.8193359,75.2939453 L57.0693359,60.8691406 C57.0693359,60.8691406 45.8470112,77.4253178 45.8505859,79.796875 C45.8541607,82.1684322 60.1162109,63.9443359 60.1162109,63.9443359 L49.3486328,83.5605469 L62.296875,67.8554687 L54.147237,86.5335936 L65.4091797,72.7119141 L57.1711466,90.3543156 L73.2158203,73.9052734 L61.911383,94.1916437 L77.6669922,76.8193359 L66.664151,98.2936623 L78.0859375,86.703125 L73.0087891,102.433594 L82.1259766,88.9951172 L78.2272606,106.627046 L86.4160156,90.3164062 L84.479785,109.728059 L91.8164063,94.1621094 L90.5998075,113.398113 L97.7832031,96.3066406 L97.3344724,116.386509 L104.142578,100.416016 L104.971537,118.315213 L110.851563,103.853516 L112.018598,119.783696 L117.663351,104.215988 L119.743222,121.4598 L125.795623,104.327297 L127.831865,122.254333 L132.125,105.111328 L135.76242,121.661738 L139.410443,102.84445 L142.900702,120.661886 L148.096167,99.9337089 L149.68586,116.921047 L155.494141,100.677734 L156.033203,113.001953 L161.933594,95.9375 L162.447266,110.046875 L167.107422,84.7197266 L168.894531,101.931641 L172,80.8007812 L173.789063,97.2392578 L178.056641,74.984375 L177.376953,91.2832031 L183.697266,65.3027344 L182.322266,82.4316406 L189.140625,62.375 L188.277344,70.6464844" id="Path-2"></path>
                            <polyline id="Path-3" points="134.34375 64.9414062 125.501953 78.2832031 128.746094 63.9882812 118.839844 77.5078125 121.066406 63.3964844 112.180664 76.2207031 115.291016 59.8007812 106.029297 73.0615234 107.912109 57.4785156 100.595703 69.8769531 99.5205078 55.4951172 93.2265625 65.7597656 93.9003906 55.7998047 89.2871094 64.1933594 87.6669922 55.7685547 85.5058594 67.3935547 84.1210937 56.5166016 81.4257812 66.9609375 79.1660156 59.5888672 77.9443359 71.3105469 75.4023437 59.5068359 72.8369141 70.1728516"></polyline>
                            <polyline id="Path-4" points="148.729492 66.8457031 149.814453 77.7197266 153.822266 65.8496094 156.512695 76.6601562 159.955078 66.1865234 162.363281 77.2382812 164.688477 66.9716797 166.828125 76.5966797 170.72168 68.2402344 171.292969 76.2578125 174.605469 70.3662109 174.935547 76.7724609"></polyline>
                        </g>
                        <path d="M29.0513162,154.440939 C31.6160496,152.34031 24.7952146,140.114396 27.0005349,136.753439 C28.2913083,134.786271 33.2869257,147.173293 36.0435037,143.784689 C38.8000817,140.396084 38.5053569,134.224018 35.6724099,126.093282 C33.8120397,120.753903 37.1980227,111.730045 37.4380349,110.446798 C38.3415961,105.615826 35.7603005,130.178243 41.4810037,112.702657 C47.2017068,95.2270715 49.4253985,111.415319 51.5132302,106.853048 C53.9878625,101.445551 61.4924541,78.8587111 61.5278787,87.5864465 C61.5825662,101.060079 67.8242654,67.4985559 67.8242654,67.4985559 C67.8242654,67.4985559 72.3338108,72.803431 84.0942849,81.944845 C91.8562717,87.9782356 105.051841,89.5332647 105.914597,87.6342981 C106.917076,85.427796 85.0894021,79.8779504 84.721238,70.0717981 C84.6769809,68.8929968 88.9360904,72.2840194 99.5142068,77.1362512 C110.80347,82.3146892 124.889057,94.3743504 126.534715,89.313009 C126.896531,88.2002161 109.106802,75.478235 112.98491,70.1831262 C113.202884,69.8855074 119.805571,76.8014043 127.519363,82.5386032 C134.182161,87.4941153 141.122964,89.630162 146.596238,89.3589075 C149.591355,89.21047 127.120652,79.3764856 128.563035,68.319845 C129.005024,64.9317611 139.040311,71.6091284 140.784715,75.1928918 C143.350144,80.4633997 153.738622,86.1358218 157.285691,84.64797 C160.296257,83.3851593 146.441941,79.538595 144.51616,67.1059778 C143.622461,61.3363617 153.547475,70.4172777 158.586472,74.3276575 C161.926316,76.9194543 170.823295,84.6079741 174.117722,83.226095 C175.786796,82.5259862 157.758219,67.5678053 159.427293,66.8676965 C161.002084,66.2071354 171.515588,73.5780624 173.090379,72.9175012 C175.552087,71.8849141 171.33854,65.2788993 174.574754,63.5923059 C177.403695,62.1179677 182.616746,79.8081262 182.101121,73.0288293 C181.585496,66.2495325 192.966296,64.0641276 192.790574,65.3012903 C191.005988,77.8655916 190.325489,70.8828645 192.485886,85.8051965 C192.61439,86.6927966 194.904362,70.3840964 196.265183,73.6186731 C196.697492,74.6462403 197.985038,83.2076513 196.375663,90.5084326 C194.766288,97.8092138 201.230695,76.7183236 201.686749,82.5444954 C202.142804,88.3706673 200.037772,108.787729 200.037772,108.787729 C200.037772,108.787729 213.014039,46.2434751 210.206476,44.4472085 C208.733939,43.505086 220.433456,39.3494349 218.634324,37.5200403 C214.356305,33.1700612 198.782042,33.8823066 196.856965,32.2076985 C192.144268,28.108163 190.824668,29.5267474 174.990769,24.2300012 C171.939092,23.2091561 181.229866,16.4188949 178.197801,15.851095 C175.299695,15.308381 160.077765,20.9736412 157.203351,20.6344564 C153.181762,20.1599035 152.806248,16.4100496 148.844285,15.851095 C145.917584,15.4381953 154.47136,7.4406111 151.584528,6.7145192 C149.707378,6.24238139 136.377216,13.1648737 134.519098,12.4811208 C124.446311,8.77452296 127.103911,3.92830566 118.524957,3.92740983 C108.399809,3.92635254 110.962039,7.89757621 105.195856,12.4772145 C99.4296723,17.0568528 91.6036329,2.45945279 83.0454651,0.837566076 C73.4444532,-0.981953457 72.8284478,10.5622791 60.7925354,5.59440201 C49.6136041,0.9802478 47.5031636,14.9967953 35.2915505,21.2221887 C32.2641686,22.7655265 26.1562171,26.9730655 26.2134255,29.1704309 C26.2286662,29.7558209 24.7798318,13.0249231 23.5879373,15.851095 C22.3960427,18.6772668 20.9663552,24.7749231 20.9663552,24.7749231 C20.9663552,24.7749231 17.2915505,11.0669153 15.7476052,19.6328332 C14.2036599,28.1987512 20.5649992,35.0605454 14.7305154,33.5415247 C-4.22703651,28.6058842 10.9903338,37.1090245 8.46480619,38.4237753 C5.38797989,40.0255239 14.109489,41.9290298 12.7125774,44.8580801 C12.2321279,45.8654885 26.4865828,156.541567 29.0513162,154.440939 Z" id="pelo" stroke="#000000" fill="#9C551A"></path>
                    </g>
                </g>
                <use id="piernas" stroke="#000000" mask="url(#mask-10)" stroke-width="2" fill="#FFD788" xlink:href="#path-9"></use>
                <g id="pelillos" transform="translate(71.000000, 381.000000)" stroke="#261408">
                    <path d="M18,59 L18.4140625,65" id="Path-5"></path>
                    <path d="M7.59179688,61 C5.39453125,63.1803385 3.19726563,65.3606771 1,67.5410156" id="Path-6"></path>
                    <path d="M8.02929688,52.3515625 C2.83329883,53.2095344 6.00699042,54.0070016 0.525390625,56.1445312" id="Path-7"></path>
                    <polyline id="Path-8" points="14.0449219 50.6035156 14.0449219 52.2324219 14.0449219 52.7011719 14.0449219 53.2714844 14.0449219 53.8417969 14.0449219 54.0996094 14.0449219 54.3847656 14.0449219 54.5136719 14.0449219 54.6425781 14.0449219 54.7714844 14.0449219 54.9003906 14.0449219 55.0292969 14.0449219 55.1582031 14.0449219 55.4160156 14.0449219 55.6738281 14.0449219 55.8027344 14.0449219 55.9316406 14.0449219 56.1894531 14.0449219 56.3183594 14.0449219 56.4472656"></polyline>
                    <path d="M17.6582031,43.6816406 L19.3144531,48.7871094" id="Path-9"></path>
                    <path d="M15.1367188,35.7675781 L10.7285156,39.1738281" id="Path-10"></path>
                    <path d="M4.94921875,39.8476562 L2.13671875,44.9433594" id="Path-11"></path>
                    <path d="M10.0195312,30.0585938 L3.96875,31.4648438" id="Path-12"></path>
                    <path d="M13.4453125,25.875 C14.2122396,26.4746094 14.9791667,27.0742188 15.7460938,27.6738281" id="Path-13"></path>
                    <path d="M21.78125,29.8867188 L22.2226562,37.5664062" id="Path-14"></path>
                    <path d="M25.1972656,19.671875 L25.6113281,23.09375" id="Path-15"></path>
                    <path d="M16.0214844,18 C10.347209,18.404568 13.1061969,17.7413261 8,20.3984375" id="Path-16"></path>
                    <path d="M19,12.612114 L14.5957031,10" id="Path-17"></path>
                    <polyline id="Path-18" points="81.9023438 0.96875 81.9023438 2.62695312 81.9023438 3.30859375 81.9023438 4.69921875 81.9023438 6.30273438 81.9023438 6.58789062 81.9023438 7.34179688 81.9023438 7.47070312 81.9023438 7.59960938 81.9023438 7.72851562 81.9023438 7.85742188"></polyline>
                    <path d="M73.4785156,7.4375 L70.6933594,13.6855469" id="Path-19"></path>
                    <path d="M77.6503906,12.9433594 L78.8730469,19.7949219" id="Path-20"></path>
                    <path d="M71.6855469,21.6289062 L73.7226562,25.8710938" id="Path-21"></path>
                    <path d="M76.6640625,24.4804688 L76.8066406,30.6289062" id="Path-22"></path>
                    <path d="M67.1347656,11.2929688 L63.2890625,13.4980469" id="Path-23"></path>
                    <path d="M63.546875,21.5800781 C62.391276,23.8216146 61.2356771,26.063151 60.0800781,28.3046875" id="Path-24"></path>
                    <path d="M67.2910156,29.3496094 C65.9140625,30.8541667 64.5371094,32.358724 63.1601562,33.8632812" id="Path-25"></path>
                    <path d="M61,38 L65.9785156,46.6210938" id="Path-26"></path>
                    <path d="M73.875,36.0175781 L76.3515625,43.9902344" id="Path-27"></path>
                    <path d="M72.8027344,49.8828125 L74.9746094,55.7890625" id="Path-28"></path>
                    <path d="M67.5234375,50.1308594 C68.1302083,52.1803385 68.7369792,54.2298177 69.34375,56.2792969" id="Path-29"></path>
                    <path d="M63.7851562,58.9628906 L59.2246094,61.5605469" id="Path-30"></path>
                    <path d="M56.375,54.9472656 L52.296875,58.9511719" id="Path-31"></path>
                    <polyline id="Path-32" transform="translate(57.334961, 46.123047) rotate(-36.000000) translate(-57.334961, -46.123047) " points="60.375 45.6230469 58.1191406 45.6230469 57.9882812 45.6230469 57.3046875 45.6230469 56.8339844 45.6230469 55.8632812 45.6230469 55.1054688 45.6230469 54.9746094 45.6230469 54.7128906 45.6230469 54.5820312 45.6230469 54.2949219 45.6230469"></polyline>
                </g>
                <use id="calzones" stroke="#000000" mask="url(#mask-12)" stroke-width="2" fill="#4B476D" xlink:href="#path-11"></use>
                <path d="M84,456 C90.3861505,456.783069 90.1483455,461.198558 84.5131836,463.148926" id="tobillo-izqdo" stroke="#000000"></path>
                <path d="M122,449 C128.386151,449.783069 128.148345,454.198558 122.513184,456.148926" id="tobillo-dcho" stroke="#000000" transform="translate(124.382588, 452.574463) scale(-1, 1) translate(-124.382588, -452.574463) "></path>
            </g>
            <g id="cara-variable" transform="translate(77.000000, 149.000000)">
                <g id="mario" transform="translate(-0.000000, 113.000000)" stroke="#000000">
                    <use id="antebrazo-over" mask="url(#mask-14)" stroke-width="2" fill="#FFFDF8" transform="translate(211.080272, 57.091097) rotate(-48.000000) translate(-211.080272, -57.091097) " xlink:href="#path-13"></use>
                    <path d="M214.060059,55.939209 C214.509766,52.769043 215.856201,43.5827637 207.407471,38.1469727" id="hand-wrenkle"></path>
                    <path d="M239.999023,43.8300781 L233.717673,49.4022124 C233.717673,49.4022124 230.875139,52.9226867 229.289551,52.6630859 C226.926947,52.276268 225.342312,52.0932583 224.506592,49.7548828 C223.850613,47.9194302 225.581055,46.713623 227.254639,44.1213379 C230.941162,37.9057617 236.665527,34.6259766 236.13208,34.4064941 C235.986802,34.3467209 231.722168,36.9838867 226.964355,43.7905273 C224.237419,46.3570377 223.598302,48.400054 221.084473,48.5688477 C218.777013,48.7237845 216.231939,46.449673 215.772949,44.5512695 C215.320318,42.6791652 217.571289,39.3339844 217.571289,39.3339844 L226.943115,25.4916992 L217.908203,38.5449219 C217.908203,38.5449219 215.697966,42.5759428 213.582031,42.4414062 C211.243865,42.2927397 210.006107,40.516356 209,37.9785156 C208.210696,35.9875475 211.70166,28.2021484 215.800293,22.8588867" id="fingers-over" fill="#FFFDF8"></path>
                    <use id="thumb" mask="url(#mask-16)" stroke-width="2" fill="#FFFDF8" transform="translate(216.017654, 33.242038) rotate(76.000000) translate(-216.017654, -33.242038) " xlink:href="#path-15"></use>
                    <use id="camiseta" mask="url(#mask-18)" stroke-width="2" fill="#CA0E0E" transform="translate(116.700268, 83.090771) rotate(-10.000000) translate(-116.700268, -83.090771) " xlink:href="#path-17"></use>
                    <use id="zapato-dcho-copy" mask="url(#mask-20)" stroke-width="2" fill="#545458" transform="translate(135.142740, 259.737332) rotate(8.000000) translate(-135.142740, -259.737332) " xlink:href="#path-19"></use>
                    <use id="zapato-izqdo-copy" mask="url(#mask-22)" stroke-width="2" fill="#545458" transform="translate(38.736360, 272.498162) scale(-1, 1) rotate(2.000000) translate(-38.736360, -272.498162) " xlink:href="#path-21"></use>
                    <use id="antebrazo-over" mask="url(#mask-24)" stroke-width="2" fill="#F8F8F8" transform="translate(89.105662, 106.812011) rotate(8.000000) translate(-89.105662, -106.812011) " xlink:href="#path-23"></use>
                    <use id="zapato-dcho-copy" mask="url(#mask-26)" stroke-width="2" fill="#9C5104" transform="translate(135.142740, 259.737332) rotate(8.000000) translate(-135.142740, -259.737332) " xlink:href="#path-25"></use>
                    <use id="zapato-izqdo-copy" mask="url(#mask-28)" stroke-width="2" fill="#9C5104" transform="translate(38.736360, 272.498162) scale(-1, 1) rotate(2.000000) translate(-38.736360, -272.498162) " xlink:href="#path-27"></use>
                    <use id="sleeve-over" mask="url(#mask-30)" stroke-width="2" fill="#CA0E0E" xlink:href="#path-29"></use>
                    <use id="borde-guante-izqdo" mask="url(#mask-32)" stroke-width="2" fill="#FFFFFF" transform="translate(74.829158, 118.247738) rotate(83.000000) translate(-74.829158, -118.247738) " xlink:href="#path-31"></use>
                    <use id="borde-guante-dcho" mask="url(#mask-34)" stroke-width="2" fill="#FFFFFF" transform="translate(210.829158, 77.247738) rotate(32.000000) translate(-210.829158, -77.247738) " xlink:href="#path-33"></use>
                </g>
                <path d="M167.138672,110.169922 C145.632464,126.389275 122.202275,124.936393 100.490234,108.951172" id="boca" stroke="#000000"></path>
                <circle id="ojo-dcho" stroke="#000000" fill="#FFFFFF" cx="171.5" cy="43.8559903" r="23.5"></circle>
                <circle id="pupila-dcha" stroke="#6E934F" fill="#000000" cx="165" cy="45" r="4"></circle>
                <path d="M192.151429,13.137769 C189.313158,9.03577953 184.034326,2.48852028 172.385006,2.48852028 C160.735687,2.48852028 151.039813,14.2666507 150.860829,17.2907148" id="ceja-dcha" stroke="#000000" transform="translate(171.506129, 9.889618) rotate(5.000000) translate(-171.506129, -9.889618) "></path>
                <ellipse id="ojo-izqdo" stroke="#000000" fill="#FFFFFF" cx="109.276153" cy="49.0883207" rx="29.8391703" ry="29.8391703"></ellipse>
                <circle id="pupila-izqda" stroke="#6E934F" fill="#000000" cx="113.436983" cy="49.2491504" r="4"></circle>
                <path d="M130.742647,17.5762988 C126.391085,11.2872363 118.297717,1.24915041 100.437286,1.24915041 C82.5768557,1.24915041 67.7113972,19.3070707 67.4369832,23.9434863" id="ceja-izqda" stroke="#000000"></path>
                <use id="nariz" stroke="#000000" mask="url(#mask-36)" stroke-width="2" fill="#FFD788" transform="translate(161.790519, 64.867806) rotate(-6.000000) translate(-161.790519, -64.867806) " xlink:href="#path-35"></use>
            </g>
            <g id="tower" transform="translate(13.000000, 16.000000)" stroke="#000000">
                <use id="zapato-dcho-copy" mask="url(#mask-38)" stroke-width="2" fill="#545458" transform="translate(199.142740, 505.737332) rotate(8.000000) translate(-199.142740, -505.737332) " xlink:href="#path-37"></use>
                <use id="zapato-izqdo-copy" mask="url(#mask-40)" stroke-width="2" fill="#545458" transform="translate(102.736360, 518.498162) scale(-1, 1) rotate(2.000000) translate(-102.736360, -518.498162) " xlink:href="#path-39"></use>
                <use id="zapato-dcho-copy" mask="url(#mask-42)" stroke-width="2" fill="#9C5104" transform="translate(199.142740, 505.737332) rotate(8.000000) translate(-199.142740, -505.737332) " xlink:href="#path-41"></use>
                <use id="zapato-izqdo-copy" mask="url(#mask-44)" stroke-width="2" fill="#9C5104" transform="translate(102.736360, 518.498162) scale(-1, 1) rotate(2.000000) translate(-102.736360, -518.498162) " xlink:href="#path-43"></use>
                <g id="hand-right" transform="translate(228.000000, 255.000000)">
                    <use id="antebrazo-over" mask="url(#mask-46)" stroke-width="2" fill="#FFFDF8" transform="translate(47.080272, 48.091097) rotate(-48.000000) translate(-47.080272, -48.091097) " xlink:href="#path-45"></use>
                    <path d="M50.0600586,46.939209 C50.5097656,43.769043 51.8562012,34.5827637 43.4074707,29.1469727" id="hand-wrenkle"></path>
                    <path d="M75.9990234,34.8300781 L69.7176729,40.4022124 C69.7176729,40.4022124 66.8751388,43.9226867 65.2895508,43.6630859 C62.9269469,43.276268 61.3423121,43.0932583 60.5065918,40.7548828 C59.8506129,38.9194302 61.5810547,37.713623 63.2546387,35.1213379 C66.9411621,28.9057617 72.6655273,25.6259766 72.1320801,25.4064941 C71.9868025,25.3467209 67.722168,27.9838867 62.9643555,34.7905273 C60.2374189,37.3570377 59.5983017,39.400054 57.0844727,39.5688477 C54.7770126,39.7237845 52.231939,37.449673 51.7729492,35.5512695 C51.3203179,33.6791652 53.5712891,30.3339844 53.5712891,30.3339844 L62.9431152,16.4916992 L53.9082031,29.5449219 C53.9082031,29.5449219 51.6979665,33.5759428 49.5820313,33.4414062 C47.2438649,33.2927397 46.0061067,31.516356 45,28.9785156 C44.2106965,26.9875475 47.7016602,19.2021484 51.800293,13.8588867" id="fingers-over" fill="#FFFDF8"></path>
                    <use id="thumb" mask="url(#mask-48)" stroke-width="2" fill="#FFFDF8" transform="translate(52.017654, 24.242038) rotate(76.000000) translate(-52.017654, -24.242038) " xlink:href="#path-47"></use>
                </g>
                <use id="camiseta" mask="url(#mask-50)" stroke-width="2" fill="#FFFABA" transform="translate(180.700268, 329.090771) rotate(-10.000000) translate(-180.700268, -329.090771) " xlink:href="#path-49"></use>
                <use id="borde-guante-dcho" mask="url(#mask-52)" stroke-width="2" fill="#FFFFFF" transform="translate(274.829158, 323.247738) rotate(32.000000) translate(-274.829158, -323.247738) " xlink:href="#path-51"></use>
                <g id="disfraz" fill="#FFFABA">
                    <use id="Rectangle-17" mask="url(#mask-54)" stroke-width="2" xlink:href="#path-53"></use>
                    <path d="M158.844804,491.580843 C247.294132,491.580843 310.155508,479.465473 310.155508,475.095178 C310.155508,470.724882 247.294132,467.182058 158.844804,467.182058 C70.3954765,467.182058 3.24038719,470.724882 3.24038719,475.095178 C3.24038719,479.465473 70.3954765,491.580843 158.844804,491.580843 Z" id="Oval-2"></path>
                    <use id="Rectangle-17" mask="url(#mask-56)" stroke-width="2" xlink:href="#path-55"></use>
                    <use id="Rectangle-17" mask="url(#mask-58)" stroke-width="2" transform="translate(169.274414, 56.761430) scale(1, -1) translate(-169.274414, -56.761430) " xlink:href="#path-57"></use>
                    <path d="M158.306081,424.419724 C224.242396,424.419724 271.103661,415.388079 271.103661,412.130156 C271.103661,408.872232 224.242396,406.231163 158.306081,406.231163 C92.3697661,406.231163 42.3076661,408.872232 42.3076661,412.130156 C42.3076661,415.388079 92.3697661,424.419724 158.306081,424.419724 Z" id="Oval-2"></path>
                    <use id="Combined-Shape" mask="url(#mask-60)" stroke-width="2" xlink:href="#path-59"></use>
                </g>
                <g id="hand-left" transform="translate(84.000000, 321.000000)" stroke-width="2">
                    <use id="antebrazo-over" mask="url(#mask-62)" fill="#F8F8F8" transform="translate(69.105662, 31.812011) rotate(8.000000) translate(-69.105662, -31.812011) " xlink:href="#path-61"></use>
                    <use id="sleeve-over" mask="url(#mask-64)" fill="#FFFABA" xlink:href="#path-63"></use>
                    <use id="borde-guante-izqdo" mask="url(#mask-66)" fill="#FFFFFF" transform="translate(54.829158, 43.247738) rotate(83.000000) translate(-54.829158, -43.247738) " xlink:href="#path-65"></use>
                </g>
            </g>
        </g>
    </g>
</svg>