<?xml version="1.0" encoding="UTF-8"?>
<svg width="100px" height="101px" viewBox="0 0 100 101" version="1.1" xmlns="http://www.w3.org/2000/svg" xmlns:xlink="http://www.w3.org/1999/xlink">
    <!-- Generator: Sketch 41.2 (35397) - http://www.bohemiancoding.com/sketch -->
    <title>Fill 9</title>
    <desc>Created with Sketch.</desc>
    <defs></defs>
    <g id="twitter" stroke="none" stroke-width="1" fill="none" fill-rule="evenodd">
        <path d="M72.3082586,39.1934534 C72.3256955,39.6842699 72.3353827,40.1854195 72.3353827,40.6885065 C72.3353827,55.8915495 60.7630906,73.4227422 39.5914598,73.4227422 C33.0913694,73.4227422 27.0420552,71.5272861 21.9491876,68.2517314 C22.8533233,68.3602277 23.7671463,68.4183507 24.6932396,68.4183507 C30.0909302,68.4183507 35.0475317,66.5803718 38.9895637,63.4914565 C33.954819,63.3932932 29.7079641,60.0705942 28.2432642,55.496313 C28.9400945,55.6345166 29.6575909,55.7029726 30.4054403,55.7029726 C31.4477797,55.7029726 32.4700989,55.5667065 33.4342952,55.2999864 C28.1722249,54.247314 24.1998398,49.5981187 24.1998398,44.0221842 C24.1998398,43.9711651 24.1998398,43.9233751 24.2101728,43.8730018 C25.7530159,44.7390347 27.535455,45.2505173 29.4238072,45.3079945 C26.3348919,43.2536688 24.2980032,39.7243102 24.2980032,35.731905 C24.2980032,33.6272061 24.8695461,31.6510236 25.8537625,29.9493109 C31.5259229,36.912448 40.0144662,41.4944789 49.5705355,41.9749625 C49.3742089,41.1295956 49.2760456,40.2558129 49.2760456,39.3497397 C49.2760456,32.9981859 54.4296195,27.844612 60.7831107,27.844612 C64.0961225,27.844612 67.0842913,29.2421476 69.1786572,31.4721339 C71.8045258,30.9612972 74.2741081,30.0074339 76.4969905,28.6809376 C75.6309576,31.3739706 73.8110615,33.6272061 71.4318927,35.0525115 C73.7632714,34.7780417 75.9861538,34.1587087 78.0398336,33.2448858 C76.5073235,35.5459113 74.5485779,37.5698839 72.3082586,39.1934534 Z M49.9935419,0.634 C22.430317,0.634 0,23.0669002 0,50.6301251 C0,78.203683 22.430317,100.634 49.9935419,100.634 C77.5670998,100.634 100,78.203683 100,50.6301251 C100,23.0669002 77.5670998,0.634 49.9935419,0.634 L49.9935419,0.634 Z" id="Fill-9" fill="#4B83AA"></path>
    </g>
</svg>