<?xml version="1.0" encoding="UTF-8"?>
<svg width="174px" height="32px" viewBox="0 0 174 32" version="1.1" xmlns="http://www.w3.org/2000/svg" xmlns:xlink="http://www.w3.org/1999/xlink">
    <!-- Generator: Sketch 41.2 (35397) - http://www.bohemiancoding.com/sketch -->
    <title>Artboard</title>
    <desc>Created with Sketch.</desc>
    <defs></defs>
    <g id="Page-1" stroke="none" stroke-width="1" fill="none" fill-rule="evenodd">
        <g id="Artboard" fill="#FFFFFF">
            <path d="M0,12.0242101 L0,0 L174,0 L174,12.0242101 L163.702282,10.527864 L159,1 L154.297718,10.527864 L143.783096,12.0557281 L151.391548,19.472136 L149.595436,29.9442719 L159,25 L168.404564,29.9442719 L166.608452,19.472136 L174,12.2671575 L174,32 L0,32 L0,12.2671575 L7.39154787,19.472136 L5.59543596,29.9442719 L15,25 L24.404564,29.9442719 L22.6084521,19.472136 L30.2169043,12.0557281 L19.702282,10.527864 L15,1 L10.297718,10.527864 L1.52655666e-16,12.0242101 Z M123,25 L113.595436,29.9442719 L115.391548,19.472136 L107.783096,12.0557281 L118.297718,10.527864 L123,1 L127.702282,10.527864 L138.216904,12.0557281 L130.608452,19.472136 L132.404564,29.9442719 L123,25 Z M87,25 L77.595436,29.9442719 L79.3915479,19.472136 L71.7830957,12.0557281 L82.297718,10.527864 L87,1 L91.702282,10.527864 L102.216904,12.0557281 L94.6084521,19.472136 L96.404564,29.9442719 L87,25 Z M51,25 L41.595436,29.9442719 L43.3915479,19.472136 L35.7830957,12.0557281 L46.297718,10.527864 L51,1 L55.702282,10.527864 L66.2169043,12.0557281 L58.6084521,19.472136 L60.404564,29.9442719 L51,25 Z" id="Combined-Shape"></path>
        </g>
    </g>
</svg>