<?xml version="1.0" encoding="UTF-8"?>
<svg width="290px" height="522px" viewBox="0 0 290 522" version="1.1" xmlns="http://www.w3.org/2000/svg" xmlns:xlink="http://www.w3.org/1999/xlink">
    <!-- Generator: Sketch 41.2 (35397) - http://www.bohemiancoding.com/sketch -->
    <title>Content Defendant</title>
    <desc>Created with Sketch.</desc>
    <defs>
        <path d="M173.703859,221.228225 C163.490982,235.293059 155.860879,278.794451 153.714343,292.123793 C153.128784,293.562681 152.884689,295.263626 153.113155,297.274069 C154.505233,309.524015 207.714603,305.635339 220.930818,304.478339 C221.396078,304.545295 221.875914,304.596975 222.370395,304.632624 C241.816672,306.0346 242.514414,305.897933 254.389162,303.419129 C256.837446,302.90806 262.817394,298.611689 261.116472,293.562991 C260.175413,290.769726 263.710039,287.588484 264.246401,286.191211 C265.33695,283.350235 263.065484,281.776277 263.065536,278.867765 C263.065657,272.103449 266.986525,273.943521 262.086072,268.822202 C259.11768,265.720022 244.862261,268.689092 244.862261,268.689092 C244.862261,268.689092 252.67991,268.271676 250.598698,266.510063 C249.739194,265.782547 247.606932,264.843574 245.84166,261.381069 C244.111428,257.987293 234.798859,259.323292 231.441119,260.260823 C223.715761,262.417857 229.11805,267.183289 217.020036,277.197766 C213.413032,280.183567 211.06958,283.954088 210.060563,287.737783 L175.762956,284.554337 C175.93418,284.371077 176.105226,284.184897 176.27605,283.995748 C185.056022,274.273906 197.541565,243.994823 202.396752,231.710438 C202.725412,231.079135 203.03322,230.42728 203.31814,229.756051 C207.742289,219.333409 204.97266,208.186181 197.132,204.858018 C189.291341,201.529856 179.34875,207.281067 174.924601,217.703708 C174.428077,218.873446 174.022163,220.052311 173.703859,221.228225 Z" id="path-1"></path>
        <mask id="mask-2" maskContentUnits="userSpaceOnUse" maskUnits="objectBoundingBox" x="0" y="0" width="111.522261" height="102.071947" fill="white">
            <use xlink:href="#path-1"></use>
        </mask>
        <path d="M92.8277736,222.580126 C92.8277736,222.580126 97.7367462,220.879378 115.677538,221.294032 C142.311944,200.120106 190.901934,243.308244 190.901934,243.308244 L162.730225,353.481661 C162.730225,353.481661 95.5764344,349.318808 81.7559552,341.868216 C89.6063578,297.762532 92.8277736,222.580126 92.8277736,222.580126 Z" id="path-3"></path>
        <mask id="mask-4" maskContentUnits="userSpaceOnUse" maskUnits="objectBoundingBox" x="0" y="0" width="109.145979" height="138.030201" fill="white">
            <use xlink:href="#path-3"></use>
        </mask>
        <path d="M68.642653,247.433648 C58.4297756,261.498482 50.799673,304.999874 48.6531372,318.329216 C48.0675782,319.768104 47.8234832,321.46905 48.051949,323.479492 C49.4440272,335.729438 102.653397,331.840763 115.869612,330.683763 C116.334872,330.750718 116.814708,330.802398 117.309189,330.838048 C136.755466,332.240023 137.453208,332.103357 149.327956,329.624553 C151.77624,329.113484 157.756188,324.817112 156.055266,319.768414 C155.114207,316.975149 158.648833,313.793908 159.185195,312.396635 C160.275744,309.555658 158.004278,307.981701 158.00433,305.073189 C158.004451,298.308872 161.925319,300.148945 157.024866,295.027626 C154.056474,291.925446 139.801055,294.894516 139.801055,294.894516 C139.801055,294.894516 147.618704,294.477099 145.537492,292.715486 C144.677988,291.987971 142.545726,291.048997 140.780454,287.586493 C139.050222,284.192717 129.737653,285.528716 126.379913,286.466247 C118.654555,288.623281 124.056844,293.388713 111.95883,303.40319 C108.351826,306.38899 106.008374,310.159512 104.999357,313.943206 L70.7017504,310.759761 C70.8729736,310.576501 71.0440204,310.39032 71.2148437,310.201172 C79.9948161,300.47933 92.4803588,270.200246 97.3355459,257.915861 C97.664206,257.284559 97.9720138,256.632704 98.2569339,255.961474 C102.681083,245.538833 99.9114536,234.391604 92.0707943,231.063442 C84.2301351,227.735279 74.2875438,233.486491 69.8633951,243.909132 C69.3668708,245.07887 68.960957,246.257734 68.642653,247.433648 Z" id="path-5"></path>
        <mask id="mask-6" maskContentUnits="userSpaceOnUse" maskUnits="objectBoundingBox" x="0" y="0" width="111.522261" height="102.071947" fill="white">
            <use xlink:href="#path-5"></use>
        </mask>
        <path d="M42.8592374,162.207666 C42.2400019,162.980864 41.5432375,163.696902 40.7684209,164.34705 C32.259432,171.48694 17.5592917,167.976614 7.93473864,156.506518 C-1.68981444,145.036422 -2.59415786,129.950049 5.91483107,122.810159 C10.5674471,118.906151 17.071078,118.186317 23.5838666,120.210831 C16.1227341,93.3882497 18.9824984,70.2595052 26.6528683,54.5980532 C39.8049234,13.9598476 92.732284,-8.35803287 148.159645,4.43838174 C205.923902,17.7743112 218.7863,51.544052 214.101393,88.1747003 C212.463211,100.983426 210.444394,111.94926 208.034443,121.30327 C210.620179,124.474601 212.368805,127.35683 213.114898,129.853793 C221.649666,158.417251 203.320771,202.532224 180.032146,217.084572 C156.743521,231.63692 88.6134612,227.286572 47.5247941,169.123742 C45.8892279,166.808526 44.3349026,164.502578 42.8592374,162.207666 Z" id="path-7"></path>
        <mask id="mask-8" maskContentUnits="userSpaceOnUse" maskUnits="objectBoundingBox" x="0" y="0" width="215.16566" height="223.303482" fill="white">
            <use xlink:href="#path-7"></use>
        </mask>
        <path d="M91.9003906,360.539062 L118.25,368.921619 L101,464.023181 L97.9863281,474.447266 L57.1914063,499.294922 C57.1914063,499.294922 30.8921278,495.61842 37.3007813,477.128906 C39.6972656,470.214844 72,464.023181 72,464.023181 L91.9003906,360.539062 Z M142.984375,355.857165 L171.984375,355.857165 L158.510742,452.888672 C158.510742,452.888672 191.850586,457.298828 195.015625,461.546875 C209.937031,481.574063 173.217773,485.805664 173.217773,485.805664 L128.602539,466.280273 L129,456.023181 L142.984375,355.857165 Z" id="path-9"></path>
        <mask id="mask-10" maskContentUnits="userSpaceOnUse" maskUnits="objectBoundingBox" x="0" y="0" width="162.288017" height="143.437756" fill="white">
            <use xlink:href="#path-9"></use>
        </mask>
        <path d="M92,350.921619 C92.09375,339.681384 174.661133,345.90332 174.661133,345.90332 C174.661133,345.90332 173.672852,346.610352 171.369141,358.492188 C170.443927,363.264157 157.123276,372.923561 142.240747,375.543193 C133.803717,377.028285 124.599832,378.098863 116.302582,378.677091 C102.793371,379.618538 94.5146986,369.368103 93.0351562,367.363281 C89.0439453,361.955078 91.90625,362.161853 92,350.921619 Z" id="path-11"></path>
        <mask id="mask-12" maskContentUnits="userSpaceOnUse" maskUnits="objectBoundingBox" x="0" y="0" width="83.7421331" height="34.5523001" fill="white">
            <use xlink:href="#path-11"></use>
        </mask>
        <path d="M76.8962031,24.6316377 C81.2809687,40.0310518 75.6713695,30.3828104 86.7135859,43.2830049 C92.0131676,49.4743014 109.674911,66.7651711 105.069055,71.5857393 C96.0192499,81.057419 77.1542503,79.8028482 71.7536249,77.3289034" id="path-13"></path>
        <mask id="mask-14" maskContentUnits="userSpaceOnUse" maskUnits="objectBoundingBox" x="0" y="0" width="34.0737873" height="54.4723366" fill="white">
            <use xlink:href="#path-13"></use>
        </mask>
        <path d="M148.18698,386.894107 C140.388058,388.187377 132.063269,389.130522 124.482793,389.664465 L109,475.023181 L80,475.023181 L99.2018709,375.171438 C98.2711959,372.380047 99.9290238,370.431372 100,361.921619 C100.09375,350.681384 182.661133,356.90332 182.661133,356.90332 C182.661133,356.90332 181.824209,357.502068 179.895412,366.857165 L179.984375,366.857165 L166,467.023181 L137,467.023181 L148.186978,386.894108 Z" id="path-15"></path>
        <mask id="mask-16" maskContentUnits="userSpaceOnUse" maskUnits="objectBoundingBox" x="0" y="0" width="102.661133" height="119.837463" fill="white">
            <use xlink:href="#path-15"></use>
        </mask>
        <path d="M97.212274,20.5737987 C97.212274,20.5737987 96.1823259,10.3389605 101.324372,21.4078541 C106.34449,22.2082582 114.319691,22.693475 115.532986,18.0126659 C118.383332,7.01622529 131.998314,1.55893583 134.159111,10.5172771 C135.884677,17.6712151 132.484677,19.0389094 139.817899,19.7975661 C150.317779,20.8838286 164.896406,15.7030114 172.523258,28.0021933 C175.524779,32.8424924 178.074726,39.6560717 168.906667,48.0746583 C148.863722,66.4791274 113.108892,44.5422717 101.563746,45.2068018 C90.0185989,45.8713318 97.212274,20.5737987 97.212274,20.5737987 Z" id="path-17"></path>
        <mask id="mask-18" maskContentUnits="userSpaceOnUse" maskUnits="objectBoundingBox" x="0" y="0" width="80.2894031" height="49.4185672" fill="white">
            <use xlink:href="#path-17"></use>
        </mask>
        <path d="M2.00179193,24.4334902 C2.00179193,24.4334902 -0.0380722801,9.13989523 6.58434922,24.0477609 C11.1893747,26.2008906 21.2636883,29.221325 21.1783864,24.7005214 C20.9547808,12.849945 41.5411382,13.4226404 41.1489761,22.6295471 C40.835804,29.981984 39.7474154,28.2847254 46.587447,31.035303 C56.3811653,34.9736448 71.3587205,32.6107231 74.79652,45.0393324 C78.2343196,57.4679417 75.3316341,62.7443381 64.198253,68.3097433 C39.858779,80.4766703 20.565539,50.9551954 9.28446235,48.411709 C-1.9966143,45.8682226 2.00179193,24.4334902 2.00179193,24.4334902 Z" id="path-19"></path>
        <mask id="mask-20" maskContentUnits="userSpaceOnUse" maskUnits="objectBoundingBox" x="0" y="0" width="74.8451786" height="55.4794001" fill="white">
            <use xlink:href="#path-19"></use>
        </mask>
        <path d="M210.537686,277.726734 L235.117238,275.86326 C235.462702,271.648475 237.34022,267.214862 240.792545,263.561932 C251.579924,252.147724 245.637144,248.076186 253.042041,244.993746 C256.260497,243.653998 265.340835,241.19304 267.471767,244.350657 C269.645853,247.57222 271.876654,248.244338 272.818413,248.861683 C275.098798,250.356529 267.390292,251.723566 267.390292,251.723566 C267.390292,251.723566 281.177614,247.039329 284.501941,249.756629 C289.989999,254.24256 285.874107,252.894037 286.69835,259.607947 C287.052757,262.494786 289.49911,263.78019 288.762918,266.732895 C288.400837,268.185119 285.280254,271.77341 286.554712,274.431168 C288.858237,279.234944 283.446459,284.228063 281.078708,285.033694 C269.594562,288.941189 269.084789,289.675948 249.612604,290.654328 C238.818984,293.161209 215.628988,295.322038 213.695838,295.593725" id="path-21"></path>
        <mask id="mask-22" maskContentUnits="userSpaceOnUse" maskUnits="objectBoundingBox" x="0" y="0" width="78.3625812" height="52.7832914" fill="white">
            <use xlink:href="#path-21"></use>
        </mask>
        <path d="M102.293077,232.189336 C105.313289,231.063384 110.988559,229.698559 128.92935,230.113213 C139.405308,237.14067 150.344899,248.287289 174.202783,255.332115 C190.703823,260.204592 203.251193,257.842187 203.251193,257.842187 L214.436274,284.23176 C214.436274,284.23176 223.005647,302.349222 223.880411,320.508784 C223.952231,321.999742 248.142587,298.937934 248.986552,300.313066 C251.5024,304.412313 260.10437,307.198355 263.966097,310.514532 C258.186185,318.076923 226.969658,353.231815 217.462791,347.06045 C208.12785,336.674739 191.081731,306.244597 191.081731,306.244597 L194.150341,293.361383 L197.445032,281.041386 L170.05309,425.50395 C170.05309,425.50395 69.854125,420.366375 56.0336458,412.915783 C59.7135757,392.240941 103.26294,281.644734 103.26294,281.644734 C103.26294,281.644734 106.697645,275.370884 106.000923,276.273441 C105.304202,277.175999 83.8703513,310.750557 83.3727616,309.753124 C82.6584131,308.321192 60.1398807,324.732823 58.5300288,320.819263 C52.6719588,317.574502 61.2366079,298.40583 69.5036367,279.534225 C78.4377429,259.139844 90.5844402,236.887288 102.293077,232.189336 Z" id="path-23"></path>
        <mask id="mask-24" maskContentUnits="userSpaceOnUse" maskUnits="objectBoundingBox" x="0" y="0" width="207.932451" height="195.466762" fill="white">
            <use xlink:href="#path-23"></use>
        </mask>
        <path d="M104.708759,232.579109 C125.043128,221.469771 135.932716,204.506182 146.596218,202.258271 C157.498691,210.793152 165.236234,218.258453 175.30157,237.169083 C200.05157,283.669083 182.734263,321.145481 157.984263,367.645481 C150.968095,367.767949 140.709261,367.947017 100.192137,341.923761 C93.1109264,337.375656 90.1726748,325.812666 91.5204171,314.900917 C123.151488,251.518913 100.306558,235.703289 104.708759,232.579109 Z" id="path-25"></path>
        <mask id="mask-26" maskContentUnits="userSpaceOnUse" maskUnits="objectBoundingBox" x="0" y="0" width="96.1174413" height="165.404754" fill="white">
            <use xlink:href="#path-25"></use>
        </mask>
        <path d="M160.5,292.5 L160.5,273 L151.5,273 L151.5,292.5 L129,292.5 L129,303.5 L151.5,303.5 L151.5,353 L160.5,353 L160.5,303.5 L183,303.5 L183,292.5 L160.5,292.5 Z" id="path-27"></path>
        <mask id="mask-28" maskContentUnits="userSpaceOnUse" maskUnits="objectBoundingBox" x="0" y="0" width="54" height="80" fill="white">
            <use xlink:href="#path-27"></use>
        </mask>
        <path d="M236.33374,242.072998 L238.056396,242.993164 C238.056396,242.993164 243.670471,233.711025 248.641113,230.691895 C249.684411,230.058204 261.278445,234.145703 262.979492,236.211914 C265.192666,238.900191 261.891602,244.231445 259.245117,244.231445 C254.840338,244.231445 250.908698,242.385919 250.020135,244.231445 C247.339526,249.799016 250.881939,247.010033 248.641113,248.371094" id="path-29"></path>
        <mask id="mask-30" maskContentUnits="userSpaceOnUse" maskUnits="objectBoundingBox" x="0" y="0" width="27.3727899" height="17.7451914" fill="white">
            <use xlink:href="#path-29"></use>
        </mask>
        <path d="M89.1698467,328.484695 L113.7494,326.621221 C114.094864,322.406436 115.972381,317.972823 119.424706,314.319892 C130.212085,302.905684 124.269305,298.834147 131.674202,295.751706 C134.892658,294.411958 143.972996,291.951001 146.103928,295.108618 C148.278015,298.330181 150.508815,299.002298 151.450574,299.619644 C153.73096,301.11449 146.022453,302.481527 146.022453,302.481527 C146.022453,302.481527 159.809775,297.797289 163.134103,300.51459 C168.62216,305.000521 164.506268,303.651997 165.330511,310.365908 C165.684918,313.252747 168.131271,314.53815 167.395079,317.490855 C167.032998,318.94308 163.912416,322.531371 165.186874,325.189129 C167.490398,329.992904 162.07862,334.986024 159.710869,335.791654 C148.226723,339.69915 147.71695,340.433909 128.244765,341.412289 C117.451145,343.91917 88.6120472,345.783942 86.678897,346.055629" id="path-31"></path>
        <mask id="mask-32" maskContentUnits="userSpaceOnUse" maskUnits="objectBoundingBox" x="0" y="0" width="80.8535309" height="52.4872345" fill="white">
            <use xlink:href="#path-31"></use>
        </mask>
        <path d="M80.9960937,321.123047 L111,323.985352 L112.239258,342.032227 C112.239258,342.032227 68.5712891,347.204102 58.8935547,338.489258" id="path-33"></path>
        <mask id="mask-34" maskContentUnits="userSpaceOnUse" maskUnits="objectBoundingBox" x="0" y="0" width="53.3457031" height="22.4326091" fill="white">
            <use xlink:href="#path-33"></use>
        </mask>
        <path d="M12.380206,0.829146096 C12.380206,0.829146096 21.341458,1.30529841 26.3929378,1.39330437 C39.8045417,24.2082353 39.55731,42.1406009 25.8115546,67.2826175 C17.8422989,66.257564 18.5875195,68.7443846 11.0257321,66.4128463 C19.4852813,67.7473192 35.0114459,17.0881691 12.380206,0.829146096 Z" id="path-35"></path>
        <mask id="mask-36" maskContentUnits="userSpaceOnUse" maskUnits="objectBoundingBox" x="0" y="0" width="25.2628939" height="66.6183974" fill="white">
            <use xlink:href="#path-35"></use>
        </mask>
        <path d="M222.143792,57.2283808 C227.383204,59.1690818 235.010401,60.2664313 236.636866,64.8010993 C223.576319,60.8489508 231.260003,63.2098261 220.011956,65.3377558 C222.143792,63.2098261 222.143792,61.5018183 222.143792,57.2283808 Z" id="path-37"></path>
        <mask id="mask-38" maskContentUnits="userSpaceOnUse" maskUnits="objectBoundingBox" x="0" y="0" width="16.6249107" height="8.109375" fill="white">
            <use xlink:href="#path-37"></use>
        </mask>
        <path d="M5.06869577,0.505614511 C5.06869577,0.505614511 10.5332804,0.795972894 13.6136802,0.849639058 C21.7920961,14.7622176 23.7438685,25.9233525 15.3616866,41.2549912 C10.5020227,40.6299121 9.87573564,42.4769901 8.97662461,41.9786047 C11.6833125,39.2160352 16.3031106,12.1626636 5.06869577,0.505614511 Z" id="path-39"></path>
        <mask id="mask-40" maskContentUnits="userSpaceOnUse" maskUnits="objectBoundingBox" x="0" y="0" width="15.7060008" height="41.5594197" fill="white">
            <use xlink:href="#path-39"></use>
        </mask>
        <path d="M159.729492,34.4941406 C170.697266,30.8754883 186.722656,36.2211914 194.664062,39.7148438 C196.330566,43.3310547 195.681152,42.5307617 197.307617,47.0654297 C184.24707,43.1132813 168.845703,40.4755859 157.597656,42.6035156 C159.729492,40.4755859 159.729492,38.7675781 159.729492,34.4941406 Z" id="path-41"></path>
        <mask id="mask-42" maskContentUnits="userSpaceOnUse" maskUnits="objectBoundingBox" x="0" y="0" width="39.7099609" height="13.7776442" fill="white">
            <use xlink:href="#path-41"></use>
        </mask>
        <path d="M35.3702539,79.0556024 C46.3380274,75.43695 110.378957,95.265378 118.320363,98.7590303 C119.986867,102.375241 119.657318,100.516462 121.283783,105.05113 C122.910247,109.585798 38.6422501,86.8377297 27.3942032,88.9656594 C31.9539363,85.7728999 35.3702539,83.3290399 35.3702539,79.0556024 Z" id="path-43"></path>
        <mask id="mask-44" maskContentUnits="userSpaceOnUse" maskUnits="objectBoundingBox" x="0" y="0" width="93.9128147" height="27.0342232" fill="white">
            <use xlink:href="#path-43"></use>
        </mask>
    </defs>
    <g id="Page-1" stroke="none" stroke-width="1" fill="none" fill-rule="evenodd">
        <g id="Content-Defendant">
            <g id="silueta" transform="translate(8.000000, 11.000000)">
                <use id="brazo-dcho" stroke="#000000" mask="url(#mask-2)" stroke-width="2" fill="#FFD788" transform="translate(208.789493, 254.949876) rotate(-55.000000) translate(-208.789493, -254.949876) " xlink:href="#path-1"></use>
                <use id="torso" stroke="#000000" mask="url(#mask-4)" stroke-width="2" fill="#D8D8D8" transform="translate(136.328945, 284.466561) rotate(-10.000000) translate(-136.328945, -284.466561) " xlink:href="#path-3"></use>
                <use id="brazo-izq" stroke="#000000" mask="url(#mask-6)" stroke-width="2" fill="#FFD788" xlink:href="#path-5"></use>
                <g id="cabeza" transform="translate(128.309097, 135.345117) rotate(8.000000) translate(-128.309097, -135.345117) translate(16.309097, 15.345117)">
                    <use stroke="#000000" mask="url(#mask-8)" stroke-width="2" fill="#FFD788" xlink:href="#path-7"></use>
                    <g id="cara" transform="translate(19.000000, -0.000000)">
                        <g id="barba" transform="translate(112.862727, 171.807913) rotate(-11.000000) translate(-112.862727, -171.807913) translate(29.362727, 118.807913)" stroke="#261408">
                            <path d="M3.36328125,0.1953125 L0.155273438,14.7421875 L7.04882813,7.43261719 L0.73046875,22.0048828 L8.48242188,13.0927734 L1.98730469,29.8798828 L10.1855469,19.7607422 L3.57714844,35.21875 L10.90625,25.9726562 L5.45507813,39.8730469 L13.9980469,30.7363281 L8.66894531,44.6337891 L19.4335938,31.921875 C19.4335938,31.921875 10.7452576,46.7394181 10.7333984,48.8046875 C10.7215392,50.8699569 23.1621094,34.5927734 23.1621094,34.5927734 L15.0664063,50.7636719 L25.2080078,39.7246094 L17.2753906,54.1210937 L28.5771484,42.0566406 L20.8193359,58.2939453 L34.0693359,43.8691406 C34.0693359,43.8691406 22.8470112,60.4253178 22.8505859,62.796875 C22.8541607,65.1684322 37.1162109,46.9443359 37.1162109,46.9443359 L26.3486328,66.5605469 L39.296875,50.8554687 L31.147237,69.5335936 L42.4091797,55.7119141 L34.1711466,73.3543156 L50.2158203,56.9052734 L38.911383,77.1916437 L54.6669922,59.8193359 L43.664151,81.2936623 L55.0859375,69.703125 L50.0087891,85.4335937 L59.1259766,71.9951172 L55.2272606,89.6270461 L63.4160156,73.3164062 L61.479785,92.7280591 L68.8164063,77.1621094 L67.5998075,96.3981125 L74.7832031,79.3066406 L74.3344724,99.3865091 L81.1425781,83.4160156 L81.9715373,101.315213 L87.8515625,86.8535156 L89.0185984,102.783696 L94.6633508,87.2159877 L96.743222,104.4598 L102.795623,87.3272974 L104.831865,105.254333 L109.125,88.1113281 L112.76242,104.661738 L116.410443,85.8444504 L119.900702,103.661886 L125.096167,82.9337089 L126.68586,99.9210469 L132.494141,83.6777344 L133.033203,96.0019531 L138.933594,78.9375 L139.447266,93.046875 L144.107422,67.7197266 L145.894531,84.9316406 L149,63.8007812 L150.789063,80.2392578 L155.056641,57.984375 L154.376953,74.2832031 L160.697266,48.3027344 L159.322266,65.4316406 L166.140625,45.375 L165.277344,53.6464844" id="Path-2"></path>
                            <polyline id="Path-3" points="111.34375 47.9414062 102.501953 61.2832031 105.746094 46.9882812 95.8398437 60.5078125 98.0664062 46.3964844 89.1806641 59.2207031 92.2910156 42.8007812 83.0292969 56.0615234 84.9121094 40.4785156 77.5957031 52.8769531 76.5205078 38.4951172 70.2265625 48.7597656 70.9003906 38.7998047 66.2871094 47.1933594 64.6669922 38.7685547 62.5058594 50.3935547 61.1210937 39.5166016 58.4257812 49.9609375 56.1660156 42.5888672 54.9443359 54.3105469 52.4023437 42.5068359 49.8369141 53.1728516"></polyline>
                            <polyline id="Path-4" points="125.729492 49.8457031 126.814453 60.7197266 130.822266 48.8496094 133.512695 59.6601562 136.955078 49.1865234 139.363281 60.2382812 141.688477 49.9716797 143.828125 59.5966797 147.72168 51.2402344 148.292969 59.2578125 151.605469 53.3662109 151.935547 59.7724609"></polyline>
                        </g>
                        <path d="M6.66850367,120.351095 C6.66850367,120.351095 8.20887796,126.517201 11.9341287,131.17922 C16.4817051,136.87035 20.4865828,143.541567 23.0513162,141.440939 C25.6160496,139.34031 18.7952146,127.114396 21.0005349,123.753439 C22.2913083,121.786271 27.2869257,134.173293 30.0435037,130.784689 C32.8000817,127.396084 32.5053569,121.224018 29.6724099,113.093282 C27.8120397,107.753903 31.1980227,98.7300452 31.4380349,97.4467981 C32.3415961,92.6158261 29.7603005,117.178243 35.4810037,99.7026575 C41.2017068,82.2270715 43.4253985,98.4153192 45.5132302,93.8530481 C47.9878625,88.4455514 55.4924541,65.8587111 55.5278787,74.5864465 C55.5825662,88.0600793 61.8242654,54.4985559 61.8242654,54.4985559 C61.8242654,54.4985559 66.3338108,59.803431 78.0942849,68.944845 C85.8562717,74.9782356 99.0518414,76.5332647 99.9145974,74.6342981 C100.917076,72.427796 79.0894021,66.8779504 78.721238,57.0717981 C78.6769809,55.8929968 82.9360904,59.2840194 93.5142068,64.1362512 C104.80347,69.3146892 118.889057,81.3743504 120.534715,76.313009 C120.896531,75.2002161 103.106802,62.478235 106.98491,57.1831262 C107.202884,56.8855074 113.805571,63.8014043 121.519363,69.5386032 C128.182161,74.4941153 135.122964,76.630162 140.596238,76.3589075 C143.591355,76.21047 121.120652,66.3764856 122.563035,55.319845 C123.005024,51.9317611 133.040311,58.6091284 134.784715,62.1928918 C137.350144,67.4633997 147.738622,73.1358218 151.285691,71.64797 C154.296257,70.3851593 140.441941,66.538595 138.51616,54.1059778 C137.622461,48.3363617 147.547475,57.4172777 152.586472,61.3276575 C155.926316,63.9194543 164.823295,71.6079741 168.117722,70.226095 C169.786796,69.5259862 151.758219,54.5678053 153.427293,53.8676965 C155.002084,53.2071354 165.515588,60.5780624 167.090379,59.9175012 C169.552087,58.8849141 165.33854,52.2788993 168.574754,50.5923059 C171.403695,49.1179677 176.616746,66.8081262 176.101121,60.0288293 C175.585496,53.2495325 186.966296,51.0641276 186.790574,52.3012903 C185.005988,64.8655916 184.325489,57.8828645 186.485886,72.8051965 C186.61439,73.6927966 188.904362,57.3840964 190.265183,60.6186731 C190.697492,61.6462403 191.985038,70.2076513 190.375663,77.5084326 C188.766288,84.8092138 195.230695,63.7183236 195.686749,69.5444954 C196.142804,75.3706673 194.037772,95.7877295 194.037772,95.7877295 C194.037772,95.7877295 190.403055,66.2777096 188.621254,48.9215078 C187.517622,38.1712303 169.536544,19.1095352 167.611468,17.4349271 C162.89877,13.3353916 154.077765,7.97364124 151.203351,7.63445645 C147.181762,7.15990349 146.806248,3.41004964 142.844285,2.85109497 C139.917584,2.43819532 70.3737266,1.47277065 68.5156081,0.789017676 C58.4428213,-2.91758013 16.8910336,33.7659279 16.5969478,35.1074725 C16.2172023,36.839775 -2.76253957,85.3641998 1.26172285,117.086144 L6.66850367,120.351095 Z M11.435517,177.744209 C18.1382781,181.599524 28.1963433,199.53344 26.8286599,193.478048 C22.9907693,176.485861 53.4662489,202.540599 59.6802452,202.270482 C65.075071,202.035973 45.579209,191.605248 35.016279,177.773724 C29.6958703,170.806968 24.0027538,161.700872 24.0027538,161.700872 C24.0027538,161.700872 19.3333362,167.637508 10.0229916,167.693569 L11.435517,177.744209 Z" id="pelo" stroke="#000000" fill="#9C551A"></path>
                    </g>
                </g>
                <use id="piernas" stroke="#000000" mask="url(#mask-10)" stroke-width="2" fill="#FFD788" xlink:href="#path-9"></use>
                <g id="pelillos" transform="translate(83.000000, 370.000000)" stroke="#261408">
                    <path d="M18,59 L18.4140625,65" id="Path-5"></path>
                    <path d="M7.59179688,61 C5.39453125,63.1803385 3.19726563,65.3606771 1,67.5410156" id="Path-6"></path>
                    <path d="M8.02929688,52.3515625 C2.83329883,53.2095344 6.00699042,54.0070016 0.525390625,56.1445312" id="Path-7"></path>
                    <polyline id="Path-8" points="14.0449219 50.6035156 14.0449219 52.2324219 14.0449219 52.7011719 14.0449219 53.2714844 14.0449219 53.8417969 14.0449219 54.0996094 14.0449219 54.3847656 14.0449219 54.5136719 14.0449219 54.6425781 14.0449219 54.7714844 14.0449219 54.9003906 14.0449219 55.0292969 14.0449219 55.1582031 14.0449219 55.4160156 14.0449219 55.6738281 14.0449219 55.8027344 14.0449219 55.9316406 14.0449219 56.1894531 14.0449219 56.3183594 14.0449219 56.4472656"></polyline>
                    <path d="M17.6582031,43.6816406 L19.3144531,48.7871094" id="Path-9"></path>
                    <path d="M15.1367188,35.7675781 L10.7285156,39.1738281" id="Path-10"></path>
                    <path d="M4.94921875,39.8476562 L2.13671875,44.9433594" id="Path-11"></path>
                    <path d="M10.0195312,30.0585938 L3.96875,31.4648438" id="Path-12"></path>
                    <path d="M13.4453125,25.875 C14.2122396,26.4746094 14.9791667,27.0742188 15.7460938,27.6738281" id="Path-13"></path>
                    <path d="M21.78125,29.8867188 L22.2226562,37.5664062" id="Path-14"></path>
                    <path d="M25.1972656,19.671875 L25.6113281,23.09375" id="Path-15"></path>
                    <path d="M16.0214844,18 C10.347209,18.404568 13.1061969,17.7413261 8,20.3984375" id="Path-16"></path>
                    <path d="M19,12.612114 L14.5957031,10" id="Path-17"></path>
                    <polyline id="Path-18" points="81.9023438 0.96875 81.9023438 2.62695312 81.9023438 3.30859375 81.9023438 4.69921875 81.9023438 6.30273438 81.9023438 6.58789062 81.9023438 7.34179688 81.9023438 7.47070312 81.9023438 7.59960938 81.9023438 7.72851562 81.9023438 7.85742188"></polyline>
                    <path d="M73.4785156,7.4375 L70.6933594,13.6855469" id="Path-19"></path>
                    <path d="M77.6503906,12.9433594 L78.8730469,19.7949219" id="Path-20"></path>
                    <path d="M71.6855469,21.6289062 L73.7226562,25.8710938" id="Path-21"></path>
                    <path d="M76.6640625,24.4804688 L76.8066406,30.6289062" id="Path-22"></path>
                    <path d="M67.1347656,11.2929688 L63.2890625,13.4980469" id="Path-23"></path>
                    <path d="M63.546875,21.5800781 C62.391276,23.8216146 61.2356771,26.063151 60.0800781,28.3046875" id="Path-24"></path>
                    <path d="M67.2910156,29.3496094 C65.9140625,30.8541667 64.5371094,32.358724 63.1601562,33.8632812" id="Path-25"></path>
                    <path d="M61,38 L65.9785156,46.6210938" id="Path-26"></path>
                    <path d="M73.875,36.0175781 L76.3515625,43.9902344" id="Path-27"></path>
                    <path d="M72.8027344,49.8828125 L74.9746094,55.7890625" id="Path-28"></path>
                    <path d="M67.5234375,50.1308594 C68.1302083,52.1803385 68.7369792,54.2298177 69.34375,56.2792969" id="Path-29"></path>
                    <path d="M63.7851562,58.9628906 L59.2246094,61.5605469" id="Path-30"></path>
                    <path d="M56.375,54.9472656 L52.296875,58.9511719" id="Path-31"></path>
                    <polyline id="Path-32" transform="translate(57.334961, 46.123047) rotate(-36.000000) translate(-57.334961, -46.123047) " points="60.375 45.6230469 58.1191406 45.6230469 57.9882813 45.6230469 57.3046875 45.6230469 56.8339844 45.6230469 55.8632813 45.6230469 55.1054688 45.6230469 54.9746094 45.6230469 54.7128906 45.6230469 54.5820313 45.6230469 54.2949219 45.6230469"></polyline>
                </g>
                <use id="calzones" stroke="#000000" mask="url(#mask-12)" stroke-width="2" fill="#4B476D" xlink:href="#path-11"></use>
                <path d="M96,445 C102.386151,445.783069 102.148345,450.198558 96.5131836,452.148926" id="tobillo-izqdo" stroke="#000000"></path>
                <path d="M134,438 C140.386151,438.783069 140.148345,443.198558 134.513184,445.148926" id="tobillo-dcho" stroke="#000000" transform="translate(136.382588, 441.574463) scale(-1, 1) translate(-136.382588, -441.574463) "></path>
            </g>
            <g id="cara-variable" transform="translate(111.000000, 113.000000)">
                <path d="M84.4175327,101.20553 C67.2488976,114.153613 48.5443275,112.993762 31.2113735,100.232589" id="boca" stroke="#000000" transform="translate(57.814453, 105.304592) scale(-1, -1) rotate(-171.000000) translate(-57.814453, -105.304592) "></path>
                <circle id="ojo-dcho" stroke="#000000" fill="#FFFFFF" cx="98.5" cy="31.8559903" r="23.5"></circle>
                <circle id="pupila-dcha" stroke="#6E934F" fill="#000000" cx="92" cy="36" r="4"></circle>
                <path d="M113.96806,2.5583784 C102.318741,2.5583784 79.7747976,7.95301806 79.5958133,10.9770822" id="ceja-dcha" stroke="#000000" transform="translate(96.781937, 6.767730) rotate(5.000000) translate(-96.781937, -6.767730) "></path>
                <ellipse id="ojo-izqdo" stroke="#000000" fill="#FFFFFF" cx="36.2761534" cy="37.0883207" rx="29.8391703" ry="29.8391703"></ellipse>
                <circle id="pupila-izqda" stroke="#6E934F" fill="#000000" cx="40.4369832" cy="36.2491504" r="4"></circle>
                <path d="M57.7426472,11.5762988 C53.3910847,5.28723635 33.8506649,0.69921875 15.9902344,0.69921875" id="ceja-izqda" stroke="#000000"></path>
                <use id="nariz" stroke="#000000" mask="url(#mask-14)" stroke-width="2" fill="#FFD788" transform="translate(88.790519, 51.867806) rotate(-6.000000) translate(-88.790519, -51.867806) " xlink:href="#path-13"></use>
            </g>
            <use id="pants" stroke="#000000" mask="url(#mask-16)" stroke-width="2" fill="#E92B2B" xlink:href="#path-15"></use>
            <g id="shoes" transform="translate(38.000000, 442.000000)" stroke="#000000" stroke-width="2">
                <use id="zapato-dcho-copy" mask="url(#mask-18)" fill="#545458" transform="translate(135.142740, 30.737332) rotate(8.000000) translate(-135.142740, -30.737332) " xlink:href="#path-17"></use>
                <use id="zapato-izqdo-copy" mask="url(#mask-20)" fill="#545458" transform="translate(38.736360, 43.498162) scale(-1, 1) rotate(2.000000) translate(-38.736360, -43.498162) " xlink:href="#path-19"></use>
                <g id="cordones-izda" transform="translate(15.000000, 31.000000)">
                    <path d="M0.0078125,5.16015625 C0.0078125,5.16015625 11.9794922,2.67578125 16.0957031,11.9316406" id="Path-2"></path>
                    <path d="M10.3818359,2.47167969 C10.3818359,2.47167969 20.9716797,-0.181243726 25.0878906,9.07461565" id="Path-2-Copy"></path>
                    <path d="M17,0.303131274 C17,0.303131274 28.9716797,-2.18124373 33.0878906,7.07461565" id="Path-2-Copy-2"></path>
                </g>
                <g id="cordones-dcha" transform="translate(141.973832, 25.500685) scale(-1, 1) rotate(3.000000) translate(-141.973832, -25.500685) translate(124.973832, 19.000685)">
                    <path d="M0.85182304,5.33796972 C0.85182304,5.33796972 11.9794922,3.67578125 16.0957031,12.9316406" id="Path-2"></path>
                    <path d="M10.3818359,3.47167969 C10.3818359,3.47167969 20.9716797,0.818756274 25.0878906,10.0746156" id="Path-2-Copy"></path>
                    <path d="M19.6187485,1.04619206 C19.6187485,1.04619206 28.9716797,-1.18124373 33.0878906,8.07461565" id="Path-2-Copy-2"></path>
                </g>
            </g>
            <use id="antebrazo-over" stroke="#000000" mask="url(#mask-22)" stroke-width="2" fill="#D60DA9" transform="translate(249.718976, 269.202079) rotate(-48.000000) translate(-249.718976, -269.202079) " xlink:href="#path-21"></use>
            <use id="camiseta" stroke="#000000" mask="url(#mask-24)" stroke-width="2" fill="#E92B2B" transform="translate(159.999871, 327.770569) rotate(-10.000000) translate(-159.999871, -327.770569) " xlink:href="#path-23"></use>
            <use id="Rectangle" stroke="#000000" mask="url(#mask-26)" stroke-width="2" fill="#E92B2B" transform="translate(139.260729, 284.960648) rotate(91.000000) translate(-139.260729, -284.960648) " xlink:href="#path-25"></use>
            <path d="M119.527344,240.511719 C119.527344,240.511719 143.114453,274.044776 154.775391,276.673828 C166.436329,279.30288 179.015625,253.923828 179.015625,253.923828" id="Path-33" stroke="#000000"></path>
            <use id="Combined-Shape" stroke="#000000" mask="url(#mask-28)" stroke-width="2" fill="#E3FF5B" xlink:href="#path-27"></use>
            <path d="M257.060059,268.939209 C257.509766,265.769043 258.856201,256.582764 250.407471,251.146973" id="hand-wrenkle" stroke="#000000"></path>
            <path d="M279.999023,253.830078 L273.717673,259.402212 C273.717673,259.402212 270.875139,262.922687 269.289551,262.663086 C266.926947,262.276268 265.342312,262.093258 264.506592,259.754883 C263.850613,257.91943 265.581055,256.713623 267.254639,254.121338 C270.941162,247.905762 276.665527,244.625977 276.13208,244.406494 C275.986802,244.346721 271.722168,246.983887 266.964355,253.790527 C264.237419,256.357038 263.598302,258.400054 261.084473,258.568848 C258.777013,258.723784 256.231939,256.449673 255.772949,254.55127 C255.320318,252.679165 257.571289,249.333984 257.571289,249.333984 L266.943115,235.491699 L257.908203,248.544922 C257.908203,248.544922 274.230074,222.359082 274.920898,218.092773 C275.643555,213.629883 270.790016,211.741699 267.538795,213.061523 C266.344067,213.54652 251.70166,238.202148 255.800293,232.858887" id="fingers-over" stroke="#000000" fill="#D60EA9"></path>
            <use id="thumb" stroke="#000000" mask="url(#mask-30)" stroke-width="2" fill="#D60EA9" xlink:href="#path-29"></use>
            <use id="antebrazo-over" stroke="#000000" mask="url(#mask-32)" stroke-width="2" fill="#D60DA9" transform="translate(127.105662, 319.812011) rotate(8.000000) translate(-127.105662, -319.812011) " xlink:href="#path-31"></use>
            <use id="sleeve-over" stroke="#000000" mask="url(#mask-34)" stroke-width="2" fill="#E92B2B" xlink:href="#path-33"></use>
            <path d="M142.306945,77.0565737 C183.491389,77.0565737 222.788117,97.782497 247.774153,115.880512 C252.613658,119.385888 231.732668,159.590832 235.5357,161.555043 C237.188474,162.408676 251.618495,139.243866 250.824447,112.293868 C250.030399,85.3438704 228.352016,34.7736375 174.424683,20.3238521 C155.817405,15.3380469 129.840226,8.3774828 93.9487006,33.9090782 C72.3126496,49.2999788 59.2860888,72.971469 53.2738953,88.3637601 C49.5621076,97.8666004 47.0508176,106.199382 48.5002759,106.17915 C51.4438097,108.641231 52.3716353,104.222251 54.9335734,113.162849 C58.0305915,111.053863 57.4980088,127.998964 56.0020239,150.432816 C55.6786336,155.282391 64.3764323,155.775985 63.9899351,161.001508 C61.1427312,199.4963 48.2477857,249.086269 54.2048568,245.763384 C58.4236562,243.410116 65.9204626,197.073982 78.1578862,156.369461 C79.8188279,150.844783 86.7438007,147.621892 88.3623806,142.335051 C96.9743701,114.205319 104.665193,91.0396092 108.013237,89.8369131 C118.788306,85.9662552 130.665961,77.0565737 142.306945,77.0565737 Z" id="helmet" stroke="#000000" fill="#54340A" transform="translate(149.469851, 130.726732) rotate(-15.000000) translate(-149.469851, -130.726732) "></path>
            <g id="lense" transform="translate(129.555804, 47.486760) rotate(68.000000) translate(-129.555804, -47.486760) translate(111.055804, 13.486760)" stroke="#000000">
                <ellipse id="Oval" fill="#BCBCBC" cx="12.525476" cy="33.1115603" rx="12.1154941" ry="32.5205368"></ellipse>
                <use id="Rectangle" mask="url(#mask-36)" stroke-width="2" fill="#53669A" xlink:href="#path-35"></use>
            </g>
            <use id="Rectangle-4" stroke="#000000" mask="url(#mask-38)" stroke-width="2" fill="#262626" transform="translate(228.324411, 61.283068) rotate(24.000000) translate(-228.324411, -61.283068) " xlink:href="#path-37"></use>
            <g id="lense" transform="translate(211.784521, 51.778767) scale(-1, 1) rotate(61.000000) translate(-211.784521, -51.778767) translate(201.284521, 30.278767)" stroke="#000000">
                <path d="M8.9279999,41.2434747 C13.0083051,41.2434747 12.5453278,31.1438765 12.5453278,20.1914782 C12.5453278,9.23908001 9.23758682,0.360406979 5.1572816,0.360406979 C1.07697637,0.360406979 0.64012729,9.65364106 0.64012729,20.6060393 C0.64012729,31.5584375 4.84769467,41.2434747 8.9279999,41.2434747 Z" id="Oval" fill="#BCBCBC"></path>
                <use id="Rectangle" mask="url(#mask-40)" stroke-width="2" fill="#53669A" xlink:href="#path-39"></use>
            </g>
            <use id="Rectangle-4" stroke="#000000" mask="url(#mask-42)" stroke-width="2" fill="#262626" xlink:href="#path-41"></use>
            <use id="Rectangle-4" stroke="#000000" mask="url(#mask-44)" stroke-width="2" fill="#262626" transform="translate(74.350611, 92.133504) scale(-1, 1) rotate(-325.000000) translate(-74.350611, -92.133504) " xlink:href="#path-43"></use>
        </g>
    </g>
</svg>