<?xml version="1.0" encoding="UTF-8"?>
<svg width="342px" height="511px" viewBox="0 0 342 511" version="1.1" xmlns="http://www.w3.org/2000/svg" xmlns:xlink="http://www.w3.org/1999/xlink">
    <!-- Generator: Sketch 41.2 (35397) - http://www.bohemiancoding.com/sketch -->
    <title>Idiotic Musician</title>
    <desc>Created with Sketch.</desc>
    <defs>
        <path d="M194.703859,236.228225 C184.490982,250.293059 176.860879,293.794451 174.714343,307.123793 C174.128784,308.562681 173.884689,310.263626 174.113155,312.274069 C175.505233,324.524015 228.714603,320.635339 241.930818,319.478339 C242.396078,319.545295 242.875914,319.596975 243.370395,319.632624 C262.816672,321.0346 263.514414,320.897933 275.389162,318.419129 C277.837446,317.90806 283.817394,313.611689 282.116472,308.562991 C281.175413,305.769726 284.710039,302.588484 285.246401,301.191211 C286.33695,298.350235 284.065484,296.776277 284.065536,293.867765 C284.065657,287.103449 287.986525,288.943521 283.086072,283.822202 C280.11768,280.720022 265.862261,283.689092 265.862261,283.689092 C265.862261,283.689092 258.29374,287.850769 251.463238,289.391251 C246.542224,290.501087 243.086147,288.004148 238.020036,292.197766 C234.413032,295.183567 232.06958,298.954088 231.060563,302.737783 L196.762956,299.554337 C196.93418,299.371077 197.105226,299.184897 197.27605,298.995748 C206.056022,289.273906 218.541565,258.994823 223.396752,246.710438 C223.725412,246.079135 224.03322,245.42728 224.31814,244.756051 C228.742289,234.333409 225.97266,223.186181 218.132,219.858018 C210.291341,216.529856 200.34875,222.281067 195.924601,232.703708 C195.428077,233.873446 195.022163,235.052311 194.703859,236.228225 Z" id="path-1"></path>
        <mask id="mask-2" maskContentUnits="userSpaceOnUse" maskUnits="objectBoundingBox" x="0" y="0" width="111.522261" height="102.071947" fill="white">
            <use xlink:href="#path-1"></use>
        </mask>
        <path d="M113.827774,237.580126 C113.827774,237.580126 118.736746,235.879378 136.677538,236.294032 C163.311944,215.120106 211.901934,258.308244 211.901934,258.308244 L183.730225,368.481661 C183.730225,368.481661 116.576434,364.318808 102.755955,356.868216 C110.606358,312.762532 113.827774,237.580126 113.827774,237.580126 Z" id="path-3"></path>
        <mask id="mask-4" maskContentUnits="userSpaceOnUse" maskUnits="objectBoundingBox" x="0" y="0" width="109.145979" height="138.030201" fill="white">
            <use xlink:href="#path-3"></use>
        </mask>
        <path d="M89.642653,262.433648 C79.4297756,276.498482 71.799673,319.999874 69.6531372,333.329216 C69.0675782,334.768104 68.8234832,336.46905 69.051949,338.479492 C70.4440272,350.729438 123.653397,346.840763 136.869612,345.683763 C137.334872,345.750718 137.814708,345.802398 138.309189,345.838048 C157.755466,347.240023 158.453208,347.103357 170.327956,344.624553 C172.77624,344.113484 178.756188,339.817112 177.055266,334.768414 C176.114207,331.975149 179.648833,328.793908 180.185195,327.396635 C181.275744,324.555658 179.004278,322.981701 179.00433,320.073189 C179.004451,313.308872 182.925319,315.148945 178.024866,310.027626 C175.056474,306.925446 160.801055,309.894516 160.801055,309.894516 C160.801055,309.894516 168.618704,309.477099 166.537492,307.715486 C165.677988,306.987971 163.545726,306.048997 161.780454,302.586493 C160.050222,299.192717 150.737653,300.528716 147.379913,301.466247 C139.654555,303.623281 145.056844,308.388713 132.95883,318.40319 C129.351826,321.38899 127.008374,325.159512 125.999357,328.943206 L91.7017504,325.759761 C91.8729736,325.576501 92.0440204,325.39032 92.2148437,325.201172 C100.994816,315.47933 113.480359,285.200246 118.335546,272.915861 C118.664206,272.284559 118.972014,271.632704 119.256934,270.961474 C123.681083,260.538833 120.911454,249.391604 113.070794,246.063442 C105.230135,242.735279 95.2875438,248.486491 90.8633951,258.909132 C90.3668708,260.07887 89.960957,261.257734 89.642653,262.433648 Z" id="path-5"></path>
        <mask id="mask-6" maskContentUnits="userSpaceOnUse" maskUnits="objectBoundingBox" x="0" y="0" width="111.522261" height="102.071947" fill="white">
            <use xlink:href="#path-5"></use>
        </mask>
        <path d="M63.8592374,175.207666 C63.2400019,175.980864 62.5432375,176.696902 61.7684209,177.34705 C53.259432,184.48694 38.5592917,180.976614 28.9347386,169.506518 C19.3101856,158.036422 18.4058421,142.950049 26.9148311,135.810159 C31.5674471,131.906151 38.071078,131.186317 44.5838666,133.210831 C37.1227341,106.38825 39.9824984,83.2595052 47.6528683,67.5980532 C60.8049234,26.9598476 113.732284,4.64196713 169.159645,17.4383817 C226.923902,30.7743112 239.7863,64.544052 235.101393,101.1747 C233.463211,113.983426 231.444394,124.94926 229.034443,134.30327 C231.620179,137.474601 233.368805,140.35683 234.114898,142.853793 C242.649666,171.417251 224.320771,215.532224 201.032146,230.084572 C177.743521,244.63692 109.613461,240.286572 68.5247941,182.123742 C66.8892279,179.808526 65.3349026,177.502578 63.8592374,175.207666 Z" id="path-7"></path>
        <mask id="mask-8" maskContentUnits="userSpaceOnUse" maskUnits="objectBoundingBox" x="0" y="0" width="215.16566" height="223.303482" fill="white">
            <use xlink:href="#path-7"></use>
        </mask>
        <path d="M112.900391,375.539062 L139.25,383.921619 L122,479.023181 L118.986328,489.447266 L78.1914063,514.294922 C78.1914063,514.294922 51.8921278,510.61842 58.3007813,492.128906 C60.6972656,485.214844 93,479.023181 93,479.023181 L112.900391,375.539062 Z M163.984375,370.857165 L192.984375,370.857165 L179.510742,467.888672 C179.510742,467.888672 212.850586,472.298828 216.015625,476.546875 C230.937031,496.574063 194.217773,500.805664 194.217773,500.805664 L149.602539,481.280273 L150,471.023181 L163.984375,370.857165 Z" id="path-9"></path>
        <mask id="mask-10" maskContentUnits="userSpaceOnUse" maskUnits="objectBoundingBox" x="0" y="0" width="162.288017" height="143.437756" fill="white">
            <use xlink:href="#path-9"></use>
        </mask>
        <path d="M113,365.921619 C113.09375,354.681384 195.661133,360.90332 195.661133,360.90332 C195.661133,360.90332 194.672852,361.610352 192.369141,373.492187 C191.443927,378.264157 178.123276,387.923561 163.240747,390.543193 C154.803717,392.028285 145.599832,393.098863 137.302582,393.677091 C123.793371,394.618538 115.514699,384.368103 114.035156,382.363281 C110.043945,376.955078 112.90625,377.161853 113,365.921619 Z" id="path-11"></path>
        <mask id="mask-12" maskContentUnits="userSpaceOnUse" maskUnits="objectBoundingBox" x="0" y="0" width="83.7421331" height="34.5523001" fill="white">
            <use xlink:href="#path-11"></use>
        </mask>
        <path d="M266.588086,236.149833 C266.588086,236.149833 280.375408,231.465595 283.699736,234.182896 C289.187793,238.668827 285.071901,237.320303 285.896144,244.034214 C286.250551,246.921053 288.696904,248.206456 287.960712,251.159161 C287.598631,252.611385 284.478049,256.199677 285.752507,258.857435 C288.056031,263.66121 282.644253,268.65433 280.276502,269.45996 C268.792356,273.367455 277.420405,282.572167 272.26255,285.795152" id="path-13"></path>
        <mask id="mask-14" maskContentUnits="userSpaceOnUse" maskUnits="objectBoundingBox" x="0" y="0" width="21.5099748" height="52.4599907" fill="white">
            <use xlink:href="#path-13"></use>
        </mask>
        <path d="M148.440956,375.851836 C140.507256,377.177154 132.013414,378.13973 124.302582,378.677091 C124.204527,378.683925 124.106747,378.690169 124.009244,378.69583 L119.621094,404.791016 L91.6396484,404.791016 L99.2150315,364.210461 C98.2557329,361.39804 99.9286935,359.47097 100,350.921619 C100.09375,339.681384 182.661133,345.90332 182.661133,345.90332 C182.661133,345.90332 181.824209,346.502068 179.895412,355.857165 L179.984375,355.857165 L173.631836,400.580078 L145,402.902344 L148.440956,375.851836 Z" id="path-15"></path>
        <mask id="mask-16" maskContentUnits="userSpaceOnUse" maskUnits="objectBoundingBox" x="0" y="0" width="91.0214844" height="60.6052976" fill="white">
            <use xlink:href="#path-15"></use>
        </mask>
        <path d="M82.8962031,28.6316377 C87.2809687,44.0310518 81.6713695,34.3828104 92.7135859,47.2830049 C98.0131676,53.4743014 115.674911,70.7651711 111.069055,75.5857393 C102.01925,85.057419 83.1542503,83.8028482 77.7536249,81.3289034" id="path-17"></path>
        <mask id="mask-18" maskContentUnits="userSpaceOnUse" maskUnits="objectBoundingBox" x="0" y="0" width="34.0737873" height="54.4723366" fill="white">
            <use xlink:href="#path-17"></use>
        </mask>
        <path d="M135.212672,469.411929 C135.212672,469.411929 140.491471,471.284625 162.697649,476.546108 C164.423215,483.700046 165.483973,450.172771 172.817195,450.931428 C183.317075,452.01769 201.942085,446.662655 209.568937,458.961837 C212.570457,463.802136 215.120404,470.615715 205.952345,479.034302 C185.909401,497.438771 150.154571,475.501915 138.609424,476.166446 C127.064277,476.830976 135.212672,469.411929 135.212672,469.411929 Z" id="path-19"></path>
        <mask id="mask-20" maskContentUnits="userSpaceOnUse" maskUnits="objectBoundingBox" x="0" y="0" width="79.9122032" height="35.7307793" fill="white">
            <use xlink:href="#path-19"></use>
        </mask>
        <path d="M44.3009191,468.282146 C44.3009191,468.282146 66.9228889,487.395347 66.837587,482.874543 C66.6139814,471.023967 75.1541058,459.329992 81.9941374,462.080569 C91.7878557,466.018911 106.765411,463.655989 110.20321,476.084599 C113.64101,488.513208 110.738324,493.789605 99.6049434,499.35501 C75.2654693,511.521937 55.9722294,482.000462 44.6911527,479.456975 C33.4100761,476.913489 44.3009191,468.282146 44.3009191,468.282146 Z" id="path-21"></path>
        <mask id="mask-22" maskContentUnits="userSpaceOnUse" maskUnits="objectBoundingBox" x="0" y="0" width="71.9915096" height="40.6086853" fill="white">
            <use xlink:href="#path-21"></use>
        </mask>
        <path d="M96.965388,224.531129 C99.9855999,223.405176 105.66087,222.040352 123.601661,222.455006 C134.077619,229.482462 145.01721,240.629081 168.875094,247.673908 C185.376134,252.546384 197.923504,250.18398 197.923504,250.18398 L209.108586,276.573552 L188.822652,285.703175 L192.117344,273.383179 L171.423793,353.608189 C171.423793,353.608189 104.270003,349.445336 90.4495234,341.994744 C94.1294534,321.319902 97.9352514,273.986527 97.9352514,273.986527 C97.9352514,273.986527 103.397241,262.547768 102.70052,263.450325 C102.003799,264.352883 92.4423987,280.900312 91.9448089,279.902879 C91.2304604,278.470947 68.980359,270.633051 67.3705071,266.719491 C67.106402,266.07745 80.2752909,231.83371 96.965388,224.531129 Z" id="path-23"></path>
        <mask id="mask-24" maskContentUnits="userSpaceOnUse" maskUnits="objectBoundingBox" x="0" y="0" width="141.741982" height="131.229208" fill="white">
            <use xlink:href="#path-23"></use>
        </mask>
        <path d="M80,47.9266752 L80,190 L59,190 L59,48.4181479 C56.0681682,47.2306149 54,44.3540332 54,40.990899 L54,8.009101 C54,3.58579666 57.5889027,5.68434189e-14 62.0000405,5.68434189e-14 L75.9999595,5.68434189e-14 C80.4182599,5.68434189e-14 84,3.58323463 84,8.009101 L84,40.990899 C84,43.9540722 82.3894207,46.5414 80.0000022,47.9266675 Z" id="path-25"></path>
        <mask id="mask-26" maskContentUnits="userSpaceOnUse" maskUnits="objectBoundingBox" x="0" y="0" width="30" height="190" fill="white">
            <use xlink:href="#path-25"></use>
        </mask>
        <rect id="path-27" x="45" y="249" width="48" height="11"></rect>
        <mask id="mask-28" maskContentUnits="userSpaceOnUse" maskUnits="objectBoundingBox" x="0" y="0" width="48" height="11" fill="white">
            <use xlink:href="#path-27"></use>
        </mask>
        <path d="M7,34 L10,34 L10,39 L7,39 L7,39.4991375 C7,41.4326105 5.42906336,43 3.5,43 C1.56700338,43 0,41.4318963 0,39.4991375 L0,33.5008625 C0,31.5673895 1.57093664,30 3.5,30 C5.43299662,30 7,31.5681037 7,33.5008625 L7,34 Z" id="path-29"></path>
        <mask id="mask-30" maskContentUnits="userSpaceOnUse" maskUnits="objectBoundingBox" x="0" y="0" width="10" height="13" fill="white">
            <use xlink:href="#path-29"></use>
        </mask>
        <path d="M7,19 L10,19 L10,24 L7,24 L7,24.4991375 C7,26.4326105 5.42906336,28 3.5,28 C1.56700338,28 0,26.4318963 0,24.4991375 L0,18.5008625 C0,16.5673895 1.57093664,15 3.5,15 C5.43299662,15 7,16.5681037 7,18.5008625 L7,19 Z" id="path-31"></path>
        <mask id="mask-32" maskContentUnits="userSpaceOnUse" maskUnits="objectBoundingBox" x="0" y="0" width="10" height="13" fill="white">
            <use xlink:href="#path-31"></use>
        </mask>
        <path d="M7,4 L10,4 L10,9 L7,9 L7,9.49913752 C7,11.4326105 5.42906336,13 3.5,13 C1.56700338,13 0,11.4318963 0,9.49913752 L0,3.50086248 C0,1.56738952 1.57093664,0 3.5,0 C5.43299662,0 7,1.56810375 7,3.50086248 L7,4 Z" id="path-33"></path>
        <mask id="mask-34" maskContentUnits="userSpaceOnUse" maskUnits="objectBoundingBox" x="0" y="0" width="10" height="13" fill="white">
            <use xlink:href="#path-33"></use>
        </mask>
        <path d="M45,34 L48,34 L48,39 L45,39 L45,39.4991375 C45,41.4326105 43.4290634,43 41.5,43 C39.5670034,43 38,41.4318963 38,39.4991375 L38,33.5008625 C38,31.5673895 39.5709366,30 41.5,30 C43.4329966,30 45,31.5681037 45,33.5008625 L45,34 Z" id="path-35"></path>
        <mask id="mask-36" maskContentUnits="userSpaceOnUse" maskUnits="objectBoundingBox" x="0" y="0" width="10" height="13" fill="white">
            <use xlink:href="#path-35"></use>
        </mask>
        <path d="M45,19 L48,19 L48,24 L45,24 L45,24.4991375 C45,26.4326105 43.4290634,28 41.5,28 C39.5670034,28 38,26.4318963 38,24.4991375 L38,18.5008625 C38,16.5673895 39.5709366,15 41.5,15 C43.4329966,15 45,16.5681037 45,18.5008625 L45,19 Z" id="path-37"></path>
        <mask id="mask-38" maskContentUnits="userSpaceOnUse" maskUnits="objectBoundingBox" x="0" y="0" width="10" height="13" fill="white">
            <use xlink:href="#path-37"></use>
        </mask>
        <path d="M45,4 L48,4 L48,9 L45,9 L45,9.49913752 C45,11.4326105 43.4290634,13 41.5,13 C39.5670034,13 38,11.4318963 38,9.49913752 L38,3.50086248 C38,1.56738952 39.5709366,-2.4158453e-13 41.5,-2.4158453e-13 C43.4329966,-2.4158453e-13 45,1.56810375 45,3.50086248 L45,4 Z" id="path-39"></path>
        <mask id="mask-40" maskContentUnits="userSpaceOnUse" maskUnits="objectBoundingBox" x="0" y="0" width="10" height="13" fill="white">
            <use xlink:href="#path-39"></use>
        </mask>
        <path d="M83.3694912,318.912065 L113.211069,314.718105 C113.556533,310.503319 117.396005,311.059983 120.848329,307.407052 C131.635709,295.992844 125.692928,291.921307 133.097826,288.838867 C136.316281,287.499118 145.396619,285.038161 147.527551,288.195778 C149.701638,291.417341 151.932438,292.089458 152.874197,292.706804 C155.154583,294.20165 147.446077,295.568687 147.446077,295.568687 C147.446077,295.568687 161.233399,290.884449 164.557726,293.60175 C170.045783,298.087681 165.929892,296.739158 166.754135,303.453068 C167.108542,306.339907 169.554894,307.62531 168.818702,310.578015 C168.456622,312.03024 165.336039,315.618531 166.610497,318.276289 C168.914021,323.080065 163.502244,328.073184 161.134492,328.878814 C149.650346,332.78631 149.140573,333.521069 129.668388,334.499449 C110.196203,335.477828 89.6727253,338.922111 71.8017772,337.36606" id="path-41"></path>
        <mask id="mask-42" maskContentUnits="userSpaceOnUse" maskUnits="objectBoundingBox" x="0" y="0" width="97.1542742" height="51.1082846" fill="white">
            <use xlink:href="#path-41"></use>
        </mask>
        <path d="M255.987598,232.028181 L257.710254,232.948347 C257.710254,232.948347 263.324328,223.666208 268.294971,220.647077 C270.695666,219.188913 276.289654,221.836665 275.194385,223.609723 C267.548633,235.986921 270.031511,236.84047 267.0479,238.652692" id="path-43"></path>
        <mask id="mask-44" maskContentUnits="userSpaceOnUse" maskUnits="objectBoundingBox" x="0" y="0" width="19.3472719" height="18.4277032" fill="white">
            <use xlink:href="#path-43"></use>
        </mask>
    </defs>
    <g id="Page-1" stroke="none" stroke-width="1" fill="none" fill-rule="evenodd">
        <g id="Idiotic-Musician">
            <g id="silueta" transform="translate(-13.000000, -15.000000)">
                <use id="brazo-dcho" stroke="#000000" mask="url(#mask-2)" stroke-width="2" fill="#FFD788" transform="translate(229.789493, 269.949876) rotate(-55.000000) translate(-229.789493, -269.949876) " xlink:href="#path-1"></use>
                <use id="torso" stroke="#000000" mask="url(#mask-4)" stroke-width="2" fill="#D8D8D8" transform="translate(157.328945, 299.466561) rotate(-10.000000) translate(-157.328945, -299.466561) " xlink:href="#path-3"></use>
                <use id="brazo-izq" stroke="#000000" mask="url(#mask-6)" stroke-width="2" fill="#FFD788" xlink:href="#path-5"></use>
                <g id="cabeza" transform="translate(147.738052, 143.560442) rotate(8.000000) translate(-147.738052, -143.560442) translate(17.238052, 17.060442)">
                    <use stroke="#000000" mask="url(#mask-8)" stroke-width="2" fill="#FFD788" xlink:href="#path-7"></use>
                    <g id="cara" transform="translate(0.000000, 0.000000)">
                        <g id="barba" transform="translate(152.862727, 184.807913) rotate(-11.000000) translate(-152.862727, -184.807913) translate(69.362727, 131.807913)" stroke="#261408">
                            <path d="M3.36328125,0.1953125 L0.155273438,14.7421875 L7.04882813,7.43261719 L0.73046875,22.0048828 L8.48242188,13.0927734 L1.98730469,29.8798828 L10.1855469,19.7607422 L3.57714844,35.21875 L10.90625,25.9726562 L5.45507813,39.8730469 L13.9980469,30.7363281 L8.66894531,44.6337891 L19.4335938,31.921875 C19.4335938,31.921875 10.7452576,46.7394181 10.7333984,48.8046875 C10.7215392,50.8699569 23.1621094,34.5927734 23.1621094,34.5927734 L15.0664063,50.7636719 L25.2080078,39.7246094 L17.2753906,54.1210937 L28.5771484,42.0566406 L20.8193359,58.2939453 L34.0693359,43.8691406 C34.0693359,43.8691406 22.8470112,60.4253178 22.8505859,62.796875 C22.8541607,65.1684322 37.1162109,46.9443359 37.1162109,46.9443359 L26.3486328,66.5605469 L39.296875,50.8554687 L31.147237,69.5335936 L42.4091797,55.7119141 L34.1711466,73.3543156 L50.2158203,56.9052734 L38.911383,77.1916437 L54.6669922,59.8193359 L43.664151,81.2936623 L55.0859375,69.703125 L50.0087891,85.4335937 L59.1259766,71.9951172 L55.2272606,89.6270461 L63.4160156,73.3164062 L61.479785,92.7280591 L68.8164063,77.1621094 L67.5998075,96.3981125 L74.7832031,79.3066406 L74.3344724,99.3865091 L81.1425781,83.4160156 L81.9715373,101.315213 L87.8515625,86.8535156 L89.0185984,102.783696 L94.6633508,87.2159877 L96.743222,104.4598 L102.795623,87.3272974 L104.831865,105.254333 L109.125,88.1113281 L112.76242,104.661738 L116.410443,85.8444504 L119.900702,103.661886 L125.096167,82.9337089 L126.68586,99.9210469 L132.494141,83.6777344 L133.033203,96.0019531 L138.933594,78.9375 L139.447266,93.046875 L144.107422,67.7197266 L145.894531,84.9316406 L149,63.8007812 L150.789063,80.2392578 L155.056641,57.984375 L154.376953,74.2832031 L160.697266,48.3027344 L159.322266,65.4316406 L166.140625,45.375 L165.277344,53.6464844" id="Path-2"></path>
                            <polyline id="Path-3" points="111.34375 47.9414062 102.501953 61.2832031 105.746094 46.9882812 95.8398437 60.5078125 98.0664062 46.3964844 89.1806641 59.2207031 92.2910156 42.8007812 83.0292969 56.0615234 84.9121094 40.4785156 77.5957031 52.8769531 76.5205078 38.4951172 70.2265625 48.7597656 70.9003906 38.7998047 66.2871094 47.1933594 64.6669922 38.7685547 62.5058594 50.3935547 61.1210937 39.5166016 58.4257812 49.9609375 56.1660156 42.5888672 54.9443359 54.3105469 52.4023437 42.5068359 49.8369141 53.1728516"></polyline>
                            <polyline id="Path-4" points="125.729492 49.8457031 126.814453 60.7197266 130.822266 48.8496094 133.512695 59.6601562 136.955078 49.1865234 139.363281 60.2382812 141.688477 49.9716797 143.828125 59.5966797 147.72168 51.2402344 148.292969 59.2578125 151.605469 53.3662109 151.935547 59.7724609"></polyline>
                        </g>
                        <path d="M46.6685037,133.351095 C46.6685037,133.351095 48.208878,139.517201 51.9341287,144.17922 C56.4817051,149.87035 60.4865828,156.541567 63.0513162,154.440939 C65.6160496,152.34031 58.7952146,140.114396 61.0005349,136.753439 C62.2913083,134.786271 67.2869257,147.173293 70.0435037,143.784689 C72.8000817,140.396084 72.5053569,134.224018 69.6724099,126.093282 C67.8120397,120.753903 71.1980227,111.730045 71.4380349,110.446798 C72.3415961,105.615826 69.7603005,130.178243 75.4810037,112.702657 C81.2017068,95.2270715 83.4253985,111.415319 85.5132302,106.853048 C87.9878625,101.445551 95.4924541,78.8587111 95.5278787,87.5864465 C95.5825662,101.060079 101.824265,67.4985559 101.824265,67.4985559 C101.824265,67.4985559 106.333811,72.803431 118.094285,81.944845 C125.856272,87.9782356 139.051841,89.5332647 139.914597,87.6342981 C140.917076,85.427796 119.089402,79.8779504 118.721238,70.0717981 C118.676981,68.8929968 122.93609,72.2840194 133.514207,77.1362512 C144.80347,82.3146892 158.889057,94.3743504 160.534715,89.313009 C160.896531,88.2002161 143.106802,75.478235 146.98491,70.1831262 C147.202884,69.8855074 153.805571,76.8014043 161.519363,82.5386032 C168.182161,87.4941153 175.122964,89.630162 180.596238,89.3589075 C183.591355,89.21047 161.120652,79.3764856 162.563035,68.319845 C163.005024,64.9317611 173.040311,71.6091284 174.784715,75.1928918 C177.350144,80.4633997 187.738622,86.1358218 191.285691,84.64797 C194.296257,83.3851593 180.441941,79.538595 178.51616,67.1059778 C177.622461,61.3363617 187.547475,70.4172777 192.586472,74.3276575 C195.926316,76.9194543 204.823295,84.6079741 208.117722,83.226095 C209.786796,82.5259862 191.758219,67.5678053 193.427293,66.8676965 C195.002084,66.2071354 205.515588,73.5780624 207.090379,72.9175012 C209.552087,71.8849141 205.33854,65.2788993 208.574754,63.5923059 C211.403695,62.1179677 216.616746,79.8081262 216.101121,73.0288293 C215.585496,66.2495325 226.966296,64.0641276 226.790574,65.3012903 C225.005988,77.8655916 224.325489,70.8828645 226.485886,85.8051965 C226.61439,86.6927966 228.904362,70.3840964 230.265183,73.6186731 C230.697492,74.6462403 231.985038,83.2076513 230.375663,90.5084326 C228.766288,97.8092138 235.230695,76.7183236 235.686749,82.5444954 C236.142804,88.3706673 234.037772,108.787729 234.037772,108.787729 C234.037772,108.787729 255.208117,93.2190155 253.426316,75.8628137 C252.322685,65.1125361 267.697801,73.46047 257.098191,58.3159387 C250.145299,48.3817716 247.014039,46.2434751 244.206476,44.4472085 C242.733939,43.505086 254.433456,39.3494349 252.634324,37.5200403 C248.356305,33.1700612 232.782042,33.8823066 230.856965,32.2076985 C226.144268,28.108163 224.824668,29.5267474 208.990769,24.2300012 C205.939092,23.2091561 215.229866,16.4188949 212.197801,15.851095 C209.299695,15.308381 194.077765,20.9736412 191.203351,20.6344564 C187.181762,20.1599035 186.806248,16.4100496 182.844285,15.851095 C179.917584,15.4381953 188.47136,7.4406111 185.584528,6.7145192 C183.707378,6.24238139 170.377216,13.1648737 168.519098,12.4811208 C158.446311,8.77452296 161.103911,3.92830566 152.524957,3.92740983 C142.399809,3.92635254 144.962039,7.89757621 139.195856,12.4772145 C133.429672,17.0568528 125.603633,2.45945279 117.045465,0.837566076 C107.444453,-0.981953457 106.828448,10.5622791 94.7925354,5.59440201 C83.6136041,0.9802478 81.5031636,14.9967953 69.2915505,21.2221887 C66.2641686,22.7655265 60.1562171,26.9730655 60.2134255,29.1704309 C60.2286662,29.7558209 58.7798318,13.0249231 57.5879373,15.851095 C56.3960427,18.6772668 54.9663552,24.7749231 54.9663552,24.7749231 C54.9663552,24.7749231 51.2915505,11.0669153 49.7476052,19.6328332 C48.2036599,28.1987512 54.5649992,35.0605454 48.7305154,33.5415247 C29.7729635,28.6058842 44.9903338,37.1090245 42.4648062,38.4237753 C39.3879799,40.0255239 36.7501128,41.4325531 36.509324,41.9243372 C34.8655289,45.2816042 48.109489,41.9290298 46.7125774,44.8580801 C46.2321279,45.8654885 40.4800032,47.9704372 35.6978792,51.4776959 C33.3364652,53.2095812 31.2115749,55.2834039 30.0747537,57.7358606 C29.2099254,59.6015488 20.7909772,60.0258915 20.283738,61.3413293 C19.5329674,63.2883245 26.8710032,65.8645616 26.5769174,67.2061062 C25.8571395,70.4895497 25.9212374,73.0320666 23.9106912,80.0835168 C23.2822571,82.2875802 22.9003814,85.0869992 22.6746213,87.9454596 C22.4558952,90.7148575 6.70463648,115.330587 15.384324,109.648947 C24.0640115,103.967306 22.4966287,102.134298 22.4966287,102.134298 C22.4966287,102.134298 20.5460321,112.011597 18.6209525,115.054593 C17.4290881,116.938586 0.0395974197,128.792501 0.735886482,132.693868 C1.43217554,136.595236 10.7926836,129.379816 9.83122659,132.231112 C8.45687078,136.3069 8.00758021,140.100265 8.38920679,144.995626 C8.38920679,144.995626 10.5651288,160.476135 13.8130349,166.415548 C15.0434879,168.665665 15.9938945,159.790619 17.6725465,162.449818 C24.2379751,172.850296 34.1937173,185.44792 47.2446755,192.954611 C53.9474367,196.809925 68.1963433,212.53344 66.8286599,206.478048 C62.9907693,189.485861 93.4662489,215.540599 99.6802452,215.270482 C105.075071,215.035973 85.579209,204.605248 75.016279,190.773724 C69.6958703,183.806968 64.0027538,174.700872 64.0027538,174.700872 C64.0027538,174.700872 59.3391796,182.091008 45.4094921,179.29804 C38.9131443,177.995491 28.5986777,171.25189 23.5859841,161.542989 C16.6671047,148.142069 23.8651293,138.091197 30.1523904,134.073751 C36.4253396,130.06545 46.6685037,133.351095 46.6685037,133.351095 Z" id="pelo" stroke="#000000" fill="#9C551A"></path>
                    </g>
                </g>
                <use id="piernas" stroke="#000000" mask="url(#mask-10)" stroke-width="2" fill="#FFD788" xlink:href="#path-9"></use>
                <g id="pelillos" transform="translate(104.000000, 385.000000)" stroke="#261408">
                    <path d="M18,59 L18.4140625,65" id="Path-5"></path>
                    <path d="M7.59179688,61 C5.39453125,63.1803385 3.19726563,65.3606771 1,67.5410156" id="Path-6"></path>
                    <path d="M8.02929688,52.3515625 C2.83329883,53.2095344 6.00699042,54.0070016 0.525390625,56.1445312" id="Path-7"></path>
                    <polyline id="Path-8" points="14.0449219 50.6035156 14.0449219 52.2324219 14.0449219 52.7011719 14.0449219 53.2714844 14.0449219 53.8417969 14.0449219 54.0996094 14.0449219 54.3847656 14.0449219 54.5136719 14.0449219 54.6425781 14.0449219 54.7714844 14.0449219 54.9003906 14.0449219 55.0292969 14.0449219 55.1582031 14.0449219 55.4160156 14.0449219 55.6738281 14.0449219 55.8027344 14.0449219 55.9316406 14.0449219 56.1894531 14.0449219 56.3183594 14.0449219 56.4472656"></polyline>
                    <path d="M17.6582031,43.6816406 L19.3144531,48.7871094" id="Path-9"></path>
                    <path d="M15.1367188,35.7675781 L10.7285156,39.1738281" id="Path-10"></path>
                    <path d="M4.94921875,39.8476562 L2.13671875,44.9433594" id="Path-11"></path>
                    <path d="M10.0195312,30.0585938 L3.96875,31.4648438" id="Path-12"></path>
                    <path d="M13.4453125,25.875 C14.2122396,26.4746094 14.9791667,27.0742188 15.7460938,27.6738281" id="Path-13"></path>
                    <path d="M21.78125,29.8867188 L22.2226562,37.5664062" id="Path-14"></path>
                    <path d="M25.1972656,19.671875 L25.6113281,23.09375" id="Path-15"></path>
                    <path d="M16.0214844,18 C10.347209,18.404568 13.1061969,17.7413261 8,20.3984375" id="Path-16"></path>
                    <path d="M19,12.612114 L14.5957031,10" id="Path-17"></path>
                    <polyline id="Path-18" points="81.9023438 0.96875 81.9023438 2.62695312 81.9023438 3.30859375 81.9023438 4.69921875 81.9023438 6.30273438 81.9023438 6.58789062 81.9023438 7.34179688 81.9023438 7.47070312 81.9023438 7.59960938 81.9023438 7.72851562 81.9023438 7.85742188"></polyline>
                    <path d="M73.4785156,7.4375 L70.6933594,13.6855469" id="Path-19"></path>
                    <path d="M77.6503906,12.9433594 L78.8730469,19.7949219" id="Path-20"></path>
                    <path d="M71.6855469,21.6289062 L73.7226562,25.8710938" id="Path-21"></path>
                    <path d="M76.6640625,24.4804688 L76.8066406,30.6289062" id="Path-22"></path>
                    <path d="M67.1347656,11.2929688 L63.2890625,13.4980469" id="Path-23"></path>
                    <path d="M63.546875,21.5800781 C62.391276,23.8216146 61.2356771,26.063151 60.0800781,28.3046875" id="Path-24"></path>
                    <path d="M67.2910156,29.3496094 C65.9140625,30.8541667 64.5371094,32.358724 63.1601562,33.8632812" id="Path-25"></path>
                    <path d="M61,38 L65.9785156,46.6210938" id="Path-26"></path>
                    <path d="M73.875,36.0175781 L76.3515625,43.9902344" id="Path-27"></path>
                    <path d="M72.8027344,49.8828125 L74.9746094,55.7890625" id="Path-28"></path>
                    <path d="M67.5234375,50.1308594 C68.1302083,52.1803385 68.7369792,54.2298177 69.34375,56.2792969" id="Path-29"></path>
                    <path d="M63.7851562,58.9628906 L59.2246094,61.5605469" id="Path-30"></path>
                    <path d="M56.375,54.9472656 L52.296875,58.9511719" id="Path-31"></path>
                    <polyline id="Path-32" transform="translate(57.334961, 46.123047) rotate(-36.000000) translate(-57.334961, -46.123047) " points="60.375 45.6230469 58.1191406 45.6230469 57.9882813 45.6230469 57.3046875 45.6230469 56.8339844 45.6230469 55.8632813 45.6230469 55.1054688 45.6230469 54.9746094 45.6230469 54.7128906 45.6230469 54.5820313 45.6230469 54.2949219 45.6230469"></polyline>
                </g>
                <use id="calzones" stroke="#000000" mask="url(#mask-12)" stroke-width="2" fill="#4B476D" xlink:href="#path-11"></use>
                <path d="M117,460 C123.386151,460.783069 123.148345,465.198558 117.513184,467.148926" id="tobillo-izqdo" stroke="#000000"></path>
                <path d="M155,453 C161.386151,453.783069 161.148345,458.198558 155.513184,460.148926" id="tobillo-dcho" stroke="#000000" transform="translate(157.382588, 456.574463) scale(-1, 1) translate(-157.382588, -456.574463) "></path>
            </g>
            <path d="M226.017933,134.85447 C223.936161,139.188222 219.984846,146.170647 210.203733,147.185952 C200.42262,148.201257 191.416479,137.312997 191.044056,134.31604" id="ceja-dcha" stroke="#000000"></path>
            <path d="M168.565168,137.616338 C164.897511,143.9054 158.076122,153.943486 143.022693,153.943486 C127.969265,153.943486 115.440109,135.885566 115.208823,131.24915" id="ceja-izqda" stroke="#000000" transform="translate(141.886995, 142.596318) rotate(-4.000000) translate(-141.886995, -142.596318) "></path>
            <use id="antebrazo-over" stroke="#000000" mask="url(#mask-14)" stroke-width="2" fill="#FFD788" transform="translate(277.343074, 259.565157) rotate(32.000000) translate(-277.343074, -259.565157) " xlink:href="#path-13"></use>
            <use id="pants" stroke="#000000" mask="url(#mask-16)" stroke-width="2" fill="#FFFFFF" xlink:href="#path-15"></use>
            <g id="cara-variable" transform="translate(105.000000, 98.000000)" stroke="#000000">
                <ellipse id="Oval-9" fill="#C64C4C" transform="translate(41.500000, 106.500000) rotate(20.000000) translate(-41.500000, -106.500000) " cx="41.5" cy="106.5" rx="15.5" ry="4.5"></ellipse>
                <path d="M126.151429,13.137769 C123.313158,9.03577953 118.034326,2.48852028 106.385006,2.48852028 C94.7356867,2.48852028 85.0398133,14.2666507 84.860829,17.2907148" id="ceja-dcha" transform="translate(105.506129, 9.889618) rotate(5.000000) translate(-105.506129, -9.889618) "></path>
                <path d="M61.8515625,24.4570312 C57.5,18.1679688 0.711397228,6.30707067 0.436983165,10.9434863" id="ceja-izqda"></path>
                <use id="nariz" mask="url(#mask-18)" stroke-width="2" fill="#FFD788" transform="translate(94.790519, 55.867806) rotate(-6.000000) translate(-94.790519, -55.867806) " xlink:href="#path-17"></use>
            </g>
            <use id="zapato-dcho-copy" stroke="#000000" mask="url(#mask-20)" stroke-width="2" fill="#545458" transform="translate(172.377019, 468.540870) rotate(8.000000) translate(-172.377019, -468.540870) " xlink:href="#path-19"></use>
            <use id="zapato-izqdo-copy" stroke="#000000" mask="url(#mask-22)" stroke-width="2" fill="#545458" transform="translate(75.569885, 481.978786) scale(-1, 1) rotate(2.000000) translate(-75.569885, -481.978786) " xlink:href="#path-21"></use>
            <use id="camiseta" stroke="#000000" mask="url(#mask-24)" stroke-width="2" fill="#E71212" transform="translate(138.237594, 287.993585) rotate(-10.000000) translate(-138.237594, -287.993585) " xlink:href="#path-23"></use>
            <polygon id="Star" stroke="#000000" fill="#F8E81C" points="151.5 299.75 134.74812 308.556984 137.947445 289.903492 124.394889 276.693016 143.12406 273.971508 151.5 257 159.87594 273.971508 178.605111 276.693016 165.052555 289.903492 168.25188 308.556984"></polygon>
            <g id="batin-y-brazo" transform="translate(55.000000, 225.000000)" stroke="#000000">
                <path d="M55.4326172,0.415039063 C55.4326172,0.415039063 67.5429688,8.05078125 74.7617188,10.3925781 C80.1337891,19.7226563 83.296875,30.5078125 83.296875,30.5078125 L64.3476562,209.09375 C64.3476562,209.09375 35.1937676,217.848118 26.484375,199.357422 C26.8007813,165.628906 39.3867188,57.34375 39.3867188,57.34375 C39.3867188,57.34375 34.8789063,74.8457031 25.6416016,85.5839844 C19.5880944,92.6211304 23.3017578,109.787109 23.3017578,109.787109 C23.3017578,109.787109 0.509765625,107.017578 0.509765625,101.432617 C0.509765625,78.3720671 8.6875,30.5078125 27.6748047,10.3925781 C31.1644164,6.69566809 55.4326172,0.415039063 55.4326172,0.415039063 Z" id="chupa-izqda" fill="#5F82A7"></path>
                <g id="pocket-left" transform="translate(53.000000, 42.000000)" fill="#214265">
                    <rect id="Rectangle-5" x="0" y="0" width="23" height="23" rx="8"></rect>
                    <rect id="Rectangle-5" x="0" y="0" width="23" height="9" rx="4.5"></rect>
                </g>
                <path d="M65.0205078,5.71533203 L57.3398437,15.5253906 L70.7202813,45.3515625 L70.7202838,125.226562 C70.7202838,125.226562 89.7226562,50.4179688 84.0791016,29.8183594 C78.4355469,9.21875 74.1616211,10.0463867 74.1616211,10.0463867 L65.0205078,5.71533203 Z" id="solapa-izqda" fill="#214265"></path>
                <path d="M131.364177,111.230339 L131.364177,104.005333 C131.364177,104.005333 135.802055,103.542906 139.019971,111.230339 C142.237886,118.917772 136.092501,155.810654 133.610523,160.041016 C131.128545,164.271377 128.852076,166.603526 128.852076,169.40959 C128.852076,174.102176 127.267851,167.474175 127.267851,174.598633 C127.267851,181.72309 133.610523,197.314453 133.610523,197.314453 C133.610523,197.314453 130.87571,208.825065 128.852076,201.183594 C126.828443,193.542122 121.447655,185.017287 121.230985,176.862545 C121.014315,168.707803 125.010537,166.891758 129.191735,157.605756 C133.372934,148.319755 135.268561,119.750543 133.610523,116.520443 C131.952485,113.290344 131.364177,111.230339 131.364177,111.230339 Z" id="Rectangle-16" fill="#214265"></path>
                <path d="M196.269793,24.8207772 L199.261582,36.5475671 L184.426955,214.515741 C184.426955,214.515741 171.20146,212.657019 163.427062,207.250561 C163.675651,179.028077 173.327734,71.4202295 173.327734,71.4202295 C173.327734,71.4202295 143.417582,101.339731 136.590148,100.380198 C119.459045,97.9725783 101.155312,52.6382978 101.155312,52.6382978 L121.773986,36.3236994 C121.773986,36.3236994 137.143141,74.6580048 140.069373,68.1582525 C148.670636,49.0531158 175.813223,17.6960178 177.957388,18.7610618 C183.342586,21.4359827 196.269793,24.8207772 196.269793,24.8207772 Z" id="chupa-dcha" fill="#5F82A7" transform="translate(150.208447, 116.625181) scale(-1, 1) rotate(-8.000000) translate(-150.208447, -116.625181) "></path>
                <path d="M106.563941,15.2330262 L111.261839,28.0324432 L114.019447,119.86921 C114.019447,119.86921 123.054748,35.6086899 122.409729,30.6716782 C121.764709,25.7346665 119.64897,20.1765307 119.64897,20.1765307 L106.563941,15.2330262 Z" id="solapa-dcha" fill="#214265" transform="translate(114.503316, 67.551118) scale(-1, 1) rotate(-9.000000) translate(-114.503316, -67.551118) "></path>
                <path d="M31.1416196,111.230339 L31.1416196,104.005333 C31.1416196,104.005333 35.579497,103.542906 38.7974127,111.230339 C40.501566,115.301472 40.1520043,117.026448 43.0116896,120.855469 C45.8713749,124.684489 51.4238281,129.916962 51.4238281,131.298828 C51.4238281,141.225252 51.4238281,136.691188 51.4238281,141.646484 C51.4238281,143.638621 50.8047328,151.883267 48.3227549,156.113628 C45.840777,160.34399 38.5832804,165.111398 38.5832804,167.917463 C38.5832804,172.610048 36.9990552,165.982047 36.9990552,173.106505 C36.9990552,180.230962 38.9229395,188.975396 38.9229395,188.975396 L46.9786803,208.184725 L43.0116896,221.644064 C43.0116896,221.644064 35.9108638,207.138685 33.8872306,199.497213 C31.8635974,191.855742 31.1788588,183.525159 30.9621891,175.370417 C30.7455194,167.215675 34.741741,165.39963 38.9229395,156.113628 C43.104138,146.827627 46.8383216,148.256061 46.8383216,138.408169 C46.8383216,129.056641 37.5126092,126.684566 35.9976298,123.175316 C34.4114405,119.501117 35.0460032,119.750543 33.3879652,116.520443 C31.7299272,113.290344 31.1416196,111.230339 31.1416196,111.230339 Z" id="Rectangle-16" fill="#214265"></path>
                <g id="manga-dcha" transform="translate(196.599343, 50.360839) rotate(-57.000000) translate(-196.599343, -50.360839) translate(186.599343, 32.860839)" fill="#214265">
                    <polygon id="Rectangle-7" points="2.93733399 -2.23820962e-13 19.5094001 -2.23820962e-13 16.5720662 34.6765095 -2.45137244e-13 34.6765095"></polygon>
                </g>
            </g>
            <g id="guitarra" transform="translate(206.314548, 289.611803) rotate(51.000000) translate(-206.314548, -289.611803) translate(137.814548, 140.111803)">
                <path d="M111.537847,198.65318 C127.0688,208.904621 137,224.585605 137,242.160156 C137,273.043876 106.331505,298.080078 68.5,298.080078 C30.6684946,298.080078 2.4158453e-13,273.043876 2.4158453e-13,242.160156 C2.4158453e-13,224.214383 10.3551783,208.243018 26.453773,198.010867 C20.7025775,189.76128 19.2995527,174.957093 19.2995527,164.640484 C19.2995527,139.852489 47.3079927,125 72.8396275,125 C84.112393,125 65.3847787,141.866073 75.5325856,150.099211 C85.6803924,158.332349 111.757781,150.796921 111.757781,164.640484 C111.757781,174.834879 106.704077,177.79868 111.537847,198.65318 Z" id="Combined-Shape" stroke="#000000" fill="#9C0505"></path>
                <use id="Combined-Shape" stroke="#000000" mask="url(#mask-26)" stroke-width="2" fill="#D4933E" xlink:href="#path-25"></use>
                <circle id="Oval-2" stroke="#000000" fill="#000000" cx="68.5" cy="188.5" r="22.5"></circle>
                <use id="Rectangle-4" stroke="#000000" mask="url(#mask-28)" stroke-width="2" fill="#1A1A1A" xlink:href="#path-27"></use>
                <g id="clavijas" transform="translate(45.000000, 2.000000)" stroke="#000000" stroke-width="2" fill="#D8D8D8">
                    <use id="Combined-Shape-Copy-3" mask="url(#mask-30)" xlink:href="#path-29"></use>
                    <use id="Combined-Shape-Copy-2" mask="url(#mask-32)" xlink:href="#path-31"></use>
                    <use id="Combined-Shape-Copy" mask="url(#mask-34)" xlink:href="#path-33"></use>
                    <use id="Combined-Shape-Copy-3" mask="url(#mask-36)" transform="translate(43.000000, 36.500000) scale(-1, 1) translate(-43.000000, -36.500000) " xlink:href="#path-35"></use>
                    <use id="Combined-Shape-Copy-2" mask="url(#mask-38)" transform="translate(43.000000, 21.500000) scale(-1, 1) translate(-43.000000, -21.500000) " xlink:href="#path-37"></use>
                    <use id="Combined-Shape-Copy" mask="url(#mask-40)" transform="translate(43.000000, 6.500000) scale(-1, 1) translate(-43.000000, -6.500000) " xlink:href="#path-39"></use>
                </g>
                <g id="strings" transform="translate(62.000000, 6.000000)" stroke="#4D4D4D" stroke-linecap="square">
                    <path d="M14.7368421,0.5 L14.7368421,249.5" id="Line-Copy-5"></path>
                    <path d="M11.3684211,0.5 L11.3684211,249.5" id="Line-Copy-4"></path>
                    <path d="M8,0.5 L8,249.5" id="Line-Copy-3"></path>
                    <path d="M4.63157895,0.5 L4.63157895,249.5" id="Line-Copy-2"></path>
                    <path d="M1.26315789,0.5 L1.26315789,249.5" id="Line-Copy"></path>
                </g>
            </g>
            <path d="M293.906712,256.147394 L287.625362,261.719528 C287.625362,261.719528 284.782828,265.240003 283.197239,264.980402 C280.834636,264.593584 279.250001,264.410574 278.414281,262.072199 C277.758302,260.236746 279.488743,259.030939 281.162327,256.438654 C284.848851,250.223078 290.573216,246.943292 290.039769,246.72381 C289.894491,246.664037 285.629857,249.301203 280.872044,256.107843 C278.145108,258.674354 277.50599,260.71737 274.992161,260.886164 C272.684701,261.0411 270.139628,258.766989 269.680638,256.868585 C269.228007,254.996481 271.478978,251.6513 271.478978,251.6513 L280.850804,237.809015 L271.815892,250.862238 C271.815892,250.862238 269.605655,254.893259 267.48972,254.758722 C265.151554,254.610056 263.913795,252.833672 262.907689,250.295832 C262.118385,248.304863 265.609349,240.519464 269.707982,235.176203" id="fingers-over" stroke="#000000" fill="#FFD688" transform="translate(278.351086, 250.085144) rotate(75.000000) translate(-278.351086, -250.085144) "></path>
            <use id="antebrazo-over" stroke="#000000" mask="url(#mask-42)" stroke-width="2" fill="#FFD788" transform="translate(120.378914, 312.209697) rotate(8.000000) translate(-120.378914, -312.209697) " xlink:href="#path-41"></use>
            <path d="M79.1845703,310.905273 L110.083984,312.108398 L109,336 C109,336 70.1803595,338.166967 62.3427734,331.570312" id="manga-over" stroke="#000000" fill="#5F82A7"></path>
            <g id="manga-izqda" transform="translate(94.000000, 307.000000)" stroke="#000000" fill="#214265">
                <polygon id="Rectangle-7" points="3.6274807 0.879701864 18.7241211 0.879701864 16.0483006 32.4689309 0.951660156 32.4689309"></polygon>
            </g>
            <path d="M180.808812,331.856188 C180.808812,331.856188 172.418325,331.267749 168.223081,330.973529 C165.705885,330.796994 159.430585,329.787503 159.430585,329.787503 C159.430585,329.787503 155.449492,328.883801 154.354953,327.736826 C152.724037,326.027777 151.578831,324.936627 152.480233,322.744029 C153.187768,321.023001 155.237119,321.02278 158.260825,321.515326 C161.284531,322.007872 163.778089,321.70235 166.528368,321.495431 C173.28576,320.987032 180.51641,321.456406 180.317754,321.1144 C180.262911,321.019982 173.588562,320.627603 166.728303,321.174863 C164.066734,321.387182 161.003268,320.932402 158.552205,320.838787 C156.101142,320.745172 152.663126,321.216976 150.538108,319.817177 C148.58754,318.532293 148.077891,315.351425 148.985335,313.70422 C149.880208,312.079835 154.406506,312.551915 154.406506,312.551915 C154.406506,312.551915 161.979088,312.098555 165.713078,311.44366 C170.125548,310.669767 178.950487,309.121983 178.950487,309.121983 C178.950487,309.121983 170.181239,310.576521 165.796615,311.30379 C162.301264,311.883557 154.870982,312.17958 154.870982,312.17958 C154.870982,312.17958 150.251731,312.233958 148.648807,310.856191 C146.877531,309.333721 146.21774,306.748172 147.978826,304.863556 C152.867767,299.631685 156.514354,303.027158 163.745913,300.607652 C168.042252,299.1702 181.424379,296.817815 183.983951,296.305924" id="fingers-izqda" stroke="#000000" fill="#FFD688" transform="translate(165.463619, 314.081056) scale(-1, 1) rotate(12.000000) translate(-165.463619, -314.081056) "></path>
            <use id="thumb" stroke="#000000" mask="url(#mask-44)" stroke-width="2" fill="#FFD788" transform="translate(265.661234, 229.438841) scale(1, -1) rotate(25.000000) translate(-265.661234, -229.438841) " xlink:href="#path-43"></use>
        </g>
    </g>
</svg>