<?xml version="1.0" encoding="UTF-8"?>
<svg width="289px" height="289px" viewBox="0 0 289 289" version="1.1" xmlns="http://www.w3.org/2000/svg" xmlns:xlink="http://www.w3.org/1999/xlink">
    <!-- Generator: Sketch 41.2 (35397) - http://www.bohemiancoding.com/sketch -->
    <title>thumbnail-01</title>
    <desc>Created with Sketch.</desc>
    <defs>
        <rect id="path-1" x="-3" y="-3" width="312" height="497"></rect>
        <mask id="mask-2" maskContentUnits="userSpaceOnUse" maskUnits="objectBoundingBox" x="0" y="0" width="312" height="497" fill="white">
            <use xlink:href="#path-1"></use>
        </mask>
        <path d="M194.703859,236.228225 C184.490982,250.293059 176.860879,293.794451 174.714343,307.123793 C174.128784,308.562681 173.884689,310.263626 174.113155,312.274069 C175.505233,324.524015 228.714603,320.635339 241.930818,319.478339 C242.396078,319.545295 242.875914,319.596975 243.370395,319.632624 C262.816672,321.0346 263.514414,320.897933 275.389162,318.419129 C277.837446,317.90806 283.817394,313.611689 282.116472,308.562991 C281.175413,305.769726 284.710039,302.588484 285.246401,301.191211 C286.33695,298.350235 284.065484,296.776277 284.065536,293.867765 C284.065657,287.103449 287.986525,288.943521 283.086072,283.822202 C280.11768,280.720022 265.862261,283.689092 265.862261,283.689092 C265.862261,283.689092 273.67991,283.271676 271.598698,281.510063 C270.739194,280.782547 268.606932,279.843574 266.84166,276.381069 C265.111428,272.987293 255.798859,274.323292 252.441119,275.260823 C244.715761,277.417857 250.11805,282.183289 238.020036,292.197766 C234.413032,295.183567 232.06958,298.954088 231.060563,302.737783 L196.762956,299.554337 C196.93418,299.371077 197.105226,299.184897 197.27605,298.995748 C206.056022,289.273906 218.541565,258.994823 223.396752,246.710438 C223.725412,246.079135 224.03322,245.42728 224.31814,244.756051 C228.742289,234.333409 225.97266,223.186181 218.132,219.858018 C210.291341,216.529856 200.34875,222.281067 195.924601,232.703708 C195.428077,233.873446 195.022163,235.052311 194.703859,236.228225 Z" id="path-3"></path>
        <mask id="mask-4" maskContentUnits="userSpaceOnUse" maskUnits="objectBoundingBox" x="0" y="0" width="111.522261" height="102.071947" fill="white">
            <use xlink:href="#path-3"></use>
        </mask>
        <path d="M113.827774,237.580126 C113.827774,237.580126 118.736746,235.879378 136.677538,236.294032 C163.311944,215.120106 211.901934,258.308244 211.901934,258.308244 L183.730225,368.481661 C183.730225,368.481661 116.576434,364.318808 102.755955,356.868216 C110.606358,312.762532 113.827774,237.580126 113.827774,237.580126 Z" id="path-5"></path>
        <mask id="mask-6" maskContentUnits="userSpaceOnUse" maskUnits="objectBoundingBox" x="0" y="0" width="109.145979" height="138.030201" fill="white">
            <use xlink:href="#path-5"></use>
        </mask>
        <path d="M89.642653,262.433648 C79.4297756,276.498482 71.799673,319.999874 69.6531372,333.329216 C69.0675782,334.768104 68.8234832,336.46905 69.051949,338.479492 C70.4440272,350.729438 123.653397,346.840763 136.869612,345.683763 C137.334872,345.750718 137.814708,345.802398 138.309189,345.838048 C157.755466,347.240023 158.453208,347.103357 170.327956,344.624553 C172.77624,344.113484 178.756188,339.817112 177.055266,334.768414 C176.114207,331.975149 179.648833,328.793908 180.185195,327.396635 C181.275744,324.555658 179.004278,322.981701 179.00433,320.073189 C179.004451,313.308872 182.925319,315.148945 178.024866,310.027626 C175.056474,306.925446 160.801055,309.894516 160.801055,309.894516 C160.801055,309.894516 168.618704,309.477099 166.537492,307.715486 C165.677988,306.987971 163.545726,306.048997 161.780454,302.586493 C160.050222,299.192717 150.737653,300.528716 147.379913,301.466247 C139.654555,303.623281 145.056844,308.388713 132.95883,318.40319 C129.351826,321.38899 127.008374,325.159512 125.999357,328.943206 L91.7017504,325.759761 C91.8729736,325.576501 92.0440204,325.39032 92.2148438,325.201172 C100.994816,315.47933 113.480359,285.200246 118.335546,272.915861 C118.664206,272.284559 118.972014,271.632704 119.256934,270.961474 C123.681083,260.538833 120.911454,249.391604 113.070794,246.063442 C105.230135,242.735279 95.2875438,248.486491 90.8633951,258.909132 C90.3668708,260.07887 89.960957,261.257734 89.642653,262.433648 Z" id="path-7"></path>
        <mask id="mask-8" maskContentUnits="userSpaceOnUse" maskUnits="objectBoundingBox" x="0" y="0" width="111.522261" height="102.071947" fill="white">
            <use xlink:href="#path-7"></use>
        </mask>
        <path d="M63.8592374,175.207666 C63.2400019,175.980864 62.5432375,176.696902 61.7684209,177.34705 C53.259432,184.48694 38.5592917,180.976614 28.9347386,169.506518 C19.3101856,158.036422 18.4058421,142.950049 26.9148311,135.810159 C31.5674471,131.906151 38.071078,131.186317 44.5838666,133.210831 C37.1227341,106.38825 39.9824984,83.2595052 47.6528683,67.5980532 C60.8049234,26.9598476 113.732284,4.64196713 169.159645,17.4383817 C226.923902,30.7743112 239.7863,64.544052 235.101393,101.1747 C233.463211,113.983426 231.444394,124.94926 229.034443,134.30327 C231.620179,137.474601 233.368805,140.35683 234.114898,142.853793 C242.649666,171.417251 224.320771,215.532224 201.032146,230.084572 C177.743521,244.63692 109.613461,240.286572 68.5247941,182.123742 C66.8892279,179.808526 65.3349026,177.502578 63.8592374,175.207666 Z" id="path-9"></path>
        <mask id="mask-10" maskContentUnits="userSpaceOnUse" maskUnits="objectBoundingBox" x="0" y="0" width="215.16566" height="223.303482" fill="white">
            <use xlink:href="#path-9"></use>
        </mask>
        <path d="M112.900391,375.539062 L139.25,383.921619 L122,479.023181 L118.986328,489.447266 L78.1914062,514.294922 C78.1914062,514.294922 51.8921278,510.61842 58.3007812,492.128906 C60.6972656,485.214844 93,479.023181 93,479.023181 L112.900391,375.539062 Z M163.984375,370.857165 L192.984375,370.857165 L179.510742,467.888672 C179.510742,467.888672 212.850586,472.298828 216.015625,476.546875 C230.937031,496.574063 194.217773,500.805664 194.217773,500.805664 L149.602539,481.280273 L150,471.023181 L163.984375,370.857165 Z" id="path-11"></path>
        <mask id="mask-12" maskContentUnits="userSpaceOnUse" maskUnits="objectBoundingBox" x="0" y="0" width="162.288017" height="143.437756" fill="white">
            <use xlink:href="#path-11"></use>
        </mask>
        <path d="M113,365.921619 C113.09375,354.681384 195.661133,360.90332 195.661133,360.90332 C195.661133,360.90332 194.672852,361.610352 192.369141,373.492188 C191.443927,378.264157 178.123276,387.923561 163.240747,390.543193 C154.803717,392.028285 145.599832,393.098863 137.302582,393.677091 C123.793371,394.618538 115.514699,384.368103 114.035156,382.363281 C110.043945,376.955078 112.90625,377.161853 113,365.921619 Z" id="path-13"></path>
        <mask id="mask-14" maskContentUnits="userSpaceOnUse" maskUnits="objectBoundingBox" x="0" y="0" width="83.7421331" height="34.5523001" fill="white">
            <use xlink:href="#path-13"></use>
        </mask>
        <path d="M182.896203,124.631638 C187.280969,140.031052 181.67137,130.38281 192.713586,143.283005 C198.013168,149.474301 215.674911,166.765171 211.069055,171.585739 C202.01925,181.057419 183.15425,179.802848 177.753625,177.328903" id="path-15"></path>
        <mask id="mask-16" maskContentUnits="userSpaceOnUse" maskUnits="objectBoundingBox" x="0" y="0" width="34.0737873" height="54.4723366" fill="white">
            <use xlink:href="#path-15"></use>
        </mask>
        <path d="M91.965388,222.531129 C94.9855999,221.405176 100.66087,220.040352 118.601661,220.455006 C129.077619,227.482462 140.01721,238.629081 163.875094,245.673908 C180.376134,250.546384 192.923504,248.18398 192.923504,248.18398 L204.108586,274.573552 L183.822652,283.703175 L187.117344,271.383179 L166.423793,351.608189 C166.423793,351.608189 99.2700026,347.445336 85.4495234,339.994744 C89.1294534,319.319902 92.9352514,271.986527 92.9352514,271.986527 C92.9352514,271.986527 98.3972412,260.547768 97.70052,261.450325 C97.0037987,262.352883 87.4423987,278.900312 86.9448089,277.902879 C86.2304604,276.470947 63.980359,268.633051 62.3705071,264.719491 C62.106402,264.07745 75.2752909,229.83371 91.965388,222.531129 Z" id="path-17"></path>
        <mask id="mask-18" maskContentUnits="userSpaceOnUse" maskUnits="objectBoundingBox" x="0" y="0" width="141.741982" height="131.229208" fill="white">
            <use xlink:href="#path-17"></use>
        </mask>
        <path d="M4,26 L13,26 C13,26 13.0195313,66.7046359 13,80.5027518 C11.4794922,86.65416 4.96972656,85.4316404 4,80.5027518 C3.23046875,72.4291325 4,26 4,26 Z" id="path-19"></path>
        <mask id="mask-20" maskContentUnits="userSpaceOnUse" maskUnits="objectBoundingBox" x="0" y="0" width="9.35069444" height="58.6704326" fill="white">
            <use xlink:href="#path-19"></use>
        </mask>
        <rect id="path-21" x="3" y="0" width="11" height="27"></rect>
        <mask id="mask-22" maskContentUnits="userSpaceOnUse" maskUnits="objectBoundingBox" x="0" y="0" width="11" height="27" fill="white">
            <use xlink:href="#path-21"></use>
        </mask>
        <rect id="path-23" x="0.75470958" y="2.34394097" width="3" height="29"></rect>
        <mask id="mask-24" maskContentUnits="userSpaceOnUse" maskUnits="objectBoundingBox" x="0" y="0" width="3" height="29" fill="white">
            <use xlink:href="#path-23"></use>
        </mask>
        <rect id="path-25" x="7.22248064" y="84" width="2.44496128" height="3.39023875"></rect>
        <mask id="mask-26" maskContentUnits="userSpaceOnUse" maskUnits="objectBoundingBox" x="0" y="0" width="2.44496128" height="3.39023875" fill="white">
            <use xlink:href="#path-25"></use>
        </mask>
        <path d="M231.33374,229.072998 L233.056396,229.993164 C233.056396,229.993164 238.670471,220.711025 243.641113,217.691895 C246.041809,216.23373 251.635796,218.881483 250.540527,220.654541 C242.894775,233.031738 245.377653,233.885287 242.394043,235.69751" id="path-27"></path>
        <mask id="mask-28" maskContentUnits="userSpaceOnUse" maskUnits="objectBoundingBox" x="0" y="0" width="19.3472719" height="18.4277032" fill="white">
            <use xlink:href="#path-27"></use>
        </mask>
        <rect id="path-29" x="0" y="0" width="289" height="289"></rect>
        <mask id="mask-30" maskContentUnits="userSpaceOnUse" maskUnits="objectBoundingBox" x="0" y="0" width="289" height="289" fill="white">
            <use xlink:href="#path-29"></use>
        </mask>
    </defs>
    <g id="thumbnails" stroke="none" stroke-width="1" fill="none" fill-rule="evenodd">
        <g id="thumbnail-01">
            <use id="Rectangle-19" stroke="#979797" mask="url(#mask-2)" stroke-width="2" fill="#494949" xlink:href="#path-1"></use>
            <g id="Group" transform="translate(1.000000, -3.000000)">
                <g id="queco-base">
                    <g id="silueta" transform="translate(-18.000000, -17.000000)">
                        <use id="brazo-dcho" stroke="#000000" mask="url(#mask-4)" stroke-width="2" fill="#FFD788" transform="translate(229.789493, 269.949876) rotate(-55.000000) translate(-229.789493, -269.949876) " xlink:href="#path-3"></use>
                        <use id="torso" stroke="#000000" mask="url(#mask-6)" stroke-width="2" fill="#D8D8D8" transform="translate(157.328945, 299.466561) rotate(-10.000000) translate(-157.328945, -299.466561) " xlink:href="#path-5"></use>
                        <use id="brazo-izq" stroke="#000000" mask="url(#mask-8)" stroke-width="2" fill="#FFD788" xlink:href="#path-7"></use>
                        <g id="cabeza" transform="translate(147.738052, 143.560442) rotate(8.000000) translate(-147.738052, -143.560442) translate(17.238052, 17.060442)">
                            <use stroke="#000000" mask="url(#mask-10)" stroke-width="2" fill="#FFD788" xlink:href="#path-9"></use>
                            <g id="cara" transform="translate(0.000000, 0.000000)">
                                <g id="barba" transform="translate(152.862727, 184.807913) rotate(-11.000000) translate(-152.862727, -184.807913) translate(69.362727, 131.807913)" stroke="#261408">
                                    <path d="M3.36328125,0.1953125 L0.155273438,14.7421875 L7.04882813,7.43261719 L0.73046875,22.0048828 L8.48242188,13.0927734 L1.98730469,29.8798828 L10.1855469,19.7607422 L3.57714844,35.21875 L10.90625,25.9726562 L5.45507813,39.8730469 L13.9980469,30.7363281 L8.66894531,44.6337891 L19.4335938,31.921875 C19.4335938,31.921875 10.7452576,46.7394181 10.7333984,48.8046875 C10.7215392,50.8699569 23.1621094,34.5927734 23.1621094,34.5927734 L15.0664063,50.7636719 L25.2080078,39.7246094 L17.2753906,54.1210937 L28.5771484,42.0566406 L20.8193359,58.2939453 L34.0693359,43.8691406 C34.0693359,43.8691406 22.8470112,60.4253178 22.8505859,62.796875 C22.8541607,65.1684322 37.1162109,46.9443359 37.1162109,46.9443359 L26.3486328,66.5605469 L39.296875,50.8554687 L31.147237,69.5335936 L42.4091797,55.7119141 L34.1711466,73.3543156 L50.2158203,56.9052734 L38.911383,77.1916437 L54.6669922,59.8193359 L43.664151,81.2936623 L55.0859375,69.703125 L50.0087891,85.4335937 L59.1259766,71.9951172 L55.2272606,89.6270461 L63.4160156,73.3164062 L61.479785,92.7280591 L68.8164063,77.1621094 L67.5998075,96.3981125 L74.7832031,79.3066406 L74.3344724,99.3865091 L81.1425781,83.4160156 L81.9715373,101.315213 L87.8515625,86.8535156 L89.0185984,102.783696 L94.6633508,87.2159877 L96.743222,104.4598 L102.795623,87.3272974 L104.831865,105.254333 L109.125,88.1113281 L112.76242,104.661738 L116.410443,85.8444504 L119.900702,103.661886 L125.096167,82.9337089 L126.68586,99.9210469 L132.494141,83.6777344 L133.033203,96.0019531 L138.933594,78.9375 L139.447266,93.046875 L144.107422,67.7197266 L145.894531,84.9316406 L149,63.8007812 L150.789063,80.2392578 L155.056641,57.984375 L154.376953,74.2832031 L160.697266,48.3027344 L159.322266,65.4316406 L166.140625,45.375 L165.277344,53.6464844" id="Path-2"></path>
                                    <polyline id="Path-3" points="111.34375 47.9414062 102.501953 61.2832031 105.746094 46.9882812 95.8398437 60.5078125 98.0664062 46.3964844 89.1806641 59.2207031 92.2910156 42.8007812 83.0292969 56.0615234 84.9121094 40.4785156 77.5957031 52.8769531 76.5205078 38.4951172 70.2265625 48.7597656 70.9003906 38.7998047 66.2871094 47.1933594 64.6669922 38.7685547 62.5058594 50.3935547 61.1210937 39.5166016 58.4257812 49.9609375 56.1660156 42.5888672 54.9443359 54.3105469 52.4023437 42.5068359 49.8369141 53.1728516"></polyline>
                                    <polyline id="Path-4" points="125.729492 49.8457031 126.814453 60.7197266 130.822266 48.8496094 133.512695 59.6601562 136.955078 49.1865234 139.363281 60.2382812 141.688477 49.9716797 143.828125 59.5966797 147.72168 51.2402344 148.292969 59.2578125 151.605469 53.3662109 151.935547 59.7724609"></polyline>
                                </g>
                                <path d="M46.6685037,133.351095 C46.6685037,133.351095 48.208878,139.517201 51.9341287,144.17922 C56.4817051,149.87035 60.4865828,156.541567 63.0513162,154.440939 C65.6160496,152.34031 58.7952146,140.114396 61.0005349,136.753439 C62.2913083,134.786271 67.2869257,147.173293 70.0435037,143.784689 C72.8000817,140.396084 72.5053569,134.224018 69.6724099,126.093282 C67.8120397,120.753903 71.1980227,111.730045 71.4380349,110.446798 C72.3415961,105.615826 69.7603005,130.178243 75.4810037,112.702657 C81.2017068,95.2270715 83.4253985,111.415319 85.5132302,106.853048 C87.9878625,101.445551 95.4924541,78.8587111 95.5278787,87.5864465 C95.5825662,101.060079 101.824265,67.4985559 101.824265,67.4985559 C101.824265,67.4985559 106.333811,72.803431 118.094285,81.944845 C125.856272,87.9782356 139.051841,89.5332647 139.914597,87.6342981 C140.917076,85.427796 119.089402,79.8779504 118.721238,70.0717981 C118.676981,68.8929968 122.93609,72.2840194 133.514207,77.1362512 C144.80347,82.3146892 158.889057,94.3743504 160.534715,89.313009 C160.896531,88.2002161 143.106802,75.478235 146.98491,70.1831262 C147.202884,69.8855074 153.805571,76.8014043 161.519363,82.5386032 C168.182161,87.4941153 175.122964,89.630162 180.596238,89.3589075 C183.591355,89.21047 161.120652,79.3764856 162.563035,68.319845 C163.005024,64.9317611 173.040311,71.6091284 174.784715,75.1928918 C177.350144,80.4633997 187.738622,86.1358218 191.285691,84.64797 C194.296257,83.3851593 180.441941,79.538595 178.51616,67.1059778 C177.622461,61.3363617 187.547475,70.4172777 192.586472,74.3276575 C195.926316,76.9194543 204.823295,84.6079741 208.117722,83.226095 C209.786796,82.5259862 191.758219,67.5678053 193.427293,66.8676965 C195.002084,66.2071354 205.515588,73.5780624 207.090379,72.9175012 C209.552087,71.8849141 205.33854,65.2788993 208.574754,63.5923059 C211.403695,62.1179677 216.616746,79.8081262 216.101121,73.0288293 C215.585496,66.2495325 226.966296,64.0641276 226.790574,65.3012903 C225.005988,77.8655916 224.325489,70.8828645 226.485886,85.8051965 C226.61439,86.6927966 228.904362,70.3840964 230.265183,73.6186731 C230.697492,74.6462403 231.985038,83.2076513 230.375663,90.5084326 C228.766288,97.8092138 235.230695,76.7183236 235.686749,82.5444954 C236.142804,88.3706673 234.037772,108.787729 234.037772,108.787729 C234.037772,108.787729 255.208117,93.2190155 253.426316,75.8628137 C252.322685,65.1125361 267.697801,73.46047 257.098191,58.3159387 C250.145299,48.3817716 247.014039,46.2434751 244.206476,44.4472085 C242.733939,43.505086 254.433456,39.3494349 252.634324,37.5200403 C248.356305,33.1700612 232.782042,33.8823066 230.856965,32.2076985 C226.144268,28.108163 224.824668,29.5267474 208.990769,24.2300012 C205.939092,23.2091561 215.229866,16.4188949 212.197801,15.851095 C209.299695,15.308381 194.077765,20.9736412 191.203351,20.6344564 C187.181762,20.1599035 186.806248,16.4100496 182.844285,15.851095 C179.917584,15.4381953 188.47136,7.4406111 185.584528,6.7145192 C183.707378,6.24238139 170.377216,13.1648737 168.519098,12.4811208 C158.446311,8.77452296 161.103911,3.92830566 152.524957,3.92740983 C142.399809,3.92635254 144.962039,7.89757621 139.195856,12.4772145 C133.429672,17.0568528 125.603633,2.45945279 117.045465,0.837566076 C107.444453,-0.981953457 106.828448,10.5622791 94.7925354,5.59440201 C83.6136041,0.9802478 81.5031636,14.9967953 69.2915505,21.2221887 C66.2641686,22.7655265 60.1562171,26.9730655 60.2134255,29.1704309 C60.2286662,29.7558209 58.7798318,13.0249231 57.5879373,15.851095 C56.3960427,18.6772668 54.9663552,24.7749231 54.9663552,24.7749231 C54.9663552,24.7749231 51.2915505,11.0669153 49.7476052,19.6328332 C48.2036599,28.1987512 54.5649992,35.0605454 48.7305154,33.5415247 C29.7729635,28.6058842 44.9903338,37.1090245 42.4648062,38.4237753 C39.3879799,40.0255239 36.7501128,41.4325531 36.509324,41.9243372 C34.8655289,45.2816042 48.109489,41.9290298 46.7125774,44.8580801 C46.2321279,45.8654885 40.4800032,47.9704372 35.6978792,51.4776959 C33.3364652,53.2095812 31.2115749,55.2834039 30.0747537,57.7358606 C29.2099254,59.6015488 20.7909772,60.0258915 20.283738,61.3413293 C19.5329674,63.2883245 26.8710032,65.8645616 26.5769174,67.2061062 C25.8571395,70.4895497 25.9212374,73.0320666 23.9106912,80.0835168 C23.2822571,82.2875802 22.9003814,85.0869992 22.6746213,87.9454596 C22.4558952,90.7148575 6.70463648,115.330587 15.384324,109.648947 C24.0640115,103.967306 22.4966287,102.134298 22.4966287,102.134298 C22.4966287,102.134298 20.5460321,112.011597 18.6209525,115.054593 C17.4290881,116.938586 0.0395974197,128.792501 0.735886482,132.693868 C1.43217554,136.595236 10.7926836,129.379816 9.83122659,132.231112 C8.45687078,136.3069 8.00758021,140.100265 8.38920679,144.995626 C8.38920679,144.995626 10.5651288,160.476135 13.8130349,166.415548 C15.0434879,168.665665 15.9938945,159.790619 17.6725465,162.449818 C24.2379751,172.850296 34.1937173,185.44792 47.2446755,192.954611 C53.9474367,196.809925 68.1963433,212.53344 66.8286599,206.478048 C62.9907693,189.485861 93.4662489,215.540599 99.6802452,215.270482 C105.075071,215.035973 85.579209,204.605248 75.016279,190.773724 C69.6958703,183.806968 64.0027538,174.700872 64.0027538,174.700872 C64.0027538,174.700872 59.3391796,182.091008 45.4094921,179.29804 C38.9131443,177.995491 28.5986777,171.25189 23.5859841,161.542989 C16.6671047,148.142069 23.8651293,138.091197 30.1523904,134.073751 C36.4253396,130.06545 46.6685037,133.351095 46.6685037,133.351095 Z" id="pelo" stroke="#000000" fill="#9C551A"></path>
                            </g>
                        </g>
                        <use id="piernas" stroke="#000000" mask="url(#mask-12)" stroke-width="2" fill="#FFD788" xlink:href="#path-11"></use>
                        <g id="pelillos" transform="translate(104.000000, 385.000000)" stroke="#261408">
                            <path d="M18,59 L18.4140625,65" id="Path-5"></path>
                            <path d="M7.59179688,61 C5.39453125,63.1803385 3.19726563,65.3606771 1,67.5410156" id="Path-6"></path>
                            <path d="M8.02929688,52.3515625 C2.83329883,53.2095344 6.00699042,54.0070016 0.525390625,56.1445312" id="Path-7"></path>
                            <polyline id="Path-8" points="14.0449219 50.6035156 14.0449219 52.2324219 14.0449219 52.7011719 14.0449219 53.2714844 14.0449219 53.8417969 14.0449219 54.0996094 14.0449219 54.3847656 14.0449219 54.5136719 14.0449219 54.6425781 14.0449219 54.7714844 14.0449219 54.9003906 14.0449219 55.0292969 14.0449219 55.1582031 14.0449219 55.4160156 14.0449219 55.6738281 14.0449219 55.8027344 14.0449219 55.9316406 14.0449219 56.1894531 14.0449219 56.3183594 14.0449219 56.4472656"></polyline>
                            <path d="M17.6582031,43.6816406 L19.3144531,48.7871094" id="Path-9"></path>
                            <path d="M15.1367188,35.7675781 L10.7285156,39.1738281" id="Path-10"></path>
                            <path d="M4.94921875,39.8476562 L2.13671875,44.9433594" id="Path-11"></path>
                            <path d="M10.0195312,30.0585938 L3.96875,31.4648438" id="Path-12"></path>
                            <path d="M13.4453125,25.875 C14.2122396,26.4746094 14.9791667,27.0742188 15.7460938,27.6738281" id="Path-13"></path>
                            <path d="M21.78125,29.8867188 L22.2226562,37.5664062" id="Path-14"></path>
                            <path d="M25.1972656,19.671875 L25.6113281,23.09375" id="Path-15"></path>
                            <path d="M16.0214844,18 C10.347209,18.404568 13.1061969,17.7413261 8,20.3984375" id="Path-16"></path>
                            <path d="M19,12.612114 L14.5957031,10" id="Path-17"></path>
                            <polyline id="Path-18" points="81.9023438 0.96875 81.9023438 2.62695312 81.9023438 3.30859375 81.9023438 4.69921875 81.9023438 6.30273438 81.9023438 6.58789062 81.9023438 7.34179688 81.9023438 7.47070312 81.9023438 7.59960938 81.9023438 7.72851562 81.9023438 7.85742188"></polyline>
                            <path d="M73.4785156,7.4375 L70.6933594,13.6855469" id="Path-19"></path>
                            <path d="M77.6503906,12.9433594 L78.8730469,19.7949219" id="Path-20"></path>
                            <path d="M71.6855469,21.6289062 L73.7226562,25.8710938" id="Path-21"></path>
                            <path d="M76.6640625,24.4804688 L76.8066406,30.6289062" id="Path-22"></path>
                            <path d="M67.1347656,11.2929688 L63.2890625,13.4980469" id="Path-23"></path>
                            <path d="M63.546875,21.5800781 C62.391276,23.8216146 61.2356771,26.063151 60.0800781,28.3046875" id="Path-24"></path>
                            <path d="M67.2910156,29.3496094 C65.9140625,30.8541667 64.5371094,32.358724 63.1601562,33.8632812" id="Path-25"></path>
                            <path d="M61,38 L65.9785156,46.6210938" id="Path-26"></path>
                            <path d="M73.875,36.0175781 L76.3515625,43.9902344" id="Path-27"></path>
                            <path d="M72.8027344,49.8828125 L74.9746094,55.7890625" id="Path-28"></path>
                            <path d="M67.5234375,50.1308594 C68.1302083,52.1803385 68.7369792,54.2298177 69.34375,56.2792969" id="Path-29"></path>
                            <path d="M63.7851562,58.9628906 L59.2246094,61.5605469" id="Path-30"></path>
                            <path d="M56.375,54.9472656 L52.296875,58.9511719" id="Path-31"></path>
                            <polyline id="Path-32" transform="translate(57.334961, 46.123047) rotate(-36.000000) translate(-57.334961, -46.123047) " points="60.375 45.6230469 58.1191406 45.6230469 57.9882812 45.6230469 57.3046875 45.6230469 56.8339844 45.6230469 55.8632812 45.6230469 55.1054688 45.6230469 54.9746094 45.6230469 54.7128906 45.6230469 54.5820312 45.6230469 54.2949219 45.6230469"></polyline>
                        </g>
                        <use id="calzones" stroke="#000000" mask="url(#mask-14)" stroke-width="2" fill="#4B476D" xlink:href="#path-13"></use>
                        <path d="M117,460 C123.386151,460.783069 123.148345,465.198558 117.513184,467.148926" id="tobillo-izqdo" stroke="#000000"></path>
                        <path d="M155,453 C161.386151,453.783069 161.148345,458.198558 155.513184,460.148926" id="tobillo-dcho" stroke="#000000" transform="translate(157.382588, 456.574463) scale(-1, 1) translate(-157.382588, -456.574463) "></path>
                    </g>
                </g>
                <path d="M200.138672,197.169922 C178.632464,213.389275 155.202275,211.936393 133.490234,195.951172" id="boca" stroke="#000000"></path>
                <circle id="ojo-dcho" stroke="#000000" fill="#FFFFFF" cx="204.5" cy="130.85599" r="23.5"></circle>
                <circle id="pupila-dcha" stroke="#6E934F" fill="#000000" cx="198" cy="132" r="4"></circle>
                <path d="M225.151429,100.137769 C222.313158,96.0357795 217.034326,89.4885203 205.385006,89.4885203 C193.735687,89.4885203 184.039813,101.266651 183.860829,104.290715" id="ceja-dcha" stroke="#000000" transform="translate(204.506129, 96.889618) rotate(5.000000) translate(-204.506129, -96.889618) "></path>
                <ellipse id="ojo-izqdo" stroke="#000000" fill="#FFFFFF" cx="142.276153" cy="136.088321" rx="29.8391703" ry="29.8391703"></ellipse>
                <circle id="pupila-izqda" stroke="#6E934F" fill="#000000" cx="146.436983" cy="136.24915" r="4"></circle>
                <path d="M163.742647,104.576299 C159.391085,98.2872363 151.297717,88.2491504 133.437286,88.2491504 C115.576856,88.2491504 100.711397,106.307071 100.436983,110.943486" id="ceja-izqda" stroke="#000000"></path>
                <use id="nariz" stroke="#000000" mask="url(#mask-16)" stroke-width="2" fill="#FFD788" transform="translate(194.790519, 151.867806) rotate(-6.000000) translate(-194.790519, -151.867806) " xlink:href="#path-15"></use>
                <use id="camiseta" stroke="#000000" mask="url(#mask-18)" stroke-width="2" fill="#E71212" transform="translate(133.237594, 285.993585) rotate(-10.000000) translate(-133.237594, -285.993585) " xlink:href="#path-17"></use>
                <polygon id="Star" stroke="#000000" fill="#F8E81C" points="146.5 297.75 129.74812 306.556984 132.947445 287.903492 119.394889 274.693016 138.12406 271.971508 146.5 255 154.87594 271.971508 173.605111 274.693016 160.052555 287.903492 163.25188 306.556984"></polygon>
                <path d="M249.060059,252.939209 C249.509766,249.769043 250.856201,240.582764 242.407471,235.146973" id="hand-wrenkle" stroke="#000000"></path>
                <g id="pen" transform="translate(254.013401, 235.860120) rotate(-49.000000) translate(-254.013401, -235.860120) translate(246.513401, 191.860120)" stroke="#000000" stroke-width="2">
                    <use id="Rectangle" mask="url(#mask-20)" fill="#D8D8D8" xlink:href="#path-19"></use>
                    <use id="Rectangle-2" mask="url(#mask-22)" fill="#2E2D5D" xlink:href="#path-21"></use>
                    <use id="Rectangle-4" mask="url(#mask-24)" fill="#2E2E5D" xlink:href="#path-23"></use>
                    <use id="Rectangle-5" mask="url(#mask-26)" fill="#000000" xlink:href="#path-25"></use>
                </g>
                <path d="M274.999023,240.830078 L268.717673,246.402212 C268.717673,246.402212 265.875139,249.922687 264.289551,249.663086 C261.926947,249.276268 260.342312,249.093258 259.506592,246.754883 C258.850613,244.91943 260.581055,243.713623 262.254639,241.121338 C265.941162,234.905762 271.665527,231.625977 271.13208,231.406494 C270.986802,231.346721 266.722168,233.983887 261.964355,240.790527 C259.237419,243.357038 258.598302,245.400054 256.084473,245.568848 C253.777013,245.723784 251.231939,243.449673 250.772949,241.55127 C250.320318,239.679165 252.571289,236.333984 252.571289,236.333984 L261.943115,222.491699 L252.908203,235.544922 C252.908203,235.544922 250.697966,239.575943 248.582031,239.441406 C246.243865,239.29274 245.006107,237.516356 244,234.978516 C243.210696,232.987547 246.70166,225.202148 250.800293,219.858887" id="fingers-over" stroke="#000000" fill="#FFD688"></path>
                <use id="thumb" stroke="#000000" mask="url(#mask-28)" stroke-width="2" fill="#FFD788" xlink:href="#path-27"></use>
                <g id="cara-variable" transform="translate(100.000000, 87.000000)"></g>
            </g>
            <use id="Rectangle-18" stroke="#4B83AA" mask="url(#mask-30)" stroke-width="20" xlink:href="#path-29"></use>
        </g>
    </g>
</svg>