<?xml version="1.0" encoding="UTF-8"?>
<svg width="298px" height="298px" viewBox="0 0 298 298" version="1.1" xmlns="http://www.w3.org/2000/svg" xmlns:xlink="http://www.w3.org/1999/xlink">
    <!-- Generator: Sketch 41.2 (35397) - http://www.bohemiancoding.com/sketch -->
    <title>thumbnail-11</title>
    <desc>Created with Sketch.</desc>
    <defs>
        <rect id="path-1" x="-10" y="-11" width="312" height="497"></rect>
        <mask id="mask-2" maskContentUnits="userSpaceOnUse" maskUnits="objectBoundingBox" x="0" y="0" width="312" height="497" fill="white">
            <use xlink:href="#path-1"></use>
        </mask>
        <path d="M194.703859,236.228225 C184.490982,250.293059 176.860879,293.794451 174.714343,307.123793 C174.128784,308.562681 173.884689,310.263626 174.113155,312.274069 C175.505233,324.524015 228.714603,320.635339 241.930818,319.478339 C242.396078,319.545295 242.875914,319.596975 243.370395,319.632624 C262.816672,321.0346 263.514414,320.897933 275.389162,318.419129 C277.837446,317.90806 283.817394,313.611689 282.116472,308.562991 C281.175413,305.769726 284.710039,302.588484 285.246401,301.191211 C286.33695,298.350235 284.065484,296.776277 284.065536,293.867765 C284.065657,287.103449 287.986525,288.943521 283.086072,283.822202 C280.11768,280.720022 265.862261,283.689092 265.862261,283.689092 C265.862261,283.689092 258.29374,287.850769 251.463238,289.391251 C246.542224,290.501087 243.086147,288.004148 238.020036,292.197766 C234.413032,295.183567 232.06958,298.954088 231.060563,302.737783 L196.762956,299.554337 C196.93418,299.371077 197.105226,299.184897 197.27605,298.995748 C206.056022,289.273906 218.541565,258.994823 223.396752,246.710438 C223.725412,246.079135 224.03322,245.42728 224.31814,244.756051 C228.742289,234.333409 225.97266,223.186181 218.132,219.858018 C210.291341,216.529856 200.34875,222.281067 195.924601,232.703708 C195.428077,233.873446 195.022163,235.052311 194.703859,236.228225 Z" id="path-3"></path>
        <mask id="mask-4" maskContentUnits="userSpaceOnUse" maskUnits="objectBoundingBox" x="0" y="0" width="111.522261" height="102.071947" fill="white">
            <use xlink:href="#path-3"></use>
        </mask>
        <path d="M113.827774,237.580126 C113.827774,237.580126 118.736746,235.879378 136.677538,236.294032 C163.311944,215.120106 211.901934,258.308244 211.901934,258.308244 L183.730225,368.481661 C183.730225,368.481661 116.576434,364.318808 102.755955,356.868216 C110.606358,312.762532 113.827774,237.580126 113.827774,237.580126 Z" id="path-5"></path>
        <mask id="mask-6" maskContentUnits="userSpaceOnUse" maskUnits="objectBoundingBox" x="0" y="0" width="109.145979" height="138.030201" fill="white">
            <use xlink:href="#path-5"></use>
        </mask>
        <path d="M89.642653,262.433648 C79.4297756,276.498482 71.799673,319.999874 69.6531372,333.329216 C69.0675782,334.768104 68.8234832,336.46905 69.051949,338.479492 C70.4440272,350.729438 123.653397,346.840763 136.869612,345.683763 C137.334872,345.750718 137.814708,345.802398 138.309189,345.838048 C157.755466,347.240023 158.453208,347.103357 170.327956,344.624553 C172.77624,344.113484 178.756188,339.817112 177.055266,334.768414 C176.114207,331.975149 179.648833,328.793908 180.185195,327.396635 C181.275744,324.555658 179.004278,322.981701 179.00433,320.073189 C179.004451,313.308872 182.925319,315.148945 178.024866,310.027626 C175.056474,306.925446 160.801055,309.894516 160.801055,309.894516 C160.801055,309.894516 168.618704,309.477099 166.537492,307.715486 C165.677988,306.987971 163.545726,306.048997 161.780454,302.586493 C160.050222,299.192717 150.737653,300.528716 147.379913,301.466247 C139.654555,303.623281 145.056844,308.388713 132.95883,318.40319 C129.351826,321.38899 127.008374,325.159512 125.999357,328.943206 L91.7017504,325.759761 C91.8729736,325.576501 92.0440204,325.39032 92.2148437,325.201172 C100.994816,315.47933 113.480359,285.200246 118.335546,272.915861 C118.664206,272.284559 118.972014,271.632704 119.256934,270.961474 C123.681083,260.538833 120.911454,249.391604 113.070794,246.063442 C105.230135,242.735279 95.2875438,248.486491 90.8633951,258.909132 C90.3668708,260.07887 89.960957,261.257734 89.642653,262.433648 Z" id="path-7"></path>
        <mask id="mask-8" maskContentUnits="userSpaceOnUse" maskUnits="objectBoundingBox" x="0" y="0" width="111.522261" height="102.071947" fill="white">
            <use xlink:href="#path-7"></use>
        </mask>
        <path d="M63.8592374,175.207666 C63.2400019,175.980864 62.5432375,176.696902 61.7684209,177.34705 C53.259432,184.48694 38.5592917,180.976614 28.9347386,169.506518 C19.3101856,158.036422 18.4058421,142.950049 26.9148311,135.810159 C31.5674471,131.906151 38.071078,131.186317 44.5838666,133.210831 C37.1227341,106.38825 39.9824984,83.2595052 47.6528683,67.5980532 C60.8049234,26.9598476 113.732284,4.64196713 169.159645,17.4383817 C226.923902,30.7743112 239.7863,64.544052 235.101393,101.1747 C233.463211,113.983426 231.444394,124.94926 229.034443,134.30327 C231.620179,137.474601 233.368805,140.35683 234.114898,142.853793 C242.649666,171.417251 224.320771,215.532224 201.032146,230.084572 C177.743521,244.63692 109.613461,240.286572 68.5247941,182.123742 C66.8892279,179.808526 65.3349026,177.502578 63.8592374,175.207666 Z" id="path-9"></path>
        <mask id="mask-10" maskContentUnits="userSpaceOnUse" maskUnits="objectBoundingBox" x="0" y="0" width="215.16566" height="223.303482" fill="white">
            <use xlink:href="#path-9"></use>
        </mask>
        <path d="M251.588086,223.149833 C251.588086,223.149833 265.375408,218.465595 268.699736,221.182896 C274.187793,225.668827 270.071901,224.320303 270.896144,231.034214 C271.250551,233.921053 273.696904,235.206456 272.960712,238.159161 C272.598631,239.611385 269.478049,243.199677 270.752507,245.857435 C273.056031,250.66121 267.644253,255.65433 265.276502,256.45996 C253.792356,260.367455 262.420405,269.572167 257.26255,272.795152" id="path-11"></path>
        <mask id="mask-12" maskContentUnits="userSpaceOnUse" maskUnits="objectBoundingBox" x="0" y="0" width="21.5099748" height="52.4599907" fill="white">
            <use xlink:href="#path-11"></use>
        </mask>
        <path d="M82.8962031,28.6316377 C87.2809687,44.0310518 81.6713695,34.3828104 92.7135859,47.2830049 C98.0131676,53.4743014 115.674911,70.7651711 111.069055,75.5857393 C102.01925,85.057419 83.1542503,83.8028482 77.7536249,81.3289034" id="path-13"></path>
        <mask id="mask-14" maskContentUnits="userSpaceOnUse" maskUnits="objectBoundingBox" x="0" y="0" width="34.0737873" height="54.4723366" fill="white">
            <use xlink:href="#path-13"></use>
        </mask>
        <path d="M81.965388,211.531129 C84.9855999,210.405176 90.6608701,209.040352 108.601661,209.455006 C119.077619,216.482462 130.01721,227.629081 153.875094,234.673908 C170.376134,239.546384 182.923504,237.18398 182.923504,237.18398 L194.108586,263.573552 L173.822652,272.703175 L177.117344,260.383179 L156.423793,340.608189 C156.423793,340.608189 89.2700026,336.445336 75.4495234,328.994744 C79.1294534,308.319902 82.9352514,260.986527 82.9352514,260.986527 C82.9352514,260.986527 88.3972412,249.547768 87.70052,250.450325 C87.0037987,251.352883 77.4423987,267.900312 76.9448089,266.902879 C76.2304604,265.470947 53.980359,257.633051 52.3705071,253.719491 C52.106402,253.07745 65.2752909,218.83371 81.965388,211.531129 Z" id="path-15"></path>
        <mask id="mask-16" maskContentUnits="userSpaceOnUse" maskUnits="objectBoundingBox" x="0" y="0" width="141.741982" height="131.229208" fill="white">
            <use xlink:href="#path-15"></use>
        </mask>
        <path d="M80,47.9266752 L80,190 L59,190 L59,48.4181479 C56.0681682,47.2306149 54,44.3540332 54,40.990899 L54,8.009101 C54,3.58579666 57.5889027,5.68434189e-14 62.0000405,5.68434189e-14 L75.9999595,5.68434189e-14 C80.4182599,5.68434189e-14 84,3.58323463 84,8.009101 L84,40.990899 C84,43.9540722 82.3894207,46.5414 80.0000022,47.9266675 Z" id="path-17"></path>
        <mask id="mask-18" maskContentUnits="userSpaceOnUse" maskUnits="objectBoundingBox" x="0" y="0" width="30" height="190" fill="white">
            <use xlink:href="#path-17"></use>
        </mask>
        <path d="M7,34 L10,34 L10,39 L7,39 L7,39.4991375 C7,41.4326105 5.42906336,43 3.5,43 C1.56700338,43 0,41.4318963 0,39.4991375 L0,33.5008625 C0,31.5673895 1.57093664,30 3.5,30 C5.43299662,30 7,31.5681037 7,33.5008625 L7,34 Z" id="path-19"></path>
        <mask id="mask-20" maskContentUnits="userSpaceOnUse" maskUnits="objectBoundingBox" x="0" y="0" width="10" height="13" fill="white">
            <use xlink:href="#path-19"></use>
        </mask>
        <path d="M7,19 L10,19 L10,24 L7,24 L7,24.4991375 C7,26.4326105 5.42906336,28 3.5,28 C1.56700338,28 0,26.4318963 0,24.4991375 L0,18.5008625 C0,16.5673895 1.57093664,15 3.5,15 C5.43299662,15 7,16.5681037 7,18.5008625 L7,19 Z" id="path-21"></path>
        <mask id="mask-22" maskContentUnits="userSpaceOnUse" maskUnits="objectBoundingBox" x="0" y="0" width="10" height="13" fill="white">
            <use xlink:href="#path-21"></use>
        </mask>
        <path d="M7,4 L10,4 L10,9 L7,9 L7,9.49913752 C7,11.4326105 5.42906336,13 3.5,13 C1.56700338,13 0,11.4318963 0,9.49913752 L0,3.50086248 C0,1.56738952 1.57093664,0 3.5,0 C5.43299662,0 7,1.56810375 7,3.50086248 L7,4 Z" id="path-23"></path>
        <mask id="mask-24" maskContentUnits="userSpaceOnUse" maskUnits="objectBoundingBox" x="0" y="0" width="10" height="13" fill="white">
            <use xlink:href="#path-23"></use>
        </mask>
        <path d="M45,34 L48,34 L48,39 L45,39 L45,39.4991375 C45,41.4326105 43.4290634,43 41.5,43 C39.5670034,43 38,41.4318963 38,39.4991375 L38,33.5008625 C38,31.5673895 39.5709366,30 41.5,30 C43.4329966,30 45,31.5681037 45,33.5008625 L45,34 Z" id="path-25"></path>
        <mask id="mask-26" maskContentUnits="userSpaceOnUse" maskUnits="objectBoundingBox" x="0" y="0" width="10" height="13" fill="white">
            <use xlink:href="#path-25"></use>
        </mask>
        <path d="M68.3694912,305.912065 L98.2110689,301.718105 C98.5565329,297.503319 102.396005,298.059983 105.848329,294.407052 C116.635709,282.992844 110.692928,278.921307 118.097826,275.838867 C121.316281,274.499118 130.396619,272.038161 132.527551,275.195778 C134.701638,278.417341 136.932438,279.089458 137.874197,279.706804 C140.154583,281.20165 132.446077,282.568687 132.446077,282.568687 C132.446077,282.568687 146.233399,277.884449 149.557726,280.60175 C155.045783,285.087681 150.929892,283.739158 151.754135,290.453068 C152.108542,293.339907 154.554894,294.62531 153.818702,297.578015 C153.456622,299.03024 150.336039,302.618531 151.610497,305.276289 C153.914021,310.080065 148.502244,315.073184 146.134492,315.878814 C134.650346,319.78631 134.140573,320.521069 114.668388,321.499449 C95.1962033,322.477828 74.6727253,325.922111 56.8017772,324.36606" id="path-27"></path>
        <mask id="mask-28" maskContentUnits="userSpaceOnUse" maskUnits="objectBoundingBox" x="0" y="0" width="97.1542742" height="51.1082846" fill="white">
            <use xlink:href="#path-27"></use>
        </mask>
        <path d="M240.987598,219.028181 L242.710254,219.948347 C242.710254,219.948347 248.324328,210.666208 253.294971,207.647077 C255.695666,206.188913 261.289654,208.836665 260.194385,210.609723 C252.548633,222.986921 255.031511,223.84047 252.0479,225.652692" id="path-29"></path>
        <mask id="mask-30" maskContentUnits="userSpaceOnUse" maskUnits="objectBoundingBox" x="0" y="0" width="19.3472719" height="18.4277032" fill="white">
            <use xlink:href="#path-29"></use>
        </mask>
        <rect id="path-31" x="0" y="0" width="298" height="298"></rect>
        <mask id="mask-32" maskContentUnits="userSpaceOnUse" maskUnits="objectBoundingBox" x="0" y="0" width="298" height="298" fill="white">
            <use xlink:href="#path-31"></use>
        </mask>
    </defs>
    <g id="thumbnails" stroke="none" stroke-width="1" fill="none" fill-rule="evenodd">
        <g id="thumbnail-11">
            <use id="Rectangle-19" stroke="#979797" mask="url(#mask-2)" stroke-width="2" fill="#494949" xlink:href="#path-1"></use>
            <g id="silueta" transform="translate(-28.000000, -28.000000)">
                <use id="brazo-dcho" stroke="#000000" mask="url(#mask-4)" stroke-width="2" fill="#FFD788" transform="translate(229.789493, 269.949876) rotate(-55.000000) translate(-229.789493, -269.949876) " xlink:href="#path-3"></use>
                <use id="torso" stroke="#000000" mask="url(#mask-6)" stroke-width="2" fill="#D8D8D8" transform="translate(157.328945, 299.466561) rotate(-10.000000) translate(-157.328945, -299.466561) " xlink:href="#path-5"></use>
                <use id="brazo-izq" stroke="#000000" mask="url(#mask-8)" stroke-width="2" fill="#FFD788" xlink:href="#path-7"></use>
                <g id="cabeza" transform="translate(147.738052, 143.560442) rotate(8.000000) translate(-147.738052, -143.560442) translate(17.238052, 17.060442)">
                    <use stroke="#000000" mask="url(#mask-10)" stroke-width="2" fill="#FFD788" xlink:href="#path-9"></use>
                    <g id="cara" transform="translate(0.000000, 0.000000)">
                        <g id="barba" transform="translate(152.862727, 184.807913) rotate(-11.000000) translate(-152.862727, -184.807913) translate(69.362727, 131.807913)" stroke="#261408">
                            <path d="M3.36328125,0.1953125 L0.155273438,14.7421875 L7.04882813,7.43261719 L0.73046875,22.0048828 L8.48242188,13.0927734 L1.98730469,29.8798828 L10.1855469,19.7607422 L3.57714844,35.21875 L10.90625,25.9726562 L5.45507813,39.8730469 L13.9980469,30.7363281 L8.66894531,44.6337891 L19.4335938,31.921875 C19.4335938,31.921875 10.7452576,46.7394181 10.7333984,48.8046875 C10.7215392,50.8699569 23.1621094,34.5927734 23.1621094,34.5927734 L15.0664063,50.7636719 L25.2080078,39.7246094 L17.2753906,54.1210937 L28.5771484,42.0566406 L20.8193359,58.2939453 L34.0693359,43.8691406 C34.0693359,43.8691406 22.8470112,60.4253178 22.8505859,62.796875 C22.8541607,65.1684322 37.1162109,46.9443359 37.1162109,46.9443359 L26.3486328,66.5605469 L39.296875,50.8554687 L31.147237,69.5335936 L42.4091797,55.7119141 L34.1711466,73.3543156 L50.2158203,56.9052734 L38.911383,77.1916437 L54.6669922,59.8193359 L43.664151,81.2936623 L55.0859375,69.703125 L50.0087891,85.4335937 L59.1259766,71.9951172 L55.2272606,89.6270461 L63.4160156,73.3164062 L61.479785,92.7280591 L68.8164063,77.1621094 L67.5998075,96.3981125 L74.7832031,79.3066406 L74.3344724,99.3865091 L81.1425781,83.4160156 L81.9715373,101.315213 L87.8515625,86.8535156 L89.0185984,102.783696 L94.6633508,87.2159877 L96.743222,104.4598 L102.795623,87.3272974 L104.831865,105.254333 L109.125,88.1113281 L112.76242,104.661738 L116.410443,85.8444504 L119.900702,103.661886 L125.096167,82.9337089 L126.68586,99.9210469 L132.494141,83.6777344 L133.033203,96.0019531 L138.933594,78.9375 L139.447266,93.046875 L144.107422,67.7197266 L145.894531,84.9316406 L149,63.8007812 L150.789063,80.2392578 L155.056641,57.984375 L154.376953,74.2832031 L160.697266,48.3027344 L159.322266,65.4316406 L166.140625,45.375 L165.277344,53.6464844" id="Path-2"></path>
                            <polyline id="Path-3" points="111.34375 47.9414062 102.501953 61.2832031 105.746094 46.9882812 95.8398437 60.5078125 98.0664062 46.3964844 89.1806641 59.2207031 92.2910156 42.8007812 83.0292969 56.0615234 84.9121094 40.4785156 77.5957031 52.8769531 76.5205078 38.4951172 70.2265625 48.7597656 70.9003906 38.7998047 66.2871094 47.1933594 64.6669922 38.7685547 62.5058594 50.3935547 61.1210937 39.5166016 58.4257812 49.9609375 56.1660156 42.5888672 54.9443359 54.3105469 52.4023437 42.5068359 49.8369141 53.1728516"></polyline>
                            <polyline id="Path-4" points="125.729492 49.8457031 126.814453 60.7197266 130.822266 48.8496094 133.512695 59.6601562 136.955078 49.1865234 139.363281 60.2382812 141.688477 49.9716797 143.828125 59.5966797 147.72168 51.2402344 148.292969 59.2578125 151.605469 53.3662109 151.935547 59.7724609"></polyline>
                        </g>
                        <path d="M46.6685037,133.351095 C46.6685037,133.351095 48.208878,139.517201 51.9341287,144.17922 C56.4817051,149.87035 60.4865828,156.541567 63.0513162,154.440939 C65.6160496,152.34031 58.7952146,140.114396 61.0005349,136.753439 C62.2913083,134.786271 67.2869257,147.173293 70.0435037,143.784689 C72.8000817,140.396084 72.5053569,134.224018 69.6724099,126.093282 C67.8120397,120.753903 71.1980227,111.730045 71.4380349,110.446798 C72.3415961,105.615826 69.7603005,130.178243 75.4810037,112.702657 C81.2017068,95.2270715 83.4253985,111.415319 85.5132302,106.853048 C87.9878625,101.445551 95.4924541,78.8587111 95.5278787,87.5864465 C95.5825662,101.060079 101.824265,67.4985559 101.824265,67.4985559 C101.824265,67.4985559 106.333811,72.803431 118.094285,81.944845 C125.856272,87.9782356 139.051841,89.5332647 139.914597,87.6342981 C140.917076,85.427796 119.089402,79.8779504 118.721238,70.0717981 C118.676981,68.8929968 122.93609,72.2840194 133.514207,77.1362512 C144.80347,82.3146892 158.889057,94.3743504 160.534715,89.313009 C160.896531,88.2002161 143.106802,75.478235 146.98491,70.1831262 C147.202884,69.8855074 153.805571,76.8014043 161.519363,82.5386032 C168.182161,87.4941153 175.122964,89.630162 180.596238,89.3589075 C183.591355,89.21047 161.120652,79.3764856 162.563035,68.319845 C163.005024,64.9317611 173.040311,71.6091284 174.784715,75.1928918 C177.350144,80.4633997 187.738622,86.1358218 191.285691,84.64797 C194.296257,83.3851593 180.441941,79.538595 178.51616,67.1059778 C177.622461,61.3363617 187.547475,70.4172777 192.586472,74.3276575 C195.926316,76.9194543 204.823295,84.6079741 208.117722,83.226095 C209.786796,82.5259862 191.758219,67.5678053 193.427293,66.8676965 C195.002084,66.2071354 205.515588,73.5780624 207.090379,72.9175012 C209.552087,71.8849141 205.33854,65.2788993 208.574754,63.5923059 C211.403695,62.1179677 216.616746,79.8081262 216.101121,73.0288293 C215.585496,66.2495325 226.966296,64.0641276 226.790574,65.3012903 C225.005988,77.8655916 224.325489,70.8828645 226.485886,85.8051965 C226.61439,86.6927966 228.904362,70.3840964 230.265183,73.6186731 C230.697492,74.6462403 231.985038,83.2076513 230.375663,90.5084326 C228.766288,97.8092138 235.230695,76.7183236 235.686749,82.5444954 C236.142804,88.3706673 234.037772,108.787729 234.037772,108.787729 C234.037772,108.787729 255.208117,93.2190155 253.426316,75.8628137 C252.322685,65.1125361 267.697801,73.46047 257.098191,58.3159387 C250.145299,48.3817716 247.014039,46.2434751 244.206476,44.4472085 C242.733939,43.505086 254.433456,39.3494349 252.634324,37.5200403 C248.356305,33.1700612 232.782042,33.8823066 230.856965,32.2076985 C226.144268,28.108163 224.824668,29.5267474 208.990769,24.2300012 C205.939092,23.2091561 215.229866,16.4188949 212.197801,15.851095 C209.299695,15.308381 194.077765,20.9736412 191.203351,20.6344564 C187.181762,20.1599035 186.806248,16.4100496 182.844285,15.851095 C179.917584,15.4381953 188.47136,7.4406111 185.584528,6.7145192 C183.707378,6.24238139 170.377216,13.1648737 168.519098,12.4811208 C158.446311,8.77452296 161.103911,3.92830566 152.524957,3.92740983 C142.399809,3.92635254 144.962039,7.89757621 139.195856,12.4772145 C133.429672,17.0568528 125.603633,2.45945279 117.045465,0.837566076 C107.444453,-0.981953457 106.828448,10.5622791 94.7925354,5.59440201 C83.6136041,0.9802478 81.5031636,14.9967953 69.2915505,21.2221887 C66.2641686,22.7655265 60.1562171,26.9730655 60.2134255,29.1704309 C60.2286662,29.7558209 58.7798318,13.0249231 57.5879373,15.851095 C56.3960427,18.6772668 54.9663552,24.7749231 54.9663552,24.7749231 C54.9663552,24.7749231 51.2915505,11.0669153 49.7476052,19.6328332 C48.2036599,28.1987512 54.5649992,35.0605454 48.7305154,33.5415247 C29.7729635,28.6058842 44.9903338,37.1090245 42.4648062,38.4237753 C39.3879799,40.0255239 36.7501128,41.4325531 36.509324,41.9243372 C34.8655289,45.2816042 48.109489,41.9290298 46.7125774,44.8580801 C46.2321279,45.8654885 40.4800032,47.9704372 35.6978792,51.4776959 C33.3364652,53.2095812 31.2115749,55.2834039 30.0747537,57.7358606 C29.2099254,59.6015488 20.7909772,60.0258915 20.283738,61.3413293 C19.5329674,63.2883245 26.8710032,65.8645616 26.5769174,67.2061062 C25.8571395,70.4895497 25.9212374,73.0320666 23.9106912,80.0835168 C23.2822571,82.2875802 22.9003814,85.0869992 22.6746213,87.9454596 C22.4558952,90.7148575 6.70463648,115.330587 15.384324,109.648947 C24.0640115,103.967306 22.4966287,102.134298 22.4966287,102.134298 C22.4966287,102.134298 20.5460321,112.011597 18.6209525,115.054593 C17.4290881,116.938586 0.0395974197,128.792501 0.735886482,132.693868 C1.43217554,136.595236 10.7926836,129.379816 9.83122659,132.231112 C8.45687078,136.3069 8.00758021,140.100265 8.38920679,144.995626 C8.38920679,144.995626 10.5651288,160.476135 13.8130349,166.415548 C15.0434879,168.665665 15.9938945,159.790619 17.6725465,162.449818 C24.2379751,172.850296 34.1937173,185.44792 47.2446755,192.954611 C53.9474367,196.809925 68.1963433,212.53344 66.8286599,206.478048 C62.9907693,189.485861 93.4662489,215.540599 99.6802452,215.270482 C105.075071,215.035973 85.579209,204.605248 75.016279,190.773724 C69.6958703,183.806968 64.0027538,174.700872 64.0027538,174.700872 C64.0027538,174.700872 59.3391796,182.091008 45.4094921,179.29804 C38.9131443,177.995491 28.5986777,171.25189 23.5859841,161.542989 C16.6671047,148.142069 23.8651293,138.091197 30.1523904,134.073751 C36.4253396,130.06545 46.6685037,133.351095 46.6685037,133.351095 Z" id="pelo" stroke="#000000" fill="#9C551A"></path>
                    </g>
                </g>
            </g>
            <path d="M211.017933,121.85447 C208.936161,126.188222 204.984846,133.170647 195.203733,134.185952 C185.42262,135.201257 176.416479,124.312997 176.044056,121.31604" id="ceja-dcha" stroke="#000000"></path>
            <path d="M153.565168,124.616338 C149.897511,130.9054 143.076122,140.943486 128.022693,140.943486 C112.969265,140.943486 100.440109,122.885566 100.208823,118.24915" id="ceja-izqda" stroke="#000000" transform="translate(126.886995, 129.596318) rotate(-4.000000) translate(-126.886995, -129.596318) "></path>
            <use id="antebrazo-over" stroke="#000000" mask="url(#mask-12)" stroke-width="2" fill="#FFD788" transform="translate(262.343074, 246.565157) rotate(32.000000) translate(-262.343074, -246.565157) " xlink:href="#path-11"></use>
            <g id="cara-variable" transform="translate(90.000000, 85.000000)" stroke="#000000">
                <ellipse id="Oval-9" fill="#C64C4C" transform="translate(41.500000, 106.500000) rotate(20.000000) translate(-41.500000, -106.500000) " cx="41.5" cy="106.5" rx="15.5" ry="4.5"></ellipse>
                <path d="M126.151429,13.137769 C123.313158,9.03577953 118.034326,2.48852028 106.385006,2.48852028 C94.7356867,2.48852028 85.0398133,14.2666507 84.860829,17.2907148" id="ceja-dcha" transform="translate(105.506129, 9.889618) rotate(5.000000) translate(-105.506129, -9.889618) "></path>
                <path d="M61.8515625,24.4570312 C57.5,18.1679688 0.711397228,6.30707067 0.436983165,10.9434863" id="ceja-izqda"></path>
                <use id="nariz" mask="url(#mask-14)" stroke-width="2" fill="#FFD788" transform="translate(94.790519, 55.867806) rotate(-6.000000) translate(-94.790519, -55.867806) " xlink:href="#path-13"></use>
            </g>
            <use id="camiseta" stroke="#000000" mask="url(#mask-16)" stroke-width="2" fill="#E71212" transform="translate(123.237594, 274.993585) rotate(-10.000000) translate(-123.237594, -274.993585) " xlink:href="#path-15"></use>
            <polygon id="Star" stroke="#000000" fill="#F8E81C" points="136.5 286.75 119.74812 295.556984 122.947445 276.903492 109.394889 263.693016 128.12406 260.971508 136.5 244 144.87594 260.971508 163.605111 263.693016 150.052555 276.903492 153.25188 295.556984"></polygon>
            <g id="batin-y-brazo" transform="translate(40.000000, 212.000000)" stroke="#000000">
                <path d="M55.4326172,0.415039063 C55.4326172,0.415039063 67.5429688,8.05078125 74.7617188,10.3925781 C80.1337891,19.7226563 83.296875,30.5078125 83.296875,30.5078125 L64.3476562,209.09375 C64.3476562,209.09375 35.1937676,217.848118 26.484375,199.357422 C26.8007813,165.628906 39.3867188,57.34375 39.3867188,57.34375 C39.3867188,57.34375 34.8789063,74.8457031 25.6416016,85.5839844 C19.5880944,92.6211304 23.3017578,109.787109 23.3017578,109.787109 C23.3017578,109.787109 0.509765625,107.017578 0.509765625,101.432617 C0.509765625,78.3720671 8.6875,30.5078125 27.6748047,10.3925781 C31.1644164,6.69566809 55.4326172,0.415039063 55.4326172,0.415039063 Z" id="chupa-izqda" fill="#5F82A7"></path>
                <g id="pocket-left" transform="translate(53.000000, 42.000000)" fill="#214265">
                    <rect id="Rectangle-5" x="0" y="0" width="23" height="23" rx="8"></rect>
                    <rect id="Rectangle-5" x="0" y="0" width="23" height="9" rx="4.5"></rect>
                </g>
                <path d="M65.0205078,5.71533203 L57.3398437,15.5253906 L70.7202813,45.3515625 L70.7202838,125.226562 C70.7202838,125.226562 89.7226562,50.4179688 84.0791016,29.8183594 C78.4355469,9.21875 74.1616211,10.0463867 74.1616211,10.0463867 L65.0205078,5.71533203 Z" id="solapa-izqda" fill="#214265"></path>
                <path d="M196.269793,24.8207772 L199.261582,36.5475671 L184.426955,214.515741 C184.426955,214.515741 171.20146,212.657019 163.427062,207.250561 C163.675651,179.028077 173.327734,71.4202295 173.327734,71.4202295 C173.327734,71.4202295 143.417582,101.339731 136.590148,100.380198 C119.459045,97.9725783 101.155312,52.6382978 101.155312,52.6382978 L121.773986,36.3236994 C121.773986,36.3236994 137.143141,74.6580048 140.069373,68.1582525 C148.670636,49.0531158 175.813223,17.6960178 177.957388,18.7610618 C183.342586,21.4359827 196.269793,24.8207772 196.269793,24.8207772 Z" id="chupa-dcha" fill="#5F82A7" transform="translate(150.208447, 116.625181) scale(-1, 1) rotate(-8.000000) translate(-150.208447, -116.625181) "></path>
                <path d="M106.563941,15.2330262 L111.261839,28.0324432 L114.019447,119.86921 C114.019447,119.86921 123.054748,35.6086899 122.409729,30.6716782 C121.764709,25.7346665 119.64897,20.1765307 119.64897,20.1765307 L106.563941,15.2330262 Z" id="solapa-dcha" fill="#214265" transform="translate(114.503316, 67.551118) scale(-1, 1) rotate(-9.000000) translate(-114.503316, -67.551118) "></path>
                <g id="manga-dcha" transform="translate(196.606865, 50.643701) rotate(-57.000000) translate(-196.606865, -50.643701) translate(186.106865, 32.643701)" fill="#214265">
                    <polygon id="Rectangle-7" points="3.67046585 0.339634026 20.242532 0.339634026 17.305198 35.0161435 0.733131858 35.0161435"></polygon>
                </g>
            </g>
            <g id="guitarra" transform="translate(206.314548, 289.611803) rotate(51.000000) translate(-206.314548, -289.611803) translate(137.814548, 140.111803)">
                <path d="M111.537847,198.65318 C127.0688,208.904621 137,224.585605 137,242.160156 C137,273.043876 106.331505,298.080078 68.5,298.080078 C30.6684946,298.080078 2.4158453e-13,273.043876 2.4158453e-13,242.160156 C2.4158453e-13,224.214383 10.3551783,208.243018 26.453773,198.010867 C20.7025775,189.76128 19.2995527,174.957093 19.2995527,164.640484 C19.2995527,139.852489 47.3079927,125 72.8396275,125 C84.112393,125 65.3847787,141.866073 75.5325856,150.099211 C85.6803924,158.332349 111.757781,150.796921 111.757781,164.640484 C111.757781,174.834879 106.704077,177.79868 111.537847,198.65318 Z" id="Combined-Shape" stroke="#000000" fill="#9C0505"></path>
                <use id="Combined-Shape" stroke="#000000" mask="url(#mask-18)" stroke-width="2" fill="#D4933E" xlink:href="#path-17"></use>
                <circle id="Oval-2" stroke="#000000" fill="#000000" cx="68.5" cy="188.5" r="22.5"></circle>
                <g id="clavijas" transform="translate(45.000000, 2.000000)" stroke="#000000" stroke-width="2" fill="#D8D8D8">
                    <use id="Combined-Shape-Copy-3" mask="url(#mask-20)" xlink:href="#path-19"></use>
                    <use id="Combined-Shape-Copy-2" mask="url(#mask-22)" xlink:href="#path-21"></use>
                    <use id="Combined-Shape-Copy" mask="url(#mask-24)" xlink:href="#path-23"></use>
                    <use id="Combined-Shape-Copy-3" mask="url(#mask-26)" transform="translate(43.000000, 36.500000) scale(-1, 1) translate(-43.000000, -36.500000) " xlink:href="#path-25"></use>
                </g>
                <g id="strings" transform="translate(62.000000, 6.000000)" stroke="#4D4D4D" stroke-linecap="square">
                    <path d="M14.7368421,0.5 L14.7368421,249.5" id="Line-Copy-5"></path>
                    <path d="M11.3684211,0.5 L11.3684211,249.5" id="Line-Copy-4"></path>
                    <path d="M8,0.5 L8,249.5" id="Line-Copy-3"></path>
                    <path d="M4.63157895,0.5 L4.63157895,249.5" id="Line-Copy-2"></path>
                    <path d="M1.26315789,0.5 L1.26315789,249.5" id="Line-Copy"></path>
                </g>
            </g>
            <path d="M278.906712,243.147394 L272.625362,248.719528 C272.625362,248.719528 269.782828,252.240003 268.197239,251.980402 C265.834636,251.593584 264.250001,251.410574 263.414281,249.072199 C262.758302,247.236746 264.488743,246.030939 266.162327,243.438654 C269.848851,237.223078 275.573216,233.943292 275.039769,233.72381 C274.894491,233.664037 270.629857,236.301203 265.872044,243.107843 C263.145108,245.674354 262.50599,247.71737 259.992161,247.886164 C257.684701,248.0411 255.139628,245.766989 254.680638,243.868585 C254.228007,241.996481 256.478978,238.6513 256.478978,238.6513 L265.850804,224.809015 L256.815892,237.862238 C256.815892,237.862238 254.605655,241.893259 252.48972,241.758722 C250.151554,241.610056 248.913795,239.833672 247.907689,237.295832 C247.118385,235.304863 250.609349,227.519464 254.707982,222.176203" id="fingers-over" stroke="#000000" fill="#FFD688" transform="translate(263.351086, 237.085144) rotate(75.000000) translate(-263.351086, -237.085144) "></path>
            <use id="antebrazo-over" stroke="#000000" mask="url(#mask-28)" stroke-width="2" fill="#FFD788" transform="translate(105.378914, 299.209697) rotate(8.000000) translate(-105.378914, -299.209697) " xlink:href="#path-27"></use>
            <path d="M64.1845703,297.905273 L95.0839844,299.108398 L94,323 C94,323 55.1803595,325.166967 47.3427734,318.570312" id="manga-over" stroke="#000000" fill="#5F82A7"></path>
            <g id="manga-izqda" transform="translate(79.000000, 294.000000)" stroke="#000000" fill="#214265">
                <polygon id="Rectangle-7" points="3.6274807 0.879701864 18.7241211 0.879701864 16.0483006 32.4689309 0.951660156 32.4689309"></polygon>
            </g>
            <path d="M165.808812,318.856188 C165.808812,318.856188 157.418325,318.267749 153.223081,317.973529 C150.705885,317.796994 144.430585,316.787503 144.430585,316.787503 C144.430585,316.787503 140.449492,315.883801 139.354953,314.736826 C137.724037,313.027777 136.578831,311.936627 137.480233,309.744029 C138.187768,308.023001 140.237119,308.02278 143.260825,308.515326 C146.284531,309.007872 148.778089,308.70235 151.528368,308.495431 C158.28576,307.987032 165.51641,308.456406 165.317754,308.1144 C165.262911,308.019982 158.588562,307.627603 151.728303,308.174863 C149.066734,308.387182 146.003268,307.932402 143.552205,307.838787 C141.101142,307.745172 137.663126,308.216976 135.538108,306.817177 C133.58754,305.532293 133.077891,302.351425 133.985335,300.70422 C134.880208,299.079835 139.406506,299.551915 139.406506,299.551915 C139.406506,299.551915 146.979088,299.098555 150.713078,298.44366 C155.125548,297.669767 163.950487,296.121983 163.950487,296.121983 C163.950487,296.121983 155.181239,297.576521 150.796615,298.30379 C147.301264,298.883557 139.870982,299.17958 139.870982,299.17958 C139.870982,299.17958 135.251731,299.233958 133.648807,297.856191 C131.877531,296.333721 131.21774,293.748172 132.978826,291.863556 C137.867767,286.631685 141.514354,290.027158 148.745913,287.607652 C153.042252,286.1702 166.424379,283.817815 168.983951,283.305924" id="fingers-izqda" stroke="#000000" fill="#FFD688" transform="translate(150.463619, 301.081056) scale(-1, 1) rotate(12.000000) translate(-150.463619, -301.081056) "></path>
            <use id="thumb" stroke="#000000" mask="url(#mask-30)" stroke-width="2" fill="#FFD788" transform="translate(250.661234, 216.438841) scale(1, -1) rotate(25.000000) translate(-250.661234, -216.438841) " xlink:href="#path-29"></use>
            <use id="Rectangle-18-Copy-27" stroke="#4B83AA" mask="url(#mask-32)" stroke-width="20" xlink:href="#path-31"></use>
        </g>
    </g>
</svg>