<?xml version="1.0" encoding="UTF-8"?>
<svg width="291px" height="291px" viewBox="0 0 291 291" version="1.1" xmlns="http://www.w3.org/2000/svg" xmlns:xlink="http://www.w3.org/1999/xlink">
    <!-- Generator: Sketch 41.2 (35397) - http://www.bohemiancoding.com/sketch -->
    <title>thumbnail-08</title>
    <desc>Created with Sketch.</desc>
    <defs>
        <rect id="path-1" x="0" y="-17" width="312" height="497"></rect>
        <mask id="mask-2" maskContentUnits="userSpaceOnUse" maskUnits="objectBoundingBox" x="0" y="0" width="312" height="497" fill="white">
            <use xlink:href="#path-1"></use>
        </mask>
        <path d="M60.7726611,171.070221 C60.7726611,166.060043 168.562052,150.845201 183.772661,171.070221 C190.251177,179.684479 199.727786,293.161007 179.864505,345.861787 C176.969484,353.542787 64.4171924,350.83257 60.7726611,346.069432 C48.983296,330.661587 17.1953345,337.336657 46.6125652,277.00347 C47.9205431,229.625798 60.7726611,178.270979 60.7726611,171.070221 Z" id="path-3"></path>
        <mask id="mask-4" maskContentUnits="userSpaceOnUse" maskUnits="objectBoundingBox" x="0" y="0" width="157.332795" height="189.817272" fill="white">
            <use xlink:href="#path-3"></use>
        </mask>
        <path d="M86.4590588,171.019898 C102.870032,171.019898 187,166 187,166 C187,166 200.369844,269.196275 187,342.591665 C163.777871,346.251208 104.233024,354.397377 66.7136582,351.095104 C93.3795698,290.093531 97.5373834,180.294668 86.4590588,171.019898 Z" id="path-5"></path>
        <mask id="mask-6" maskContentUnits="userSpaceOnUse" maskUnits="objectBoundingBox" x="0" y="0" width="126.228495" height="185.866409" fill="white">
            <use xlink:href="#path-5"></use>
        </mask>
        <path d="M0.144941951,3.60838833 L32.065166,0.684014027 L31.5599697,27.0309963 C31.4752688,31.4483153 27.8285677,34.9926528 23.4004845,34.9473488 L14.8059431,34.8594175 C10.3842848,34.8141793 6.05257951,31.2776834 5.12910501,26.9524539 L0.144941951,3.60838833 Z" id="path-7"></path>
        <mask id="mask-8" maskContentUnits="userSpaceOnUse" maskUnits="objectBoundingBox" x="0" y="0" width="31.920224" height="34.2637643" fill="white">
            <use xlink:href="#path-7"></use>
        </mask>
        <path d="M0.365906393,3.73819027 L31.294078,0.522128352 L31.1753129,4.75367775 C31.0784903,8.20342627 28.207453,11.2489175 24.7806381,11.5543715 L8.63793777,12.9932735 C5.20307905,13.2994444 1.84679299,10.8151649 1.13900778,7.43274654 L0.365906393,3.73819027 Z" id="path-9"></path>
        <mask id="mask-10" maskContentUnits="userSpaceOnUse" maskUnits="objectBoundingBox" x="0" y="0" width="30.9281716" height="12.4966616" fill="white">
            <use xlink:href="#path-9"></use>
        </mask>
        <path d="M6.11938296,20.6082465 C6.11938296,20.6082465 13.3083478,16.9031684 17.7824689,16.1448676 C27.1765119,36.9685981 28.5607892,56.1287544 17.7824689,75.8431098 C12.2185041,73.9344184 20.4011212,77.1849067 6.11938296,72.2112739 C12.7526837,73.2576606 23.8649884,33.35727 6.11938296,20.6082465 Z" id="path-11"></path>
        <mask id="mask-12" maskContentUnits="userSpaceOnUse" maskUnits="objectBoundingBox" x="0" y="0" width="19.2366069" height="59.6982422" fill="white">
            <use xlink:href="#path-11"></use>
        </mask>
        <path d="M9.35571108,-15.8420757 C9.35571108,-18.7574788 14.8557111,-20.7334288 14.8557111,-15.8420757 C14.8557111,0.066645801 14.8557111,20.3048443 14.8557111,20.3048443 C14.8557111,20.3048443 13.0415594,22.029198 12.0145346,22.029198 C10.9875098,22.029198 9.35571108,20.3048443 9.35571108,20.3048443 L9.35571108,-15.8420757 Z" id="path-13"></path>
        <mask id="mask-14" maskContentUnits="userSpaceOnUse" maskUnits="objectBoundingBox" x="0" y="0" width="5.5" height="40.8442914" fill="white">
            <use xlink:href="#path-13"></use>
        </mask>
        <path d="M5.92505833,9.76139273 C11.6538899,2.98141031 23.1115531,2.98141031 28.8403847,9.76139273 C28.071403,18.3487847 28.1262517,13.8828755 29.1652457,28.526092 C27.4283244,26.9063866 15.4828744,21.013703 6.06204273,31.1163082 C5.72653144,21.9470676 6.07213326,20.4152907 5.92505833,9.76139273 Z" id="path-15"></path>
        <mask id="mask-16" maskContentUnits="userSpaceOnUse" maskUnits="objectBoundingBox" x="0" y="0" width="23.2555248" height="26.4399022" fill="white">
            <use xlink:href="#path-15"></use>
        </mask>
        <path d="M18.7106346,6.91923036 C18.1505812,5.55453974 16.7128401,5.47093756 19.7000624,4.80861348 C28.2691507,3.25128612 30.0323721,10.1483308 29.2012203,14.3040897 C28.3700685,18.4598486 26.7077649,18.4598486 25.8766132,14.3040897 C25.0454614,10.1483308 26.7396907,7.45417346 18.7106346,6.91923036 Z" id="path-17"></path>
        <mask id="mask-18" maskContentUnits="userSpaceOnUse" maskUnits="objectBoundingBox" x="0" y="0" width="11.5163495" height="12.8371057" fill="white">
            <use xlink:href="#path-17"></use>
        </mask>
        <path d="M194.703859,236.228225 C184.490982,250.293059 176.860879,293.794451 174.714343,307.123793 C174.128784,308.562681 173.884689,310.263626 174.113155,312.274069 C175.505233,324.524015 228.714603,320.635339 241.930818,319.478339 C242.396078,319.545295 242.875914,319.596975 243.370395,319.632624 C262.816672,321.0346 263.514414,320.897933 275.389162,318.419129 C277.837446,317.90806 283.817394,313.611689 282.116472,308.562991 C281.175413,305.769726 284.710039,302.588484 285.246401,301.191211 C286.33695,298.350235 284.065484,296.776277 284.065536,293.867765 C284.065657,287.103449 287.986525,288.943521 283.086072,283.822202 C280.11768,280.720022 265.862261,283.689092 265.862261,283.689092 C265.862261,283.689092 273.67991,283.271676 271.598698,281.510063 C270.739194,280.782547 268.606932,279.843574 266.84166,276.381069 C265.111428,272.987293 255.798859,274.323292 252.441119,275.260823 C244.715761,277.417857 250.11805,282.183289 238.020036,292.197766 C234.413032,295.183567 232.06958,298.954088 231.060563,302.737783 L196.762956,299.554337 C196.93418,299.371077 197.105226,299.184897 197.27605,298.995748 C206.056022,289.273906 218.541565,258.994823 223.396752,246.710438 C223.725412,246.079135 224.03322,245.42728 224.31814,244.756051 C228.742289,234.333409 225.97266,223.186181 218.132,219.858018 C210.291341,216.529856 200.34875,222.281067 195.924601,232.703708 C195.428077,233.873446 195.022163,235.052311 194.703859,236.228225 Z" id="path-19"></path>
        <mask id="mask-20" maskContentUnits="userSpaceOnUse" maskUnits="objectBoundingBox" x="0" y="0" width="111.522261" height="102.071947" fill="white">
            <use xlink:href="#path-19"></use>
        </mask>
        <path d="M113.827774,237.580126 C113.827774,237.580126 118.736746,235.879378 136.677538,236.294032 C163.311944,215.120106 211.901934,258.308244 211.901934,258.308244 L183.730225,368.481661 C183.730225,368.481661 116.576434,364.318808 102.755955,356.868216 C110.606358,312.762532 113.827774,237.580126 113.827774,237.580126 Z" id="path-21"></path>
        <mask id="mask-22" maskContentUnits="userSpaceOnUse" maskUnits="objectBoundingBox" x="0" y="0" width="109.145979" height="138.030201" fill="white">
            <use xlink:href="#path-21"></use>
        </mask>
        <path d="M89.642653,262.433648 C79.4297756,276.498482 71.799673,319.999874 69.6531372,333.329216 C69.0675782,334.768104 68.8234832,336.46905 69.051949,338.479492 C70.4440272,350.729438 123.653397,346.840763 136.869612,345.683763 C137.334872,345.750718 137.814708,345.802398 138.309189,345.838048 C157.755466,347.240023 158.453208,347.103357 170.327956,344.624553 C172.77624,344.113484 178.756188,339.817112 177.055266,334.768414 C176.114207,331.975149 179.648833,328.793908 180.185195,327.396635 C181.275744,324.555658 179.004278,322.981701 179.00433,320.073189 C179.004451,313.308872 182.925319,315.148945 178.024866,310.027626 C175.056474,306.925446 160.801055,309.894516 160.801055,309.894516 C160.801055,309.894516 168.618704,309.477099 166.537492,307.715486 C165.677988,306.987971 163.545726,306.048997 161.780454,302.586493 C160.050222,299.192717 150.737653,300.528716 147.379913,301.466247 C139.654555,303.623281 145.056844,308.388713 132.95883,318.40319 C129.351826,321.38899 127.008374,325.159512 125.999357,328.943206 L91.7017504,325.759761 C91.8729736,325.576501 92.0440204,325.39032 92.2148438,325.201172 C100.994816,315.47933 113.480359,285.200246 118.335546,272.915861 C118.664206,272.284559 118.972014,271.632704 119.256934,270.961474 C123.681083,260.538833 120.911454,249.391604 113.070794,246.063442 C105.230135,242.735279 95.2875438,248.486491 90.8633951,258.909132 C90.3668708,260.07887 89.960957,261.257734 89.642653,262.433648 Z" id="path-23"></path>
        <mask id="mask-24" maskContentUnits="userSpaceOnUse" maskUnits="objectBoundingBox" x="0" y="0" width="111.522261" height="102.071947" fill="white">
            <use xlink:href="#path-23"></use>
        </mask>
        <path d="M63.8592374,175.207666 C63.2400019,175.980864 62.5432375,176.696902 61.7684209,177.34705 C53.259432,184.48694 38.5592917,180.976614 28.9347386,169.506518 C19.3101856,158.036422 18.4058421,142.950049 26.9148311,135.810159 C31.5674471,131.906151 38.071078,131.186317 44.5838666,133.210831 C37.1227341,106.38825 39.9824984,83.2595052 47.6528683,67.5980532 C60.8049234,26.9598476 113.732284,4.64196713 169.159645,17.4383817 C226.923902,30.7743112 239.7863,64.544052 235.101393,101.1747 C233.463211,113.983426 231.444394,124.94926 229.034443,134.30327 C231.620179,137.474601 233.368805,140.35683 234.114898,142.853793 C242.649666,171.417251 224.320771,215.532224 201.032146,230.084572 C177.743521,244.63692 109.613461,240.286572 68.5247941,182.123742 C66.8892279,179.808526 65.3349026,177.502578 63.8592374,175.207666 Z" id="path-25"></path>
        <mask id="mask-26" maskContentUnits="userSpaceOnUse" maskUnits="objectBoundingBox" x="0" y="0" width="215.16566" height="223.303482" fill="white">
            <use xlink:href="#path-25"></use>
        </mask>
        <path d="M112.900391,375.539062 L139.25,383.921619 L122,479.023181 L118.986328,489.447266 L78.1914062,514.294922 C78.1914062,514.294922 51.8921278,510.61842 58.3007812,492.128906 C60.6972656,485.214844 93,479.023181 93,479.023181 L112.900391,375.539062 Z M163.984375,370.857165 L192.984375,370.857165 L179.510742,467.888672 C179.510742,467.888672 212.850586,472.298828 216.015625,476.546875 C230.937031,496.574063 194.217773,500.805664 194.217773,500.805664 L149.602539,481.280273 L150,471.023181 L163.984375,370.857165 Z" id="path-27"></path>
        <mask id="mask-28" maskContentUnits="userSpaceOnUse" maskUnits="objectBoundingBox" x="0" y="0" width="162.288017" height="143.437756" fill="white">
            <use xlink:href="#path-27"></use>
        </mask>
        <path d="M113,365.921619 C113.09375,354.681384 195.661133,360.90332 195.661133,360.90332 C195.661133,360.90332 194.672852,361.610352 192.369141,373.492188 C191.443927,378.264157 178.123276,387.923561 163.240747,390.543193 C154.803717,392.028285 145.599832,393.098863 137.302582,393.677091 C123.793371,394.618538 115.514699,384.368103 114.035156,382.363281 C110.043945,376.955078 112.90625,377.161853 113,365.921619 Z" id="path-29"></path>
        <mask id="mask-30" maskContentUnits="userSpaceOnUse" maskUnits="objectBoundingBox" x="0" y="0" width="83.7421331" height="34.5523001" fill="white">
            <use xlink:href="#path-29"></use>
        </mask>
        <path d="M258,209.817227 C258,209.817227 272.838637,202.333009 277.027475,204.876111 C283.942734,209.074461 279.076674,208.204111 281.074699,215.661374 C281.933808,218.867839 284.902897,219.932042 284.539852,223.386183 C284.361296,225.085028 281.404326,229.636261 283.266906,232.437672 C286.633433,237.501093 280.918049,242.817948 278.761947,245.290664 C271.919721,253.137641 278.761947,251.402246 258,265.472656" id="path-31"></path>
        <mask id="mask-32" maskContentUnits="userSpaceOnUse" maskUnits="objectBoundingBox" x="0" y="0" width="26.5704625" height="61.1237083" fill="white">
            <use xlink:href="#path-31"></use>
        </mask>
        <path d="M96.965388,205.531129 C99.9855999,204.405176 105.66087,203.040352 123.601661,203.455006 C134.077619,210.482462 145.01721,221.629081 168.875094,228.673908 C185.376134,233.546384 197.923504,231.18398 197.923504,231.18398 L209.108586,257.573552 L188.822652,266.703175 L192.117344,254.383179 L171.423793,334.608189 C171.423793,334.608189 104.270003,330.445336 90.4495234,322.994744 C94.1294534,302.319902 97.9352514,254.986527 97.9352514,254.986527 C97.9352514,254.986527 103.397241,243.547768 102.70052,244.450325 C102.003799,245.352883 92.4423987,261.900312 91.9448089,260.902879 C91.2304604,259.470947 68.980359,251.633051 67.3705071,247.719491 C67.106402,247.07745 80.2752909,212.83371 96.965388,205.531129 Z" id="path-33"></path>
        <mask id="mask-34" maskContentUnits="userSpaceOnUse" maskUnits="objectBoundingBox" x="0" y="0" width="141.741982" height="131.229208" fill="white">
            <use xlink:href="#path-33"></use>
        </mask>
        <path d="M98,209.136719 L111.898438,205.058594 C111.898438,205.058594 106.542969,311.585938 89.3203125,335.955078 C87.7724609,332.194336 74.8710937,338.466797 74.8710938,332.066406 C87.375,311.287109 98,209.136719 98,209.136719 Z" id="path-35"></path>
        <mask id="mask-36" maskContentUnits="userSpaceOnUse" maskUnits="objectBoundingBox" x="0" y="0" width="37.0273438" height="130.896484" fill="white">
            <use xlink:href="#path-35"></use>
        </mask>
        <path d="M175.796875,217.912109 L189.695312,213.833984 C189.695312,213.833984 198.59375,304.521484 181.820312,312.78125 C180.272461,309.020508 183.87651,299.169922 183.87651,292.769531 C187.795013,282.527344 175.796875,217.912109 175.796875,217.912109 Z" id="path-37"></path>
        <mask id="mask-38" maskContentUnits="userSpaceOnUse" maskUnits="objectBoundingBox" x="0" y="0" width="16.2567136" height="98.9472656" fill="white">
            <use xlink:href="#path-37"></use>
        </mask>
        <path d="M124.896203,18.6316377 C129.280969,34.0310518 123.67137,24.3828104 134.713586,37.2830049 C140.013168,43.4743014 157.674911,60.7651711 153.069055,65.5857393 C144.01925,75.057419 125.15425,73.8028482 119.753625,71.3289034" id="path-39"></path>
        <mask id="mask-40" maskContentUnits="userSpaceOnUse" maskUnits="objectBoundingBox" x="0" y="0" width="34.0737873" height="54.4723366" fill="white">
            <use xlink:href="#path-39"></use>
        </mask>
        <path d="M246,135 C246,135 250.955078,129.518555 272.530273,131.269531 C259.265137,167.515625 264,178.475586 264,178.475586 C264,178.475586 269.818848,181.097265 269.818848,209.961914 C266.823355,223.489106 258.455468,279.848409 257.721525,332.34375 C257.468376,350.450262 269.248243,372.349662 269.818848,389.113281 C271.473303,437.719028 264,467.601562 264,467.601562 L255.624741,467.601562 L255.624741,387.223288 L242.912771,325.259456 C242.912771,325.259456 255.624741,248.905273 249.92699,217.832707 C248.825499,211.825749 252.129503,205.976841 253.387695,205.25 C260.075195,201.386719 257.721525,190.313477 257.721525,190.313477 L246,135 Z" id="path-41"></path>
        <mask id="mask-42" maskContentUnits="userSpaceOnUse" maskUnits="objectBoundingBox" x="0" y="0" width="29.6175023" height="336.677147" fill="white">
            <use xlink:href="#path-41"></use>
        </mask>
        <path d="M239.526027,212.410532 L241.128724,213.131464 C241.128724,213.131464 246.351855,205.85909 250.97636,203.49366 C253.20988,202.351217 258.414323,204.42568 257.395325,205.814836 C250.281994,215.512127 252.591974,216.180866 249.816131,217.600707" id="path-43"></path>
        <mask id="mask-44" maskContentUnits="userSpaceOnUse" maskUnits="objectBoundingBox" x="0" y="0" width="18" height="14.4377441" fill="white">
            <use xlink:href="#path-43"></use>
        </mask>
        <path d="M78.0558453,296.358303 L113.635198,294.665463 C113.980662,290.450678 115.85818,286.017065 119.310504,282.364134 C130.097884,270.949926 124.155103,266.878389 131.560001,263.795949 C134.778457,262.4562 143.858794,259.995243 145.989727,263.15286 C148.163813,266.374423 150.394613,267.04654 151.336373,267.663886 C153.616758,269.158732 145.908252,270.525769 145.908252,270.525769 C145.908252,270.525769 159.695574,265.841531 163.019901,268.558832 C168.507958,273.044763 164.392067,271.69624 165.21631,278.41015 C165.570717,281.296989 168.017069,282.582392 167.280877,285.535097 C166.918797,286.987322 163.798214,290.575613 165.072672,293.233371 C167.376196,298.037146 161.964419,303.030266 159.596667,303.835896 C148.112522,307.743392 147.602749,308.478151 128.130564,309.456531 C117.336943,311.963412 61.4811503,325.000047 58.7102555,312.027845" id="path-45"></path>
        <mask id="mask-46" maskContentUnits="userSpaceOnUse" maskUnits="objectBoundingBox" x="0" y="0" width="108.707971" height="56.0761477" fill="white">
            <use xlink:href="#path-45"></use>
        </mask>
        <path d="M12.1654325,39.7642983 C67.0089431,56.6574628 129.316114,23.5184388 151.531764,13.1449188 C162.444641,54.4499608 142.534741,32.9602379 131.847878,114.409732 C115.235861,125.291501 65.4543981,151.9545 24.9296837,144.077293 C33.7037253,126.872866 21.2773651,101.887469 12.1654325,39.7642983 Z" id="path-47"></path>
        <mask id="mask-48" maskContentUnits="userSpaceOnUse" maskUnits="objectBoundingBox" x="0" y="0" width="142.536826" height="132.36556" fill="white">
            <use xlink:href="#path-47"></use>
        </mask>
        <rect id="path-49" x="0" y="0" width="291" height="291"></rect>
        <mask id="mask-50" maskContentUnits="userSpaceOnUse" maskUnits="objectBoundingBox" x="0" y="0" width="291" height="291" fill="white">
            <use xlink:href="#path-49"></use>
        </mask>
    </defs>
    <g id="thumbnails" stroke="none" stroke-width="1" fill="none" fill-rule="evenodd">
        <g id="thumbnail-08">
            <use id="Rectangle-19" stroke="#979797" mask="url(#mask-2)" stroke-width="2" fill="#494949" xlink:href="#path-1"></use>
            <use id="Rectangle-9" stroke="#000000" mask="url(#mask-4)" stroke-width="2" fill="#D10000" transform="translate(113.136354, 255.769698) rotate(-3.000000) translate(-113.136354, -255.769698) " xlink:href="#path-3"></use>
            <use id="Rectangle-10" stroke="#000000" mask="url(#mask-6)" stroke-width="2" fill="#CF0000" xlink:href="#path-5"></use>
            <g id="pocket-left" transform="translate(59.220022, 312.084916) rotate(22.000000) translate(-59.220022, -312.084916) translate(42.720022, 294.584916)" stroke="#000000" stroke-width="2" fill="#D10000">
                <use id="Rectangle-5" mask="url(#mask-8)" xlink:href="#path-7"></use>
                <use id="Rectangle-5" mask="url(#mask-10)" xlink:href="#path-9"></use>
            </g>
            <g id="pan" transform="translate(65.239258, 242.838867) rotate(8.000000) translate(-65.239258, -242.838867) translate(51.239258, 195.338867)" stroke="#000000">
                <ellipse id="Oval" fill="#BCBCBC" cx="6.85571108" cy="46.6849067" rx="9.5" ry="25.5"></ellipse>
                <use id="Rectangle" mask="url(#mask-12)" stroke-width="2" fill="#53669A" xlink:href="#path-11"></use>
                <use id="Rectangle-11" mask="url(#mask-14)" stroke-width="2" fill="#5A5A5A" xlink:href="#path-13"></use>
            </g>
            <g id="cup" transform="translate(63.313432, 185.623407) rotate(19.000000) translate(-63.313432, -185.623407) translate(44.313432, 166.123407)" stroke="#000000" fill="#D8D8D8">
                <ellipse id="Oval-6" transform="translate(26.150958, 26.596857) rotate(43.000000) translate(-26.150958, -26.596857) " cx="26.1509582" cy="26.596857" rx="4.98691069" ry="11.0820238"></ellipse>
                <use id="Rectangle-12" mask="url(#mask-16)" stroke-width="2" transform="translate(17.537483, 17.896357) rotate(-43.000000) translate(-17.537483, -17.896357) " xlink:href="#path-15"></use>
                <use id="Rectangle-4" mask="url(#mask-18)" stroke-width="2" xlink:href="#path-17"></use>
            </g>
            <g id="queco-base" transform="translate(5.000000, -17.000000)">
                <g id="silueta" transform="translate(-18.000000, -17.000000)">
                    <use id="brazo-dcho" stroke="#000000" mask="url(#mask-20)" stroke-width="2" fill="#FFD788" transform="translate(229.789493, 269.949876) rotate(-55.000000) translate(-229.789493, -269.949876) " xlink:href="#path-19"></use>
                    <use id="torso" stroke="#000000" mask="url(#mask-22)" stroke-width="2" fill="#D8D8D8" transform="translate(157.328945, 299.466561) rotate(-10.000000) translate(-157.328945, -299.466561) " xlink:href="#path-21"></use>
                    <use id="brazo-izq" stroke="#000000" mask="url(#mask-24)" stroke-width="2" fill="#FFD788" xlink:href="#path-23"></use>
                    <g id="cabeza" transform="translate(147.738052, 143.560442) rotate(8.000000) translate(-147.738052, -143.560442) translate(17.238052, 17.060442)">
                        <use stroke="#000000" mask="url(#mask-26)" stroke-width="2" fill="#FFD788" xlink:href="#path-25"></use>
                        <g id="cara" transform="translate(0.000000, 0.000000)">
                            <g id="barba" transform="translate(152.862727, 184.807913) rotate(-11.000000) translate(-152.862727, -184.807913) translate(69.362727, 131.807913)" stroke="#261408">
                                <path d="M3.36328125,0.1953125 L0.155273438,14.7421875 L7.04882813,7.43261719 L0.73046875,22.0048828 L8.48242188,13.0927734 L1.98730469,29.8798828 L10.1855469,19.7607422 L3.57714844,35.21875 L10.90625,25.9726562 L5.45507813,39.8730469 L13.9980469,30.7363281 L8.66894531,44.6337891 L19.4335938,31.921875 C19.4335938,31.921875 10.7452576,46.7394181 10.7333984,48.8046875 C10.7215392,50.8699569 23.1621094,34.5927734 23.1621094,34.5927734 L15.0664063,50.7636719 L25.2080078,39.7246094 L17.2753906,54.1210937 L28.5771484,42.0566406 L20.8193359,58.2939453 L34.0693359,43.8691406 C34.0693359,43.8691406 22.8470112,60.4253178 22.8505859,62.796875 C22.8541607,65.1684322 37.1162109,46.9443359 37.1162109,46.9443359 L26.3486328,66.5605469 L39.296875,50.8554687 L31.147237,69.5335936 L42.4091797,55.7119141 L34.1711466,73.3543156 L50.2158203,56.9052734 L38.911383,77.1916437 L54.6669922,59.8193359 L43.664151,81.2936623 L55.0859375,69.703125 L50.0087891,85.4335937 L59.1259766,71.9951172 L55.2272606,89.6270461 L63.4160156,73.3164062 L61.479785,92.7280591 L68.8164063,77.1621094 L67.5998075,96.3981125 L74.7832031,79.3066406 L74.3344724,99.3865091 L81.1425781,83.4160156 L81.9715373,101.315213 L87.8515625,86.8535156 L89.0185984,102.783696 L94.6633508,87.2159877 L96.743222,104.4598 L102.795623,87.3272974 L104.831865,105.254333 L109.125,88.1113281 L112.76242,104.661738 L116.410443,85.8444504 L119.900702,103.661886 L125.096167,82.9337089 L126.68586,99.9210469 L132.494141,83.6777344 L133.033203,96.0019531 L138.933594,78.9375 L139.447266,93.046875 L144.107422,67.7197266 L145.894531,84.9316406 L149,63.8007812 L150.789063,80.2392578 L155.056641,57.984375 L154.376953,74.2832031 L160.697266,48.3027344 L159.322266,65.4316406 L166.140625,45.375 L165.277344,53.6464844" id="Path-2"></path>
                                <polyline id="Path-3" points="111.34375 47.9414062 102.501953 61.2832031 105.746094 46.9882812 95.8398437 60.5078125 98.0664062 46.3964844 89.1806641 59.2207031 92.2910156 42.8007812 83.0292969 56.0615234 84.9121094 40.4785156 77.5957031 52.8769531 76.5205078 38.4951172 70.2265625 48.7597656 70.9003906 38.7998047 66.2871094 47.1933594 64.6669922 38.7685547 62.5058594 50.3935547 61.1210937 39.5166016 58.4257812 49.9609375 56.1660156 42.5888672 54.9443359 54.3105469 52.4023437 42.5068359 49.8369141 53.1728516"></polyline>
                                <polyline id="Path-4" points="125.729492 49.8457031 126.814453 60.7197266 130.822266 48.8496094 133.512695 59.6601562 136.955078 49.1865234 139.363281 60.2382812 141.688477 49.9716797 143.828125 59.5966797 147.72168 51.2402344 148.292969 59.2578125 151.605469 53.3662109 151.935547 59.7724609"></polyline>
                            </g>
                            <path d="M46.6685037,133.351095 C46.6685037,133.351095 48.208878,139.517201 51.9341287,144.17922 C56.4817051,149.87035 60.4865828,156.541567 63.0513162,154.440939 C65.6160496,152.34031 58.7952146,140.114396 61.0005349,136.753439 C62.2913083,134.786271 67.2869257,147.173293 70.0435037,143.784689 C72.8000817,140.396084 72.5053569,134.224018 69.6724099,126.093282 C67.8120397,120.753903 71.1980227,111.730045 71.4380349,110.446798 C72.3415961,105.615826 69.7603005,130.178243 75.4810037,112.702657 C81.2017068,95.2270715 83.4253985,111.415319 85.5132302,106.853048 C87.9878625,101.445551 95.4924541,78.8587111 95.5278787,87.5864465 C95.5825662,101.060079 101.824265,67.4985559 101.824265,67.4985559 C101.824265,67.4985559 106.333811,72.803431 118.094285,81.944845 C125.856272,87.9782356 139.051841,89.5332647 139.914597,87.6342981 C140.917076,85.427796 119.089402,79.8779504 118.721238,70.0717981 C118.676981,68.8929968 122.93609,72.2840194 133.514207,77.1362512 C144.80347,82.3146892 158.889057,94.3743504 160.534715,89.313009 C160.896531,88.2002161 143.106802,75.478235 146.98491,70.1831262 C147.202884,69.8855074 153.805571,76.8014043 161.519363,82.5386032 C168.182161,87.4941153 175.122964,89.630162 180.596238,89.3589075 C183.591355,89.21047 161.120652,79.3764856 162.563035,68.319845 C163.005024,64.9317611 173.040311,71.6091284 174.784715,75.1928918 C177.350144,80.4633997 187.738622,86.1358218 191.285691,84.64797 C194.296257,83.3851593 180.441941,79.538595 178.51616,67.1059778 C177.622461,61.3363617 187.547475,70.4172777 192.586472,74.3276575 C195.926316,76.9194543 204.823295,84.6079741 208.117722,83.226095 C209.786796,82.5259862 191.758219,67.5678053 193.427293,66.8676965 C195.002084,66.2071354 205.515588,73.5780624 207.090379,72.9175012 C209.552087,71.8849141 205.33854,65.2788993 208.574754,63.5923059 C211.403695,62.1179677 216.616746,79.8081262 216.101121,73.0288293 C215.585496,66.2495325 226.966296,64.0641276 226.790574,65.3012903 C225.005988,77.8655916 224.325489,70.8828645 226.485886,85.8051965 C226.61439,86.6927966 228.904362,70.3840964 230.265183,73.6186731 C230.697492,74.6462403 231.985038,83.2076513 230.375663,90.5084326 C228.766288,97.8092138 235.230695,76.7183236 235.686749,82.5444954 C236.142804,88.3706673 234.037772,108.787729 234.037772,108.787729 C234.037772,108.787729 255.208117,93.2190155 253.426316,75.8628137 C252.322685,65.1125361 267.697801,73.46047 257.098191,58.3159387 C250.145299,48.3817716 247.014039,46.2434751 244.206476,44.4472085 C242.733939,43.505086 254.433456,39.3494349 252.634324,37.5200403 C248.356305,33.1700612 232.782042,33.8823066 230.856965,32.2076985 C226.144268,28.108163 224.824668,29.5267474 208.990769,24.2300012 C205.939092,23.2091561 215.229866,16.4188949 212.197801,15.851095 C209.299695,15.308381 194.077765,20.9736412 191.203351,20.6344564 C187.181762,20.1599035 186.806248,16.4100496 182.844285,15.851095 C179.917584,15.4381953 188.47136,7.4406111 185.584528,6.7145192 C183.707378,6.24238139 170.377216,13.1648737 168.519098,12.4811208 C158.446311,8.77452296 161.103911,3.92830566 152.524957,3.92740983 C142.399809,3.92635254 144.962039,7.89757621 139.195856,12.4772145 C133.429672,17.0568528 125.603633,2.45945279 117.045465,0.837566076 C107.444453,-0.981953457 106.828448,10.5622791 94.7925354,5.59440201 C83.6136041,0.9802478 81.5031636,14.9967953 69.2915505,21.2221887 C66.2641686,22.7655265 60.1562171,26.9730655 60.2134255,29.1704309 C60.2286662,29.7558209 58.7798318,13.0249231 57.5879373,15.851095 C56.3960427,18.6772668 54.9663552,24.7749231 54.9663552,24.7749231 C54.9663552,24.7749231 51.2915505,11.0669153 49.7476052,19.6328332 C48.2036599,28.1987512 54.5649992,35.0605454 48.7305154,33.5415247 C29.7729635,28.6058842 44.9903338,37.1090245 42.4648062,38.4237753 C39.3879799,40.0255239 36.7501128,41.4325531 36.509324,41.9243372 C34.8655289,45.2816042 48.109489,41.9290298 46.7125774,44.8580801 C46.2321279,45.8654885 40.4800032,47.9704372 35.6978792,51.4776959 C33.3364652,53.2095812 31.2115749,55.2834039 30.0747537,57.7358606 C29.2099254,59.6015488 20.7909772,60.0258915 20.283738,61.3413293 C19.5329674,63.2883245 26.8710032,65.8645616 26.5769174,67.2061062 C25.8571395,70.4895497 25.9212374,73.0320666 23.9106912,80.0835168 C23.2822571,82.2875802 22.9003814,85.0869992 22.6746213,87.9454596 C22.4558952,90.7148575 6.70463648,115.330587 15.384324,109.648947 C24.0640115,103.967306 22.4966287,102.134298 22.4966287,102.134298 C22.4966287,102.134298 20.5460321,112.011597 18.6209525,115.054593 C17.4290881,116.938586 0.0395974197,128.792501 0.735886482,132.693868 C1.43217554,136.595236 10.7926836,129.379816 9.83122659,132.231112 C8.45687078,136.3069 8.00758021,140.100265 8.38920679,144.995626 C8.38920679,144.995626 10.5651288,160.476135 13.8130349,166.415548 C15.0434879,168.665665 15.9938945,159.790619 17.6725465,162.449818 C24.2379751,172.850296 34.1937173,185.44792 47.2446755,192.954611 C53.9474367,196.809925 68.1963433,212.53344 66.8286599,206.478048 C62.9907693,189.485861 93.4662489,215.540599 99.6802452,215.270482 C105.075071,215.035973 85.579209,204.605248 75.016279,190.773724 C69.6958703,183.806968 64.0027538,174.700872 64.0027538,174.700872 C64.0027538,174.700872 59.3391796,182.091008 45.4094921,179.29804 C38.9131443,177.995491 28.5986777,171.25189 23.5859841,161.542989 C16.6671047,148.142069 23.8651293,138.091197 30.1523904,134.073751 C36.4253396,130.06545 46.6685037,133.351095 46.6685037,133.351095 Z" id="pelo" stroke="#000000" fill="#9C551A"></path>
                        </g>
                    </g>
                    <use id="piernas" stroke="#000000" mask="url(#mask-28)" stroke-width="2" fill="#FFD788" xlink:href="#path-27"></use>
                    <g id="pelillos" transform="translate(104.000000, 385.000000)" stroke="#261408">
                        <path d="M18,59 L18.4140625,65" id="Path-5"></path>
                        <path d="M7.59179688,61 C5.39453125,63.1803385 3.19726563,65.3606771 1,67.5410156" id="Path-6"></path>
                        <path d="M8.02929688,52.3515625 C2.83329883,53.2095344 6.00699042,54.0070016 0.525390625,56.1445312" id="Path-7"></path>
                        <polyline id="Path-8" points="14.0449219 50.6035156 14.0449219 52.2324219 14.0449219 52.7011719 14.0449219 53.2714844 14.0449219 53.8417969 14.0449219 54.0996094 14.0449219 54.3847656 14.0449219 54.5136719 14.0449219 54.6425781 14.0449219 54.7714844 14.0449219 54.9003906 14.0449219 55.0292969 14.0449219 55.1582031 14.0449219 55.4160156 14.0449219 55.6738281 14.0449219 55.8027344 14.0449219 55.9316406 14.0449219 56.1894531 14.0449219 56.3183594 14.0449219 56.4472656"></polyline>
                        <path d="M17.6582031,43.6816406 L19.3144531,48.7871094" id="Path-9"></path>
                        <path d="M15.1367188,35.7675781 L10.7285156,39.1738281" id="Path-10"></path>
                        <path d="M4.94921875,39.8476562 L2.13671875,44.9433594" id="Path-11"></path>
                        <path d="M10.0195312,30.0585938 L3.96875,31.4648438" id="Path-12"></path>
                        <path d="M13.4453125,25.875 C14.2122396,26.4746094 14.9791667,27.0742188 15.7460938,27.6738281" id="Path-13"></path>
                        <path d="M21.78125,29.8867188 L22.2226562,37.5664062" id="Path-14"></path>
                        <path d="M25.1972656,19.671875 L25.6113281,23.09375" id="Path-15"></path>
                        <path d="M16.0214844,18 C10.347209,18.404568 13.1061969,17.7413261 8,20.3984375" id="Path-16"></path>
                        <path d="M19,12.612114 L14.5957031,10" id="Path-17"></path>
                        <polyline id="Path-18" points="81.9023438 0.96875 81.9023438 2.62695312 81.9023438 3.30859375 81.9023438 4.69921875 81.9023438 6.30273438 81.9023438 6.58789062 81.9023438 7.34179688 81.9023438 7.47070312 81.9023438 7.59960938 81.9023438 7.72851562 81.9023438 7.85742188"></polyline>
                        <path d="M73.4785156,7.4375 L70.6933594,13.6855469" id="Path-19"></path>
                        <path d="M77.6503906,12.9433594 L78.8730469,19.7949219" id="Path-20"></path>
                        <path d="M71.6855469,21.6289062 L73.7226562,25.8710938" id="Path-21"></path>
                        <path d="M76.6640625,24.4804688 L76.8066406,30.6289062" id="Path-22"></path>
                        <path d="M67.1347656,11.2929688 L63.2890625,13.4980469" id="Path-23"></path>
                        <path d="M63.546875,21.5800781 C62.391276,23.8216146 61.2356771,26.063151 60.0800781,28.3046875" id="Path-24"></path>
                        <path d="M67.2910156,29.3496094 C65.9140625,30.8541667 64.5371094,32.358724 63.1601562,33.8632812" id="Path-25"></path>
                        <path d="M61,38 L65.9785156,46.6210938" id="Path-26"></path>
                        <path d="M73.875,36.0175781 L76.3515625,43.9902344" id="Path-27"></path>
                        <path d="M72.8027344,49.8828125 L74.9746094,55.7890625" id="Path-28"></path>
                        <path d="M67.5234375,50.1308594 C68.1302083,52.1803385 68.7369792,54.2298177 69.34375,56.2792969" id="Path-29"></path>
                        <path d="M63.7851562,58.9628906 L59.2246094,61.5605469" id="Path-30"></path>
                        <path d="M56.375,54.9472656 L52.296875,58.9511719" id="Path-31"></path>
                        <polyline id="Path-32" transform="translate(57.334961, 46.123047) rotate(-36.000000) translate(-57.334961, -46.123047) " points="60.375 45.6230469 58.1191406 45.6230469 57.9882812 45.6230469 57.3046875 45.6230469 56.8339844 45.6230469 55.8632812 45.6230469 55.1054688 45.6230469 54.9746094 45.6230469 54.7128906 45.6230469 54.5820312 45.6230469 54.2949219 45.6230469"></polyline>
                    </g>
                    <use id="calzones" stroke="#000000" mask="url(#mask-30)" stroke-width="2" fill="#4B476D" xlink:href="#path-29"></use>
                    <path d="M117,460 C123.386151,460.783069 123.148345,465.198558 117.513184,467.148926" id="tobillo-izqdo" stroke="#000000"></path>
                    <path d="M155,453 C161.386151,453.783069 161.148345,458.198558 155.513184,460.148926" id="tobillo-dcho" stroke="#000000" transform="translate(157.382588, 456.574463) scale(-1, 1) translate(-157.382588, -456.574463) "></path>
                </g>
            </g>
            <use id="antebrazo-over" stroke="#000000" mask="url(#mask-32)" stroke-width="2" fill="#FFD788" xlink:href="#path-31"></use>
            <use id="camiseta" stroke="#000000" mask="url(#mask-34)" stroke-width="2" fill="#052900" transform="translate(138.237594, 268.993585) rotate(-10.000000) translate(-138.237594, -268.993585) " xlink:href="#path-33"></use>
            <use id="Rectangle-2" stroke="#000000" mask="url(#mask-36)" stroke-width="2" fill="#D10000" xlink:href="#path-35"></use>
            <use id="Rectangle-2" stroke="#000000" mask="url(#mask-38)" stroke-width="2" fill="#D10000" xlink:href="#path-37"></use>
            <g id="cara-variable" transform="translate(63.000000, 89.000000)">
                <path d="M121.183594,99.6054688 C116.173828,99.6054688 112.626953,103.271484 102.291016,97.2441406" id="boca" stroke="#000000"></path>
                <circle id="ojo-dcho" stroke="#000000" fill="#FFFFFF" cx="146.5" cy="24.8559903" r="23.5"></circle>
                <circle id="pupila-dcha" stroke="#6E934F" fill="#000000" cx="142" cy="35" r="4"></circle>
                <path d="M167.151429,-5.86223101 C164.313158,-9.96422047 159.034326,-16.5114797 147.385006,-16.5114797 C135.735687,-16.5114797 126.039813,-4.73334928 125.860829,-1.70928517" id="ceja-dcha" stroke="#000000" transform="translate(146.506129, -9.110382) rotate(5.000000) translate(-146.506129, 9.110382) "></path>
                <ellipse id="ojo-izqdo" stroke="#000000" fill="#FFFFFF" cx="84.2761534" cy="30.0883207" rx="29.8391703" ry="29.8391703"></ellipse>
                <circle id="pupila-izqda" stroke="#6E934F" fill="#000000" cx="90.4369832" cy="39.2491504" r="4"></circle>
                <path d="M105.742647,-1.42370115 C101.391085,-7.71276365 93.2977168,-17.7508496 75.4372862,-17.7508496 C57.5768557,-17.7508496 42.7113972,0.307070667 42.4369832,4.94348635" id="ceja-izqda" stroke="#000000"></path>
                <path d="M1.97265625,40.5703125 C1.04723115,42.4609282 -0.23828125,53.9257812 1.97265625,61.2558594 C3.34008649,65.789398 -2.59570312,62.9082031 1.97265625,74.7617187 C6.54101562,86.6152344 9.59552317,80.540988 11.4944168,83.7023027 C13.1675954,86.4878428 8.69140625,86.3244347 14.34375,95.3886719 C19.9960938,104.452909 21.3177068,97.6955386 23.8838307,101.194533 C25.4905473,103.385344 21.1893417,107.227554 24.8305107,112.397957 C28.4716797,117.568359 32.1716514,113.094037 33.8828125,115.789062 C35.2430581,117.931407 36.3457659,122.146486 39.828347,124.438716 C42.1159159,125.944391 46.2795424,125.509167 49.2326146,127.017753 C52.0767682,128.470698 53.6898656,131.868236 56.9707031,133.279297 C61.1492847,135.07647 65.0688051,131.630738 69.6289063,133.279297 C72.7199157,134.396752 78.8748406,142.819955 82,143.834289 C86.6776859,145.352527 90.3464954,142.625809 94.7817277,143.834289 C100.461841,145.381966 103.662294,146.636914 108.229492,147.5 C112.523096,148.311383 114.531845,142.920422 118.834961,141.595703 C120.651393,141.036512 126.409912,142.539209 131.811523,140.05957 C133.529528,139.270911 134.600494,133.664055 136.804688,131.90918 C137.881021,131.052253 142.564671,132.098132 145.188477,130.742188 C147.812282,129.386243 147.52424,122.887221 148.551758,121.18457 C150.572987,117.835287 155.066595,118.568097 156.675781,115.789062 C157.888919,113.693996 157.319079,109.532403 158.276367,107.642578 C158.625381,106.953574 162.638227,106.715487 164.251953,103.280273 C165.014725,101.656524 164.426802,93.845692 165.339844,89.4472656 C165.847866,86.9999548 168.736721,86.7839153 169.699219,85.0869141 C170.661717,83.3899128 169.335153,80.8832159 169.699219,79.2558594 C173.089799,64.1001051 171.696978,65.406136 172.59375,61.2558594 C173.460312,57.2453928 167.15625,66.625 164.251953,72.234375 C161.711441,77.1411339 147.688555,72.3185142 139.019531,72.234375 C128.77254,72.1349205 132.281032,75.9394031 122.335937,74.7617187 C111.136501,73.4354969 111.436367,72.4751458 100.535156,70.1914062 C92.0164452,68.4067864 92.1293912,66.4963322 83.4960938,66.625 C70.6372037,66.8166447 63.0761719,62.171875 56.9707031,66.625 C51.3116084,70.7525547 50.4745226,78.932763 45.0214844,79.2558594 C38.6405382,79.6339349 42.2018568,77.0677211 33.8828125,72.234375 C28.2643568,68.9700648 26.727372,69.6115892 22.59375,65.7382812 C16.9578407,60.4572923 19.0447791,59.6633699 14.34375,53.9257812 C8.73423225,47.0793856 8.15429687,27.9414062 1.97265625,40.5703125 Z M117.667302,110.183594 C134.946209,110.183594 130.194336,102.073944 130.194336,96.5029297 C130.194336,90.9319151 134.946209,93.5 117.667302,93.5 C100.388394,93.5 90.9960937,87.8339844 90.9960937,96.5029297 C90.9960938,100.835938 90.8485938,99.5277284 97.6893481,103.154297 C103.107318,106.026588 110.030569,110.183594 117.667302,110.183594 Z" id="barba" stroke="#000000" fill="#9C551A"></path>
                <use id="nariz" stroke="#000000" mask="url(#mask-40)" stroke-width="2" fill="#FFD788" transform="translate(136.790519, 45.867806) rotate(-6.000000) translate(-136.790519, -45.867806) " xlink:href="#path-39"></use>
            </g>
            <use id="cachaba" stroke="#000000" mask="url(#mask-42)" stroke-width="2" fill="#E2D18B" xlink:href="#path-41"></use>
            <use id="thumb" stroke="#000000" mask="url(#mask-44)" stroke-width="2" fill="#FFD788" transform="translate(248.526027, 210.381835) rotate(20.000000) translate(-248.526027, -210.381835) " xlink:href="#path-43"></use>
            <use id="antebrazo-over" stroke="#000000" mask="url(#mask-46)" stroke-width="2" fill="#FFD788" transform="translate(113.064241, 289.650710) rotate(8.000000) translate(-113.064241, -289.650710) " xlink:href="#path-45"></use>
            <g id="map" transform="translate(124.000000, 172.000000)">
                <use id="Rectangle-7" stroke="#000000" mask="url(#mask-48)" stroke-width="2" fill="#FFF7BE" transform="translate(83.433846, 79.327699) rotate(-11.000000) translate(-83.433846, -79.327699) " xlink:href="#path-47"></use>
                <g id="folded-h" transform="translate(54.000000, 73.000000)" stroke="#BAAE58" stroke-linecap="square">
                    <path d="M0.792723045,33.4574233 L6.22117419,32.1657816" id="Line"></path>
                    <path d="M10.0384615,31.3088235 L15.1153846,28.9264706" id="Line" transform="translate(12.576923, 30.117647) rotate(8.000000) translate(-12.576923, -30.117647) "></path>
                    <path d="M20.4230769,26.6029412 L25.5,24.2205882" id="Line"></path>
                    <path d="M30.5769231,21.8382353 L36.0372596,19.6156365" id="Line"></path>
                    <path d="M40.0523588,18.1379107 L44.9615385,15.4852941" id="Line"></path>
                    <path d="M50.0384615,12.3088235 L55.1153846,9.92647059" id="Line"></path>
                    <path d="M59.3461538,7.54411765 L64.4230769,5.16176471" id="Line"></path>
                    <path d="M69.5,2.77941176 L74.5769231,0.397058824" id="Line"></path>
                </g>
                <g id="folded" transform="translate(72.797256, 93.698275) rotate(-83.000000) translate(-72.797256, -93.698275) translate(29.797256, 72.698275)" stroke="#BAAE58" stroke-linecap="square">
                    <path d="M13.30248,36.9787356 L19.2396782,35.0791995" id="Line"></path>
                    <path d="M24.4669497,33.2932839 C27.6440126,32.733082 30.953125,30.7011719 30.953125,30.7011719" id="Line"></path>
                    <path d="M35.6982422,28.840332 L41.5,25.5" id="Line"></path>
                    <path d="M47.5302078,21.8122101 C50.0080957,21.3752916 53.5,18.5 53.5,18.5" id="Line"></path>
                    <path d="M58.5,15.5 L64.5,12.5" id="Line"></path>
                    <path d="M70.5,9.5 L76.5,6.5" id="Line"></path>
                    <path d="M81.6231003,3.47699086 L85.3762152,1.04096895" id="Line"></path>
                </g>
                <g id="folded" transform="translate(111.942743, 72.970209) rotate(-73.000000) translate(-111.942743, -72.970209) translate(70.442743, 52.970209)" stroke="#BAAE58" stroke-linecap="square">
                    <path d="M12.7413585,35.0883673 L18.4281156,33.2859362" id="Line"></path>
                    <path d="M1.03896644,39.1787624 L6.56675918,37.5458233" id="Line"></path>
                    <path d="M23.4348917,31.5913174 C26.4779406,31.0597533 29.647469,29.1317152 29.647469,29.1317152" id="Line"></path>
                    <path d="M34.192429,27.3660023 L39.7494587,24.1964294" id="Line"></path>
                    <path d="M45.525302,20.6971608 C47.8986683,20.2825778 51.2432781,17.5542723 51.2432781,17.5542723" id="Line"></path>
                    <path d="M56.0323695,14.7076336 L61.7792792,11.8609948" id="Line"></path>
                    <path d="M67.5261889,9.01435605 L73.2730986,6.1677173" id="Line"></path>
                    <path d="M78.1800977,3.29924564 L81.7748998,0.987754181" id="Line"></path>
                </g>
            </g>
            <path d="M273.090541,244.532091 L262.796772,244.787376 C262.796772,244.787376 257.35104,245.748799 256.066065,244.402264 C254.15139,242.395862 252.806932,241.114866 253.865167,238.540783 C254.695804,236.520318 257.272067,236.728815 260.887893,235.722784 C269.251119,233.078763 277.214523,234.368949 276.886383,233.804023 C276.797019,233.650173 270.711582,232.853052 260.875962,235.236369 C256.290855,235.472078 254.079881,236.748042 251.585137,235.104696 C249.295194,233.596259 248.696873,229.861958 249.762201,227.928161 C250.812771,226.021154 255.564557,224.787821 255.564557,224.787821 L275.281229,219.725075 L256.503108,224.359016 C256.503108,224.359016 251.248934,226.202092 249.367121,224.584611 C247.287665,222.79725 247.525169,220.413403 248.580571,217.549332 C249.408548,215.302432 262.345833,207.612471 270.408568,206" id="fingers-dcha" stroke="#000000" fill="#FFD688"></path>
            <path d="M184.808812,306.856188 C184.808812,306.856188 176.418325,306.267749 172.223081,305.973529 C169.705885,305.796994 163.430585,304.787503 163.430585,304.787503 C163.430585,304.787503 159.449492,303.883801 158.354953,302.736826 C156.724037,301.027777 155.578831,299.936627 156.480233,297.744029 C157.187768,296.023001 159.237119,296.02278 162.260825,296.515326 C165.284531,297.007872 167.778089,296.70235 170.528368,296.495431 C177.28576,295.987032 184.51641,296.456406 184.317754,296.1144 C184.262911,296.019982 177.588562,295.627603 170.728303,296.174863 C168.066734,296.387182 165.003268,295.932402 162.552205,295.838787 C160.101142,295.745172 156.663126,296.216976 154.538108,294.817177 C152.58754,293.532293 152.077891,290.351425 152.985335,288.70422 C153.880208,287.079835 158.406506,287.551915 158.406506,287.551915 C158.406506,287.551915 165.979088,287.098555 169.713078,286.44366 C174.125548,285.669767 182.950487,284.121983 182.950487,284.121983 C182.950487,284.121983 174.181239,285.576521 169.796615,286.30379 C166.301264,286.883557 158.870982,287.17958 158.870982,287.17958 C158.870982,287.17958 154.251731,287.233958 152.648807,285.856191 C150.877531,284.333721 150.21774,281.748172 151.978826,279.863556 C156.867767,274.631685 160.514354,278.027158 167.745913,275.607652 C172.042252,274.1702 185.424379,271.817815 187.983951,271.305924" id="fingers-izqda" stroke="#000000" fill="#FFD688" transform="translate(169.463619, 289.081056) scale(-1, 1) rotate(12.000000) translate(-169.463619, -289.081056) "></path>
            <use id="Rectangle-18-Copy-21" stroke="#4B83AA" mask="url(#mask-50)" stroke-width="20" xlink:href="#path-49"></use>
        </g>
    </g>
</svg>