<?xml version="1.0" encoding="UTF-8"?>
<svg width="298px" height="298px" viewBox="0 0 298 298" version="1.1" xmlns="http://www.w3.org/2000/svg" xmlns:xlink="http://www.w3.org/1999/xlink">
    <!-- Generator: Sketch 41.2 (35397) - http://www.bohemiancoding.com/sketch -->
    <title>thumbnail-09</title>
    <desc>Created with Sketch.</desc>
    <defs>
        <rect id="path-1" x="-11" y="-5" width="312" height="497"></rect>
        <mask id="mask-2" maskContentUnits="userSpaceOnUse" maskUnits="objectBoundingBox" x="0" y="0" width="312" height="497" fill="white">
            <use xlink:href="#path-1"></use>
        </mask>
        <path d="M194.703859,236.228225 C184.490982,250.293059 176.860879,293.794451 174.714343,307.123793 C174.128784,308.562681 173.884689,310.263626 174.113155,312.274069 C175.505233,324.524015 228.714603,320.635339 241.930818,319.478339 C242.396078,319.545295 242.875914,319.596975 243.370395,319.632624 C262.816672,321.0346 263.514414,320.897933 275.389162,318.419129 C277.837446,317.90806 283.817394,313.611689 282.116472,308.562991 C281.175413,305.769726 284.710039,302.588484 285.246401,301.191211 C286.33695,298.350235 284.065484,296.776277 284.065536,293.867765 C284.065657,287.103449 287.986525,288.943521 283.086072,283.822202 C280.11768,280.720022 265.862261,283.689092 265.862261,283.689092 C265.862261,283.689092 273.67991,283.271676 271.598698,281.510063 C270.739194,280.782547 268.606932,279.843574 266.84166,276.381069 C265.111428,272.987293 255.798859,274.323292 252.441119,275.260823 C244.715761,277.417857 250.11805,282.183289 238.020036,292.197766 C234.413032,295.183567 232.06958,298.954088 231.060563,302.737783 L196.762956,299.554337 C196.93418,299.371077 197.105226,299.184897 197.27605,298.995748 C206.056022,289.273906 218.541565,258.994823 223.396752,246.710438 C223.725412,246.079135 224.03322,245.42728 224.31814,244.756051 C228.742289,234.333409 225.97266,223.186181 218.132,219.858018 C210.291341,216.529856 200.34875,222.281067 195.924601,232.703708 C195.428077,233.873446 195.022163,235.052311 194.703859,236.228225 Z" id="path-3"></path>
        <mask id="mask-4" maskContentUnits="userSpaceOnUse" maskUnits="objectBoundingBox" x="0" y="0" width="111.522261" height="102.071947" fill="white">
            <use xlink:href="#path-3"></use>
        </mask>
        <path d="M113.827774,237.580126 C113.827774,237.580126 118.736746,235.879378 136.677538,236.294032 C163.311944,215.120106 211.901934,258.308244 211.901934,258.308244 L183.730225,368.481661 C183.730225,368.481661 116.576434,364.318808 102.755955,356.868216 C110.606358,312.762532 113.827774,237.580126 113.827774,237.580126 Z" id="path-5"></path>
        <mask id="mask-6" maskContentUnits="userSpaceOnUse" maskUnits="objectBoundingBox" x="0" y="0" width="109.145979" height="138.030201" fill="white">
            <use xlink:href="#path-5"></use>
        </mask>
        <path d="M89.642653,262.433648 C79.4297756,276.498482 71.799673,319.999874 69.6531372,333.329216 C69.0675782,334.768104 68.8234832,336.46905 69.051949,338.479492 C70.4440272,350.729438 123.653397,346.840763 136.869612,345.683763 C137.334872,345.750718 137.814708,345.802398 138.309189,345.838048 C157.755466,347.240023 158.453208,347.103357 170.327956,344.624553 C172.77624,344.113484 178.756188,339.817112 177.055266,334.768414 C176.114207,331.975149 179.648833,328.793908 180.185195,327.396635 C181.275744,324.555658 179.004278,322.981701 179.00433,320.073189 C179.004451,313.308872 182.925319,315.148945 178.024866,310.027626 C175.056474,306.925446 160.801055,309.894516 160.801055,309.894516 C160.801055,309.894516 168.618704,309.477099 166.537492,307.715486 C165.677988,306.987971 163.545726,306.048997 161.780454,302.586493 C160.050222,299.192717 150.737653,300.528716 147.379913,301.466247 C139.654555,303.623281 145.056844,308.388713 132.95883,318.40319 C129.351826,321.38899 127.008374,325.159512 125.999357,328.943206 L91.7017504,325.759761 C91.8729736,325.576501 92.0440204,325.39032 92.2148438,325.201172 C100.994816,315.47933 113.480359,285.200246 118.335546,272.915861 C118.664206,272.284559 118.972014,271.632704 119.256934,270.961474 C123.681083,260.538833 120.911454,249.391604 113.070794,246.063442 C105.230135,242.735279 95.2875438,248.486491 90.8633951,258.909132 C90.3668708,260.07887 89.960957,261.257734 89.642653,262.433648 Z" id="path-7"></path>
        <mask id="mask-8" maskContentUnits="userSpaceOnUse" maskUnits="objectBoundingBox" x="0" y="0" width="111.522261" height="102.071947" fill="white">
            <use xlink:href="#path-7"></use>
        </mask>
        <path d="M63.8592374,175.207666 C63.2400019,175.980864 62.5432375,176.696902 61.7684209,177.34705 C53.259432,184.48694 38.5592917,180.976614 28.9347386,169.506518 C19.3101856,158.036422 18.4058421,142.950049 26.9148311,135.810159 C31.5674471,131.906151 38.071078,131.186317 44.5838666,133.210831 C37.1227341,106.38825 39.9824984,83.2595052 47.6528683,67.5980532 C60.8049234,26.9598476 113.732284,4.64196713 169.159645,17.4383817 C226.923902,30.7743112 239.7863,64.544052 235.101393,101.1747 C233.463211,113.983426 231.444394,124.94926 229.034443,134.30327 C231.620179,137.474601 233.368805,140.35683 234.114898,142.853793 C242.649666,171.417251 224.320771,215.532224 201.032146,230.084572 C177.743521,244.63692 109.613461,240.286572 68.5247941,182.123742 C66.8892279,179.808526 65.3349026,177.502578 63.8592374,175.207666 Z" id="path-9"></path>
        <mask id="mask-10" maskContentUnits="userSpaceOnUse" maskUnits="objectBoundingBox" x="0" y="0" width="215.16566" height="223.303482" fill="white">
            <use xlink:href="#path-9"></use>
        </mask>
        <path d="M112.900391,375.539062 L139.25,383.921619 L122,479.023181 L118.986328,489.447266 L78.1914062,514.294922 C78.1914062,514.294922 51.8921278,510.61842 58.3007812,492.128906 C60.6972656,485.214844 93,479.023181 93,479.023181 L112.900391,375.539062 Z M163.984375,370.857165 L192.984375,370.857165 L179.510742,467.888672 C179.510742,467.888672 212.850586,472.298828 216.015625,476.546875 C230.937031,496.574063 194.217773,500.805664 194.217773,500.805664 L149.602539,481.280273 L150,471.023181 L163.984375,370.857165 Z" id="path-11"></path>
        <mask id="mask-12" maskContentUnits="userSpaceOnUse" maskUnits="objectBoundingBox" x="0" y="0" width="162.288017" height="143.437756" fill="white">
            <use xlink:href="#path-11"></use>
        </mask>
        <path d="M113,365.921619 C113.09375,354.681384 195.661133,360.90332 195.661133,360.90332 C195.661133,360.90332 194.672852,361.610352 192.369141,373.492188 C191.443927,378.264157 178.123276,387.923561 163.240747,390.543193 C154.803717,392.028285 145.599832,393.098863 137.302582,393.677091 C123.793371,394.618538 115.514699,384.368103 114.035156,382.363281 C110.043945,376.955078 112.90625,377.161853 113,365.921619 Z" id="path-13"></path>
        <mask id="mask-14" maskContentUnits="userSpaceOnUse" maskUnits="objectBoundingBox" x="0" y="0" width="83.7421331" height="34.5523001" fill="white">
            <use xlink:href="#path-13"></use>
        </mask>
        <path d="M73.7114247,214.628315 C76.7316366,213.502363 82.4069068,212.137539 100.347698,212.552193 C110.823656,219.579649 121.763247,230.726268 145.621131,237.771095 C162.122171,242.643571 174.669541,240.281166 174.669541,240.281166 L185.854622,266.670739 C185.854622,266.670739 194.423995,284.788201 195.298759,302.947763 C195.370579,304.438721 219.560935,281.376913 220.4049,282.752045 C222.920748,286.851292 231.522718,289.637334 235.384445,292.953511 C229.604533,300.515902 198.388006,335.670794 188.881139,329.49943 C179.546198,319.113718 162.500079,288.683576 162.500079,288.683576 L165.568689,275.800362 L168.86338,263.480365 L148.16983,343.705375 C148.16983,343.705375 81.0160394,339.542522 67.1955601,332.09193 C70.8754901,311.417089 74.6812881,264.083713 74.6812881,264.083713 C74.6812881,264.083713 78.1159926,257.809863 77.4192713,258.71242 C76.72255,259.614978 55.2886993,293.189537 54.7911096,292.192104 C54.076761,290.760171 31.5582287,307.171802 29.9483767,303.258242 C24.0903068,300.013481 32.6549559,280.844809 40.9219847,261.973204 C49.8560908,241.578824 62.0027881,219.326267 73.7114247,214.628315 Z" id="path-15"></path>
        <mask id="mask-16" maskContentUnits="userSpaceOnUse" maskUnits="objectBoundingBox" x="0" y="0" width="207.368353" height="131.229208" fill="white">
            <use xlink:href="#path-15"></use>
        </mask>
        <path d="M40.0259152,17.9748666 C64.5536823,16.9842472 69.0588722,39.0453083 69.0588722,41.3831989 C48.6477394,34.3040973 26.0699986,33.1593265 12.3073032,39.9200687 C12.3073032,39.9200687 15.4981482,18.965486 40.0259152,17.9748666 Z" id="path-17"></path>
        <mask id="mask-18" maskContentUnits="userSpaceOnUse" maskUnits="objectBoundingBox" x="0" y="0" width="56.7515689" height="23.4406979" fill="white">
            <use xlink:href="#path-17"></use>
        </mask>
        <path d="M102.992929,20.2918979 C123.276437,19.4726943 127.002053,37.7163324 127.002053,39.6496769 C110.122842,33.7955357 91.4519296,32.8488548 80.0707167,38.4397252 C80.0707167,38.4397252 82.7094211,21.1111016 102.992929,20.2918979 Z" id="path-19"></path>
        <mask id="mask-20" maskContentUnits="userSpaceOnUse" maskUnits="objectBoundingBox" x="0" y="0" width="46.9313368" height="19.3845441" fill="white">
            <use xlink:href="#path-19"></use>
        </mask>
        <path d="M82.8962031,37.6316377 C87.2809687,53.0310518 81.6713695,43.3828104 92.7135859,56.2830049 C98.0131676,62.4743014 115.674911,79.7651711 111.069055,84.5857393 C102.01925,94.057419 83.1542503,92.8028482 77.7536249,90.3289034" id="path-21"></path>
        <mask id="mask-22" maskContentUnits="userSpaceOnUse" maskUnits="objectBoundingBox" x="0" y="0" width="34.0737873" height="54.4723366" fill="white">
            <use xlink:href="#path-21"></use>
        </mask>
        <path d="M11.4329261,0.657408553 C15.6746236,9.39559368 28.6423168,26.0529728 38.6209966,37.9715286 C23.7067357,37.9715286 19.2452636,38.5855486 7.7353722,38.5855486 C0.858580123,29.8332678 -1.01624986,14.7148534 2.11088224,2.49135574 C18.2036893,1.75084074 9.50349409,1.15900071 11.4329261,0.657408553 Z" id="path-23"></path>
        <mask id="mask-24" maskContentUnits="userSpaceOnUse" maskUnits="objectBoundingBox" x="0" y="0" width="37.9763822" height="37.92814" fill="white">
            <use xlink:href="#path-23"></use>
        </mask>
        <path d="M6.8758864,37.7260628 C17.1158539,37.7260628 27.3279633,37.6047858 37.9212937,37.6047858 C39.7426649,38.5851368 40.9072599,40.0652405 44.2733011,45.0556018 C33.5087451,45.0556018 17.6127442,45.461435 6.8758864,45.461435 C2.68421444,44.4575824 1.71813226,38.9498228 6.8758864,37.7260628 Z" id="path-25"></path>
        <mask id="mask-26" maskContentUnits="userSpaceOnUse" maskUnits="objectBoundingBox" x="0" y="0" width="40.9127588" height="7.8566492" fill="white">
            <use xlink:href="#path-25"></use>
        </mask>
        <path d="M25.0525252,21.1256647 C36.0525252,7.12566467 58.0525252,7.12566467 69.0525252,21.1256647 C80.0525252,35.1256647 80.0525252,63.1256647 69.0525252,77.1256647 C51.6999861,77.1256647 38.4441268,77.1256647 25.0525252,77.1256647 C14.0525252,63.1256647 14.0525252,35.1256647 25.0525252,21.1256647 Z" id="path-27"></path>
        <mask id="mask-28" maskContentUnits="userSpaceOnUse" maskUnits="objectBoundingBox" x="0" y="0" width="60.5" height="66.5" fill="white">
            <use xlink:href="#path-27"></use>
        </mask>
        <path d="M24.0525252,76.1256647 C35.9665877,76.1256647 58.7273299,76.1256647 71.0525252,76.1256647 C73.1716658,77.2662897 76.8689314,81.9205865 71.0525252,85.1256647 C58.5281111,85.1256647 36.5447127,85.1256647 24.0525252,85.1256647 C19.1755721,83.9576959 18.0515486,77.5494928 24.0525252,76.1256647 Z" id="path-29"></path>
        <mask id="mask-30" maskContentUnits="userSpaceOnUse" maskUnits="objectBoundingBox" x="0" y="0" width="54.213113" height="9" fill="white">
            <use xlink:href="#path-29"></use>
        </mask>
        <path d="M14.6235203,15.0389831 C25.8283088,-14.093467 20.7451265,5.80584355 18.1200433,12.6016135 C15.4949601,19.3973836 17.3474259,29.8378399 18.1200433,36.3444218 C18.8926606,42.8510037 26.6078182,76.7544512 14.6235203,38.7817913 C12.1060705,30.805165 12.340558,20.9746851 14.6235203,15.0389831 Z" id="path-31"></path>
        <mask id="mask-32" maskContentUnits="userSpaceOnUse" maskUnits="objectBoundingBox" x="0" y="0" width="8.75233766" height="56.8576736" fill="white">
            <use xlink:href="#path-31"></use>
        </mask>
        <path d="M23.6235203,18.0389831 C34.8283088,-11.093467 29.7451265,8.80584355 27.1200433,15.6016135 C24.4949601,22.3973836 26.3474259,32.8378399 27.1200433,39.3444218 C27.8926606,45.8510037 35.6078182,79.7544512 23.6235203,41.7817913 C21.1060705,33.805165 21.340558,23.9746851 23.6235203,18.0389831 Z" id="path-33"></path>
        <mask id="mask-34" maskContentUnits="userSpaceOnUse" maskUnits="objectBoundingBox" x="0" y="0" width="8.75233766" height="56.8576736" fill="white">
            <use xlink:href="#path-33"></use>
        </mask>
        <path d="M42.6235203,27.0389831 C53.8283088,-2.09346697 48.7451265,17.8058435 46.1200433,24.6016135 C43.4949601,31.3973836 45.3474259,41.8378399 46.1200433,48.3444218 C46.8926606,54.8510037 54.6078182,88.7544512 42.6235203,50.7817913 C40.1060705,42.805165 40.340558,32.9746851 42.6235203,27.0389831 Z" id="path-35"></path>
        <mask id="mask-36" maskContentUnits="userSpaceOnUse" maskUnits="objectBoundingBox" x="0" y="0" width="8.75233766" height="56.8576736" fill="white">
            <use xlink:href="#path-35"></use>
        </mask>
        <path d="M51.6235203,30.0389831 C62.8283088,0.906533029 57.7451265,20.8058435 55.1200433,27.6016135 C52.4949601,34.3973836 54.3474259,44.8378399 55.1200433,51.3444218 C55.8926606,57.8510037 63.6078182,91.7544512 51.6235203,53.7817913 C49.1060705,45.805165 49.340558,35.9746851 51.6235203,30.0389831 Z" id="path-37"></path>
        <mask id="mask-38" maskContentUnits="userSpaceOnUse" maskUnits="objectBoundingBox" x="0" y="0" width="8.75233766" height="56.8576736" fill="white">
            <use xlink:href="#path-37"></use>
        </mask>
        <path d="M33.9264294,19.4981585 C31.9614423,-1.07356126 35.509299,4.02835737 37.5985572,22.8149556 C38.5521901,31.3900178 38.4038629,35.3303716 38.7588836,40.9645092 C39.4753069,52.3340632 37.2702399,80.5448332 35.1193653,43.2306295 C34.4840461,32.2088659 34.9294616,29.9990412 33.9264294,19.4981585 Z" id="path-39"></path>
        <mask id="mask-40" maskContentUnits="userSpaceOnUse" maskUnits="objectBoundingBox" x="0" y="0" width="5.54378842" height="55.6804482" fill="white">
            <use xlink:href="#path-39"></use>
        </mask>
        <path d="M0.854045759,29.2729388 C10.946769,89.6838431 182.627946,98.4833777 177.808331,29.2729388 C179.13385,29.2729388 177.808331,52.7493351 177.808331,58.3035239 C162.367584,112.213763 24.6304799,105.412899 3.2383817,51.2692819 C3.2383817,49.6755319 0.854045759,29.2729388 0.854045759,29.2729388 Z" id="path-41"></path>
        <mask id="mask-42" maskContentUnits="userSpaceOnUse" maskUnits="objectBoundingBox" x="0" y="0" width="177.543405" height="66.1992962" fill="white">
            <use xlink:href="#path-41"></use>
        </mask>
        <path d="M66.1698467,310.484695 L90.7493996,308.621221 C91.0948635,304.406436 92.9723813,299.972823 96.4247057,296.319892 C107.212085,284.905684 101.269305,280.834147 108.674202,277.751706 C111.892658,276.411958 120.972996,273.951001 123.103928,277.108618 C125.278015,280.330181 127.508815,281.002298 128.450574,281.619644 C130.73096,283.11449 123.022453,284.481527 123.022453,284.481527 C123.022453,284.481527 136.809775,279.797289 140.134103,282.51459 C145.62216,287.000521 141.506268,285.651997 142.330511,292.365908 C142.684918,295.252747 145.131271,296.53815 144.395079,299.490855 C144.032998,300.94308 140.912416,304.531371 142.186874,307.189129 C144.490398,311.992904 139.07862,316.986024 136.710869,317.791654 C125.226723,321.69915 124.71695,322.433909 105.244765,323.412289 C94.4511448,325.91917 65.6120472,327.783942 63.678897,328.055629" id="path-43"></path>
        <mask id="mask-44" maskContentUnits="userSpaceOnUse" maskUnits="objectBoundingBox" x="0" y="0" width="80.8535309" height="52.4872345" fill="white">
            <use xlink:href="#path-43"></use>
        </mask>
        <linearGradient x1="50%" y1="0%" x2="50%" y2="79.817044%" id="linearGradient-45">
            <stop stop-color="#BA8F5D" offset="0%"></stop>
            <stop stop-color="#FFFBAD" offset="100%"></stop>
        </linearGradient>
        <rect id="path-46" x="0" y="0" width="298" height="298"></rect>
        <mask id="mask-47" maskContentUnits="userSpaceOnUse" maskUnits="objectBoundingBox" x="0" y="0" width="298" height="298" fill="white">
            <use xlink:href="#path-46"></use>
        </mask>
    </defs>
    <g id="thumbnails" stroke="none" stroke-width="1" fill="none" fill-rule="evenodd">
        <g id="thumbnail-09">
            <use id="Rectangle-19" stroke="#979797" mask="url(#mask-2)" stroke-width="2" fill="#494949" xlink:href="#path-1"></use>
            <g id="queco-base" transform="translate(-19.000000, -5.000000)">
                <g id="silueta" transform="translate(-18.000000, -17.000000)">
                    <use id="brazo-dcho" stroke="#000000" mask="url(#mask-4)" stroke-width="2" fill="#FFD788" transform="translate(229.789493, 269.949876) rotate(-55.000000) translate(-229.789493, -269.949876) " xlink:href="#path-3"></use>
                    <use id="torso" stroke="#000000" mask="url(#mask-6)" stroke-width="2" fill="#D8D8D8" transform="translate(157.328945, 299.466561) rotate(-10.000000) translate(-157.328945, -299.466561) " xlink:href="#path-5"></use>
                    <use id="brazo-izq" stroke="#000000" mask="url(#mask-8)" stroke-width="2" fill="#FFD788" xlink:href="#path-7"></use>
                    <g id="cabeza" transform="translate(147.738052, 143.560442) rotate(8.000000) translate(-147.738052, -143.560442) translate(17.238052, 17.060442)">
                        <use stroke="#000000" mask="url(#mask-10)" stroke-width="2" fill="#FFD788" xlink:href="#path-9"></use>
                        <g id="cara" transform="translate(0.000000, 0.000000)">
                            <g id="barba" transform="translate(152.862727, 184.807913) rotate(-11.000000) translate(-152.862727, -184.807913) translate(69.362727, 131.807913)" stroke="#261408">
                                <path d="M3.36328125,0.1953125 L0.155273438,14.7421875 L7.04882813,7.43261719 L0.73046875,22.0048828 L8.48242188,13.0927734 L1.98730469,29.8798828 L10.1855469,19.7607422 L3.57714844,35.21875 L10.90625,25.9726562 L5.45507813,39.8730469 L13.9980469,30.7363281 L8.66894531,44.6337891 L19.4335938,31.921875 C19.4335938,31.921875 10.7452576,46.7394181 10.7333984,48.8046875 C10.7215392,50.8699569 23.1621094,34.5927734 23.1621094,34.5927734 L15.0664063,50.7636719 L25.2080078,39.7246094 L17.2753906,54.1210937 L28.5771484,42.0566406 L20.8193359,58.2939453 L34.0693359,43.8691406 C34.0693359,43.8691406 22.8470112,60.4253178 22.8505859,62.796875 C22.8541607,65.1684322 37.1162109,46.9443359 37.1162109,46.9443359 L26.3486328,66.5605469 L39.296875,50.8554687 L31.147237,69.5335936 L42.4091797,55.7119141 L34.1711466,73.3543156 L50.2158203,56.9052734 L38.911383,77.1916437 L54.6669922,59.8193359 L43.664151,81.2936623 L55.0859375,69.703125 L50.0087891,85.4335937 L59.1259766,71.9951172 L55.2272606,89.6270461 L63.4160156,73.3164062 L61.479785,92.7280591 L68.8164063,77.1621094 L67.5998075,96.3981125 L74.7832031,79.3066406 L74.3344724,99.3865091 L81.1425781,83.4160156 L81.9715373,101.315213 L87.8515625,86.8535156 L89.0185984,102.783696 L94.6633508,87.2159877 L96.743222,104.4598 L102.795623,87.3272974 L104.831865,105.254333 L109.125,88.1113281 L112.76242,104.661738 L116.410443,85.8444504 L119.900702,103.661886 L125.096167,82.9337089 L126.68586,99.9210469 L132.494141,83.6777344 L133.033203,96.0019531 L138.933594,78.9375 L139.447266,93.046875 L144.107422,67.7197266 L145.894531,84.9316406 L149,63.8007812 L150.789063,80.2392578 L155.056641,57.984375 L154.376953,74.2832031 L160.697266,48.3027344 L159.322266,65.4316406 L166.140625,45.375 L165.277344,53.6464844" id="Path-2"></path>
                                <polyline id="Path-3" points="111.34375 47.9414062 102.501953 61.2832031 105.746094 46.9882812 95.8398437 60.5078125 98.0664062 46.3964844 89.1806641 59.2207031 92.2910156 42.8007812 83.0292969 56.0615234 84.9121094 40.4785156 77.5957031 52.8769531 76.5205078 38.4951172 70.2265625 48.7597656 70.9003906 38.7998047 66.2871094 47.1933594 64.6669922 38.7685547 62.5058594 50.3935547 61.1210937 39.5166016 58.4257812 49.9609375 56.1660156 42.5888672 54.9443359 54.3105469 52.4023437 42.5068359 49.8369141 53.1728516"></polyline>
                                <polyline id="Path-4" points="125.729492 49.8457031 126.814453 60.7197266 130.822266 48.8496094 133.512695 59.6601562 136.955078 49.1865234 139.363281 60.2382812 141.688477 49.9716797 143.828125 59.5966797 147.72168 51.2402344 148.292969 59.2578125 151.605469 53.3662109 151.935547 59.7724609"></polyline>
                            </g>
                            <path d="M46.6685037,133.351095 C46.6685037,133.351095 48.208878,139.517201 51.9341287,144.17922 C56.4817051,149.87035 60.4865828,156.541567 63.0513162,154.440939 C65.6160496,152.34031 58.7952146,140.114396 61.0005349,136.753439 C62.2913083,134.786271 67.2869257,147.173293 70.0435037,143.784689 C72.8000817,140.396084 72.5053569,134.224018 69.6724099,126.093282 C67.8120397,120.753903 71.1980227,111.730045 71.4380349,110.446798 C72.3415961,105.615826 69.7603005,130.178243 75.4810037,112.702657 C81.2017068,95.2270715 83.4253985,111.415319 85.5132302,106.853048 C87.9878625,101.445551 95.4924541,78.8587111 95.5278787,87.5864465 C95.5825662,101.060079 101.824265,67.4985559 101.824265,67.4985559 C101.824265,67.4985559 106.333811,72.803431 118.094285,81.944845 C125.856272,87.9782356 139.051841,89.5332647 139.914597,87.6342981 C140.917076,85.427796 119.089402,79.8779504 118.721238,70.0717981 C118.676981,68.8929968 122.93609,72.2840194 133.514207,77.1362512 C144.80347,82.3146892 158.889057,94.3743504 160.534715,89.313009 C160.896531,88.2002161 143.106802,75.478235 146.98491,70.1831262 C147.202884,69.8855074 153.805571,76.8014043 161.519363,82.5386032 C168.182161,87.4941153 175.122964,89.630162 180.596238,89.3589075 C183.591355,89.21047 161.120652,79.3764856 162.563035,68.319845 C163.005024,64.9317611 173.040311,71.6091284 174.784715,75.1928918 C177.350144,80.4633997 187.738622,86.1358218 191.285691,84.64797 C194.296257,83.3851593 180.441941,79.538595 178.51616,67.1059778 C177.622461,61.3363617 187.547475,70.4172777 192.586472,74.3276575 C195.926316,76.9194543 204.823295,84.6079741 208.117722,83.226095 C209.786796,82.5259862 191.758219,67.5678053 193.427293,66.8676965 C195.002084,66.2071354 205.515588,73.5780624 207.090379,72.9175012 C209.552087,71.8849141 205.33854,65.2788993 208.574754,63.5923059 C211.403695,62.1179677 216.616746,79.8081262 216.101121,73.0288293 C215.585496,66.2495325 226.966296,64.0641276 226.790574,65.3012903 C225.005988,77.8655916 224.325489,70.8828645 226.485886,85.8051965 C226.61439,86.6927966 228.904362,70.3840964 230.265183,73.6186731 C230.697492,74.6462403 231.985038,83.2076513 230.375663,90.5084326 C228.766288,97.8092138 235.230695,76.7183236 235.686749,82.5444954 C236.142804,88.3706673 234.037772,108.787729 234.037772,108.787729 C234.037772,108.787729 255.208117,93.2190155 253.426316,75.8628137 C252.322685,65.1125361 267.697801,73.46047 257.098191,58.3159387 C250.145299,48.3817716 247.014039,46.2434751 244.206476,44.4472085 C242.733939,43.505086 254.433456,39.3494349 252.634324,37.5200403 C248.356305,33.1700612 232.782042,33.8823066 230.856965,32.2076985 C226.144268,28.108163 224.824668,29.5267474 208.990769,24.2300012 C205.939092,23.2091561 215.229866,16.4188949 212.197801,15.851095 C209.299695,15.308381 194.077765,20.9736412 191.203351,20.6344564 C187.181762,20.1599035 186.806248,16.4100496 182.844285,15.851095 C179.917584,15.4381953 188.47136,7.4406111 185.584528,6.7145192 C183.707378,6.24238139 170.377216,13.1648737 168.519098,12.4811208 C158.446311,8.77452296 161.103911,3.92830566 152.524957,3.92740983 C142.399809,3.92635254 144.962039,7.89757621 139.195856,12.4772145 C133.429672,17.0568528 125.603633,2.45945279 117.045465,0.837566076 C107.444453,-0.981953457 106.828448,10.5622791 94.7925354,5.59440201 C83.6136041,0.9802478 81.5031636,14.9967953 69.2915505,21.2221887 C66.2641686,22.7655265 60.1562171,26.9730655 60.2134255,29.1704309 C60.2286662,29.7558209 58.7798318,13.0249231 57.5879373,15.851095 C56.3960427,18.6772668 54.9663552,24.7749231 54.9663552,24.7749231 C54.9663552,24.7749231 51.2915505,11.0669153 49.7476052,19.6328332 C48.2036599,28.1987512 54.5649992,35.0605454 48.7305154,33.5415247 C29.7729635,28.6058842 44.9903338,37.1090245 42.4648062,38.4237753 C39.3879799,40.0255239 36.7501128,41.4325531 36.509324,41.9243372 C34.8655289,45.2816042 48.109489,41.9290298 46.7125774,44.8580801 C46.2321279,45.8654885 40.4800032,47.9704372 35.6978792,51.4776959 C33.3364652,53.2095812 31.2115749,55.2834039 30.0747537,57.7358606 C29.2099254,59.6015488 20.7909772,60.0258915 20.283738,61.3413293 C19.5329674,63.2883245 26.8710032,65.8645616 26.5769174,67.2061062 C25.8571395,70.4895497 25.9212374,73.0320666 23.9106912,80.0835168 C23.2822571,82.2875802 22.9003814,85.0869992 22.6746213,87.9454596 C22.4558952,90.7148575 6.70463648,115.330587 15.384324,109.648947 C24.0640115,103.967306 22.4966287,102.134298 22.4966287,102.134298 C22.4966287,102.134298 20.5460321,112.011597 18.6209525,115.054593 C17.4290881,116.938586 0.0395974197,128.792501 0.735886482,132.693868 C1.43217554,136.595236 10.7926836,129.379816 9.83122659,132.231112 C8.45687078,136.3069 8.00758021,140.100265 8.38920679,144.995626 C8.38920679,144.995626 10.5651288,160.476135 13.8130349,166.415548 C15.0434879,168.665665 15.9938945,159.790619 17.6725465,162.449818 C24.2379751,172.850296 34.1937173,185.44792 47.2446755,192.954611 C53.9474367,196.809925 68.1963433,212.53344 66.8286599,206.478048 C62.9907693,189.485861 93.4662489,215.540599 99.6802452,215.270482 C105.075071,215.035973 85.579209,204.605248 75.016279,190.773724 C69.6958703,183.806968 64.0027538,174.700872 64.0027538,174.700872 C64.0027538,174.700872 59.3391796,182.091008 45.4094921,179.29804 C38.9131443,177.995491 28.5986777,171.25189 23.5859841,161.542989 C16.6671047,148.142069 23.8651293,138.091197 30.1523904,134.073751 C36.4253396,130.06545 46.6685037,133.351095 46.6685037,133.351095 Z" id="pelo" stroke="#000000" fill="#9C551A"></path>
                        </g>
                    </g>
                    <use id="piernas" stroke="#000000" mask="url(#mask-12)" stroke-width="2" fill="#FFD788" xlink:href="#path-11"></use>
                    <g id="pelillos" transform="translate(104.000000, 385.000000)" stroke="#261408">
                        <path d="M18,59 L18.4140625,65" id="Path-5"></path>
                        <path d="M7.59179688,61 C5.39453125,63.1803385 3.19726563,65.3606771 1,67.5410156" id="Path-6"></path>
                        <path d="M8.02929688,52.3515625 C2.83329883,53.2095344 6.00699042,54.0070016 0.525390625,56.1445312" id="Path-7"></path>
                        <polyline id="Path-8" points="14.0449219 50.6035156 14.0449219 52.2324219 14.0449219 52.7011719 14.0449219 53.2714844 14.0449219 53.8417969 14.0449219 54.0996094 14.0449219 54.3847656 14.0449219 54.5136719 14.0449219 54.6425781 14.0449219 54.7714844 14.0449219 54.9003906 14.0449219 55.0292969 14.0449219 55.1582031 14.0449219 55.4160156 14.0449219 55.6738281 14.0449219 55.8027344 14.0449219 55.9316406 14.0449219 56.1894531 14.0449219 56.3183594 14.0449219 56.4472656"></polyline>
                        <path d="M17.6582031,43.6816406 L19.3144531,48.7871094" id="Path-9"></path>
                        <path d="M15.1367188,35.7675781 L10.7285156,39.1738281" id="Path-10"></path>
                        <path d="M4.94921875,39.8476562 L2.13671875,44.9433594" id="Path-11"></path>
                        <path d="M10.0195312,30.0585938 L3.96875,31.4648438" id="Path-12"></path>
                        <path d="M13.4453125,25.875 C14.2122396,26.4746094 14.9791667,27.0742188 15.7460938,27.6738281" id="Path-13"></path>
                        <path d="M21.78125,29.8867188 L22.2226562,37.5664062" id="Path-14"></path>
                        <path d="M25.1972656,19.671875 L25.6113281,23.09375" id="Path-15"></path>
                        <path d="M16.0214844,18 C10.347209,18.404568 13.1061969,17.7413261 8,20.3984375" id="Path-16"></path>
                        <path d="M19,12.612114 L14.5957031,10" id="Path-17"></path>
                        <polyline id="Path-18" points="81.9023438 0.96875 81.9023438 2.62695312 81.9023438 3.30859375 81.9023438 4.69921875 81.9023438 6.30273438 81.9023438 6.58789062 81.9023438 7.34179688 81.9023438 7.47070312 81.9023438 7.59960938 81.9023438 7.72851562 81.9023438 7.85742188"></polyline>
                        <path d="M73.4785156,7.4375 L70.6933594,13.6855469" id="Path-19"></path>
                        <path d="M77.6503906,12.9433594 L78.8730469,19.7949219" id="Path-20"></path>
                        <path d="M71.6855469,21.6289062 L73.7226562,25.8710938" id="Path-21"></path>
                        <path d="M76.6640625,24.4804688 L76.8066406,30.6289062" id="Path-22"></path>
                        <path d="M67.1347656,11.2929688 L63.2890625,13.4980469" id="Path-23"></path>
                        <path d="M63.546875,21.5800781 C62.391276,23.8216146 61.2356771,26.063151 60.0800781,28.3046875" id="Path-24"></path>
                        <path d="M67.2910156,29.3496094 C65.9140625,30.8541667 64.5371094,32.358724 63.1601562,33.8632812" id="Path-25"></path>
                        <path d="M61,38 L65.9785156,46.6210938" id="Path-26"></path>
                        <path d="M73.875,36.0175781 L76.3515625,43.9902344" id="Path-27"></path>
                        <path d="M72.8027344,49.8828125 L74.9746094,55.7890625" id="Path-28"></path>
                        <path d="M67.5234375,50.1308594 C68.1302083,52.1803385 68.7369792,54.2298177 69.34375,56.2792969" id="Path-29"></path>
                        <path d="M63.7851562,58.9628906 L59.2246094,61.5605469" id="Path-30"></path>
                        <path d="M56.375,54.9472656 L52.296875,58.9511719" id="Path-31"></path>
                        <polyline id="Path-32" transform="translate(57.334961, 46.123047) rotate(-36.000000) translate(-57.334961, -46.123047) " points="60.375 45.6230469 58.1191406 45.6230469 57.9882812 45.6230469 57.3046875 45.6230469 56.8339844 45.6230469 55.8632812 45.6230469 55.1054688 45.6230469 54.9746094 45.6230469 54.7128906 45.6230469 54.5820312 45.6230469 54.2949219 45.6230469"></polyline>
                    </g>
                    <use id="calzones" stroke="#000000" mask="url(#mask-14)" stroke-width="2" fill="#4B476D" xlink:href="#path-13"></use>
                    <path d="M117,460 C123.386151,460.783069 123.148345,465.198558 117.513184,467.148926" id="tobillo-izqdo" stroke="#000000"></path>
                    <path d="M155,453 C161.386151,453.783069 161.148345,458.198558 155.513184,460.148926" id="tobillo-dcho" stroke="#000000" transform="translate(157.382588, 456.574463) scale(-1, 1) translate(-157.382588, -456.574463) "></path>
                </g>
            </g>
            <use id="camiseta" stroke="#000000" mask="url(#mask-16)" stroke-width="2" fill="#5E2251" transform="translate(131.700268, 278.090771) rotate(-10.000000) translate(-131.700268, -278.090771) " xlink:href="#path-15"></use>
            <g id="cara-variable" transform="translate(82.000000, 82.000000)">
                <path d="M87.8464381,121.539524 C78.4248938,121.539524 71.7545139,128.433964 52.3163803,117.098726 L87.8464381,121.539524 Z" id="boca" stroke="#000000" fill="#C64C4C" transform="translate(70.081409, 120.357479) rotate(179.000000) translate(-70.081409, -120.357479) "></path>
                <circle id="ojo-dcho" stroke="#000000" fill="#FFFFFF" cx="104.5" cy="43.8559903" r="23.5"></circle>
                <circle id="pupila-dcha" stroke="#6E934F" fill="#000000" cx="111" cy="55" r="4"></circle>
                <path d="M125.151429,13.137769 C122.313158,9.03577953 117.034326,2.48852028 105.385006,2.48852028 C93.7356867,2.48852028 84.0398133,14.2666507 83.860829,17.2907148" id="ceja-dcha" stroke="#000000" transform="translate(104.506129, 9.889618) rotate(5.000000) translate(-104.506129, -9.889618) "></path>
                <ellipse id="ojo-izqdo" stroke="#000000" fill="#FFFFFF" cx="42.2761534" cy="49.0883207" rx="29.8391703" ry="29.8391703"></ellipse>
                <use id="Rectangle-2" stroke="#000000" mask="url(#mask-18)" stroke-width="2" fill="#FFD788" transform="translate(40.683088, 29.662850) rotate(-6.000000) translate(-40.683088, -29.662850) " xlink:href="#path-17"></use>
                <use id="Rectangle-2" stroke="#000000" mask="url(#mask-20)" stroke-width="2" fill="#FFD788" transform="translate(103.536385, 29.957405) rotate(-6.000000) translate(-103.536385, -29.957405) " xlink:href="#path-19"></use>
                <circle id="pupila-izqda" stroke="#6E934F" fill="#000000" cx="59.4369832" cy="59.2491504" r="4"></circle>
                <path d="M63.7426472,17.5762988 C59.3910847,11.2872363 51.2977168,1.24915041 33.4372862,1.24915041 C15.5768557,1.24915041 0.711397228,19.3070707 0.436983165,23.9434863" id="ceja-izqda" stroke="#000000"></path>
                <use id="nariz" stroke="#000000" mask="url(#mask-22)" stroke-width="2" fill="#FFD788" transform="translate(94.790519, 64.867806) rotate(-6.000000) translate(-94.790519, -64.867806) " xlink:href="#path-21"></use>
            </g>
            <g id="hombro-dcho" transform="translate(168.771748, 258.401418) scale(-1, 1) rotate(34.000000) translate(-168.771748, -258.401418) translate(146.271748, 235.401418)" stroke="#000000" stroke-width="2" fill="#8F2277">
                <use id="Rectangle-4" mask="url(#mask-24)" xlink:href="#path-23"></use>
                <use id="Rectangle-5" mask="url(#mask-26)" xlink:href="#path-25"></use>
            </g>
            <g id="hombro-izqdo" transform="translate(64.680172, 246.499519) rotate(22.000000) translate(-64.680172, -246.499519) translate(18.680172, 199.999519)" stroke="#000000" stroke-width="2">
                <use id="Rectangle-4" mask="url(#mask-28)" fill="#8F2277" xlink:href="#path-27"></use>
                <use id="Rectangle-5" mask="url(#mask-30)" fill="#8F2277" xlink:href="#path-29"></use>
                <g id="líneas-hombro" transform="translate(45.712183, 46.521727) rotate(-23.000000) translate(-45.712183, -46.521727) translate(11.712183, 10.521727)" fill="#FFFFFF">
                    <use id="Rectangle-6" mask="url(#mask-32)" transform="translate(17.198462, 28.066757) rotate(27.000000) translate(-17.198462, -28.066757) " xlink:href="#path-31"></use>
                    <use id="Rectangle-6" mask="url(#mask-34)" transform="translate(26.198462, 31.066757) rotate(25.000000) translate(-26.198462, -31.066757) " xlink:href="#path-33"></use>
                    <use id="Rectangle-6" mask="url(#mask-36)" transform="translate(45.198462, 40.066757) scale(-1, -1) rotate(25.000000) translate(-45.198462, -40.066757) " xlink:href="#path-35"></use>
                    <use id="Rectangle-6" mask="url(#mask-38)" transform="translate(54.198462, 43.066757) scale(-1, -1) rotate(19.000000) translate(-54.198462, -43.066757) " xlink:href="#path-37"></use>
                    <use id="Rectangle-6" mask="url(#mask-40)" transform="translate(36.124828, 34.070381) scale(-1, -1) rotate(25.000000) translate(-36.124828, -34.070381) " xlink:href="#path-39"></use>
                </g>
            </g>
            <g id="cuello" transform="translate(37.000000, 192.000000)">
                <use id="Rectangle" stroke="#000000" mask="url(#mask-42)" stroke-width="2" fill="#FDFFEE" xlink:href="#path-41"></use>
                <path d="M105.957612,79.7074468 C190.532115,79.7074468 188.071864,26.8444149 160.384799,13.0671543 C154.014916,19.6595745 140.099464,43.5738032 110.752254,43.5738032 C69.3265402,43.5738032 42.0749888,20.2280585 21.3831083,0.572473404 C-29.5429911,29.6090426 21.3831083,79.7074468 105.957612,79.7074468 Z" id="Oval-7" stroke="#000000" fill="#FDFFEF"></path>
                <path d="M5.18720424,43.084109 C5.18720424,43.084109 5.66126336,54.6382979 6.94837119,54.6382979 C8.23547903,54.6382979 8.26272364,48.186202 9.47441406,49.599734 C10.6861045,51.0132661 9.70134824,59.5580052 10.5140745,60.2104388 C11.3268007,60.8628725 12.1853392,51.4743816 13.4683028,53.2448486 C14.7512664,55.0153157 14.0317277,64.0708333 14.7948925,64.8849734 C15.5580572,65.6991136 16.4702687,56.2203033 17.7471708,57.3081782 C19.0240728,58.3960531 17.7767451,68.4406328 18.7169193,69.0476726 C19.6570934,69.6547125 20.7427252,59.1884585 22.2421484,60.2104388 C23.7415717,61.2324191 21.9495904,72.3974867 23.0234005,72.8931743 C24.0972105,73.388862 25.9410334,62.5612651 27.0947266,63.4138963 C28.2484197,64.2665274 26.2681018,74.1339179 27.0947266,74.6708777 C27.9213513,75.2078375 29.6803871,63.9674091 30.8425391,64.8849734 C32.0046911,65.8025377 30.2422251,77.4418395 31.4537594,77.9281915 C32.6652936,78.4145435 33.9480127,67.1834732 35.319031,67.3444149 C36.6900494,67.5053566 35.196592,79.4632304 36.1865681,79.737367 C37.1765441,80.0115037 39.958452,69.0060657 41.1939282,69.9614362 C42.4294043,70.9168067 40.0040965,81.6449648 41.1939282,82.3868019 C42.3837598,83.1286389 44.6484091,71.0023871 46.0095926,71.7017952 C47.3707762,72.4012033 44.0419595,84.3110521 45.3671582,84.1650598 C46.6923568,84.0190676 48.8783462,72.4990231 50.2589576,72.8931743 C51.6395689,73.2873255 49.1536377,84.9479204 50.2589576,85.4856647 C51.3642774,86.023409 54.6280175,74.4658934 56.0303962,74.6708777 C57.4327749,74.8758619 54.6755721,87.0322565 56.0303962,87.5844415 C57.3852203,88.1366264 60.011901,75.0637477 61.5749451,75.9704122 C63.1379892,76.8770768 60.8697293,88.4318864 62.2034989,88.9019282 C63.5372685,89.37197 66.4257539,78.0297972 67.8981362,78.0149601 C69.3705184,78.000123 66.3617907,90.4582585 67.8981362,90.4132681 C69.4344816,90.3682777 71.0515653,78.2105285 72.6417036,78.5953969 C74.2318418,78.9802654 73.0729054,90.597418 73.9603627,90.9524601 C74.8478201,91.3075022 76.1389525,79.4105584 77.7471317,79.3523936 C79.3553109,79.2942288 78.0012296,91.9830546 79.5501172,91.8291223 C81.0990048,91.6751901 82.1538619,79.8132647 83.352632,80.0435505 C84.551402,80.2738364 83.6806865,92.37362 84.8971429,92.6788564 C86.1135992,92.9840928 87.1329588,80.5223657 88.6496137,80.7496676 C90.1662686,80.9769694 88.9251697,93.1858273 90.059375,93.2433511 C91.1935803,93.3008748 92.3798946,81.1077132 93.4930385,80.7496676 C94.6061824,80.3916219 93.5888934,93.8934354 94.9359263,93.8761636 C96.2829593,93.8588917 97.34695,81.279973 98.6537723,81.2942154 C99.9605946,81.3084578 98.913117,93.6541151 100.647045,93.2433511 C102.380973,92.832587 102.774851,81.0069184 104.244026,81.2942154 C105.713201,81.5815125 105.479299,92.9428393 106.555943,93.2433511 C107.632587,93.5438628 108.211349,81.6471795 109.460698,81.2942154 C110.710046,80.9412513 111.138185,93.3797264 112.415896,93.2433511 C113.693606,93.1069757 113.960118,80.417113 115.654277,80.9042553 C117.348436,81.3913976 116.089324,92.6820972 117.692999,92.6788564 C119.296675,92.6756156 119.823463,81.293347 120.856964,80.7496676 C121.890465,80.2059881 122.038099,92.0447155 123.129425,91.8291223 C124.220752,91.6135292 124.61981,79.8602418 126.050661,80.2071144 C127.481512,80.5539869 127.056426,90.9207378 128.313133,90.9524601 C129.569841,90.9841824 129.843815,79.5908269 130.823329,79.1838431 C131.802842,78.7768593 131.098222,89.8611008 132.472486,89.5287566 C133.84675,89.1964125 135.129758,78.4850765 136.015527,77.9281915 C136.901296,77.3713065 135.612336,89.0061007 136.608365,88.9019282 C137.604394,88.7977557 138.894907,77.6129576 139.90618,77.5212766 C140.917454,77.4295956 139.612124,88.0038405 140.817162,87.5844415 C142.022201,87.1650424 143.264602,75.9905001 144.362201,75.9704122 C145.459801,75.9503244 144.118492,86.6725386 145.257201,86.4619348 C146.395911,86.2513311 147.431172,75.1786369 148.451133,74.6708777 C149.471094,74.1631184 148.451027,84.9825982 149.871046,84.1650598 C151.291065,83.3475215 152.373078,74.2088594 153.207818,73.4980053 C154.042559,72.7871513 152.999696,83.1942143 154.267134,82.3868019 C155.534573,81.5793895 156.67548,71.2342819 157.673828,70.7832447 C158.672177,70.3322075 157.833159,79.890201 158.829537,79.737367 C159.825915,79.584533 160.825851,68.9763255 161.705324,68.3976064 C162.584796,67.8188873 162.025161,78.2207114 163.0688,76.9478059 C164.112439,75.6749003 163.881756,66.796527 164.637547,66.183012 C165.393339,65.5694969 165.473154,75.1963644 166.378103,74.6708777 C167.283052,74.1453909 167.570658,63.9383261 168.470765,63.4138963 C169.370871,62.8894665 169.459256,71.3507329 170.449554,69.9614362 C171.439852,68.5721395 170.606199,61.9353539 171.09683,60.9005984 C171.587462,59.8658429 172.368042,65.3836901 173.079615,64.8849734 C173.791188,64.3862567 173.754416,56.6912716 174.106468,56.0764628 C174.458519,55.461654 174.844612,61.6610501 175.66173,60.2104388 C176.478848,58.7598276 175.66173,52.0661569 175.66173,52.0661569" id="Path-14" stroke="#000000"></path>
                <g id="neck-wrenkles" transform="translate(6.137143, 7.148936)" stroke="#484848">
                    <path d="M10.6980469,0.885638298 C14.8640588,2.9893617 19.0300707,5.09308511 23.1960826,7.19680851" id="Path-15"></path>
                    <path d="M4.46501116,7.87699468 C10.5015997,9.22539894 16.5381882,10.5738032 22.5747768,11.9222074" id="Path-16"></path>
                    <path d="M0.557377232,17.0445479 C7.1333631,17.6482713 13.709349,18.2519947 20.2853348,18.8557181" id="Path-17"></path>
                    <path d="M3.82372768,25.0571809 C9.845,24.9680851 15.8662723,24.8789894 21.8875446,24.7898936" id="Path-18"></path>
                    <path d="M5.38198661,33.3869681 C13.6933668,32.3703457 22.004747,31.3537234 30.3161272,30.3371011" id="Path-19"></path>
                    <path d="M159.915324,9.89960106 L151.382857,15.7759309" id="Path-20" transform="translate(155.649090, 12.837766) rotate(32.000000) translate(-155.649090, -12.837766) "></path>
                    <path d="M164.618069,18.7140178 C160.85494,19.3855864 157.091812,20.0571549 153.328683,20.7287234" id="Path-21" transform="translate(158.973376, 19.721371) scale(1, -1) translate(-158.973376, -19.721371) "></path>
                    <path d="M167.385012,25.9888923 L151.384889,25.5321103" id="Path-22" transform="translate(159.384950, 26.032110) rotate(11.000000) translate(-159.384950, -26.032110) "></path>
                    <path d="M167.38298,35.2829122 C160.386797,32.5608378 159.254062,33.3892952 152.257879,30.6672207" id="Path-23"></path>
                    <path d="M13.1033594,41.2579787 C16.6134375,39.1382979 26.3325781,37.8503989 29.8426562,35.7307181" id="Path-24"></path>
                    <path d="M21.1114118,47.4893617 C25.6902958,43.9441489 33.8361942,42.7805851 38.4150781,39.2353723" id="Path-25"></path>
                    <path d="M31.2331027,53.8783245 L44.9387891,42.8626995" id="Path-26"></path>
                    <path d="M42.7782031,60.6732048 L49.6595145,44.1831782" id="Path-27"></path>
                    <path d="M50.2308761,62.5382314 L55.1274051,46.1668883" id="Path-28"></path>
                    <path d="M56.4469308,64.1928191 L60.8709877,50.2659574" id="Path-29"></path>
                    <path d="M65.9433203,66.6023936 C67.5804911,59.4258644 67.2049107,58.8347739 68.8420815,51.6582447" id="Path-30"></path>
                    <path d="M77.2257143,66.893617 L78.76,54.0797872" id="Line" stroke-linecap="square"></path>
                    <path d="M88.4771429,67.9148936 L88.4771363,54.5944149" id="Line" stroke-linecap="square"></path>
                    <path d="M97.3391162,67.552859 L96.5235899,54.4537899" id="Line" stroke-linecap="square"></path>
                    <path d="M106.89606,66.174306 L104.518131,53.3481341" id="Line" stroke-linecap="square"></path>
                    <path d="M116.860904,66.0043841 L113.005435,52.7114154" id="Line" stroke-linecap="square"></path>
                    <path d="M125.118717,64.752431 L120.467349,51.7328998" id="Line" stroke-linecap="square"></path>
                    <path d="M133.533756,62.7641498 L128.139224,50.5102435" id="Line" stroke-linecap="square"></path>
                    <path d="M144.252506,58.5512591 L135.362857,48.3510638" id="Line" stroke-linecap="square"></path>
                    <path d="M152.476138,53.290517 L142.287662,46.3510638" id="Line" stroke-linecap="square"></path>
                    <path d="M159.70856,46.3510638 L146.996646,40.8510638" id="Line" stroke-linecap="square"></path>
                    <path d="M163.532779,40.8510638 L149.780826,35.8657123" id="Line" stroke-linecap="square"></path>
                </g>
            </g>
            <use id="antebrazo-over" stroke="#000000" mask="url(#mask-44)" stroke-width="2" fill="#FFD788" transform="translate(104.105662, 301.812011) rotate(8.000000) translate(-104.105662, -301.812011) " xlink:href="#path-43"></use>
            <g id="quill" transform="translate(82.000000, 208.000000)" stroke="#000000">
                <path d="M46.6630859,79.171875 C36.4155762,78.0030686 40.7324219,79.171875 27.3002593,68.4277344 C24.9797145,47.2494673 5.01029619,39.8186791 1.52636719,27.8251953 C-1.95756181,15.8317115 2.39887361,2.22851687 6.85546875,0.99609375 C11.3120639,-0.236329368 2.91954916,9.00010187 17.2070313,23.5136719 C31.4945133,38.0272419 42.4706718,36.2982922 50.671875,45.5058594 C58.8730782,54.7134266 57.2294922,68.4277344 57.2294922,68.4277344 C57.2294922,68.4277344 56.9105957,80.3406814 46.6630859,79.171875 Z" id="Path-32" fill="url(#linearGradient-45)"></path>
                <path d="M5.515625,13.4101562 C6.46609028,33.970796 21.9154044,28.055751 36.1582031,48.375 C42.8462363,57.9163699 45.8933955,65.6515099 46.4807472,78.2839824" id="Path-31"></path>
            </g>
            <g id="skull" transform="translate(211.000000, 185.000000)">
                <path d="M10.1216187,40.21903 C15.2976917,40.21903 19.493728,34.8802368 19.493728,28.2945017 C19.493728,21.7087666 14.3583554,13.3524444 9.18228234,13.3524444 C4.00620931,13.3524444 3.69821192,22.8132966 3.69821192,29.3990318 C3.69821192,35.9847669 4.94554566,40.21903 10.1216187,40.21903 Z" id="Oval-2" fill="#262525" transform="translate(11.595970, 26.785737) rotate(4.000000) translate(-11.595970, -26.785737) "></path>
                <path d="M49.0363136,65.6591241 C72.7937626,65.6591241 89,63.6290305 89,40.990566 C89,18.3521015 69.7407823,0 45.9833333,0 C30.9403826,0 12.358928,4.20756689 4.67018229,15.3525391 C12.358928,20.0975754 19.8465382,35.6615013 7.01831055,35.6615013 C3.41148765,35.6615013 4.67018229,35.6553175 4.67018229,38.9927126 C4.67018229,41.8235369 0.391324335,37.3875014 0.964746094,40.0567788 C1.40182183,42.0913657 -0.182548506,45.6237995 0.964746094,47.9200969 C2.12805745,50.2484517 7.01831055,56.1487784 7.01831055,56.1487784 C7.01831055,56.1487784 4.67018229,65.6591241 4.67018229,70.2050781 C7.51541092,72.0012985 39.4147438,76.823486 42.6799985,77.9403007 C47.2201186,79.4931576 43.9353436,65.6591241 49.0363136,65.6591241 Z" id="Oval-8" stroke="#000000" fill="#E4E8A9"></path>
                <ellipse id="Oval" fill="#262525" cx="45.9833333" cy="31.3018868" rx="14.8333333" ry="11.9245283"></ellipse>
                <path d="M6.675,61.8584906 C6.675,61.8584906 45.2416667,69.3113208 45.2416667,69.3113208" id="Line" stroke="#272525" stroke-linecap="square"></path>
                <path d="M18.5416667,64.8396226 L17.0583333,73.7830189" id="Line" stroke="#272525" stroke-linecap="square"></path>
                <path d="M31.8916667,66.3301887 L30.4083333,75.2735849" id="Line" stroke="#272525" stroke-linecap="square"></path>
                <path d="M18.6953869,46.9182622 C24.5041577,46.9182622 25.0592519,50.4362357 25.0592519,48.4905376 C25.0592519,46.5448396 24.5041577,43.3952641 18.6953869,43.3952641 C12.8866161,43.3952641 13.644139,45.9592147 13.644139,47.9049128 C13.644139,49.8506109 12.8866161,46.9182622 18.6953869,46.9182622 Z" id="Oval-3" fill="#262525" transform="translate(19.335487, 46.236197) rotate(11.000000) translate(-19.335487, -46.236197) "></path>
            </g>
            <use id="Rectangle-18-Copy-22" stroke="#4B83AA" mask="url(#mask-47)" stroke-width="20" xlink:href="#path-46"></use>
        </g>
    </g>
</svg>