<?xml version="1.0" encoding="UTF-8"?>
<svg width="289px" height="289px" viewBox="0 0 289 289" version="1.1" xmlns="http://www.w3.org/2000/svg" xmlns:xlink="http://www.w3.org/1999/xlink">
    <!-- Generator: Sketch 41.2 (35397) - http://www.bohemiancoding.com/sketch -->
    <title>thumbnail-06</title>
    <desc>Created with Sketch.</desc>
    <defs>
        <rect id="path-1" x="-15" y="-20" width="312" height="497"></rect>
        <mask id="mask-2" maskContentUnits="userSpaceOnUse" maskUnits="objectBoundingBox" x="0" y="0" width="312" height="497" fill="white">
            <use xlink:href="#path-1"></use>
        </mask>
        <path d="M173.703859,221.228225 C163.490982,235.293059 155.860879,278.794451 153.714343,292.123793 C153.128784,293.562681 152.884689,295.263626 153.113155,297.274069 C154.505233,309.524015 207.714603,305.635339 220.930818,304.478339 C221.396078,304.545295 221.875914,304.596975 222.370395,304.632624 C241.816672,306.0346 242.514414,305.897933 254.389162,303.419129 C256.837446,302.90806 262.817394,298.611689 261.116472,293.562991 C260.175413,290.769726 263.710039,287.588484 264.246401,286.191211 C265.33695,283.350235 263.065484,281.776277 263.065536,278.867765 C263.065657,272.103449 266.986525,273.943521 262.086072,268.822202 C259.11768,265.720022 244.862261,268.689092 244.862261,268.689092 C244.862261,268.689092 252.67991,268.271676 250.598698,266.510063 C249.739194,265.782547 247.606932,264.843574 245.84166,261.381069 C244.111428,257.987293 234.798859,259.323292 231.441119,260.260823 C223.715761,262.417857 229.11805,267.183289 217.020036,277.197766 C213.413032,280.183567 211.06958,283.954088 210.060563,287.737783 L175.762956,284.554337 C175.93418,284.371077 176.105226,284.184897 176.27605,283.995748 C185.056022,274.273906 197.541565,243.994823 202.396752,231.710438 C202.725412,231.079135 203.03322,230.42728 203.31814,229.756051 C207.742289,219.333409 204.97266,208.186181 197.132,204.858018 C189.291341,201.529856 179.34875,207.281067 174.924601,217.703708 C174.428077,218.873446 174.022163,220.052311 173.703859,221.228225 Z" id="path-3"></path>
        <mask id="mask-4" maskContentUnits="userSpaceOnUse" maskUnits="objectBoundingBox" x="0" y="0" width="111.522261" height="102.071947" fill="white">
            <use xlink:href="#path-3"></use>
        </mask>
        <path d="M92.8277736,222.580126 C92.8277736,222.580126 97.7367462,220.879378 115.677538,221.294032 C142.311944,200.120106 190.901934,243.308244 190.901934,243.308244 L162.730225,353.481661 C162.730225,353.481661 95.5764344,349.318808 81.7559552,341.868216 C89.6063578,297.762532 92.8277736,222.580126 92.8277736,222.580126 Z" id="path-5"></path>
        <mask id="mask-6" maskContentUnits="userSpaceOnUse" maskUnits="objectBoundingBox" x="0" y="0" width="109.145979" height="138.030201" fill="white">
            <use xlink:href="#path-5"></use>
        </mask>
        <path d="M68.642653,247.433648 C58.4297756,261.498482 50.799673,304.999874 48.6531372,318.329216 C48.0675782,319.768104 47.8234832,321.46905 48.051949,323.479492 C49.4440272,335.729438 102.653397,331.840763 115.869612,330.683763 C116.334872,330.750718 116.814708,330.802398 117.309189,330.838048 C136.755466,332.240023 137.453208,332.103357 149.327956,329.624553 C151.77624,329.113484 157.756188,324.817112 156.055266,319.768414 C155.114207,316.975149 158.648833,313.793908 159.185195,312.396635 C160.275744,309.555658 158.004278,307.981701 158.00433,305.073189 C158.004451,298.308872 161.925319,300.148945 157.024866,295.027626 C154.056474,291.925446 139.801055,294.894516 139.801055,294.894516 C139.801055,294.894516 147.618704,294.477099 145.537492,292.715486 C144.677988,291.987971 142.545726,291.048997 140.780454,287.586493 C139.050222,284.192717 129.737653,285.528716 126.379913,286.466247 C118.654555,288.623281 124.056844,293.388713 111.95883,303.40319 C108.351826,306.38899 106.008374,310.159512 104.999357,313.943206 L70.7017504,310.759761 C70.8729736,310.576501 71.0440204,310.39032 71.2148437,310.201172 C79.9948161,300.47933 92.4803588,270.200246 97.3355459,257.915861 C97.664206,257.284559 97.9720138,256.632704 98.2569339,255.961474 C102.681083,245.538833 99.9114536,234.391604 92.0707943,231.063442 C84.2301351,227.735279 74.2875438,233.486491 69.8633951,243.909132 C69.3668708,245.07887 68.960957,246.257734 68.642653,247.433648 Z" id="path-7"></path>
        <mask id="mask-8" maskContentUnits="userSpaceOnUse" maskUnits="objectBoundingBox" x="0" y="0" width="111.522261" height="102.071947" fill="white">
            <use xlink:href="#path-7"></use>
        </mask>
        <path d="M42.8592374,162.207666 C42.2400019,162.980864 41.5432375,163.696902 40.7684209,164.34705 C32.259432,171.48694 17.5592917,167.976614 7.93473864,156.506518 C-1.68981444,145.036422 -2.59415786,129.950049 5.91483107,122.810159 C10.5674471,118.906151 17.071078,118.186317 23.5838666,120.210831 C16.1227341,93.3882497 18.9824984,70.2595052 26.6528683,54.5980532 C39.8049234,13.9598476 92.732284,-8.35803287 148.159645,4.43838174 C205.923902,17.7743112 218.7863,51.544052 214.101393,88.1747003 C212.463211,100.983426 210.444394,111.94926 208.034443,121.30327 C210.620179,124.474601 212.368805,127.35683 213.114898,129.853793 C221.649666,158.417251 203.320771,202.532224 180.032146,217.084572 C156.743521,231.63692 88.6134612,227.286572 47.5247941,169.123742 C45.8892279,166.808526 44.3349026,164.502578 42.8592374,162.207666 Z" id="path-9"></path>
        <mask id="mask-10" maskContentUnits="userSpaceOnUse" maskUnits="objectBoundingBox" x="0" y="0" width="215.16566" height="223.303482" fill="white">
            <use xlink:href="#path-9"></use>
        </mask>
        <path d="M76.8962031,24.6316377 C81.2809687,40.0310518 75.6713695,30.3828104 86.7135859,43.2830049 C92.0131676,49.4743014 109.674911,66.7651711 105.069055,71.5857393 C96.0192499,81.057419 77.1542503,79.8028482 71.7536249,77.3289034" id="path-11"></path>
        <mask id="mask-12" maskContentUnits="userSpaceOnUse" maskUnits="objectBoundingBox" x="0" y="0" width="34.0737873" height="54.4723366" fill="white">
            <use xlink:href="#path-11"></use>
        </mask>
        <path d="M195.537686,255.726734 L220.117238,253.86326 C220.462702,249.648475 222.34022,245.214862 225.792545,241.561932 C236.579924,230.147724 230.637144,226.076186 238.042041,222.993746 C241.260497,221.653998 250.340835,219.19304 252.471767,222.350657 C254.645853,225.57222 256.876654,226.244338 257.818413,226.861683 C260.098798,228.356529 252.390292,229.723566 252.390292,229.723566 C252.390292,229.723566 266.177614,225.039329 269.501941,227.756629 C274.989999,232.24256 270.874107,230.894037 271.69835,237.607947 C272.052757,240.494786 274.49911,241.78019 273.762918,244.732895 C273.400837,246.185119 270.280254,249.77341 271.554712,252.431168 C273.858237,257.234944 268.446459,262.228063 266.078708,263.033694 C254.594562,266.941189 254.084789,267.675948 234.612604,268.654328 C223.818984,271.161209 200.628988,273.322038 198.695838,273.593725" id="path-13"></path>
        <mask id="mask-14" maskContentUnits="userSpaceOnUse" maskUnits="objectBoundingBox" x="0" y="0" width="78.3625812" height="52.7832914" fill="white">
            <use xlink:href="#path-13"></use>
        </mask>
        <path d="M87.2930767,210.189336 C90.3132887,209.063384 95.9885588,207.698559 113.92935,208.113213 C124.405308,215.14067 135.344899,226.287289 159.202783,233.332115 C175.703823,238.204592 188.251193,235.842187 188.251193,235.842187 L199.436274,262.23176 C199.436274,262.23176 208.005647,280.349222 208.880411,298.508784 C208.952231,299.999742 233.142587,276.937934 233.986552,278.313066 C236.5024,282.412313 245.10437,285.198355 248.966097,288.514532 C243.186185,296.076923 211.969658,331.231815 202.462791,325.06045 C193.12785,314.674739 176.081731,284.244597 176.081731,284.244597 L179.150341,271.361383 L182.445032,259.041386 L155.05309,403.50395 C155.05309,403.50395 54.854125,398.366375 41.0336458,390.915783 C44.7135757,370.240941 88.2629401,259.644734 88.2629401,259.644734 C88.2629401,259.644734 91.6976446,253.370884 91.0009233,254.273441 C90.3042021,255.175999 68.8703513,288.750557 68.3727616,287.753124 C67.6584131,286.321192 45.1398807,302.732823 43.5300288,298.819263 C37.6719588,295.574502 46.2366079,276.40583 54.5036367,257.534225 C63.4377429,237.139844 75.5844402,214.887288 87.2930767,210.189336 Z" id="path-15"></path>
        <mask id="mask-16" maskContentUnits="userSpaceOnUse" maskUnits="objectBoundingBox" x="0" y="0" width="207.932451" height="195.466762" fill="white">
            <use xlink:href="#path-15"></use>
        </mask>
        <path d="M89.708759,210.579109 C110.043128,199.469771 120.932716,182.506182 131.596218,180.258271 C142.498691,188.793152 150.236234,196.258453 160.30157,215.169083 C185.05157,261.669083 167.734263,299.145481 142.984263,345.645481 C135.968095,345.767949 125.709261,345.947017 85.1921367,319.923761 C78.1109264,315.375656 75.1726748,303.812666 76.5204171,292.900917 C108.151488,229.518913 85.3065582,213.703289 89.708759,210.579109 Z" id="path-17"></path>
        <mask id="mask-18" maskContentUnits="userSpaceOnUse" maskUnits="objectBoundingBox" x="0" y="0" width="96.1174413" height="165.404754" fill="white">
            <use xlink:href="#path-17"></use>
        </mask>
        <path d="M145.5,270.5 L145.5,251 L136.5,251 L136.5,270.5 L114,270.5 L114,281.5 L136.5,281.5 L136.5,331 L145.5,331 L145.5,281.5 L168,281.5 L168,270.5 L145.5,270.5 Z" id="path-19"></path>
        <mask id="mask-20" maskContentUnits="userSpaceOnUse" maskUnits="objectBoundingBox" x="0" y="0" width="54" height="80" fill="white">
            <use xlink:href="#path-19"></use>
        </mask>
        <path d="M221.33374,220.072998 L223.056396,220.993164 C223.056396,220.993164 228.670471,211.711025 233.641113,208.691895 C234.684411,208.058204 246.278445,212.145703 247.979492,214.211914 C250.192666,216.900191 246.891602,222.231445 244.245117,222.231445 C239.840338,222.231445 235.908698,220.385919 235.020135,222.231445 C232.339526,227.799016 235.881939,225.010033 233.641113,226.371094" id="path-21"></path>
        <mask id="mask-22" maskContentUnits="userSpaceOnUse" maskUnits="objectBoundingBox" x="0" y="0" width="27.3727899" height="17.7451914" fill="white">
            <use xlink:href="#path-21"></use>
        </mask>
        <path d="M74.1698467,306.484695 L98.7493996,304.621221 C99.0948635,300.406436 100.972381,295.972823 104.424706,292.319892 C115.212085,280.905684 109.269305,276.834147 116.674202,273.751706 C119.892658,272.411958 128.972996,269.951001 131.103928,273.108618 C133.278015,276.330181 135.508815,277.002298 136.450574,277.619644 C138.73096,279.11449 131.022453,280.481527 131.022453,280.481527 C131.022453,280.481527 144.809775,275.797289 148.134103,278.51459 C153.62216,283.000521 149.506268,281.651997 150.330511,288.365908 C150.684918,291.252747 153.131271,292.53815 152.395079,295.490855 C152.032998,296.94308 148.912416,300.531371 150.186874,303.189129 C152.490398,307.992904 147.07862,312.986024 144.710869,313.791654 C133.226723,317.69915 132.71695,318.433909 113.244765,319.412289 C102.451145,321.91917 73.6120472,323.783942 71.678897,324.055629" id="path-23"></path>
        <mask id="mask-24" maskContentUnits="userSpaceOnUse" maskUnits="objectBoundingBox" x="0" y="0" width="80.8535309" height="52.4872345" fill="white">
            <use xlink:href="#path-23"></use>
        </mask>
        <path d="M12.380206,0.829146096 C12.380206,0.829146096 21.341458,1.30529841 26.3929378,1.39330437 C39.8045417,24.2082353 39.55731,42.1406009 25.8115546,67.2826175 C17.8422989,66.257564 18.5875195,68.7443846 11.0257321,66.4128463 C19.4852813,67.7473192 35.0114459,17.0881691 12.380206,0.829146096 Z" id="path-25"></path>
        <mask id="mask-26" maskContentUnits="userSpaceOnUse" maskUnits="objectBoundingBox" x="0" y="0" width="25.2628939" height="66.6183974" fill="white">
            <use xlink:href="#path-25"></use>
        </mask>
        <path d="M207.143792,35.2283808 C212.383204,37.1690818 220.010401,38.2664313 221.636866,42.8010993 C208.576319,38.8489508 216.260003,41.2098261 205.011956,43.3377558 C207.143792,41.2098261 207.143792,39.5018183 207.143792,35.2283808 Z" id="path-27"></path>
        <mask id="mask-28" maskContentUnits="userSpaceOnUse" maskUnits="objectBoundingBox" x="0" y="0" width="16.6249107" height="8.109375" fill="white">
            <use xlink:href="#path-27"></use>
        </mask>
        <path d="M5.06869577,0.505614511 C5.06869577,0.505614511 10.5332804,0.795972894 13.6136802,0.849639058 C21.7920961,14.7622176 23.7438685,25.9233525 15.3616866,41.2549912 C10.5020227,40.6299121 9.87573564,42.4769901 8.97662461,41.9786047 C11.6833125,39.2160352 16.3031106,12.1626636 5.06869577,0.505614511 Z" id="path-29"></path>
        <mask id="mask-30" maskContentUnits="userSpaceOnUse" maskUnits="objectBoundingBox" x="0" y="0" width="15.7060008" height="41.5594197" fill="white">
            <use xlink:href="#path-29"></use>
        </mask>
        <path d="M144.729492,12.4941406 C155.697266,8.87548828 171.722656,14.2211914 179.664062,17.7148438 C181.330566,21.3310547 180.681152,20.5307617 182.307617,25.0654297 C169.24707,21.1132813 153.845703,18.4755859 142.597656,20.6035156 C144.729492,18.4755859 144.729492,16.7675781 144.729492,12.4941406 Z" id="path-31"></path>
        <mask id="mask-32" maskContentUnits="userSpaceOnUse" maskUnits="objectBoundingBox" x="0" y="0" width="39.7099609" height="13.7776442" fill="white">
            <use xlink:href="#path-31"></use>
        </mask>
        <path d="M20.3702539,57.0556024 C31.3380274,53.43695 95.3789567,73.265378 103.320363,76.7590303 C104.986867,80.3752413 104.657318,78.5164625 106.283783,83.0511305 C107.910247,87.5857984 23.6422501,64.8377297 12.3942032,66.9656594 C16.9539363,63.7728999 20.3702539,61.3290399 20.3702539,57.0556024 Z" id="path-33"></path>
        <mask id="mask-34" maskContentUnits="userSpaceOnUse" maskUnits="objectBoundingBox" x="0" y="0" width="93.9128147" height="27.0342232" fill="white">
            <use xlink:href="#path-33"></use>
        </mask>
        <rect id="path-35" x="0" y="0" width="289" height="289"></rect>
        <mask id="mask-36" maskContentUnits="userSpaceOnUse" maskUnits="objectBoundingBox" x="0" y="0" width="289" height="289" fill="white">
            <use xlink:href="#path-35"></use>
        </mask>
    </defs>
    <g id="thumbnails" stroke="none" stroke-width="1" fill="none" fill-rule="evenodd">
        <g id="thumbnail-06">
            <use id="Rectangle-19" stroke="#979797" mask="url(#mask-2)" stroke-width="2" fill="#494949" xlink:href="#path-1"></use>
            <g id="silueta" transform="translate(-7.000000, -11.000000)">
                <use id="brazo-dcho" stroke="#000000" mask="url(#mask-4)" stroke-width="2" fill="#FFD788" transform="translate(208.789493, 254.949876) rotate(-55.000000) translate(-208.789493, -254.949876) " xlink:href="#path-3"></use>
                <use id="torso" stroke="#000000" mask="url(#mask-6)" stroke-width="2" fill="#D8D8D8" transform="translate(136.328945, 284.466561) rotate(-10.000000) translate(-136.328945, -284.466561) " xlink:href="#path-5"></use>
                <use id="brazo-izq" stroke="#000000" mask="url(#mask-8)" stroke-width="2" fill="#FFD788" xlink:href="#path-7"></use>
                <g id="cabeza" transform="translate(128.309097, 135.345117) rotate(8.000000) translate(-128.309097, -135.345117) translate(16.309097, 15.345117)">
                    <use stroke="#000000" mask="url(#mask-10)" stroke-width="2" fill="#FFD788" xlink:href="#path-9"></use>
                    <g id="cara" transform="translate(19.000000, -0.000000)">
                        <g id="barba" transform="translate(112.862727, 171.807913) rotate(-11.000000) translate(-112.862727, -171.807913) translate(29.362727, 118.807913)" stroke="#261408">
                            <path d="M3.36328125,0.1953125 L0.155273438,14.7421875 L7.04882813,7.43261719 L0.73046875,22.0048828 L8.48242188,13.0927734 L1.98730469,29.8798828 L10.1855469,19.7607422 L3.57714844,35.21875 L10.90625,25.9726562 L5.45507813,39.8730469 L13.9980469,30.7363281 L8.66894531,44.6337891 L19.4335938,31.921875 C19.4335938,31.921875 10.7452576,46.7394181 10.7333984,48.8046875 C10.7215392,50.8699569 23.1621094,34.5927734 23.1621094,34.5927734 L15.0664063,50.7636719 L25.2080078,39.7246094 L17.2753906,54.1210937 L28.5771484,42.0566406 L20.8193359,58.2939453 L34.0693359,43.8691406 C34.0693359,43.8691406 22.8470112,60.4253178 22.8505859,62.796875 C22.8541607,65.1684322 37.1162109,46.9443359 37.1162109,46.9443359 L26.3486328,66.5605469 L39.296875,50.8554687 L31.147237,69.5335936 L42.4091797,55.7119141 L34.1711466,73.3543156 L50.2158203,56.9052734 L38.911383,77.1916437 L54.6669922,59.8193359 L43.664151,81.2936623 L55.0859375,69.703125 L50.0087891,85.4335937 L59.1259766,71.9951172 L55.2272606,89.6270461 L63.4160156,73.3164062 L61.479785,92.7280591 L68.8164063,77.1621094 L67.5998075,96.3981125 L74.7832031,79.3066406 L74.3344724,99.3865091 L81.1425781,83.4160156 L81.9715373,101.315213 L87.8515625,86.8535156 L89.0185984,102.783696 L94.6633508,87.2159877 L96.743222,104.4598 L102.795623,87.3272974 L104.831865,105.254333 L109.125,88.1113281 L112.76242,104.661738 L116.410443,85.8444504 L119.900702,103.661886 L125.096167,82.9337089 L126.68586,99.9210469 L132.494141,83.6777344 L133.033203,96.0019531 L138.933594,78.9375 L139.447266,93.046875 L144.107422,67.7197266 L145.894531,84.9316406 L149,63.8007812 L150.789063,80.2392578 L155.056641,57.984375 L154.376953,74.2832031 L160.697266,48.3027344 L159.322266,65.4316406 L166.140625,45.375 L165.277344,53.6464844" id="Path-2"></path>
                            <polyline id="Path-3" points="111.34375 47.9414062 102.501953 61.2832031 105.746094 46.9882812 95.8398437 60.5078125 98.0664062 46.3964844 89.1806641 59.2207031 92.2910156 42.8007812 83.0292969 56.0615234 84.9121094 40.4785156 77.5957031 52.8769531 76.5205078 38.4951172 70.2265625 48.7597656 70.9003906 38.7998047 66.2871094 47.1933594 64.6669922 38.7685547 62.5058594 50.3935547 61.1210937 39.5166016 58.4257812 49.9609375 56.1660156 42.5888672 54.9443359 54.3105469 52.4023437 42.5068359 49.8369141 53.1728516"></polyline>
                            <polyline id="Path-4" points="125.729492 49.8457031 126.814453 60.7197266 130.822266 48.8496094 133.512695 59.6601562 136.955078 49.1865234 139.363281 60.2382812 141.688477 49.9716797 143.828125 59.5966797 147.72168 51.2402344 148.292969 59.2578125 151.605469 53.3662109 151.935547 59.7724609"></polyline>
                        </g>
                        <path d="M6.66850367,120.351095 C6.66850367,120.351095 8.20887796,126.517201 11.9341287,131.17922 C16.4817051,136.87035 20.4865828,143.541567 23.0513162,141.440939 C25.6160496,139.34031 18.7952146,127.114396 21.0005349,123.753439 C22.2913083,121.786271 27.2869257,134.173293 30.0435037,130.784689 C32.8000817,127.396084 32.5053569,121.224018 29.6724099,113.093282 C27.8120397,107.753903 31.1980227,98.7300452 31.4380349,97.4467981 C32.3415961,92.6158261 29.7603005,117.178243 35.4810037,99.7026575 C41.2017068,82.2270715 43.4253985,98.4153192 45.5132302,93.8530481 C47.9878625,88.4455514 55.4924541,65.8587111 55.5278787,74.5864465 C55.5825662,88.0600793 61.8242654,54.4985559 61.8242654,54.4985559 C61.8242654,54.4985559 66.3338108,59.803431 78.0942849,68.944845 C85.8562717,74.9782356 99.0518414,76.5332647 99.9145974,74.6342981 C100.917076,72.427796 79.0894021,66.8779504 78.721238,57.0717981 C78.6769809,55.8929968 82.9360904,59.2840194 93.5142068,64.1362512 C104.80347,69.3146892 118.889057,81.3743504 120.534715,76.313009 C120.896531,75.2002161 103.106802,62.478235 106.98491,57.1831262 C107.202884,56.8855074 113.805571,63.8014043 121.519363,69.5386032 C128.182161,74.4941153 135.122964,76.630162 140.596238,76.3589075 C143.591355,76.21047 121.120652,66.3764856 122.563035,55.319845 C123.005024,51.9317611 133.040311,58.6091284 134.784715,62.1928918 C137.350144,67.4633997 147.738622,73.1358218 151.285691,71.64797 C154.296257,70.3851593 140.441941,66.538595 138.51616,54.1059778 C137.622461,48.3363617 147.547475,57.4172777 152.586472,61.3276575 C155.926316,63.9194543 164.823295,71.6079741 168.117722,70.226095 C169.786796,69.5259862 151.758219,54.5678053 153.427293,53.8676965 C155.002084,53.2071354 165.515588,60.5780624 167.090379,59.9175012 C169.552087,58.8849141 165.33854,52.2788993 168.574754,50.5923059 C171.403695,49.1179677 176.616746,66.8081262 176.101121,60.0288293 C175.585496,53.2495325 186.966296,51.0641276 186.790574,52.3012903 C185.005988,64.8655916 184.325489,57.8828645 186.485886,72.8051965 C186.61439,73.6927966 188.904362,57.3840964 190.265183,60.6186731 C190.697492,61.6462403 191.985038,70.2076513 190.375663,77.5084326 C188.766288,84.8092138 195.230695,63.7183236 195.686749,69.5444954 C196.142804,75.3706673 194.037772,95.7877295 194.037772,95.7877295 C194.037772,95.7877295 190.403055,66.2777096 188.621254,48.9215078 C187.517622,38.1712303 169.536544,19.1095352 167.611468,17.4349271 C162.89877,13.3353916 154.077765,7.97364124 151.203351,7.63445645 C147.181762,7.15990349 146.806248,3.41004964 142.844285,2.85109497 C139.917584,2.43819532 70.3737266,1.47277065 68.5156081,0.789017676 C58.4428213,-2.91758013 16.8910336,33.7659279 16.5969478,35.1074725 C16.2172023,36.839775 -2.76253957,85.3641998 1.26172285,117.086144 L6.66850367,120.351095 Z M11.435517,177.744209 C18.1382781,181.599524 28.1963433,199.53344 26.8286599,193.478048 C22.9907693,176.485861 53.4662489,202.540599 59.6802452,202.270482 C65.075071,202.035973 45.579209,191.605248 35.016279,177.773724 C29.6958703,170.806968 24.0027538,161.700872 24.0027538,161.700872 C24.0027538,161.700872 19.3333362,167.637508 10.0229916,167.693569 L11.435517,177.744209 Z" id="pelo" stroke="#000000" fill="#9C551A"></path>
                    </g>
                </g>
            </g>
            <g id="cara-variable" transform="translate(96.000000, 91.000000)">
                <path d="M84.4175327,101.20553 C67.2488976,114.153613 48.5443275,112.993762 31.2113735,100.232589" id="boca" stroke="#000000" transform="translate(57.814453, 105.304592) scale(-1, -1) rotate(-171.000000) translate(-57.814453, -105.304592) "></path>
                <circle id="ojo-dcho" stroke="#000000" fill="#FFFFFF" cx="98.5" cy="31.8559903" r="23.5"></circle>
                <circle id="pupila-dcha" stroke="#6E934F" fill="#000000" cx="92" cy="36" r="4"></circle>
                <path d="M113.96806,2.5583784 C102.318741,2.5583784 79.7747976,7.95301806 79.5958133,10.9770822" id="ceja-dcha" stroke="#000000" transform="translate(96.781937, 6.767730) rotate(5.000000) translate(-96.781937, -6.767730) "></path>
                <ellipse id="ojo-izqdo" stroke="#000000" fill="#FFFFFF" cx="36.2761534" cy="37.0883207" rx="29.8391703" ry="29.8391703"></ellipse>
                <circle id="pupila-izqda" stroke="#6E934F" fill="#000000" cx="40.4369832" cy="36.2491504" r="4"></circle>
                <path d="M57.7426472,11.5762988 C53.3910847,5.28723635 33.8506649,0.69921875 15.9902344,0.69921875" id="ceja-izqda" stroke="#000000"></path>
                <use id="nariz" stroke="#000000" mask="url(#mask-12)" stroke-width="2" fill="#FFD788" transform="translate(88.790519, 51.867806) rotate(-6.000000) translate(-88.790519, -51.867806) " xlink:href="#path-11"></use>
            </g>
            <use id="antebrazo-over" stroke="#000000" mask="url(#mask-14)" stroke-width="2" fill="#D60DA9" transform="translate(234.718976, 247.202079) rotate(-48.000000) translate(-234.718976, -247.202079) " xlink:href="#path-13"></use>
            <use id="camiseta" stroke="#000000" mask="url(#mask-16)" stroke-width="2" fill="#E92B2B" transform="translate(144.999871, 305.770569) rotate(-10.000000) translate(-144.999871, -305.770569) " xlink:href="#path-15"></use>
            <use id="Rectangle" stroke="#000000" mask="url(#mask-18)" stroke-width="2" fill="#E92B2B" transform="translate(124.260729, 262.960648) rotate(91.000000) translate(-124.260729, -262.960648) " xlink:href="#path-17"></use>
            <path d="M104.527344,218.511719 C104.527344,218.511719 128.114453,252.044776 139.775391,254.673828 C151.436329,257.30288 164.015625,231.923828 164.015625,231.923828" id="Path-33" stroke="#000000"></path>
            <use id="Combined-Shape" stroke="#000000" mask="url(#mask-20)" stroke-width="2" fill="#E3FF5B" xlink:href="#path-19"></use>
            <path d="M242.060059,246.939209 C242.509766,243.769043 243.856201,234.582764 235.407471,229.146973" id="hand-wrenkle" stroke="#000000"></path>
            <path d="M264.999023,231.830078 L258.717673,237.402212 C258.717673,237.402212 255.875139,240.922687 254.289551,240.663086 C251.926947,240.276268 250.342312,240.093258 249.506592,237.754883 C248.850613,235.91943 250.581055,234.713623 252.254639,232.121338 C255.941162,225.905762 261.665527,222.625977 261.13208,222.406494 C260.986802,222.346721 256.722168,224.983887 251.964355,231.790527 C249.237419,234.357038 248.598302,236.400054 246.084473,236.568848 C243.777013,236.723784 241.231939,234.449673 240.772949,232.55127 C240.320318,230.679165 242.571289,227.333984 242.571289,227.333984 L251.943115,213.491699 L242.908203,226.544922 C242.908203,226.544922 259.230074,200.359082 259.920898,196.092773 C260.643555,191.629883 255.790016,189.741699 252.538795,191.061523 C251.344067,191.54652 236.70166,216.202148 240.800293,210.858887" id="fingers-over" stroke="#000000" fill="#D60EA9"></path>
            <use id="thumb" stroke="#000000" mask="url(#mask-22)" stroke-width="2" fill="#D60EA9" xlink:href="#path-21"></use>
            <use id="antebrazo-over" stroke="#000000" mask="url(#mask-24)" stroke-width="2" fill="#D60DA9" transform="translate(112.105662, 297.812011) rotate(8.000000) translate(-112.105662, -297.812011) " xlink:href="#path-23"></use>
            <path d="M127.306945,55.0565737 C168.491389,55.0565737 207.788117,75.782497 232.774153,93.8805125 C237.613658,97.3858879 216.732668,137.590832 220.5357,139.555043 C222.188474,140.408676 236.618495,117.243866 235.824447,90.2938684 C235.030399,63.3438704 213.352016,12.7736375 159.424683,-1.67614789 C140.817405,-6.66195305 114.840226,-13.6225172 78.9487006,11.9090782 C57.3126496,27.2999788 44.2860888,50.971469 38.2738953,66.3637601 C34.5621076,75.8666004 32.0508176,84.1993817 33.5002759,84.17915 C36.4438097,86.641231 37.3716353,82.2222514 39.9335734,91.1628486 C43.0305915,89.0538627 42.4980088,105.998964 41.0020239,128.432816 C40.6786336,133.282391 49.3764323,133.775985 48.9899351,139.001508 C46.1427312,177.4963 33.2477857,227.086269 39.2048568,223.763384 C43.4236562,221.410116 50.9204626,175.073982 63.1578862,134.369461 C64.8188279,128.844783 71.7438007,125.621892 73.3623806,120.335051 C81.9743701,92.2053193 89.6651932,69.0396092 93.0132374,67.8369131 C103.788306,63.9662552 115.665961,55.0565737 127.306945,55.0565737 Z" id="helmet" stroke="#000000" fill="#54340A" transform="translate(134.469851, 108.726732) rotate(-15.000000) translate(-134.469851, -108.726732) "></path>
            <g id="lense" transform="translate(114.555804, 25.486760) rotate(68.000000) translate(-114.555804, -25.486760) translate(96.055804, -8.513240)" stroke="#000000">
                <ellipse id="Oval" fill="#BCBCBC" cx="12.525476" cy="33.1115603" rx="12.1154941" ry="32.5205368"></ellipse>
                <use id="Rectangle" mask="url(#mask-26)" stroke-width="2" fill="#53669A" xlink:href="#path-25"></use>
            </g>
            <use id="Rectangle-4" stroke="#000000" mask="url(#mask-28)" stroke-width="2" fill="#262626" transform="translate(213.324411, 39.283068) rotate(24.000000) translate(-213.324411, -39.283068) " xlink:href="#path-27"></use>
            <g id="lense" transform="translate(196.784521, 29.778767) scale(-1, 1) rotate(61.000000) translate(-196.784521, -29.778767) translate(186.284521, 8.278767)" stroke="#000000">
                <path d="M8.9279999,41.2434747 C13.0083051,41.2434747 12.5453278,31.1438765 12.5453278,20.1914782 C12.5453278,9.23908001 9.23758682,0.360406979 5.1572816,0.360406979 C1.07697637,0.360406979 0.64012729,9.65364106 0.64012729,20.6060393 C0.64012729,31.5584375 4.84769467,41.2434747 8.9279999,41.2434747 Z" id="Oval" fill="#BCBCBC"></path>
                <use id="Rectangle" mask="url(#mask-30)" stroke-width="2" fill="#53669A" xlink:href="#path-29"></use>
            </g>
            <use id="Rectangle-4" stroke="#000000" mask="url(#mask-32)" stroke-width="2" fill="#262626" xlink:href="#path-31"></use>
            <use id="Rectangle-4" stroke="#000000" mask="url(#mask-34)" stroke-width="2" fill="#262626" transform="translate(59.350611, 70.133504) scale(-1, 1) rotate(-325.000000) translate(-59.350611, -70.133504) " xlink:href="#path-33"></use>
            <use id="Rectangle-18-Copy-20" stroke="#4B83AA" mask="url(#mask-36)" stroke-width="20" xlink:href="#path-35"></use>
        </g>
    </g>
</svg>