<?xml version="1.0" encoding="UTF-8"?>
<svg width="297px" height="297px" viewBox="0 0 297 297" version="1.1" xmlns="http://www.w3.org/2000/svg" xmlns:xlink="http://www.w3.org/1999/xlink">
    <!-- Generator: Sketch 41.2 (35397) - http://www.bohemiancoding.com/sketch -->
    <title>thumbnail-04</title>
    <desc>Created with Sketch.</desc>
    <defs>
        <rect id="path-1" x="-13" y="-19" width="312" height="497"></rect>
        <mask id="mask-2" maskContentUnits="userSpaceOnUse" maskUnits="objectBoundingBox" x="0" y="0" width="312" height="497" fill="white">
            <use xlink:href="#path-1"></use>
        </mask>
        <path d="M194.703859,236.228225 C184.490982,250.293059 176.860879,293.794451 174.714343,307.123793 C174.128784,308.562681 173.884689,310.263626 174.113155,312.274069 C175.505233,324.524015 228.714603,320.635339 241.930818,319.478339 C242.396078,319.545295 242.875914,319.596975 243.370395,319.632624 C262.816672,321.0346 263.514414,320.897933 275.389162,318.419129 C277.837446,317.90806 283.817394,313.611689 282.116472,308.562991 C281.175413,305.769726 284.710039,302.588484 285.246401,301.191211 C286.33695,298.350235 284.065484,296.776277 284.065536,293.867765 C284.065657,287.103449 287.986525,288.943521 283.086072,283.822202 C280.11768,280.720022 265.862261,283.689092 265.862261,283.689092 C265.862261,283.689092 273.67991,283.271676 271.598698,281.510063 C270.739194,280.782547 268.606932,279.843574 266.84166,276.381069 C265.111428,272.987293 255.798859,274.323292 252.441119,275.260823 C244.715761,277.417857 250.11805,282.183289 238.020036,292.197766 C234.413032,295.183567 232.06958,298.954088 231.060563,302.737783 L196.762956,299.554337 C196.93418,299.371077 197.105226,299.184897 197.27605,298.995748 C206.056022,289.273906 218.541565,258.994823 223.396752,246.710438 C223.725412,246.079135 224.03322,245.42728 224.31814,244.756051 C228.742289,234.333409 225.97266,223.186181 218.132,219.858018 C210.291341,216.529856 200.34875,222.281067 195.924601,232.703708 C195.428077,233.873446 195.022163,235.052311 194.703859,236.228225 Z" id="path-3"></path>
        <mask id="mask-4" maskContentUnits="userSpaceOnUse" maskUnits="objectBoundingBox" x="0" y="0" width="111.522261" height="102.071947" fill="white">
            <use xlink:href="#path-3"></use>
        </mask>
        <path d="M113.827774,237.580126 C113.827774,237.580126 118.736746,235.879378 136.677538,236.294032 C163.311944,215.120106 211.901934,258.308244 211.901934,258.308244 L183.730225,368.481661 C183.730225,368.481661 116.576434,364.318808 102.755955,356.868216 C110.606358,312.762532 113.827774,237.580126 113.827774,237.580126 Z" id="path-5"></path>
        <mask id="mask-6" maskContentUnits="userSpaceOnUse" maskUnits="objectBoundingBox" x="0" y="0" width="109.145979" height="138.030201" fill="white">
            <use xlink:href="#path-5"></use>
        </mask>
        <path d="M89.642653,262.433648 C79.4297756,276.498482 71.799673,319.999874 69.6531372,333.329216 C69.0675782,334.768104 68.8234832,336.46905 69.051949,338.479492 C70.4440272,350.729438 123.653397,346.840763 136.869612,345.683763 C137.334872,345.750718 137.814708,345.802398 138.309189,345.838048 C157.755466,347.240023 158.453208,347.103357 170.327956,344.624553 C172.77624,344.113484 178.756188,339.817112 177.055266,334.768414 C176.114207,331.975149 179.648833,328.793908 180.185195,327.396635 C181.275744,324.555658 179.004278,322.981701 179.00433,320.073189 C179.004451,313.308872 182.925319,315.148945 178.024866,310.027626 C175.056474,306.925446 160.801055,309.894516 160.801055,309.894516 C160.801055,309.894516 168.618704,309.477099 166.537492,307.715486 C165.677988,306.987971 163.545726,306.048997 161.780454,302.586493 C160.050222,299.192717 150.737653,300.528716 147.379913,301.466247 C139.654555,303.623281 145.056844,308.388713 132.95883,318.40319 C129.351826,321.38899 127.008374,325.159512 125.999357,328.943206 L91.7017504,325.759761 C91.8729736,325.576501 92.0440204,325.39032 92.2148438,325.201172 C100.994816,315.47933 113.480359,285.200246 118.335546,272.915861 C118.664206,272.284559 118.972014,271.632704 119.256934,270.961474 C123.681083,260.538833 120.911454,249.391604 113.070794,246.063442 C105.230135,242.735279 95.2875438,248.486491 90.8633951,258.909132 C90.3668708,260.07887 89.960957,261.257734 89.642653,262.433648 Z" id="path-7"></path>
        <mask id="mask-8" maskContentUnits="userSpaceOnUse" maskUnits="objectBoundingBox" x="0" y="0" width="111.522261" height="102.071947" fill="white">
            <use xlink:href="#path-7"></use>
        </mask>
        <path d="M63.8592374,175.207666 C63.2400019,175.980864 62.5432375,176.696902 61.7684209,177.34705 C53.259432,184.48694 38.5592917,180.976614 28.9347386,169.506518 C19.3101856,158.036422 18.4058421,142.950049 26.9148311,135.810159 C31.5674471,131.906151 38.071078,131.186317 44.5838666,133.210831 C37.1227341,106.38825 39.9824984,83.2595052 47.6528683,67.5980532 C60.8049234,26.9598476 113.732284,4.64196713 169.159645,17.4383817 C226.923902,30.7743112 239.7863,64.544052 235.101393,101.1747 C233.463211,113.983426 231.444394,124.94926 229.034443,134.30327 C231.620179,137.474601 233.368805,140.35683 234.114898,142.853793 C242.649666,171.417251 224.320771,215.532224 201.032146,230.084572 C177.743521,244.63692 109.613461,240.286572 68.5247941,182.123742 C66.8892279,179.808526 65.3349026,177.502578 63.8592374,175.207666 Z" id="path-9"></path>
        <mask id="mask-10" maskContentUnits="userSpaceOnUse" maskUnits="objectBoundingBox" x="0" y="0" width="215.16566" height="223.303482" fill="white">
            <use xlink:href="#path-9"></use>
        </mask>
        <path d="M112.900391,375.539062 L139.25,383.921619 L122,479.023181 L118.986328,489.447266 L78.1914062,514.294922 C78.1914062,514.294922 51.8921278,510.61842 58.3007812,492.128906 C60.6972656,485.214844 93,479.023181 93,479.023181 L112.900391,375.539062 Z M163.984375,370.857165 L192.984375,370.857165 L179.510742,467.888672 C179.510742,467.888672 212.850586,472.298828 216.015625,476.546875 C230.937031,496.574063 194.217773,500.805664 194.217773,500.805664 L149.602539,481.280273 L150,471.023181 L163.984375,370.857165 Z" id="path-11"></path>
        <mask id="mask-12" maskContentUnits="userSpaceOnUse" maskUnits="objectBoundingBox" x="0" y="0" width="162.288017" height="143.437756" fill="white">
            <use xlink:href="#path-11"></use>
        </mask>
        <path d="M113,365.921619 C113.09375,354.681384 195.661133,360.90332 195.661133,360.90332 C195.661133,360.90332 194.672852,361.610352 192.369141,373.492188 C191.443927,378.264157 178.123276,387.923561 163.240747,390.543193 C154.803717,392.028285 145.599832,393.098863 137.302582,393.677091 C123.793371,394.618538 115.514699,384.368103 114.035156,382.363281 C110.043945,376.955078 112.90625,377.161853 113,365.921619 Z" id="path-13"></path>
        <mask id="mask-14" maskContentUnits="userSpaceOnUse" maskUnits="objectBoundingBox" x="0" y="0" width="83.7421331" height="34.5523001" fill="white">
            <use xlink:href="#path-13"></use>
        </mask>
        <linearGradient x1="50%" y1="0%" x2="50%" y2="100%" id="linearGradient-15">
            <stop stop-color="#253C83" offset="0%"></stop>
            <stop stop-color="#253C83" offset="7.26243622%"></stop>
            <stop stop-color="#FFFFFF" offset="9.55835459%"></stop>
            <stop stop-color="#FFFFFF" offset="14.0625%"></stop>
            <stop stop-color="#253C83" offset="14.9433992%"></stop>
            <stop stop-color="#253C83" offset="21.5401786%"></stop>
            <stop stop-color="#FFFFFF" offset="25.6038744%"></stop>
            <stop stop-color="#FFFFFF" offset="28.517618%"></stop>
            <stop stop-color="#253C83" offset="31.2201052%"></stop>
            <stop stop-color="#253C83" offset="37.4222736%"></stop>
            <stop stop-color="#FFFFFF" offset="41.3942921%"></stop>
            <stop stop-color="#FFFFFF" offset="42.4864477%"></stop>
            <stop stop-color="#253C83" offset="47.7758291%"></stop>
            <stop stop-color="#253C83" offset="53.8783482%"></stop>
            <stop stop-color="#FFFFFF" offset="54.3825733%"></stop>
            <stop stop-color="#FFFFFF" offset="58.9166135%"></stop>
            <stop stop-color="#253C83" offset="63.406808%"></stop>
            <stop stop-color="#253C83" offset="69.6508291%"></stop>
            <stop stop-color="#FFFFFF" offset="72.2317443%"></stop>
            <stop stop-color="#253C83" offset="81.246014%"></stop>
            <stop stop-color="#FFFFFF" offset="83.4482621%"></stop>
            <stop stop-color="#FFFFFF" offset="86.6390306%"></stop>
            <stop stop-color="#253C83" offset="92.6538584%"></stop>
            <stop stop-color="#FFFFFF" offset="94.9079241%"></stop>
            <stop stop-color="#FFFFFF" offset="100%"></stop>
        </linearGradient>
        <path d="M89.965388,214.531129 C92.9855999,213.405176 98.6608701,212.040352 116.601661,212.455006 C127.077619,219.482462 138.01721,230.629081 161.875094,237.673908 C178.376134,242.546384 190.923504,240.18398 190.923504,240.18398 L202.108586,266.573552 L181.822652,275.703175 L185.117344,263.383179 L164.423793,343.608189 C164.423793,343.608189 97.2700026,339.445336 83.4495234,331.994744 C87.1294534,311.319902 90.9352514,263.986527 90.9352514,263.986527 C90.9352514,263.986527 96.3972412,252.547768 95.70052,253.450325 C95.0037987,254.352883 85.4423987,270.900312 84.9448089,269.902879 C84.2304604,268.470947 61.980359,260.633051 60.3705071,256.719491 C60.106402,256.07745 73.2752909,221.83371 89.965388,214.531129 Z" id="path-16"></path>
        <mask id="mask-17" maskContentUnits="userSpaceOnUse" maskUnits="objectBoundingBox" x="0" y="0" width="141.741982" height="131.229208" fill="white">
            <use xlink:href="#path-16"></use>
        </mask>
        <path d="M29.4121414,-24.1729781 L38.4121414,-24.1729781 C38.4121414,-24.1729781 37.630061,22.7073796 37.6105297,36.5054954 C36.0900219,42.6569036 34.7034274,41.590542 33.7337008,36.6616534 C32.9641695,28.5880341 29.4121414,-24.1729781 29.4121414,-24.1729781 Z" id="path-18"></path>
        <mask id="mask-19" maskContentUnits="userSpaceOnUse" maskUnits="objectBoundingBox" x="0" y="0" width="9" height="64.9186446" fill="white">
            <use xlink:href="#path-18"></use>
        </mask>
        <path d="M229.33374,221.072998 L231.056396,221.993164 C231.056396,221.993164 236.670471,212.711025 241.641113,209.691895 C244.041809,208.23373 249.635796,210.881483 248.540527,212.654541 C240.894775,225.031738 243.377653,225.885287 240.394043,227.69751" id="path-20"></path>
        <mask id="mask-21" maskContentUnits="userSpaceOnUse" maskUnits="objectBoundingBox" x="0" y="0" width="19.3472719" height="18.4277032" fill="white">
            <use xlink:href="#path-20"></use>
        </mask>
        <path d="M61.8962031,14.6316377 C66.2809687,30.0310518 60.6713695,20.3828104 71.7135859,33.2830049 C77.0131676,39.4743014 94.6749115,56.7651711 90.0690546,61.5857393 C81.0192499,71.057419 62.1542503,69.8028482 56.7536249,67.3289034" id="path-22"></path>
        <mask id="mask-23" maskContentUnits="userSpaceOnUse" maskUnits="objectBoundingBox" x="0" y="0" width="34.0737873" height="54.4723366" fill="white">
            <use xlink:href="#path-22"></use>
        </mask>
        <path d="M71.0713583,306.351469 L99.3847904,303.523225 C99.7302543,299.30844 108.873693,296.010231 112.326017,292.3573 C123.113397,280.943092 117.170616,276.871554 124.575514,273.789114 C127.79397,272.449366 136.874307,269.988409 139.00524,273.146026 C141.179326,276.367589 143.410126,277.039706 144.351886,277.657051 C146.632271,279.151898 138.923765,280.518934 138.923765,280.518934 C138.923765,280.518934 137.985779,282.440169 141.652725,283.589248 C145.319671,284.738327 143.48289,290.261185 144.307132,296.975096 C144.661539,299.861935 161.032582,292.575558 160.29639,295.528263 C159.93431,296.980487 130.051876,313.567788 114.514465,318.104406 C104.221382,321.109784 54.4966633,334.993213 51.7257685,322.02101" id="path-24"></path>
        <mask id="mask-25" maskContentUnits="userSpaceOnUse" maskUnits="objectBoundingBox" x="0" y="0" width="108.594723" height="55.8611362" fill="white">
            <use xlink:href="#path-24"></use>
        </mask>
        <path d="M59,40 C61.209139,40 63.1842997,38.509011 64.4746094,36.5917969 C65.1650391,35.565918 71.2036133,39.5537109 72.7128906,33.7402344 C73.3463976,31.3000744 66.0432734,28.1335971 61.6547852,28.3334961 C55.9915296,28.5914617 50.0265041,31.7285156 49.3896484,31.7285156 C47.1805094,31.7285156 46.1147461,35.2158203 47.722168,37.6318359 C49.3295898,40.0478516 56.790861,40 59,40 Z" id="path-26"></path>
        <mask id="mask-27" maskContentUnits="userSpaceOnUse" maskUnits="objectBoundingBox" x="0" y="0" width="25.802395" height="11.6755862" fill="white">
            <use xlink:href="#path-26"></use>
        </mask>
        <path d="M83.0141469,55.8576182 C44.1400654,59.8612935 10.8426495,85.8812051 9.67768985,102.540904 C15.5075628,103.510337 24.4654547,106.223586 35.3351015,109.30422 L35.3351015,113.927769 L52.516697,113.927769 C69.1454193,118.082883 88.1235891,121.692143 106.552503,121.475126 C119.618486,121.321262 132.414068,117.912925 143.88972,113.927769 L156.583381,113.927769 L156.583381,109.187514 C165.27668,105.784331 172.738396,102.710304 178.336436,101.578083 C212.907315,94.5860158 145.147112,58.7419426 99.6311148,55.559154 C97.608775,55.4177383 95.5911869,55.3441354 93.5818042,55.3342648 L93.5818239,39.0209313 L78.2307665,40.5931017 L83.0141469,55.8576182 Z" id="path-28"></path>
        <mask id="mask-29" maskContentUnits="userSpaceOnUse" maskUnits="objectBoundingBox" x="0" y="0" width="178.13647" height="82.4635023" fill="white">
            <use xlink:href="#path-28"></use>
        </mask>
        <rect id="path-30" x="0" y="0" width="297" height="297"></rect>
        <mask id="mask-31" maskContentUnits="userSpaceOnUse" maskUnits="objectBoundingBox" x="0" y="0" width="297" height="297" fill="white">
            <use xlink:href="#path-30"></use>
        </mask>
    </defs>
    <g id="thumbnails" stroke="none" stroke-width="1" fill="none" fill-rule="evenodd">
        <g id="thumbnail-04">
            <use id="Rectangle-19" stroke="#979797" mask="url(#mask-2)" stroke-width="2" fill="#494949" xlink:href="#path-1"></use>
            <g id="queco-base" transform="translate(-2.000000, -8.000000)">
                <g id="silueta" transform="translate(-18.000000, -17.000000)">
                    <use id="brazo-dcho" stroke="#000000" mask="url(#mask-4)" stroke-width="2" fill="#FFD788" transform="translate(229.789493, 269.949876) rotate(-55.000000) translate(-229.789493, -269.949876) " xlink:href="#path-3"></use>
                    <use id="torso" stroke="#000000" mask="url(#mask-6)" stroke-width="2" fill="#D8D8D8" transform="translate(157.328945, 299.466561) rotate(-10.000000) translate(-157.328945, -299.466561) " xlink:href="#path-5"></use>
                    <use id="brazo-izq" stroke="#000000" mask="url(#mask-8)" stroke-width="2" fill="#FFD788" xlink:href="#path-7"></use>
                    <g id="cabeza" transform="translate(147.738052, 143.560442) rotate(8.000000) translate(-147.738052, -143.560442) translate(17.238052, 17.060442)">
                        <use stroke="#000000" mask="url(#mask-10)" stroke-width="2" fill="#FFD788" xlink:href="#path-9"></use>
                        <g id="cara" transform="translate(0.000000, 0.000000)">
                            <g id="barba" transform="translate(152.862727, 184.807913) rotate(-11.000000) translate(-152.862727, -184.807913) translate(69.362727, 131.807913)" stroke="#261408">
                                <path d="M3.36328125,0.1953125 L0.155273438,14.7421875 L7.04882813,7.43261719 L0.73046875,22.0048828 L8.48242188,13.0927734 L1.98730469,29.8798828 L10.1855469,19.7607422 L3.57714844,35.21875 L10.90625,25.9726562 L5.45507813,39.8730469 L13.9980469,30.7363281 L8.66894531,44.6337891 L19.4335938,31.921875 C19.4335938,31.921875 10.7452576,46.7394181 10.7333984,48.8046875 C10.7215392,50.8699569 23.1621094,34.5927734 23.1621094,34.5927734 L15.0664063,50.7636719 L25.2080078,39.7246094 L17.2753906,54.1210937 L28.5771484,42.0566406 L20.8193359,58.2939453 L34.0693359,43.8691406 C34.0693359,43.8691406 22.8470112,60.4253178 22.8505859,62.796875 C22.8541607,65.1684322 37.1162109,46.9443359 37.1162109,46.9443359 L26.3486328,66.5605469 L39.296875,50.8554687 L31.147237,69.5335936 L42.4091797,55.7119141 L34.1711466,73.3543156 L50.2158203,56.9052734 L38.911383,77.1916437 L54.6669922,59.8193359 L43.664151,81.2936623 L55.0859375,69.703125 L50.0087891,85.4335937 L59.1259766,71.9951172 L55.2272606,89.6270461 L63.4160156,73.3164062 L61.479785,92.7280591 L68.8164063,77.1621094 L67.5998075,96.3981125 L74.7832031,79.3066406 L74.3344724,99.3865091 L81.1425781,83.4160156 L81.9715373,101.315213 L87.8515625,86.8535156 L89.0185984,102.783696 L94.6633508,87.2159877 L96.743222,104.4598 L102.795623,87.3272974 L104.831865,105.254333 L109.125,88.1113281 L112.76242,104.661738 L116.410443,85.8444504 L119.900702,103.661886 L125.096167,82.9337089 L126.68586,99.9210469 L132.494141,83.6777344 L133.033203,96.0019531 L138.933594,78.9375 L139.447266,93.046875 L144.107422,67.7197266 L145.894531,84.9316406 L149,63.8007812 L150.789063,80.2392578 L155.056641,57.984375 L154.376953,74.2832031 L160.697266,48.3027344 L159.322266,65.4316406 L166.140625,45.375 L165.277344,53.6464844" id="Path-2"></path>
                                <polyline id="Path-3" points="111.34375 47.9414062 102.501953 61.2832031 105.746094 46.9882812 95.8398437 60.5078125 98.0664062 46.3964844 89.1806641 59.2207031 92.2910156 42.8007812 83.0292969 56.0615234 84.9121094 40.4785156 77.5957031 52.8769531 76.5205078 38.4951172 70.2265625 48.7597656 70.9003906 38.7998047 66.2871094 47.1933594 64.6669922 38.7685547 62.5058594 50.3935547 61.1210937 39.5166016 58.4257812 49.9609375 56.1660156 42.5888672 54.9443359 54.3105469 52.4023437 42.5068359 49.8369141 53.1728516"></polyline>
                                <polyline id="Path-4" points="125.729492 49.8457031 126.814453 60.7197266 130.822266 48.8496094 133.512695 59.6601562 136.955078 49.1865234 139.363281 60.2382812 141.688477 49.9716797 143.828125 59.5966797 147.72168 51.2402344 148.292969 59.2578125 151.605469 53.3662109 151.935547 59.7724609"></polyline>
                            </g>
                            <path d="M46.6685037,133.351095 C46.6685037,133.351095 48.208878,139.517201 51.9341287,144.17922 C56.4817051,149.87035 60.4865828,156.541567 63.0513162,154.440939 C65.6160496,152.34031 58.7952146,140.114396 61.0005349,136.753439 C62.2913083,134.786271 67.2869257,147.173293 70.0435037,143.784689 C72.8000817,140.396084 72.5053569,134.224018 69.6724099,126.093282 C67.8120397,120.753903 71.1980227,111.730045 71.4380349,110.446798 C72.3415961,105.615826 69.7603005,130.178243 75.4810037,112.702657 C81.2017068,95.2270715 83.4253985,111.415319 85.5132302,106.853048 C87.9878625,101.445551 95.4924541,78.8587111 95.5278787,87.5864465 C95.5825662,101.060079 101.824265,67.4985559 101.824265,67.4985559 C101.824265,67.4985559 106.333811,72.803431 118.094285,81.944845 C125.856272,87.9782356 139.051841,89.5332647 139.914597,87.6342981 C140.917076,85.427796 119.089402,79.8779504 118.721238,70.0717981 C118.676981,68.8929968 122.93609,72.2840194 133.514207,77.1362512 C144.80347,82.3146892 158.889057,94.3743504 160.534715,89.313009 C160.896531,88.2002161 143.106802,75.478235 146.98491,70.1831262 C147.202884,69.8855074 153.805571,76.8014043 161.519363,82.5386032 C168.182161,87.4941153 175.122964,89.630162 180.596238,89.3589075 C183.591355,89.21047 161.120652,79.3764856 162.563035,68.319845 C163.005024,64.9317611 173.040311,71.6091284 174.784715,75.1928918 C177.350144,80.4633997 187.738622,86.1358218 191.285691,84.64797 C194.296257,83.3851593 180.441941,79.538595 178.51616,67.1059778 C177.622461,61.3363617 187.547475,70.4172777 192.586472,74.3276575 C195.926316,76.9194543 204.823295,84.6079741 208.117722,83.226095 C209.786796,82.5259862 191.758219,67.5678053 193.427293,66.8676965 C195.002084,66.2071354 205.515588,73.5780624 207.090379,72.9175012 C209.552087,71.8849141 205.33854,65.2788993 208.574754,63.5923059 C211.403695,62.1179677 216.616746,79.8081262 216.101121,73.0288293 C215.585496,66.2495325 226.966296,64.0641276 226.790574,65.3012903 C225.005988,77.8655916 224.325489,70.8828645 226.485886,85.8051965 C226.61439,86.6927966 228.904362,70.3840964 230.265183,73.6186731 C230.697492,74.6462403 231.985038,83.2076513 230.375663,90.5084326 C228.766288,97.8092138 235.230695,76.7183236 235.686749,82.5444954 C236.142804,88.3706673 234.037772,108.787729 234.037772,108.787729 C234.037772,108.787729 255.208117,93.2190155 253.426316,75.8628137 C252.322685,65.1125361 267.697801,73.46047 257.098191,58.3159387 C250.145299,48.3817716 247.014039,46.2434751 244.206476,44.4472085 C242.733939,43.505086 254.433456,39.3494349 252.634324,37.5200403 C248.356305,33.1700612 232.782042,33.8823066 230.856965,32.2076985 C226.144268,28.108163 224.824668,29.5267474 208.990769,24.2300012 C205.939092,23.2091561 215.229866,16.4188949 212.197801,15.851095 C209.299695,15.308381 194.077765,20.9736412 191.203351,20.6344564 C187.181762,20.1599035 186.806248,16.4100496 182.844285,15.851095 C179.917584,15.4381953 188.47136,7.4406111 185.584528,6.7145192 C183.707378,6.24238139 170.377216,13.1648737 168.519098,12.4811208 C158.446311,8.77452296 161.103911,3.92830566 152.524957,3.92740983 C142.399809,3.92635254 144.962039,7.89757621 139.195856,12.4772145 C133.429672,17.0568528 125.603633,2.45945279 117.045465,0.837566076 C107.444453,-0.981953457 106.828448,10.5622791 94.7925354,5.59440201 C83.6136041,0.9802478 81.5031636,14.9967953 69.2915505,21.2221887 C66.2641686,22.7655265 60.1562171,26.9730655 60.2134255,29.1704309 C60.2286662,29.7558209 58.7798318,13.0249231 57.5879373,15.851095 C56.3960427,18.6772668 54.9663552,24.7749231 54.9663552,24.7749231 C54.9663552,24.7749231 51.2915505,11.0669153 49.7476052,19.6328332 C48.2036599,28.1987512 54.5649992,35.0605454 48.7305154,33.5415247 C29.7729635,28.6058842 44.9903338,37.1090245 42.4648062,38.4237753 C39.3879799,40.0255239 36.7501128,41.4325531 36.509324,41.9243372 C34.8655289,45.2816042 48.109489,41.9290298 46.7125774,44.8580801 C46.2321279,45.8654885 40.4800032,47.9704372 35.6978792,51.4776959 C33.3364652,53.2095812 31.2115749,55.2834039 30.0747537,57.7358606 C29.2099254,59.6015488 20.7909772,60.0258915 20.283738,61.3413293 C19.5329674,63.2883245 26.8710032,65.8645616 26.5769174,67.2061062 C25.8571395,70.4895497 25.9212374,73.0320666 23.9106912,80.0835168 C23.2822571,82.2875802 22.9003814,85.0869992 22.6746213,87.9454596 C22.4558952,90.7148575 6.70463648,115.330587 15.384324,109.648947 C24.0640115,103.967306 22.4966287,102.134298 22.4966287,102.134298 C22.4966287,102.134298 20.5460321,112.011597 18.6209525,115.054593 C17.4290881,116.938586 0.0395974197,128.792501 0.735886482,132.693868 C1.43217554,136.595236 10.7926836,129.379816 9.83122659,132.231112 C8.45687078,136.3069 8.00758021,140.100265 8.38920679,144.995626 C8.38920679,144.995626 10.5651288,160.476135 13.8130349,166.415548 C15.0434879,168.665665 15.9938945,159.790619 17.6725465,162.449818 C24.2379751,172.850296 34.1937173,185.44792 47.2446755,192.954611 C53.9474367,196.809925 68.1963433,212.53344 66.8286599,206.478048 C62.9907693,189.485861 93.4662489,215.540599 99.6802452,215.270482 C105.075071,215.035973 85.579209,204.605248 75.016279,190.773724 C69.6958703,183.806968 64.0027538,174.700872 64.0027538,174.700872 C64.0027538,174.700872 59.3391796,182.091008 45.4094921,179.29804 C38.9131443,177.995491 28.5986777,171.25189 23.5859841,161.542989 C16.6671047,148.142069 23.8651293,138.091197 30.1523904,134.073751 C36.4253396,130.06545 46.6685037,133.351095 46.6685037,133.351095 Z" id="pelo" stroke="#000000" fill="#9C551A"></path>
                        </g>
                    </g>
                    <use id="piernas" stroke="#000000" mask="url(#mask-12)" stroke-width="2" fill="#FFD788" xlink:href="#path-11"></use>
                    <g id="pelillos" transform="translate(104.000000, 385.000000)" stroke="#261408">
                        <path d="M18,59 L18.4140625,65" id="Path-5"></path>
                        <path d="M7.59179688,61 C5.39453125,63.1803385 3.19726563,65.3606771 1,67.5410156" id="Path-6"></path>
                        <path d="M8.02929688,52.3515625 C2.83329883,53.2095344 6.00699042,54.0070016 0.525390625,56.1445312" id="Path-7"></path>
                        <polyline id="Path-8" points="14.0449219 50.6035156 14.0449219 52.2324219 14.0449219 52.7011719 14.0449219 53.2714844 14.0449219 53.8417969 14.0449219 54.0996094 14.0449219 54.3847656 14.0449219 54.5136719 14.0449219 54.6425781 14.0449219 54.7714844 14.0449219 54.9003906 14.0449219 55.0292969 14.0449219 55.1582031 14.0449219 55.4160156 14.0449219 55.6738281 14.0449219 55.8027344 14.0449219 55.9316406 14.0449219 56.1894531 14.0449219 56.3183594 14.0449219 56.4472656"></polyline>
                        <path d="M17.6582031,43.6816406 L19.3144531,48.7871094" id="Path-9"></path>
                        <path d="M15.1367188,35.7675781 L10.7285156,39.1738281" id="Path-10"></path>
                        <path d="M4.94921875,39.8476562 L2.13671875,44.9433594" id="Path-11"></path>
                        <path d="M10.0195312,30.0585938 L3.96875,31.4648438" id="Path-12"></path>
                        <path d="M13.4453125,25.875 C14.2122396,26.4746094 14.9791667,27.0742188 15.7460938,27.6738281" id="Path-13"></path>
                        <path d="M21.78125,29.8867188 L22.2226562,37.5664062" id="Path-14"></path>
                        <path d="M25.1972656,19.671875 L25.6113281,23.09375" id="Path-15"></path>
                        <path d="M16.0214844,18 C10.347209,18.404568 13.1061969,17.7413261 8,20.3984375" id="Path-16"></path>
                        <path d="M19,12.612114 L14.5957031,10" id="Path-17"></path>
                        <polyline id="Path-18" points="81.9023438 0.96875 81.9023438 2.62695312 81.9023438 3.30859375 81.9023438 4.69921875 81.9023438 6.30273438 81.9023438 6.58789062 81.9023438 7.34179688 81.9023438 7.47070312 81.9023438 7.59960938 81.9023438 7.72851562 81.9023438 7.85742188"></polyline>
                        <path d="M73.4785156,7.4375 L70.6933594,13.6855469" id="Path-19"></path>
                        <path d="M77.6503906,12.9433594 L78.8730469,19.7949219" id="Path-20"></path>
                        <path d="M71.6855469,21.6289062 L73.7226562,25.8710938" id="Path-21"></path>
                        <path d="M76.6640625,24.4804688 L76.8066406,30.6289062" id="Path-22"></path>
                        <path d="M67.1347656,11.2929688 L63.2890625,13.4980469" id="Path-23"></path>
                        <path d="M63.546875,21.5800781 C62.391276,23.8216146 61.2356771,26.063151 60.0800781,28.3046875" id="Path-24"></path>
                        <path d="M67.2910156,29.3496094 C65.9140625,30.8541667 64.5371094,32.358724 63.1601562,33.8632812" id="Path-25"></path>
                        <path d="M61,38 L65.9785156,46.6210938" id="Path-26"></path>
                        <path d="M73.875,36.0175781 L76.3515625,43.9902344" id="Path-27"></path>
                        <path d="M72.8027344,49.8828125 L74.9746094,55.7890625" id="Path-28"></path>
                        <path d="M67.5234375,50.1308594 C68.1302083,52.1803385 68.7369792,54.2298177 69.34375,56.2792969" id="Path-29"></path>
                        <path d="M63.7851562,58.9628906 L59.2246094,61.5605469" id="Path-30"></path>
                        <path d="M56.375,54.9472656 L52.296875,58.9511719" id="Path-31"></path>
                        <polyline id="Path-32" transform="translate(57.334961, 46.123047) rotate(-36.000000) translate(-57.334961, -46.123047) " points="60.375 45.6230469 58.1191406 45.6230469 57.9882812 45.6230469 57.3046875 45.6230469 56.8339844 45.6230469 55.8632812 45.6230469 55.1054688 45.6230469 54.9746094 45.6230469 54.7128906 45.6230469 54.5820312 45.6230469 54.2949219 45.6230469"></polyline>
                    </g>
                    <use id="calzones" stroke="#000000" mask="url(#mask-14)" stroke-width="2" fill="#4B476D" xlink:href="#path-13"></use>
                    <path d="M117,460 C123.386151,460.783069 123.148345,465.198558 117.513184,467.148926" id="tobillo-izqdo" stroke="#000000"></path>
                    <path d="M155,453 C161.386151,453.783069 161.148345,458.198558 155.513184,460.148926" id="tobillo-dcho" stroke="#000000" transform="translate(157.382588, 456.574463) scale(-1, 1) translate(-157.382588, -456.574463) "></path>
                </g>
            </g>
            <use id="camiseta" stroke="#000000" mask="url(#mask-17)" stroke-width="2" fill="url(#linearGradient-15)" transform="translate(131.237594, 277.993585) rotate(-10.000000) translate(-131.237594, -277.993585) " xlink:href="#path-16"></use>
            <path d="M247.060059,244.939209 C247.509766,241.769043 248.856201,232.582764 240.407471,227.146973" id="hand-wrenkle" stroke="#000000"></path>
            <g id="brush" transform="translate(266.785569, 255.830060) rotate(-49.000000) translate(-266.785569, -255.830060) translate(244.785569, 214.330060)" stroke="#000000">
                <use id="Rectangle" mask="url(#mask-19)" stroke-width="2" fill="#985D14" transform="translate(33.912141, 8.286344) rotate(-157.000000) translate(-33.912141, -8.286344) " xlink:href="#path-18"></use>
                <path d="M26.3825181,52.4656134 C23.4370127,47.2264149 24.7563804,45.9204787 24.7563804,41.7783431 C24.7563804,37.6362075 21.8335539,34.2783431 18.2280646,34.2783431 C14.6225754,34.2783431 11.0639557,37.7141082 11.6997488,41.7783431 C13.5890427,53.8554389 29.3280236,57.7048119 26.3825181,52.4656134 Z" id="Oval" fill="#D8D8D8" transform="translate(19.187085, 44.515073) rotate(26.000000) translate(-19.187085, -44.515073) "></path>
                <path d="M25.4139267,53.7652789 C22.6848385,47.020687 23.841229,47.9207599 23.841229,43.5202059 C23.841229,42.0670722 19.9240792,43.534808 18.0797408,44.2320726 C17.2709441,44.5378436 17.8274264,41.4324103 14.6190332,41.9440755 C11.41064,42.4557407 15.9555883,45.3834155 15.0583136,46.1872828 C13.1019494,47.939987 13.1108357,46.2657073 11.5662818,49.6245242 C12.3516693,52.0606028 28.1430149,60.5098708 25.4139267,53.7652789 Z" id="Oval-Copy" fill="#E31515" transform="translate(18.648391, 49.105256) rotate(26.000000) translate(-18.648391, -49.105256) "></path>
            </g>
            <path d="M272.999023,232.830078 L266.717673,238.402212 C266.717673,238.402212 263.875139,241.922687 262.289551,241.663086 C259.926947,241.276268 258.342312,241.093258 257.506592,238.754883 C256.850613,236.91943 258.581055,235.713623 260.254639,233.121338 C263.941162,226.905762 269.665527,223.625977 269.13208,223.406494 C268.986802,223.346721 264.722168,225.983887 259.964355,232.790527 C257.237419,235.357038 256.598302,237.400054 254.084473,237.568848 C251.777013,237.723784 249.231939,235.449673 248.772949,233.55127 C248.320318,231.679165 250.571289,228.333984 250.571289,228.333984 L259.943115,214.491699 L250.908203,227.544922 C250.908203,227.544922 248.697966,231.575943 246.582031,231.441406 C244.243865,231.29274 243.006107,229.516356 242,226.978516 C241.210696,224.987547 244.70166,217.202148 248.800293,211.858887" id="fingers-over" stroke="#000000" fill="#FFD688"></path>
            <use id="thumb" stroke="#000000" mask="url(#mask-21)" stroke-width="2" fill="#FFD788" xlink:href="#path-20"></use>
            <g id="cara-variable" transform="translate(115.000000, 102.000000)">
                <path d="M33.3701172,98.0712891 C24.078125,92.5683594 21.6875,93.1220703 12.4902344,85.9511719" id="boca" stroke="#000000"></path>
                <circle id="ojo-dcho" stroke="#000000" fill="#FFFFFF" cx="83.5" cy="20.8559903" r="23.5"></circle>
                <circle id="pupila-dcha" stroke="#6E934F" fill="#000000" cx="77" cy="22" r="4"></circle>
                <path d="M103.847829,-9.8754865 C101.009558,-13.977476 95.1499949,-13.5447494 83.5006755,-13.5447494 C71.8513561,-13.5447494 62.7362128,-8.74660477 62.5572285,-5.72254066" id="ceja-dcha" stroke="#000000" transform="translate(83.202529, -9.640213) rotate(5.000000) translate(-83.202529, 9.640213) "></path>
                <path d="M21.2761534,50.9274909 C37.7558721,50.9274909 51.1153237,37.5680393 51.1153237,21.0883207 C51.1153237,4.60860199 50.4472656,9.48632812 27.9296875,3.87890625 C5.41210938,-1.72851563 -8.56301683,4.60860199 -8.56301683,21.0883207 C-8.56301683,37.5680393 4.79643474,50.9274909 21.2761534,50.9274909 Z" id="ojo-izqdo" stroke="#000000" fill="#FFFFFF"></path>
                <circle id="pupila-izqda" stroke="#6E934F" fill="#000000" cx="25.4369832" cy="25.2491504" r="4"></circle>
                <path d="M42.7426472,-5.42370115 C38.3910847,-11.7127637 35.0635556,-11.3671875 17.203125,-11.3671875 C-0.657305555,-11.3671875 -12.0693359,-23.6793844 -12.34375,-19.0429688" id="ceja-izqda" stroke="#000000"></path>
                <use id="nariz" stroke="#000000" mask="url(#mask-23)" stroke-width="2" fill="#FFD788" transform="translate(73.790519, 41.867806) rotate(-6.000000) translate(-73.790519, -41.867806) " xlink:href="#path-22"></use>
            </g>
            <use id="antebrazo-over" stroke="#000000" mask="url(#mask-25)" stroke-width="2" fill="#FFD788" transform="translate(106.023130, 299.536370) rotate(8.000000) translate(-106.023130, -299.536370) " xlink:href="#path-24"></use>
            <g id="paleta" transform="translate(76.000000, 246.000000)" stroke="#000000">
                <path d="M95.9186598,28.6364591 C101.740838,32.0549413 95.2792477,34.7792294 87.9987379,45.4079435 C80.7182282,56.0366576 74.88032,60.8387036 63.4304312,66.6991756 C51.9805425,72.5596477 18.6309402,82.5927724 8.88985846,58.6834805 C5.12475227,49.4421021 11.3203039,44.3696665 18.8366888,38.2033531 C26.3530736,32.0370397 47.8003361,21.3266303 56.5642452,19.1023519 C68.5499137,16.0603917 81.3809273,12.838818 85.6198317,17.2809904 C89.8587361,21.7231628 72.4903817,24.3739856 71.0553786,29.228256 C69.6203754,34.0825264 64.3107338,39.5251752 72.4362379,39.3317716 C80.561742,39.138368 90.096482,25.2179769 95.9186598,28.6364591 Z" id="Path-3" fill="#DFC95C" transform="translate(52.964686, 44.482127) rotate(22.000000) translate(-52.964686, -44.482127) "></path>
                <use id="Oval-2" mask="url(#mask-27)" stroke-width="2" fill="#FFD788" xlink:href="#path-26"></use>
                <path d="M29.7261876,51.7880694 C27.8158855,51.7880694 26.6783169,54.5557985 25.9055834,53.9511884 C25.13285,53.3465783 21.8144369,54.0229657 21.2241211,52.0664062 C20.6338053,50.1098468 23.2491623,47.1032302 23.5443202,46.1249505 C23.8036894,45.2652899 23.1875757,44.1668762 24.6953125,43.6181641 C26.2030493,43.069452 26.632432,42.6695706 26.8198242,42.5229492 C28.3652911,41.313729 28.7710365,41.2880694 29.7261876,41.2880694 C30.6813386,41.2880694 30.7504316,39.6452719 32.2958984,40.8544922 C33.8413653,42.0637124 35.612897,45.1466707 35.9080549,46.1249505 C36.2032128,47.1032302 33.4074371,47.4130694 32.8171213,49.3696289 C32.2268055,51.3261884 34.3195251,53.3465783 33.5467917,53.9511884 C32.7740583,54.5557985 31.6364897,51.7880694 29.7261876,51.7880694 Z" id="Star" fill="#E31616"></path>
                <path d="M65.5885225,60.3777855 C63.6782204,60.3777855 62.5406518,63.1455146 61.7679184,62.5409044 C60.9951849,61.9362943 57.6767718,62.6126818 57.086456,60.6561223 C56.4961402,58.6995628 59.1114972,55.6929463 59.4066551,54.7146665 C59.6660243,53.855006 59.0499106,52.7565922 60.5576474,52.2078801 C62.0653842,51.659168 62.4947669,51.2592866 62.6821591,51.1126653 C64.227626,49.903445 64.6333715,49.8777855 65.5885225,49.8777855 C66.5436735,49.8777855 66.6127665,48.234988 68.1582333,49.4442083 C69.7037002,50.6534285 71.4752319,53.7363868 71.7703899,54.7146665 C72.0655478,55.6929463 69.269772,56.0027855 68.6794562,57.959345 C68.0891404,59.9159044 70.1818601,61.9362943 69.4091266,62.5409044 C68.6363932,63.1455146 67.4988246,60.3777855 65.5885225,60.3777855 Z" id="Star-Copy" fill="#407D0C" transform="translate(64.396072, 55.813638) scale(-1, -1) translate(-64.396072, -55.813638) "></path>
                <path d="M46.975173,62.6751913 C45.1525787,62.6751913 45.6874989,65.5361263 44.9502441,64.9315161 C44.2129893,64.326906 40.1599697,65.9151832 39.5967571,63.9586237 C39.0335445,62.0020642 40.7955279,57.9903521 41.0771342,57.0120723 C41.3245949,56.1524117 40.7367689,55.053998 42.1752809,54.5052859 C43.6137928,53.9565738 44.0234613,53.5566924 44.2022497,53.4100711 C45.6767594,52.2008508 46.0638759,52.1751913 46.975173,52.1751913 C47.8864701,52.1751913 47.9523908,50.5323938 49.4269005,51.741614 C50.9014102,52.9508343 51.6295857,54.5579908 51.911192,55.5362705 C52.1927983,56.5145503 50.4874049,58.3001913 49.9241923,60.2567508 C49.3609798,62.2133102 48.7977672,62.6751913 46.975173,62.6751913 Z" id="Star-Copy-3" fill="#4B9FD0" transform="translate(45.714379, 58.156417) scale(-1, -1) rotate(62.000000) translate(-45.714379, -58.156417) "></path>
                <path d="M33.760439,34.6263158 C31.850137,34.6263158 28.9506608,35.0404759 28.1779274,34.4358657 C27.405194,33.8312556 22.773126,33.6434018 22.1828102,31.6868423 C21.5924944,29.7302828 27.2834138,29.9414766 27.5785717,28.9631969 C27.8379408,28.1035363 27.2218271,27.0051226 28.7295639,26.4564105 C30.2373007,25.9076984 30.6666835,25.507817 30.8540757,25.3611956 C32.3995425,24.1519754 36.1094951,27.7205337 37.0646462,27.7205337 C38.0197972,27.7205337 40.6808004,25.3653174 42.2262673,26.5745376 C43.7717341,27.7837579 43.5194883,28.9282891 43.8146462,29.9065689 C44.1098041,30.8848486 37.4416885,30.2513158 36.8513727,32.2078753 C36.2610569,34.1644348 35.6707411,34.6263158 33.760439,34.6263158 Z" id="Star-Copy-2" fill="#FFFFFF" transform="translate(32.982030, 29.937904) scale(-1, -1) translate(-32.982030, -29.937904) "></path>
            </g>
            <g id="boina" transform="translate(64.501218, 28.534878) rotate(-6.000000) translate(-64.501218, -28.534878) translate(-33.998782, -51.965122)" stroke="#000000" stroke-width="2" fill="#1F1F4D">
                <use id="Combined-Shape" mask="url(#mask-29)" transform="translate(98.745925, 80.252682) rotate(-30.000000) translate(-98.745925, -80.252682) " xlink:href="#path-28"></use>
            </g>
            <use id="Rectangle-18-Copy-19" stroke="#4B83AA" mask="url(#mask-31)" stroke-width="20" xlink:href="#path-30"></use>
        </g>
    </g>
</svg>